<?xml version="1.0" encoding="UTF-8"?>
<svg version="1.1" xmlns="http://www.w3.org/2000/svg" width="80" height="80">
<path d="M0 0 C26.4 0 52.8 0 80 0 C80 26.4 80 52.8 80 80 C53.6 80 27.2 80 0 80 C0 53.6 0 27.2 0 0 Z " fill="#844535" transform="translate(0,0)"/>
<path d="M0 0 C17.16 0 34.32 0 52 0 C50 4 50 4 48.25 5.25 C46 6 46 6 43.0625 5.9375 C39.4549896 6.01112266 37.96857473 7.04699031 35 9 C34.38125 9.144375 33.7625 9.28875 33.125 9.4375 C29.74185411 10.33303862 26.94200197 12.14263972 24 14 C23.01 14.61875 23.01 14.61875 22 15.25 C20.61653509 17.20461001 20.61653509 17.20461001 21.875 20.5625 C22.40010711 23.69031189 22.20942332 24.69298135 20.390625 27.359375 C18.83416909 29.04464105 17.2460782 30.70106514 15.6328125 32.33203125 C12.90339955 35.09789036 10.45074768 37.98581676 8 41 C6.88625 42.36125 6.88625 42.36125 5.75 43.75 C3.98365699 45.86925591 3.98365699 45.86925591 3 48 C3.52730713 48.20568604 4.05461426 48.41137207 4.59790039 48.62329102 C13.38817874 52.06404349 22.13271465 55.49436719 30.625 59.625 C36.90437823 62.64075402 43.27042704 64.90636133 49.92431641 66.95947266 C53.98087625 68.22856909 57.43475985 69.60438409 61 72 C61.185625 70.6696875 61.185625 70.6696875 61.375 69.3125 C61.95207876 66.25398258 62.57873595 63.76356898 64 61 C67 60 67 60 69 60 C69.14099121 59.37432129 69.28198242 58.74864258 69.42724609 58.10400391 C70.06896986 55.27589943 70.72183634 52.45048327 71.375 49.625 C71.59671875 48.64015625 71.8184375 47.6553125 72.046875 46.640625 C72.26601562 45.69960938 72.48515625 44.75859375 72.7109375 43.7890625 C72.90993652 42.91975098 73.10893555 42.05043945 73.31396484 41.15478516 C74 39 74 39 76 37 C76 38.65 76 40.3 76 42 C76.99 39.03 77.98 36.06 79 33 C79.33 33 79.66 33 80 33 C80 48.51 80 64.02 80 80 C53.6 80 27.2 80 0 80 C0 53.6 0 27.2 0 0 Z " fill="#5A2419" transform="translate(0,0)"/>
<path d="M0 0 C0.33 0 0.66 0 1 0 C1 15.51 1 31.02 1 47 C-5.81565487 47.16124155 -12.62462686 47.30040836 -19.44067383 47.38452148 C-21.75600676 47.41959984 -24.07118601 47.46727681 -26.38598633 47.52807617 C-29.72515875 47.61354864 -33.06227234 47.65281595 -36.40234375 47.68359375 C-37.42770737 47.71972275 -38.45307098 47.75585175 -39.50950623 47.79307556 C-46.38822312 47.7967854 -50.15451633 46.20267382 -55.4389801 41.80018616 C-57 40 -57 40 -57 37 C-58.98 37.495 -58.98 37.495 -61 38 C-62.125 35.6875 -62.125 35.6875 -63 33 C-62.34 32.01 -61.68 31.02 -61 30 C-58.3984375 29.70703125 -58.3984375 29.70703125 -55.375 29.8125 C-53.87066406 29.85310547 -53.87066406 29.85310547 -52.3359375 29.89453125 C-51.56507812 29.92933594 -50.79421875 29.96414062 -50 30 C-50.88042969 29.67386719 -51.76085937 29.34773438 -52.66796875 29.01171875 C-53.82941406 28.57472656 -54.99085937 28.13773438 -56.1875 27.6875 C-57.33605469 27.25824219 -58.48460937 26.82898438 -59.66796875 26.38671875 C-62.65856977 25.14209582 -65.28007869 23.74669146 -68 22 C-67.505 20.515 -67.505 20.515 -67 19 C-61.03255024 20.73598539 -55.62732419 23.09275341 -50.0625 25.8125 C-43.19532139 29.15497289 -36.27748243 31.77202021 -28.97680664 34.0090332 C-24.9488958 35.25891668 -21.53974117 36.6239139 -18 39 C-17.814375 37.6696875 -17.814375 37.6696875 -17.625 36.3125 C-17.04792124 33.25398258 -16.42126405 30.76356898 -15 28 C-12 27 -12 27 -10 27 C-9.85900879 26.37432129 -9.71801758 25.74864258 -9.57275391 25.10400391 C-8.93103014 22.27589943 -8.27816366 19.45048327 -7.625 16.625 C-7.29242188 15.14773437 -7.29242188 15.14773437 -6.953125 13.640625 C-6.62441406 12.22910156 -6.62441406 12.22910156 -6.2890625 10.7890625 C-6.09006348 9.91975098 -5.89106445 9.05043945 -5.68603516 8.15478516 C-5 6 -5 6 -3 4 C-3 5.65 -3 7.3 -3 9 C-2.01 6.03 -1.02 3.06 0 0 Z " fill="#5F3C3A" transform="translate(79,33)"/>
<path d="M0 0 C13.50601295 -0.20259019 13.50601295 -0.20259019 20 1 C20.66 1.66 21.32 2.32 22 3 C21.59308332 8.50039105 20.11711155 13.70655665 18.625 19 C18.41617188 19.76828125 18.20734375 20.5365625 17.9921875 21.328125 C16.66458462 26.08806705 15.00033879 30.48399968 13 35 C12.57062166 36.30191187 12.16404385 37.61245011 11.8125 38.9375 C11.544375 39.948125 11.27625 40.95875 11 42 C1.78477129 40.35442344 -7.61176879 37.1941156 -16 33 C-15.44271087 29.65626525 -14.64826111 26.96687001 -13 24 C-10.69 24.33 -8.38 24.66 -6 25 C-7.32 24.01 -8.64 23.02 -10 22 C-9.41906978 17.67087614 -7.83502309 14.70407089 -5.5625 11 C-3.36194808 7.39826158 -1.45161675 3.96823876 0 0 Z " fill="#DDDAC0" transform="translate(48,28)"/>
<path d="M0 0 C5.78100487 1.39400117 11.29760561 3.96599174 16.6875 6.4375 C16.16188462 11.58246589 13.585576 15.32080604 10.9375 19.625 C7.22951391 25.77481448 3.76728635 31.94473919 0.6875 38.4375 C-5.58694779 36.41357539 -11.74234439 34.16773007 -17.875 31.75 C-18.69291016 31.42966797 -19.51082031 31.10933594 -20.35351562 30.77929688 C-22.34063622 30.00071746 -24.32668427 29.21940155 -26.3125 28.4375 C-26.3125 25.00720499 -25.96006158 24.66516279 -23.78515625 22.21484375 C-23.2447168 21.59802734 -22.70427734 20.98121094 -22.14746094 20.34570312 C-21.56254883 19.69537109 -20.97763672 19.04503906 -20.375 18.375 C-19.1729689 17.03013396 -17.97114671 15.68508117 -16.76953125 14.33984375 C-16.17736816 13.67968262 -15.58520508 13.01952148 -14.97509766 12.33935547 C-13.50840751 10.66159978 -12.12242973 8.95516748 -10.76171875 7.19140625 C-4.80595641 -0.26651994 -4.80595641 -0.26651994 0 0 Z " fill="#DDD8BE" transform="translate(29.3125,20.5625)"/>
<path d="M0 0 C4.29 0 8.58 0 13 0 C13.07479497 4.53487644 13.12890262 9.06938482 13.16479492 13.60473633 C13.17977543 15.14386255 13.2001671 16.68294688 13.22631836 18.22192383 C13.49240064 34.29642378 13.49240064 34.29642378 10 42 C9.34 42.66 8.68 43.32 8 44 C8 42.35 8 40.7 8 39 C6.02 46.92 4.04 54.84 2 63 C1.01 62.34 0.02 61.68 -1 61 C-1.66 61 -2.32 61 -3 61 C-3.12375 61.70125 -3.2475 62.4025 -3.375 63.125 C-4.03838345 66.17656387 -4.97211955 69.05340938 -6 72 C-7.32 71.34 -8.64 70.68 -10 70 C-9.34 70 -8.68 70 -8 70 C-7.90203125 69.40574219 -7.8040625 68.81148438 -7.703125 68.19921875 C-6.67854649 62.51987405 -5.12590647 57.33275282 -3.0859375 51.94140625 C-1.88671055 48.69314045 -0.79909123 45.42480113 0.25 42.125 C0.58515625 41.07570312 0.9203125 40.02640625 1.265625 38.9453125 C1.96494137 36.14060749 2.22656978 33.87331681 2 31 C0.50256881 29.50256881 -0.98824239 29.66797307 -3.0625 29.4375 C-4.361875 29.293125 -5.66125 29.14875 -7 29 C-7 28.01 -7 27.02 -7 26 C-8.175625 25.566875 -8.175625 25.566875 -9.375 25.125 C-12 24 -12 24 -14 22 C-14.125 18.875 -14.125 18.875 -14 16 C-13.67 16.66 -13.34 17.32 -13 18 C-12.01 18.33 -11.02 18.66 -10 19 C-10 20.65 -10 22.3 -10 24 C-8.02 24 -6.04 24 -4 24 C-3.34 20.37 -2.68 16.74 -2 13 C-5.3 13 -8.6 13 -12 13 C-12 12.34 -12 11.68 -12 11 C-8.7 10.67 -5.4 10.34 -2 10 C-1.67 8.68 -1.34 7.36 -1 6 C-0.01 5.34 0.98 4.68 2 4 C1.34 3.67 0.68 3.34 0 3 C0 2.01 0 1.02 0 0 Z " fill="#905241" transform="translate(67,0)"/>
<path d="M0 0 C0.99 0.33 1.98 0.66 3 1 C2.814375 1.763125 2.62875 2.52625 2.4375 3.3125 C1.77180827 6.08967375 1.77180827 6.08967375 3 9 C7.38309295 11.19154647 11.93262776 12.65922853 16.58203125 14.1796875 C19.24592915 15.08343315 21.87493833 16.05142061 24.5 17.0625 C25.75296875 17.54396484 25.75296875 17.54396484 27.03125 18.03515625 C29 19 29 19 30 21 C26.04 21 22.08 21 18 21 C17.67 21.99 17.34 22.98 17 24 C17.66 24.99 18.32 25.98 19 27 C19.99 27 20.98 27 22 27 C22 27.99 22 28.98 22 30 C22.556875 30.226875 23.11375 30.45375 23.6875 30.6875 C26 32 26 32 31 37 C20.77 37 10.54 37 0 37 C0 24.79 0 12.58 0 0 Z " fill="#0C0908" transform="translate(0,43)"/>
<path d="M0 0 C7.92 0 15.84 0 24 0 C22.35 1.32 20.7 2.64 19 4 C18.113125 4.7425 17.22625 5.485 16.3125 6.25 C14 8 14 8 12 8 C11.938125 8.5775 11.87625 9.155 11.8125 9.75 C11 12 11 12 8.625 13.875 C4.45432493 17.25126077 3.2375123 20.66129431 2.3125 25.875 C2.209375 26.90625 2.10625 27.9375 2 29 C2.99 28.34 3.98 27.68 5 27 C4.01 29.475 4.01 29.475 3 32 C2.01 32 1.02 32 0 32 C0 21.44 0 10.88 0 0 Z " fill="#050507" transform="translate(0,0)"/>
<path d="M0 0 C1.65 0 3.3 0 5 0 C4.88590407 1.45922693 4.75834456 2.91740598 4.625 4.375 C4.55539063 5.18710937 4.48578125 5.99921875 4.4140625 6.8359375 C4 9 4 9 2 11 C2 9.35 2 7.7 2 6 C0.02 13.92 -1.96 21.84 -4 30 C-4.99 29.34 -5.98 28.68 -7 28 C-7.66 28 -8.32 28 -9 28 C-9.12375 28.70125 -9.2475 29.4025 -9.375 30.125 C-10.03838345 33.17656387 -10.97211955 36.05340938 -12 39 C-13.32 38.34 -14.64 37.68 -16 37 C-15.34 37 -14.68 37 -14 37 C-13.90203125 36.40574219 -13.8040625 35.81148437 -13.703125 35.19921875 C-12.67910742 29.52298334 -11.14406176 24.33554524 -9.07421875 18.95703125 C-7.47761819 14.56202535 -6.26307855 10.06273292 -5.02734375 5.5546875 C-4.68832031 4.71164063 -4.34929687 3.86859375 -4 3 C-3.01 2.67 -2.02 2.34 -1 2 C-0.67 1.34 -0.34 0.68 0 0 Z " fill="#745F52" transform="translate(73,33)"/>
<path d="M0 0 C0.33 0 0.66 0 1 0 C1 5.61 1 11.22 1 17 C-0.32 17.33 -1.64 17.66 -3 18 C-3.25394531 18.98742187 -3.50789063 19.97484375 -3.76953125 20.9921875 C-4.11658896 22.28661896 -4.46427821 23.58088121 -4.8125 24.875 C-5.14894531 26.15117188 -5.48539062 27.42734375 -5.83203125 28.7421875 C-7 32 -7 32 -10 34 C-10.32810096 27.75744752 -9.11034766 22.23319877 -7.625 16.1875 C-7.29242188 14.75760742 -7.29242188 14.75760742 -6.953125 13.29882812 C-5.25607639 6.25607639 -5.25607639 6.25607639 -3 4 C-3 5.65 -3 7.3 -3 9 C-2.01 6.03 -1.02 3.06 0 0 Z " fill="#38312E" transform="translate(79,33)"/>
<path d="M0 0 C0.78375 0.185625 1.5675 0.37125 2.375 0.5625 C4.97089775 1.25962266 4.97089775 1.25962266 7 0 C7 1.32 7 2.64 7 4 C5.35 4.66 3.7 5.32 2 6 C1.23477199 9.35458155 1.23477199 9.35458155 1 13 C2.29264699 14.96431405 2.29264699 14.96431405 4 16 C0.9494479 17.56438569 -1.06927196 18.29359551 -4.40234375 17.2421875 C-6.6448225 16.22899805 -8.83302695 15.16534995 -11 14 C-7.46386286 9.21224044 -3.85516296 4.53548584 0 0 Z " fill="#C7B99C" transform="translate(13,34)"/>
<path d="M0 0 C16.50704513 3.58486334 16.50704513 3.58486334 20.7421875 6.77734375 C21.46875 8.90625 21.46875 8.90625 21.7421875 10.77734375 C12.05185256 9.87591724 2.75131318 6.31033421 -6.2578125 2.77734375 C-4.31072715 -0.11443856 -3.55293817 -0.24282671 0 0 Z " fill="#23201B" transform="translate(36.2578125,63.22265625)"/>
<path d="M0 0 C1.32 0 2.64 0 4 0 C3.67 1.65 3.34 3.3 3 5 C6.3 5 9.6 5 13 5 C12.125 12.625 12.125 12.625 11 16 C9.02 16 7.04 16 5 16 C4.896875 15.236875 4.79375 14.47375 4.6875 13.6875 C4.2656184 10.98262475 4.2656184 10.98262475 2.5 9.6875 C0.01452219 6.89133747 0.29976943 3.65718707 0 0 Z " fill="#B28F7D" transform="translate(52,8)"/>
<path d="M0 0 C4.62 0 9.24 0 14 0 C14 0.99 14 1.98 14 3 C14.99 3.33 15.98 3.66 17 4 C16.0409375 4.6496875 16.0409375 4.6496875 15.0625 5.3125 C12.73253997 6.91239177 12.73253997 6.91239177 12 10 C9.04335481 11.4783226 6.25770263 11.06032783 3 11 C3 10.01 3 9.02 3 8 C2.01 7.67 1.02 7.34 0 7 C2.64 6.34 5.28 5.68 8 5 C7.67 4.34 7.34 3.68 7 3 C6.01 3.495 6.01 3.495 5 4 C3.33380554 4.0396713 1.66608987 4.04384447 0 4 C0 2.68 0 1.36 0 0 Z " fill="#9D694D" transform="translate(53,0)"/>
<path d="M0 0 C2.64 0.33 5.28 0.66 8 1 C7.401875 1.185625 6.80375 1.37125 6.1875 1.5625 C3.51031029 3.3217961 2.99859843 5.12769046 1.82299805 8.02368164 C0.48274506 11.24211768 -1.11199935 14.32925759 -2.6875 17.4375 C-3.00783203 18.07365234 -3.32816406 18.70980469 -3.65820312 19.36523438 C-4.43694422 20.91109357 -5.21820334 22.45568387 -6 24 C-5.071875 24.433125 -5.071875 24.433125 -4.125 24.875 C-2 26 -2 26 0 28 C-6.75 27.125 -6.75 27.125 -9 26 C-9.99 28.97 -10.98 31.94 -12 35 C-12.99 34.34 -13.98 33.68 -15 33 C-10.35267014 24.17501723 -5.59227058 15.44389242 -0.56640625 6.828125 C1.08497028 4.05012177 1.08497028 4.05012177 2 1 C1.34 0.67 0.68 0.34 0 0 Z " fill="#977A5E" transform="translate(44,26)"/>
<path d="M0 0 C0.66 0 1.32 0 2 0 C0.58338472 6.89183333 -1.32388202 13.49980689 -3.5 20.1875 C-3.80808594 21.14591797 -4.11617187 22.10433594 -4.43359375 23.09179688 C-5.92946852 27.73671273 -7.44518556 32.37442703 -9 37 C-10.32 36.34 -11.64 35.68 -13 35 C-12.34 35 -11.68 35 -11 35 C-10.90203125 34.40574219 -10.8040625 33.81148437 -10.703125 33.19921875 C-9.67931758 27.52414829 -8.13774618 22.33884675 -6.08203125 16.95703125 C-4.46891729 12.54862956 -3.16108745 8.05547543 -1.83203125 3.5546875 C-1 1 -1 1 0 0 Z " fill="#4D9286" transform="translate(70,35)"/>
<path d="M0 0 C0.66 0.33 1.32 0.66 2 1 C1.360625 1.2475 0.72125 1.495 0.0625 1.75 C-0.618125 2.1625 -1.29875 2.575 -2 3 C-2.2165625 3.928125 -2.2165625 3.928125 -2.4375 4.875 C-3 7 -3 7 -5.375 8.875 C-9.54567507 12.25126077 -10.7624877 15.66129431 -11.6875 20.875 C-11.790625 21.90625 -11.89375 22.9375 -12 24 C-11.01 23.34 -10.02 22.68 -9 22 C-9.99 24.475 -9.99 24.475 -11 27 C-11.99 27 -12.98 27 -14 27 C-14 21.06 -14 15.12 -14 9 C-13.34 9 -12.68 9 -12 9 C-12 8.34 -12 7.68 -12 7 C-11.46890625 6.74605469 -10.9378125 6.49210938 -10.390625 6.23046875 C-6.6675828 4.41650476 -3.20237785 2.6686482 0 0 Z " fill="#1C0F0A" transform="translate(14,5)"/>
<path d="M0 0 C3.69274513 0.81149214 7.15369562 2.10391425 10.6875 3.4375 C11.84636719 3.86933594 13.00523438 4.30117188 14.19921875 4.74609375 C17 6 17 6 18 8 C13.33333333 7.33333333 8.66666667 6.66666667 4 6 C3.67 7.65 3.34 9.3 3 11 C0.03 10.01 -2.94 9.02 -6 8 C-6 7.01 -6 6.02 -6 5 C-4.36368108 3.95107762 -2.69514137 2.95093297 -1 2 C-0.67 1.34 -0.34 0.68 0 0 Z " fill="#1B100B" transform="translate(12,56)"/>
<path d="M0 0 C2.33944736 0.28730055 4.6739143 0.61936779 7 1 C7 1.33 7 1.66 7 2 C5.35 2.33 3.7 2.66 2 3 C1.67 3.99 1.34 4.98 1 6 C1.99 7.485 1.99 7.485 3 9 C3.99 9 4.98 9 6 9 C6 9.99 6 10.98 6 12 C6.556875 12.226875 7.11375 12.45375 7.6875 12.6875 C10.63246684 14.35896766 12.68156544 16.55276352 15 19 C12.35255369 19.4689762 10.60070179 19.38204426 8.30712891 17.92333984 C6.41934958 16.39960646 4.61037182 14.81629297 2.8125 13.1875 C2.18408203 12.64029297 1.55566406 12.09308594 0.90820312 11.52929688 C-1.83896474 9.10532523 -3.94876403 7.07685396 -6 4 C-4.68 4.33 -3.36 4.66 -2 5 C-1.855625 4.360625 -1.71125 3.72125 -1.5625 3.0625 C-1 1 -1 1 0 0 Z " fill="#4C1F1C" transform="translate(16,61)"/>
<path d="M0 0 C10.49847982 3.05410322 20.25427844 8.1075695 30 13 C29.38511719 12.91621094 28.77023438 12.83242187 28.13671875 12.74609375 C27.32847656 12.64425781 26.52023438 12.54242188 25.6875 12.4375 C24.88699219 12.33308594 24.08648437 12.22867188 23.26171875 12.12109375 C20.83182884 11.85244822 20.83182884 11.85244822 18 13 C17.67 13.99 17.34 14.98 17 16 C16.34 15.67 15.68 15.34 15 15 C15.66 13.68 16.32 12.36 17 11 C16.11957031 10.67386719 15.23914063 10.34773438 14.33203125 10.01171875 C13.17058594 9.57472656 12.00914063 9.13773438 10.8125 8.6875 C9.66394531 8.25824219 8.51539063 7.82898437 7.33203125 7.38671875 C4.34143023 6.14209582 1.71992131 4.74669146 -1 3 C-0.67 2.01 -0.34 1.02 0 0 Z " fill="#603C32" transform="translate(12,52)"/>
<path d="M0 0 C0.66 0.33 1.32 0.66 2 1 C1.33854315 6.66419943 0.01244028 11.96270761 -1.5625 17.4375 C-1.79646484 18.26443359 -2.03042969 19.09136719 -2.27148438 19.94335938 C-2.84363015 21.96338426 -3.42125204 23.98185676 -4 26 C-6.33487708 22.49768438 -6.10337858 20.7558436 -5.5546875 16.6875 C-4.3819523 11.00551538 -2.59972273 5.19944545 0 0 Z " fill="#D8D1B6" transform="translate(68,30)"/>
<path d="M0 0 C-2.97788495 3.1977903 -6.18513423 4.91262062 -10 7 C-10 6.34 -10 5.68 -10 5 C-10.61488281 5.44472656 -11.22976562 5.88945313 -11.86328125 6.34765625 C-13.07564453 7.19650391 -13.07564453 7.19650391 -14.3125 8.0625 C-15.11300781 8.63097656 -15.91351563 9.19945312 -16.73828125 9.78515625 C-17.48464844 10.18605469 -18.23101563 10.58695313 -19 11 C-19.99 10.67 -20.98 10.34 -22 10 C-21.4375 8.1875 -21.4375 8.1875 -20 6 C-17.69631264 4.93347808 -15.35981813 3.93578995 -13 3 C-12.38125 2.443125 -11.7625 1.88625 -11.125 1.3125 C-7.67471922 -0.81855577 -3.95213923 -0.22800803 0 0 Z " fill="#7E4224" transform="translate(37,0)"/>
<path d="M0 0 C1.23556641 0.01740234 1.23556641 0.01740234 2.49609375 0.03515625 C3.32238281 0.04417969 4.14867188 0.05320313 5 0.0625 C5.63808594 0.07410156 6.27617188 0.08570313 6.93359375 0.09765625 C5.15234375 3.94140625 5.15234375 3.94140625 3.18359375 5.34765625 C0.93359375 6.09765625 0.93359375 6.09765625 -2.00390625 6.03515625 C-5.58183143 6.10817513 -7.13719319 7.14484755 -10.06640625 9.09765625 C-10.72640625 9.09765625 -11.38640625 9.09765625 -12.06640625 9.09765625 C-12.06640625 8.43765625 -12.06640625 7.77765625 -12.06640625 7.09765625 C-10.1328125 5.625 -10.1328125 5.625 -7.62890625 4.03515625 C-1.43018915 0.06758928 -1.43018915 0.06758928 0 0 Z " fill="#6F3E32" transform="translate(45.06640625,-0.09765625)"/>
<path d="M0 0 C0.78375 0.185625 1.5675 0.37125 2.375 0.5625 C4.97089775 1.25962266 4.97089775 1.25962266 7 0 C7 1.32 7 2.64 7 4 C6.319375 4.226875 5.63875 4.45375 4.9375 4.6875 C1.82228125 6.07940625 -0.57516624 7.79406703 -3.25390625 9.87890625 C-5.15673796 11.10063489 -6.79277175 11.57014592 -9 12 C-6 8 -3 4 0 0 Z " fill="#CCC2A7" transform="translate(13,34)"/>
<path d="M0 0 C0.66 0.33 1.32 0.66 2 1 C0.83463251 2.16536749 -0.33191751 3.32957284 -1.50390625 4.48828125 C-2.53270209 5.52782169 -3.53963185 6.58931662 -4.52734375 7.66796875 C-5.9436574 9.18519024 -7.4686484 10.5989762 -9 12 C-10.32 12 -11.64 12 -13 12 C-12.40716379 8.60807637 -11.23256811 6.7892243 -8.9375 4.25 C-8.38964844 3.63640625 -7.84179688 3.0228125 -7.27734375 2.390625 C-6.85582031 1.93171875 -6.43429688 1.4728125 -6 1 C-4.68 1.66 -3.36 2.32 -2 3 C-1.34 2.01 -0.68 1.02 0 0 Z " fill="#D7CDB2" transform="translate(27,24)"/>
<path d="M0 0 C0.66 0.33 1.32 0.66 2 1 C-0.475 4.465 -0.475 4.465 -3 8 C1.455 9.98 1.455 9.98 6 12 C6 13.32 6 14.64 6 16 C4.53633658 15.60246179 3.0791065 15.18118616 1.625 14.75 C0.81289062 14.51796875 0.00078125 14.2859375 -0.8359375 14.046875 C-3 13 -3 13 -4.30859375 11.0546875 C-5.21395202 8.36418779 -4.7804343 6.69604577 -4 4 C-3.67 3.34 -3.34 2.68 -3 2 C-2.01 2 -1.02 2 0 2 C0 1.34 0 0.68 0 0 Z " fill="#3C2115" transform="translate(6,40)"/>
<path d="M0 0 C2.97 0 5.94 0 9 0 C9.33 0.99 9.66 1.98 10 3 C7.36 3.33 4.72 3.66 2 4 C2 5.65 2 7.3 2 9 C4.31 9 6.62 9 9 9 C5.91190305 10.76462683 4.76687864 11 1 11 C0.67 7.37 0.34 3.74 0 0 Z " fill="#BFAC91" transform="translate(40,13)"/>
<path d="M0 0 C0.99 0.66 1.98 1.32 3 2 C2.40836381 6.83169556 1.62343024 11.40028099 0 16 C-0.99 16.66 -1.98 17.32 -3 18 C-3.42765417 11.58518742 -1.85743168 6.11404596 0 0 Z " fill="#2A2426" transform="translate(72,49)"/>
<path d="M0 0 C1.32 0 2.64 0 4 0 C3.67 1.65 3.34 3.3 3 5 C4.65 5.33 6.3 5.66 8 6 C7.67 7.65 7.34 9.3 7 11 C5.35 10.67 3.7 10.34 2 10 C1.34 6.7 0.68 3.4 0 0 Z " fill="#BCAD98" transform="translate(52,8)"/>
<path d="M0 0 C2.46800047 1.15173355 4.04783565 2.04783565 6 4 C6.125 6.625 6.125 6.625 6 9 C4.02 9 2.04 9 0 9 C-0.87890625 2.84765625 -0.87890625 2.84765625 -1 1 C-0.67 0.67 -0.34 0.34 0 0 Z " fill="#41525A" transform="translate(10,70)"/>
<path d="M0 0 C1.65 0 3.3 0 5 0 C4.88590407 1.45922693 4.75834456 2.91740598 4.625 4.375 C4.55539063 5.18710937 4.48578125 5.99921875 4.4140625 6.8359375 C4 9 4 9 2 11 C2 9.35 2 7.7 2 6 C1.34 8.64 0.68 11.28 0 14 C-0.33 14 -0.66 14 -1 14 C-1.02705729 12.22925083 -1.04642195 10.45838289 -1.0625 8.6875 C-1.07410156 7.70136719 -1.08570312 6.71523438 -1.09765625 5.69921875 C-1 3 -1 3 0 0 Z " fill="#7E564E" transform="translate(73,33)"/>
<path d="M0 0 C-0.33 0.99 -0.66 1.98 -1 3 C-7.0018137 3.21824777 -12.19233704 2.5056904 -18 1 C-18 0.67 -18 0.34 -18 0 C-11.76817361 -1.03863773 -6.25307239 -0.83288874 0 0 Z " fill="#411E16" transform="translate(61,25)"/>
<path d="M0 0 C0.33 0.66 0.66 1.32 1 2 C0.34 2 -0.32 2 -1 2 C-1 3.65 -1 5.3 -1 7 C-3.31 7 -5.62 7 -8 7 C-8 5.35 -8 3.7 -8 2 C-5.36 1.34 -2.72 0.68 0 0 Z " fill="#927C65" transform="translate(50,15)"/>
<path d="M0 0 C1.98 0 3.96 0 6 0 C6 2.97 6 5.94 6 9 C4.68 8.34 3.36 7.68 2 7 C2 6.01 2 5.02 2 4 C1.34 4 0.68 4 0 4 C0 2.68 0 1.36 0 0 Z " fill="#3F2218" transform="translate(74,0)"/>
<path d="M0 0 C1.23556641 0.01740234 1.23556641 0.01740234 2.49609375 0.03515625 C3.32238281 0.04417969 4.14867187 0.05320313 5 0.0625 C5.63808594 0.07410156 6.27617187 0.08570313 6.93359375 0.09765625 C6.29421875 0.51015625 5.65484375 0.92265625 4.99609375 1.34765625 C2.72368444 3.27576112 2.33162936 4.21189806 1.93359375 7.09765625 C-0.04640625 6.43765625 -2.02640625 5.77765625 -4.06640625 5.09765625 C-2.94676868 0.13926128 -2.94676868 0.13926128 0 0 Z " fill="#33120E" transform="translate(12.06640625,59.90234375)"/>
<path d="M0 0 C5.03860558 0.49157128 9.33290441 2.1492552 14 4 C14 4.33 14 4.66 14 5 C13.38511719 4.91621094 12.77023438 4.83242187 12.13671875 4.74609375 C11.32847656 4.64425781 10.52023438 4.54242188 9.6875 4.4375 C8.88699219 4.33308594 8.08648437 4.22867188 7.26171875 4.12109375 C4.83182884 3.85244822 4.83182884 3.85244822 2 5 C1.67 5.99 1.34 6.98 1 8 C0.34 7.67 -0.32 7.34 -1 7 C-0.34 5.68 0.32 4.36 1 3 C0.34 2.34 -0.32 1.68 -1 1 C-0.67 0.67 -0.34 0.34 0 0 Z " fill="#31352F" transform="translate(28,60)"/>
<path d="M0 0 C3.3 0.99 6.6 1.98 10 3 C10 3.33 10 3.66 10 4 C3.25 3.125 3.25 3.125 1 2 C0.01 4.97 -0.98 7.94 -2 11 C-2.99 10.34 -3.98 9.68 -5 9 C-3.35 6.03 -1.7 3.06 0 0 Z " fill="#8D7967" transform="translate(34,50)"/>
<path d="M0 0 C0.33 0 0.66 0 1 0 C1 2.31 1 4.62 1 7 C6.445 6.01 6.445 6.01 12 5 C11.67 5.99 11.34 6.98 11 8 C0.44191344 9.51708428 0.44191344 9.51708428 -4 7 C-2.68 6.34 -1.36 5.68 0 5 C0 3.35 0 1.7 0 0 Z " fill="#826051" transform="translate(40,17)"/>
<path d="M0 0 C0.33 0 0.66 0 1 0 C1.06058594 0.77085938 1.12117188 1.54171875 1.18359375 2.3359375 C1.26738281 3.33882812 1.35117187 4.34171875 1.4375 5.375 C1.51871094 6.37273438 1.59992187 7.37046875 1.68359375 8.3984375 C1.84965626 10.97927613 1.84965626 10.97927613 3 13 C2.01 13 1.02 13 0 13 C0 12.34 0 11.68 0 11 C-0.99 11 -1.98 11 -3 11 C-3 9.35 -3 7.7 -3 6 C-2.34 6 -1.68 6 -1 6 C-1.33 5.01 -1.66 4.02 -2 3 C-1.34 2.01 -0.68 1.02 0 0 Z " fill="#69483D" transform="translate(52,11)"/>
<path d="M0 0 C2 2 2 2 2 5 C3.98 5 5.96 5 8 5 C8 3.35 8 1.7 8 0 C10.02054804 1.64169528 12.02043058 3.30911778 14 5 C14 5.33 14 5.66 14 6 C9.71 6 5.42 6 1 6 C0.67 4.02 0.34 2.04 0 0 Z " fill="#1A2F37" transform="translate(8,74)"/>
<path d="M0 0 C0.66 0.33 1.32 0.66 2 1 C1.5359375 1.7734375 1.5359375 1.7734375 1.0625 2.5625 C-0.29059287 5.66665423 -0.61359424 8.65115007 -1 12 C-0.01 11.34 0.98 10.68 2 10 C1.34 11.65 0.68 13.3 0 15 C-0.99 15 -1.98 15 -3 15 C-3 11.04 -3 7.08 -3 3 C-2.34 3 -1.68 3 -1 3 C-0.67 2.01 -0.34 1.02 0 0 Z " fill="#40170D" transform="translate(3,17)"/>
<path d="M0 0 C2.31 0 4.62 0 7 0 C7 1.32 7 2.64 7 4 C7.66 4 8.32 4 9 4 C8.67 4.99 8.34 5.98 8 7 C5.36 5.68 2.72 4.36 0 3 C0 2.01 0 1.02 0 0 Z " fill="#65412C" transform="translate(67,0)"/>
<path d="M0 0 C2 2 2 2 2.1953125 4.6015625 C2.17210938 5.59929688 2.14890625 6.59703125 2.125 7.625 C2.10695313 8.62789062 2.08890625 9.63078125 2.0703125 10.6640625 C2.03550781 11.82035156 2.03550781 11.82035156 2 13 C0.68 12.34 -0.64 11.68 -2 11 C-1.125 3.375 -1.125 3.375 0 0 Z " fill="#725B58" transform="translate(67,50)"/>
<path d="M0 0 C0.99 0.66 1.98 1.32 3 2 C2.01 5.96 1.02 9.92 0 14 C-2.20842803 10.68735796 -2.19725756 10.16548604 -1.6875 6.4375 C-1.58824219 5.65246094 -1.48898438 4.86742187 -1.38671875 4.05859375 C-1 2 -1 2 0 0 Z " fill="#C8C8AE" transform="translate(64,42)"/>
<path d="M0 0 C4.29 0 8.58 0 13 0 C12.67 1.65 12.34 3.3 12 5 C11.01 4.34 10.02 3.68 9 3 C6.72461677 2.33386665 6.72461677 2.33386665 4.3125 1.875 C3.50425781 1.70742188 2.69601563 1.53984375 1.86328125 1.3671875 C1.24839844 1.24601562 0.63351563 1.12484375 0 1 C0 0.67 0 0.34 0 0 Z " fill="#E7E2C1" transform="translate(55,29)"/>
<path d="M0 0 C1.65 0 3.3 0 5 0 C4.46884894 4.51478398 2.63379708 7.34666857 0 11 C0 7.33333333 0 3.66666667 0 0 Z " fill="#EAE4CE" transform="translate(41,27)"/>
<path d="M0 0 C1.65 0 3.3 0 5 0 C4 4 4 4 3 8 C0.03 7.505 0.03 7.505 -3 7 C-2.01 6.67 -1.02 6.34 0 6 C0 4.02 0 2.04 0 0 Z " fill="#77463E" transform="translate(33,15)"/>
<path d="M0 0 C0.33 0 0.66 0 1 0 C1 4.29 1 8.58 1 13 C0.01 13 -0.98 13 -2 13 C-2.16682272 8.07872966 -2.24828052 4.49656104 0 0 Z " fill="#633A31" transform="translate(79,33)"/>
<path d="M0 0 C2.64 0 5.28 0 8 0 C8 0.66 8 1.32 8 2 C8.99 2.33 9.98 2.66 11 3 C10 4 10 4 6.4375 4.0625 C5.303125 4.041875 4.16875 4.02125 3 4 C3 3.01 3 2.02 3 1 C2.01 0.67 1.02 0.34 0 0 Z " fill="#BA8163" transform="translate(53,7)"/>
<path d="M0 0 C0.99 0.33 1.98 0.66 3 1 C-6.2972973 9 -6.2972973 9 -10 9 C-10 8.34 -10 7.68 -10 7 C-8.06640625 5.52734375 -8.06640625 5.52734375 -5.5625 3.9375 C-2.6281857 2.16321108 -2.6281857 2.16321108 0 0 Z " fill="#64332C" transform="translate(43,0)"/>
<path d="M0 0 C1.134375 0.020625 2.26875 0.04125 3.4375 0.0625 C3.7675 1.3825 4.0975 2.7025 4.4375 4.0625 C-2.3125 3.3125 -2.3125 3.3125 -4.5625 1.0625 C-3.5625 0.0625 -3.5625 0.0625 0 0 Z " fill="#0F0D09" transform="translate(53.5625,69.9375)"/>
<path d="M0 0 C1.125 3.75 1.125 3.75 0 6 C0.99 6 1.98 6 3 6 C3 7.32 3 8.64 3 10 C1.35 10 -0.3 10 -2 10 C-1.125 2.25 -1.125 2.25 0 0 Z " fill="#291B18" transform="translate(77,40)"/>
<path d="M0 0 C1.98 0 3.96 0 6 0 C3.2180632 3.27286682 -0.27954067 4.96427697 -4 7 C-4 5.68 -4 4.36 -4 3 C-2.68 2.67 -1.36 2.34 0 2 C0 1.34 0 0.68 0 0 Z " fill="#6D3529" transform="translate(31,0)"/>
<path d="M0 0 C0.99 0 1.98 0 3 0 C3 0.99 3 1.98 3 3 C3.8353125 3.3403125 3.8353125 3.3403125 4.6875 3.6875 C7.63246684 5.35896766 9.68156544 7.55276352 12 10 C7.15853891 8.53289058 3.44051028 5.6487256 0 2 C0 1.34 0 0.68 0 0 Z " fill="#3E1F1F" transform="translate(19,70)"/>
<path d="M0 0 C0.33 0.66 0.66 1.32 1 2 C1.99 2.33 2.98 2.66 4 3 C4 4.65 4 6.3 4 8 C5.32 8.33 6.64 8.66 8 9 C5.25913944 9.22223194 3.56036279 9.34781139 1.1875 7.875 C-0.49106106 5.22464043 -0.20450238 3.06753576 0 0 Z " fill="#977768" transform="translate(53,16)"/>
<path d="M0 0 C0.66 0 1.32 0 2 0 C2 2.64 2 5.28 2 8 C0.68 8.33 -0.64 8.66 -2 9 C-2.33 7.68 -2.66 6.36 -3 5 C-2.34 4.67 -1.68 4.34 -1 4 C-0.34786708 1.97536745 -0.34786708 1.97536745 0 0 Z " fill="#583A34" transform="translate(38,14)"/>
<path d="M0 0 C1.07310858 3.27185553 0.89263102 5.42947592 0.0625 8.75 C-0.22947266 9.94882812 -0.22947266 9.94882812 -0.52734375 11.171875 C-0.68332031 11.77515625 -0.83929688 12.3784375 -1 13 C-1.33 13 -1.66 13 -2 13 C-2.2493357 11.39884424 -2.47378648 9.79379841 -2.6875 8.1875 C-2.81511719 7.29417969 -2.94273438 6.40085937 -3.07421875 5.48046875 C-3 3 -3 3 -1.51953125 1.17578125 C-1.01808594 0.78777344 -0.51664062 0.39976563 0 0 Z " fill="#694746" transform="translate(71,47)"/>
<path d="M0 0 C0.66 0 1.32 0 2 0 C1.34 2.97 0.68 5.94 0 9 C-0.99 8.67 -1.98 8.34 -3 8 C-1.125 1.125 -1.125 1.125 0 0 Z " fill="#5B9984" transform="translate(70,35)"/>
<path d="M0 0 C0 1.32 0 2.64 0 4 C-2.64 3.67 -5.28 3.34 -8 3 C-7 1 -7 1 -5.125 0.375 C-3 0 -3 0 0 0 Z " fill="#7A3728" transform="translate(33,17)"/>
<path d="M0 0 C3.03852705 1.40976705 5.5939595 3.08870228 8.25 5.125 C8.95640625 5.66382812 9.6628125 6.20265625 10.390625 6.7578125 C10.92171875 7.16773437 11.4528125 7.57765625 12 8 C11.01 8.33 10.02 8.66 9 9 C7.49704815 7.69088122 5.99770689 6.37761608 4.5 5.0625 C3.6646875 4.33160156 2.829375 3.60070312 1.96875 2.84765625 C1.3190625 2.23792969 0.669375 1.62820312 0 1 C0 0.67 0 0.34 0 0 Z " fill="#552F29" transform="translate(17,71)"/>
<path d="M0 0 C0.268125 0.598125 0.53625 1.19625 0.8125 1.8125 C1.98493467 3.97224808 3.19369282 5.35790256 5 7 C2.125 7.125 2.125 7.125 -1 7 C-1.66 6.34 -2.32 5.68 -3 5 C-2.01 3.35 -1.02 1.7 0 0 Z " fill="#CDC4A5" transform="translate(12,43)"/>
<path d="M0 0 C0.66 0 1.32 0 2 0 C1.125 7.75 1.125 7.75 0 10 C-0.66 10 -1.32 10 -2 10 C-1.46274105 6.62294375 -0.88935377 3.303314 0 0 Z " fill="#C4A598" transform="translate(63,13)"/>
<path d="M0 0 C2.64 0 5.28 0 8 0 C8 0.99 8 1.98 8 3 C8.99 3.33 9.98 3.66 11 4 C10.01 4.495 10.01 4.495 9 5 C6.8359375 4.22265625 6.8359375 4.22265625 4.375 3.0625 C3.55773438 2.68222656 2.74046875 2.30195312 1.8984375 1.91015625 C1.27195313 1.60980469 0.64546875 1.30945313 0 1 C0 0.67 0 0.34 0 0 Z " fill="#A77B5A" transform="translate(59,0)"/>
<path d="M0 0 C2.31 0 4.62 0 7 0 C4.31158141 2.25245881 2.35358125 3.88213958 -1 5 C-0.67 3.35 -0.34 1.7 0 0 Z " fill="#221A1F" transform="translate(17,0)"/>
<path d="M0 0 C1.32 0 2.64 0 4 0 C3.67 1.65 3.34 3.3 3 5 C1.68 4.67 0.36 4.34 -1 4 C-1 1 -1 1 0 0 Z " fill="#E1DBC6" transform="translate(21,51)"/>
<path d="M0 0 C0.66 0.99 1.32 1.98 2 3 C1.67 3.99 1.34 4.98 1 6 C1.99 6.33 2.98 6.66 4 7 C3.01 7.495 3.01 7.495 2 8 C-0.625 7.0625 -0.625 7.0625 -3 6 C-2.01 4.02 -1.02 2.04 0 0 Z " fill="#AE9D83" transform="translate(37,44)"/>
<path d="M0 0 C2.64 0.33 5.28 0.66 8 1 C7.071875 1.3403125 7.071875 1.3403125 6.125 1.6875 C3.38589791 3.37929835 2.94975528 4.99244161 2 8 C1.34 7.34 0.68 6.68 0 6 C0.66 4.35 1.32 2.7 2 1 C1.34 0.67 0.68 0.34 0 0 Z " fill="#A78777" transform="translate(44,26)"/>
<path d="M0 0 C0.66 0 1.32 0 2 0 C1.95875 0.94875 1.9175 1.8975 1.875 2.875 C1.65026182 6.10244856 1.65026182 6.10244856 4 8 C2.68 8 1.36 8 0 8 C-0.38063221 5.6739143 -0.71269945 3.33944736 -1 1 C-0.67 0.67 -0.34 0.34 0 0 Z " fill="#606F75" transform="translate(10,70)"/>
<path d="M0 0 C2.475 0.99 2.475 0.99 5 2 C5 3.32 5 4.64 5 6 C3.0625 5.25 3.0625 5.25 1 4 C0.25 1.875 0.25 1.875 0 0 Z " fill="#4A2C1F" transform="translate(7,50)"/>
<path d="M0 0 C0.66 0.33 1.32 0.66 2 1 C1.67 3.31 1.34 5.62 1 8 C0.34 7.34 -0.32 6.68 -1 6 C-0.625 2.875 -0.625 2.875 0 0 Z " fill="#D0C8A9" transform="translate(68,30)"/>
</svg>
