<?xml version="1.0" encoding="UTF-8"?>
<svg version="1.1" xmlns="http://www.w3.org/2000/svg" width="80" height="80">
<path d="M0 0 C26.4 0 52.8 0 80 0 C80 26.4 80 52.8 80 80 C53.6 80 27.2 80 0 80 C0 53.6 0 27.2 0 0 Z " fill="#08A8B7" transform="translate(0,0)"/>
<path d="M0 0 C9.24 0 18.48 0 28 0 C28 2.31 28 4.62 28 7 C30.97 7 33.94 7 37 7 C36.175 7.845625 35.35 8.69125 34.5 9.5625 C32.48550591 12.03562531 31.95351731 13.19665754 31.1875 16.4375 C32.24489058 21.07375099 34.3425332 22.53677672 38.0546875 25.32421875 C41.13727844 27.97970372 41.88809987 29.99289883 42.3359375 34.0234375 C42.46587445 45.17202762 42.46587445 45.17202762 38 50 C37.175 50.928125 36.35 51.85625 35.5 52.8125 C31.33466539 56.45716778 27.67122649 56.11671226 22.25 56.0625 C21.07953125 56.05347656 19.9090625 56.04445312 18.703125 56.03515625 C17.81109375 56.02355469 16.9190625 56.01195312 16 56 C16.33 54.35 16.66 52.7 17 51 C11.06 51 5.12 51 -1 51 C-1.9075 49.329375 -2.815 47.65875 -3.75 45.9375 C-6.11727189 41.59470333 -8.53635883 37.28856055 -11 33 C-13.09029352 28.81941296 -12.1543921 23.81406744 -11.3125 19.375 C-8.63150798 12.48102051 -4.34133147 9.23283565 2 6 C1.34 5.67 0.68 5.34 0 5 C0 3.35 0 1.7 0 0 Z " fill="#06A9BB" transform="translate(32,0)"/>
<path d="M0 0 C6.6 0 13.2 0 20 0 C20 26.4 20 52.8 20 80 C18.02 80 16.04 80 14 80 C13.9071875 78.39125 13.9071875 78.39125 13.8125 76.75 C13.28252953 73.02173031 13.28252953 73.02173031 11.1875 70.625 C6.33385008 68.15059024 1.38153926 68.17165994 -4 68 C-3.69707031 67.26136719 -3.39414062 66.52273437 -3.08203125 65.76171875 C-2.44561808 64.13737177 -1.84338414 62.49756184 -1.32421875 60.83203125 C-0.67777326 58.78164893 -0.00689424 56.90143117 1 55 C3.375 53.8125 3.375 53.8125 6 53 C10.15374193 49.32925132 12.71683854 46.54845313 13.3359375 40.9765625 C13.53940903 32.22147519 13.53940903 32.22147519 9 25 C7.92110355 24.18161757 6.83764792 23.36921517 5.75 22.5625 C3 20 3 20 2.3125 16.5 C3.15212151 12.22556321 4.68986447 10.73086181 8 8 C5.36 7.67 2.72 7.34 0 7 C0 4.69 0 2.38 0 0 Z " fill="#064AB9" transform="translate(60,0)"/>
<path d="M0 0 C4.97524875 2.83235135 7.5285787 5.85096624 9.7109375 11.125 C10.73086919 19.28445349 6.74858326 25.28666795 2.69921875 32.01171875 C1.42852508 34.34006869 1.42852508 34.34006869 1.7109375 38.125 C-4.2290625 38.125 -10.1690625 38.125 -16.2890625 38.125 C-16.6190625 35.815 -16.9490625 33.505 -17.2890625 31.125 C-18.65668627 28.39954887 -18.65668627 28.39954887 -20.3515625 25.875 C-23.51873277 20.27095357 -24.91308335 15.48654913 -23.2890625 9.125 C-18.08997387 0.47394196 -9.87240856 -3.77375344 0 0 Z " fill="#0C2E94" transform="translate(47.2890625,10.875)"/>
<path d="M0 0 C3.63 0 7.26 0 11 0 C11.474375 1.464375 11.94875 2.92875 12.4375 4.4375 C13.41591775 6.95267561 13.41591775 6.95267561 15 9 C18.02883338 10.09475905 20.80282667 10.17078917 24 10 C24.13277344 9.40703125 24.26554687 8.8140625 24.40234375 8.203125 C25.20321236 5.25090347 26.58694277 2.70323992 28 0 C31.63 0 35.26 0 39 0 C38.52546847 4.84022161 37.62064422 7.93202948 35 12 C35.79664063 11.94199219 36.59328125 11.88398437 37.4140625 11.82421875 C47.16028656 11.40923354 47.16028656 11.40923354 50.75 14.0625 C53.52431588 17.68452351 53.18845008 19.55571892 53 24 C48.23125836 24.14849962 43.46386585 24.25728023 38.69335938 24.32958984 C37.0713761 24.35973462 35.44955548 24.40065941 33.828125 24.45263672 C31.49438389 24.52556613 29.16279889 24.55947489 26.828125 24.5859375 C26.10506165 24.61690521 25.38199829 24.64787292 24.63702393 24.67977905 C22.57519531 24.68115234 22.57519531 24.68115234 19 24 C16.66088867 21.06665039 16.66088867 21.06665039 15 18 C12.64079295 16.29892857 12.64079295 16.29892857 10.0625 15.0625 C5.17185857 12.30293571 2.69423201 9.93942534 0 5 C0 3.35 0 1.7 0 0 Z " fill="#F6DC06" transform="translate(21,56)"/>
<path d="M0 0 C1.98 0 3.96 0 6 0 C6.25523437 0.97839844 6.25523437 0.97839844 6.515625 1.9765625 C8.38380512 8.71393547 10.46244354 13.69313049 15.75 18.5 C18 21 18 21 18.4375 24.0625 C18.02083638 26.86009862 17.56061258 28.65908114 16 31 C15.34 31.33 14.68 31.66 14 32 C15.65 32.33 17.3 32.66 19 33 C19 36.96 19 40.92 19 45 C12.73 45 6.46 45 0 45 C0 30.15 0 15.3 0 0 Z " fill="#D51066" transform="translate(0,35)"/>
<path d="M0 0 C6.6 0 13.2 0 20 0 C20 11.55 20 23.1 20 35 C18.02 35 16.04 35 14 35 C13.67 33.824375 13.34 32.64875 13 31.4375 C11.63929201 27.66734324 9.95740907 25.88663273 6.8125 23.4375 C3.09571641 20.42704244 3.09571641 20.42704244 2.1875 16.375 C3.17742812 12.26299089 4.77771282 10.65838692 8 8 C5.36 7.67 2.72 7.34 0 7 C0 4.69 0 2.38 0 0 Z " fill="#DD1369" transform="translate(60,0)"/>
<path d="M0 0 C4.98278394 2.87939564 8.38692266 7.06921319 10.625 12.375 C12.34521202 21.48366364 9.30637884 27.60588508 4.60546875 35.08203125 C2.18435048 39.1076776 0.86848778 42.86735681 -0.375 47.375 C-0.705 46.715 -1.035 46.055 -1.375 45.375 C-1.045 44.715 -0.715 44.055 -0.375 43.375 C-6.315 43.375 -12.255 43.375 -18.375 43.375 C-19.2825 41.704375 -20.19 40.03375 -21.125 38.3125 C-23.49227189 33.96970333 -25.91135883 29.66356055 -28.375 25.375 C-30.46529352 21.19441296 -29.5293921 16.18906744 -28.6875 11.75 C-26.47889852 6.07073906 -22.92678026 1.90647865 -17.45703125 -0.9296875 C-11.69682427 -2.85335888 -5.51585169 -2.48161191 0 0 Z M-24.44921875 10.4921875 C-26.49999835 14.66297133 -26.24178421 18.90453077 -25.375 23.375 C-24.04096766 26.31539673 -22.5416802 28.96441965 -20.78515625 31.671875 C-19.375 34.375 -19.375 34.375 -18.375 41.375 C-12.435 41.375 -6.495 41.375 -0.375 41.375 C-0.045 39.395 0.285 37.415 0.625 35.375 C2 32.7421875 2 32.7421875 3.625 30.25 C7.09855985 24.88936196 8.27107642 20.83576422 7.625 14.375 C5.53960771 9.37192882 2.57045969 5.40727723 -2.3515625 3 C-11.35378705 0.2193901 -18.7007286 3.0397475 -24.44921875 10.4921875 Z " fill="#E5EBF4" transform="translate(49.375,7.625)"/>
<path d="M0 0 C1.98 0 3.96 0 6 0 C6.33 1.03125 6.66 2.0625 7 3.125 C9.01513184 7.93783915 12.78805542 10.18574107 17 13 C18 14 18 14 18.5 16.75 C18 20 18 20 16.54296875 21.33203125 C15.2890258 22.16359341 14.02561465 22.98102548 12.75390625 23.78515625 C9.41481051 26.09798203 8.2504496 28.97543344 7.3125 32.8125 C7.209375 33.534375 7.10625 34.25625 7 35 C4.69 35 2.38 35 0 35 C0 23.45 0 11.9 0 0 Z " fill="#3AF304" transform="translate(0,0)"/>
<path d="M0 0 C3.08197875 1.35252305 3.87788831 2.21093892 6 5 C6 7.31 6 9.62 6 12 C-5.22 12 -16.44 12 -28 12 C-28.33 11.01 -28.66 10.02 -29 9 C-28.43152344 8.69707031 -27.86304688 8.39414063 -27.27734375 8.08203125 C-26.50519531 7.66308594 -25.73304687 7.24414062 -24.9375 6.8125 C-24.10605469 6.36261719 -23.27460937 5.91273437 -22.41796875 5.44921875 C-20.2571646 4.15413258 -18.61107042 2.79855703 -16.75 1.125 C-11.79627119 -2.54099135 -5.66865991 -1.30815229 0 0 Z " fill="#25E60D" transform="translate(68,68)"/>
<path d="M0 0 C0.33 0 0.66 0 1 0 C1.06058594 0.73605469 1.12117188 1.47210937 1.18359375 2.23046875 C1.26738281 3.20628906 1.35117187 4.18210937 1.4375 5.1875 C1.51871094 6.15042969 1.59992187 7.11335938 1.68359375 8.10546875 C1.97666151 10.78649602 2.42703754 13.3662986 3 16 C3.66 16 4.32 16 5 16 C4.67257813 15.29488281 4.34515625 14.58976562 4.0078125 13.86328125 C2.91599278 10.76132833 2.79614604 8.45993947 2.875 5.1875 C2.89304687 4.21167969 2.91109375 3.23585938 2.9296875 2.23046875 C2.95289063 1.49441406 2.97609375 0.75835938 3 0 C3.66 0 4.32 0 5 0 C5.06058594 0.63808594 5.12117188 1.27617187 5.18359375 1.93359375 C5.26738281 2.75988281 5.35117187 3.58617187 5.4375 4.4375 C5.51871094 5.26121094 5.59992187 6.08492187 5.68359375 6.93359375 C5.78930815 8.98662025 5.78930815 8.98662025 7 10 C7.07271741 12.35313555 7.08370868 14.70833668 7.0625 17.0625 C7.05347656 18.35285156 7.04445313 19.64320312 7.03515625 20.97265625 C7.02355469 21.97167969 7.01195312 22.97070312 7 24 C7.66 24 8.32 24 9 24 C8.67 16.41 8.34 8.82 8 1 C8.66 0.67 9.32 0.34 10 0 C10 7.92 10 15.84 10 24 C10.66 24 11.32 24 12 24 C12 16.08 12 8.16 12 0 C12.66 0 13.32 0 14 0 C14 5.28 14 10.56 14 16 C14.66 16 15.32 16 16 16 C16.33 15.01 16.66 14.02 17 13 C18.98815787 17.91191945 18.93446046 19.39323726 18 25 C12.06 25 6.12 25 0 25 C-0.33 22.69 -0.66 20.38 -1 18 C-2.44497154 15.08662496 -4.10418252 12.40848064 -5.8203125 9.6484375 C-7.19238644 6.56808607 -6.99388845 5.16444943 -6 2 C-3 2 -3 2 0 3 C0 2.01 0 1.02 0 0 Z " fill="#1B3A9A" transform="translate(31,24)"/>
<path d="M0 0 C8.58 0 17.16 0 26 0 C26 1.65 26 3.3 26 5 C27.65 5 29.3 5 31 5 C29.33470183 6.11019878 27.65199871 7.19876478 25.9140625 8.19140625 C19.84178272 11.82855676 16.85280182 15.5489406 14 22 C12.68 21.67 11.36 21.34 10 21 C10.33 20.67 10.66 20.34 11 20 C11.4957326 17.12689818 11.4957326 17.12689818 11 14 C8.86762038 11.76337025 8.86762038 11.76337025 6.0625 10 C3.28515625 8.125 3.28515625 8.125 1 6 C0.67 4.02 0.34 2.04 0 0 Z " fill="#0A2A86" transform="translate(6,0)"/>
<path d="M0 0 C9.24 0 18.48 0 28 0 C28 2.31 28 4.62 28 7 C30.97 7 33.94 7 37 7 C36.175 7.825 35.35 8.65 34.5 9.5 C32.2385682 12.16275632 31.65644487 13.88440321 31.6875 17.375 C31.790625 18.57125 31.89375 19.7675 32 21 C29.8125 21 29.8125 21 27 20 C25.63346582 18.11020431 24.56043361 16.18343585 23.50390625 14.10546875 C20.03040255 9.24256356 15.42796153 7.56563951 9.78515625 6.58203125 C9.07230469 6.47246094 8.35945313 6.36289063 7.625 6.25 C6.88894531 6.12496094 6.15289062 5.99992188 5.39453125 5.87109375 C3.59847885 5.56786412 1.79949129 5.28210552 0 5 C0 3.35 0 1.7 0 0 Z " fill="#102C8F" transform="translate(32,0)"/>
<path d="M0 0 C2.67270784 1.008569 3.79256517 1.61426835 5.16796875 4.171875 C5.50441406 5.02265625 5.84085938 5.8734375 6.1875 6.75 C8.90457831 12.58793296 12.54787613 14.87885663 18 18 C22.86075949 21.44303797 22.86075949 21.44303797 24 26 C17.07 26 10.14 26 3 26 C3 22.04 3 18.08 3 14 C1.02 14 -0.96 14 -3 14 C-2.67 13.34 -2.34 12.68 -2 12 C-1.34 12 -0.68 12 0 12 C0.19477739 10.37585622 0.38059458 8.75063577 0.5625 7.125 C0.66691406 6.22007813 0.77132813 5.31515625 0.87890625 4.3828125 C1.19674852 1.98346943 1.19674852 1.98346943 0 0 Z " fill="#0389A5" transform="translate(16,54)"/>
<path d="M0 0 C4.81047108 2.40523554 8.9091792 4.48490548 12 9 C12.96448005 15.0126097 12.73096632 21.13798799 11 27 C10.34 27 9.68 27 9 27 C9 21.72 9 16.44 9 11 C8.34 11 7.68 11 7 11 C7 18.92 7 26.84 7 35 C6.34 35 5.68 35 5 35 C4.67 27.41 4.34 19.82 4 12 C4 19.59 4 27.18 4 35 C3.34 35 2.68 35 2 35 C1.93941406 34.00097656 1.87882812 33.00195312 1.81640625 31.97265625 C1.73261719 30.68230469 1.64882813 29.39195313 1.5625 28.0625 C1.48128906 26.77472656 1.40007813 25.48695312 1.31640625 24.16015625 C1.35080812 21.13976043 1.35080812 21.13976043 0 20 C-0.07179964 18.48071962 -0.08392007 16.95832518 -0.0625 15.4375 C-0.05347656 14.61121094 -0.04445312 13.78492188 -0.03515625 12.93359375 C-0.02355469 12.29550781 -0.01195312 11.65742188 0 11 C-0.66 11 -1.32 11 -2 11 C-1.85764543 12.72945653 -1.71095618 14.45855654 -1.5625 16.1875 C-1.48128906 17.15042969 -1.40007813 18.11335938 -1.31640625 19.10546875 C-1.02333849 21.78649602 -0.57296246 24.3662986 0 27 C-0.66 27 -1.32 27 -2 27 C-3.85131483 23.07142246 -4.22004943 20.01224888 -4.125 15.6875 C-4.10695313 14.61886719 -4.08890625 13.55023438 -4.0703125 12.44921875 C-4.03550781 11.23685547 -4.03550781 11.23685547 -4 10 C-1.92446352 9.4465236 -0.15634036 9 2 9 C1.34 6.03 0.68 3.06 0 0 Z " fill="#7D91C6" transform="translate(36,13)"/>
<path d="M0 0 C6.27 0 12.54 0 19 0 C19 8.12497003 18.97604356 9.03593466 15 15 C12.03 15 9.06 15 6 15 C0 4.8 0 4.8 0 0 Z " fill="#7E86B9" transform="translate(30,51)"/>
<path d="M0 0 C3.63 0 7.26 0 11 0 C11.27972656 0.78246094 11.55945312 1.56492188 11.84765625 2.37109375 C13.05783198 5.42571738 14.25258956 8.21452395 16 11 C19.65621408 12.38483922 19.65621408 12.38483922 23 12 C23 12.66 23 13.32 23 14 C18.94568308 15.15837626 16.78187881 14.83691257 13 13 C13 13.99 13 14.98 13 16 C7.94015504 14.26519601 4.39550726 11.87671666 1.1875 7.5625 C0 5 0 5 0 0 Z " fill="#CED906" transform="translate(21,56)"/>
<path d="M0 0 C0.66 0.33 1.32 0.66 2 1 C2.37890625 2.99609375 2.37890625 2.99609375 2.5625 5.4375 C2.8061175 8.84628205 2.8061175 8.84628205 4 12 C3.34 12.66 2.68 13.32 2 14 C-0.125 13.625 -0.125 13.625 -2 13 C-2.66 14.32 -3.32 15.64 -4 17 C-4.78375 16.814375 -5.5675 16.62875 -6.375 16.4375 C-8.97089775 15.74037734 -8.97089775 15.74037734 -11 17 C-11.55622277 13.18590099 -11.72361541 11.110341 -9.58203125 7.82421875 C-6.7210289 4.48739938 -4.20101936 1.57104236 0 0 Z " fill="#23429C" transform="translate(35,10)"/>
<path d="M0 0 C0.33 0 0.66 0 1 0 C1 7.92 1 15.84 1 24 C1.66 24 2.32 24 3 24 C3 16.08 3 8.16 3 0 C3.66 0 4.32 0 5 0 C5 5.28 5 10.56 5 16 C5.66 16 6.32 16 7 16 C7.33 15.01 7.66 14.02 8 13 C9.98815787 17.91191945 9.93446046 19.39323726 9 25 C3.72 25 -1.56 25 -7 25 C-6.67 23.68 -6.34 22.36 -6 21 C-5.01 21 -4.02 21 -3 21 C-3 21.99 -3 22.98 -3 24 C-2.01 24 -1.02 24 0 24 C-0.05329468 22.9627478 -0.05329468 22.9627478 -0.10766602 21.90454102 C-0.26465181 18.79077094 -0.41368123 15.67667062 -0.5625 12.5625 C-0.61857422 11.47388672 -0.67464844 10.38527344 -0.73242188 9.26367188 C-0.78076172 8.22919922 -0.82910156 7.19472656 -0.87890625 6.12890625 C-0.9260376 5.17056885 -0.97316895 4.21223145 -1.02172852 3.22485352 C-1 1 -1 1 0 0 Z " fill="#0F2E94" transform="translate(40,24)"/>
<path d="M0 0 C0 3.96 0 7.92 0 12 C-3.96 12 -7.92 12 -12 12 C-12.60550459 4.73394495 -12.60550459 4.73394495 -9.9375 1.5 C-6.3957736 -0.30854114 -3.92556076 -0.30788712 0 0 Z " fill="#F6919E" transform="translate(19,68)"/>
<path d="M0 0 C6.6 0 13.2 0 20 0 C20 2.31 20 4.62 20 7 C13.00703773 7.5255671 6.94881779 7.0517005 1 3 C0.67 2.01 0.34 1.02 0 0 Z " fill="#04C1CA" transform="translate(40,0)"/>
<path d="M0 0 C0 3.63 0 7.26 0 11 C-4.62 11 -9.24 11 -14 11 C-14 9.35 -14 7.7 -14 6 C-13.1646875 5.9071875 -13.1646875 5.9071875 -12.3125 5.8125 C-9.72544054 5.10060108 -9.72544054 5.10060108 -7.5625 2.4375 C-5 0 -5 0 0 0 Z " fill="#9EFC04" transform="translate(62,69)"/>
<path d="M0 0 C6.27 0 12.54 0 19 0 C18.67 1.65 18.34 3.3 18 5 C15.37472811 5.05382106 12.75055287 5.09358313 10.125 5.125 C9.37863281 5.14175781 8.63226563 5.15851562 7.86328125 5.17578125 C5.90805539 5.1933959 3.95257979 5.10320189 2 5 C1.34 4.34 0.68 3.68 0 3 C0 2.01 0 1.02 0 0 Z " fill="#7382C4" transform="translate(30,51)"/>
<path d="M0 0 C3.69230769 0.69230769 3.69230769 0.69230769 5 2 C5.07179964 3.51928038 5.08392007 5.04167482 5.0625 6.5625 C5.05347656 7.38878906 5.04445313 8.21507812 5.03515625 9.06640625 C5.01775391 10.02353516 5.01775391 10.02353516 5 11 C5.66 11 6.32 11 7 11 C7 15.95 7 20.9 7 26 C6.34 26 5.68 26 5 26 C4.93941406 25.00097656 4.87882812 24.00195312 4.81640625 22.97265625 C4.73261719 21.68230469 4.64882813 20.39195313 4.5625 19.0625 C4.48128906 17.77472656 4.40007813 16.48695312 4.31640625 15.16015625 C4.35080812 12.13976043 4.35080812 12.13976043 3 11 C2.92820036 9.48071962 2.91607993 7.95832518 2.9375 6.4375 C2.94652344 5.61121094 2.95554688 4.78492188 2.96484375 3.93359375 C2.97644531 3.29550781 2.98804688 2.65742188 3 2 C2.34 2 1.68 2 1 2 C1.14235457 3.72945653 1.28904382 5.45855654 1.4375 7.1875 C1.51871094 8.15042969 1.59992187 9.11335938 1.68359375 10.10546875 C1.97666151 12.78649602 2.42703754 15.3662986 3 18 C2.34 18 1.68 18 1 18 C-0.82510171 14.10452599 -1.2455793 11.0373082 -1.1875 6.75 C-1.18105469 5.69296875 -1.17460937 4.6359375 -1.16796875 3.546875 C-1 1 -1 1 0 0 Z " fill="#CFD8E8" transform="translate(33,22)"/>
<path d="M0 0 C4.62 0 9.24 0 14 0 C13.67 1.65 13.34 3.3 13 5 C12.01 5 11.02 5 10 5 C10 5.66 10 6.32 10 7 C6.7 7 3.4 7 0 7 C0 4.69 0 2.38 0 0 Z " fill="#F4F30F" transform="translate(60,0)"/>
<path d="M0 0 C4.29 0 8.58 0 13 0 C13 1.65 13 3.3 13 5 C11 7 11 7 8.3984375 7.1953125 C7.40070312 7.17210937 6.40296875 7.14890625 5.375 7.125 C3.87066406 7.09792969 3.87066406 7.09792969 2.3359375 7.0703125 C1.56507812 7.04710937 0.79421875 7.02390625 0 7 C0 4.69 0 2.38 0 0 Z " fill="#F6A30E" transform="translate(19,0)"/>
<path d="M0 0 C4.29 0 8.58 0 13 0 C13 2.31 13 4.62 13 7 C11.20906809 7.08086147 9.41710372 7.13912702 7.625 7.1875 C6.12839844 7.23970703 6.12839844 7.23970703 4.6015625 7.29296875 C3.74304688 7.19628906 2.88453125 7.09960938 2 7 C0 4 0 4 0 0 Z " fill="#D61163" transform="translate(6,0)"/>
<path d="M0 0 C3.63 0 7.26 0 11 0 C11.33 1.32 11.66 2.64 12 4 C9.36 5.98 6.72 7.96 4 10 C0.52688181 6.20127698 0 5.44328904 0 0 Z " fill="#B7DF03" transform="translate(21,56)"/>
<path d="M0 0 C0.33 0 0.66 0 1 0 C1.20625 1.093125 1.4125 2.18625 1.625 3.3125 C2.79700142 8.12882699 5.12569698 12.06289815 7.66015625 16.2890625 C9.11028524 19.22314273 9.61577437 21.76491504 10 25 C9.34 25.33 8.68 25.66 8 26 C7.68546875 25.43152344 7.3709375 24.86304687 7.046875 24.27734375 C6.40492187 23.11912109 6.40492187 23.11912109 5.75 21.9375 C5.29753906 21.11121094 4.84507813 20.28492187 4.37890625 19.43359375 C3.55677803 17.98264225 2.70036334 16.54910905 1.77734375 15.16015625 C-1.28533902 10.49477928 -1.70904173 6.4166139 -1 1 C-0.67 0.67 -0.34 0.34 0 0 Z " fill="#E4EEF6" transform="translate(22,23)"/>
<path d="M0 0 C-1.33332095 3.99996286 -3.4957827 4.83782337 -7 7 C-7.66 6.67 -8.32 6.34 -9 6 C-9 7.65 -9 9.3 -9 11 C-11.64 11 -14.28 11 -17 11 C-17.33 10.01 -17.66 9.02 -18 8 C-17.40832031 7.67386719 -16.81664062 7.34773438 -16.20703125 7.01171875 C-15.02173828 6.35623047 -15.02173828 6.35623047 -13.8125 5.6875 C-12.99007812 5.23375 -12.16765625 4.78 -11.3203125 4.3125 C-9.57682335 3.32628392 -7.87124091 2.27257747 -6.1875 1.1875 C-4 0 -4 0 0 0 Z " fill="#87F103" transform="translate(57,69)"/>
<path d="M0 0 C1.27875 -0.061875 2.5575 -0.12375 3.875 -0.1875 C4.95394531 -0.23970703 4.95394531 -0.23970703 6.0546875 -0.29296875 C6.69664063 -0.19628906 7.33859375 -0.09960938 8 0 C8.66 0.99 9.32 1.98 10 3 C14.35659024 5.2960408 19.13911367 6.39238921 24 7 C22.68 7.99 21.36 8.98 20 10 C19.113125 9.54625 18.22625 9.0925 17.3125 8.625 C11.83360083 6.23647164 5.8807111 5.75166984 0 5 C0 3.35 0 1.7 0 0 Z " fill="#0E3B9E" transform="translate(32,0)"/>
<path d="M0 0 C0.33 0 0.66 0 1 0 C1.39315606 6.02839298 0.33683045 11.40447021 -2 17 C-2.66 17.33 -3.32 17.66 -4 18 C-3.67 16.68 -3.34 15.36 -3 14 C-8.94 14 -14.88 14 -21 14 C-21 13.34 -21 12.68 -21 12 C-12.585 11.505 -12.585 11.505 -4 11 C-3.67 9.35 -3.34 7.7 -3 6 C-2.04605164 3.97762948 -1.05464649 1.9717304 0 0 Z " fill="#CFD6EB" transform="translate(52,37)"/>
<path d="M0 0 C3.8936124 1.46114239 4.97530111 3.28393427 6.6875 7 C7.10386719 7.886875 7.52023438 8.77375 7.94921875 9.6875 C8.46935547 10.8321875 8.46935547 10.8321875 9 12 C9.33 12.66 9.66 13.32 10 14 C5.71 14 1.42 14 -3 14 C-2.67 13.34 -2.34 12.68 -2 12 C-1.34 12 -0.68 12 0 12 C0.19477739 10.37585622 0.38059458 8.75063577 0.5625 7.125 C0.66691406 6.22007813 0.77132813 5.31515625 0.87890625 4.3828125 C1.19674852 1.98346943 1.19674852 1.98346943 0 0 Z " fill="#172D84" transform="translate(16,54)"/>
<path d="M0 0 C0.99 0 1.98 0 3 0 C3.66 1.32 4.32 2.64 5 4 C5.66 2.68 6.32 1.36 7 0 C7.17835515 4.54805635 6.99785435 7.8794254 5 12 C4.01 11.67 3.02 11.34 2 11 C1.01 11.33 0.02 11.66 -1 12 C-1.14285714 3.42857143 -1.14285714 3.42857143 0 0 Z " fill="#4461AD" transform="translate(50,22)"/>
<path d="M0 0 C0.99 0 1.98 0 3 0 C3 2.64 3 5.28 3 8 C3.66 8 4.32 8 5 8 C5.66 9.32 6.32 10.64 7 12 C3.37 12 -0.26 12 -4 12 C-3.34 10.35 -2.68 8.7 -2 7 C-1.31320058 4.67251306 -0.64238957 2.34013344 0 0 Z " fill="#0C2D93" transform="translate(60,56)"/>
<path d="M0 0 C4.76187218 2.27368672 8.96474585 4.56607767 12 9 C12.96448005 15.0126097 12.73096632 21.13798799 11 27 C10.34 27 9.68 27 9 27 C9.10441406 25.78183594 9.20882812 24.56367187 9.31640625 23.30859375 C10.1919239 14.31929196 10.1919239 14.31929196 6.99609375 6.31640625 C4.55953675 4.46590143 4.55953675 4.46590143 1.96875 3.09375 C1.3190625 2.7328125 0.669375 2.371875 0 2 C0 1.34 0 0.68 0 0 Z " fill="#E4E8F3" transform="translate(36,13)"/>
<path d="M0 0 C2.0078125 0.23046875 2.0078125 0.23046875 5.0078125 2.23046875 C5.0078125 2.89046875 5.0078125 3.55046875 5.0078125 4.23046875 C2.62064376 5.73350092 1.29716044 6.24458328 -1.5546875 6.10546875 C-4.48238756 5.0544995 -5.39080953 3.84324333 -6.9921875 1.23046875 C-5.11574989 -0.64596886 -2.49413049 0.05061888 0 0 Z " fill="#0A2C91" transform="translate(42.9921875,9.76953125)"/>
<path d="M0 0 C1.98 0 3.96 0 6 0 C6.66 2.31 7.32 4.62 8 7 C5.36 7 2.72 7 0 7 C0 4.69 0 2.38 0 0 Z " fill="#0AA2A1" transform="translate(0,0)"/>
<path d="M0 0 C0.350625 0.639375 0.70125 1.27875 1.0625 1.9375 C3.77184206 4.82163832 6.15858911 4.7100822 10 5 C10 5.66 10 6.32 10 7 C5.94568308 8.15837626 3.78187881 7.83691257 0 6 C0 6.99 0 7.98 0 9 C-1.32 8.67 -2.64 8.34 -4 8 C-4 7.34 -4 6.68 -4 6 C-3.01 5.34 -2.02 4.68 -1 4 C-0.27617533 1.94074861 -0.27617533 1.94074861 0 0 Z " fill="#EAD909" transform="translate(34,63)"/>
<path d="M0 0 C5.61 0 11.22 0 17 0 C16.67 1.32 16.34 2.64 16 4 C15.67 3.34 15.34 2.68 15 2 C10.71 2 6.42 2 2 2 C1.67 2.66 1.34 3.32 1 4 C0.67 2.68 0.34 1.36 0 0 Z " fill="#1E288C" transform="translate(32,56)"/>
<path d="M0 0 C0.66 0 1.32 0 2 0 C2.06058594 0.63808594 2.12117188 1.27617187 2.18359375 1.93359375 C2.26738281 2.75988281 2.35117187 3.58617187 2.4375 4.4375 C2.55931641 5.67306641 2.55931641 5.67306641 2.68359375 6.93359375 C2.78930815 8.98662025 2.78930815 8.98662025 4 10 C4.07271741 12.35313555 4.08370868 14.70833668 4.0625 17.0625 C4.05347656 18.35285156 4.04445313 19.64320312 4.03515625 20.97265625 C4.02355469 21.97167969 4.01195312 22.97070312 4 24 C3.67 24 3.34 24 3 24 C3 20.04 3 16.08 3 12 C2.01 11.67 1.02 11.34 0 11 C0 7.37 0 3.74 0 0 Z " fill="#2645A0" transform="translate(34,24)"/>
<path d="M0 0 C0.33 0 0.66 0 1 0 C1 3.3 1 6.6 1 10 C0.67 8.68 0.34 7.36 0 6 C-1.32 6 -2.64 6 -4 6 C-4 6.66 -4 7.32 -4 8 C-4.99 7.67 -5.98 7.34 -7 7 C-6.67 5.35 -6.34 3.7 -6 2 C-3 2 -3 2 0 3 C0 2.01 0 1.02 0 0 Z " fill="#062A8F" transform="translate(31,24)"/>
<path d="M0 0 C0 1.98 0 3.96 0 6 C-2.31 6 -4.62 6 -7 6 C-6.67 4.35 -6.34 2.7 -6 1 C-3 0 -3 0 0 0 Z " fill="#DF196B" transform="translate(7,74)"/>
<path d="M0 0 C0 2.31 0 4.62 0 7 C-2.31 7 -4.62 7 -7 7 C-7.33 6.01 -7.66 5.02 -8 4 C-1.125 0 -1.125 0 0 0 Z " fill="#22D508" transform="translate(47,73)"/>
<path d="M0 0 C1.65 0 3.3 0 5 0 C5 2.31 5 4.62 5 7 C3.35 7 1.7 7 0 7 C0 4.69 0 2.38 0 0 Z " fill="#121C75" transform="translate(75,35)"/>
<path d="M0 0 C1.98 0 3.96 0 6 0 C6 1.98 6 3.96 6 6 C5.01 6.33 4.02 6.66 3 7 C2.67 6.34 2.34 5.68 2 5 C1.01 5.495 1.01 5.495 0 6 C0 4.02 0 2.04 0 0 Z " fill="#E61388" transform="translate(74,0)"/>
<path d="M0 0 C2.64 0 5.28 0 8 0 C8.33 0.99 8.66 1.98 9 3 C6.03 3.66 3.06 4.32 0 5 C0 3.35 0 1.7 0 0 Z " fill="#188C9B" transform="translate(32,0)"/>
<path d="M0 0 C0.93619813 3.15506142 1.1057123 5.96586502 1.0625 9.25 C1.05347656 10.14203125 1.04445313 11.0340625 1.03515625 11.953125 C1.02355469 12.62859375 1.01195312 13.3040625 1 14 C0.67 14 0.34 14 0 14 C-0.33 12.35 -0.66 10.7 -1 9 C-1.33 11.31 -1.66 13.62 -2 16 C-2.33 16 -2.66 16 -3 16 C-3.19361753 10.48190035 -2.81170643 6.22197736 -1 1 C-0.67 0.67 -0.34 0.34 0 0 Z " fill="#CFE1E7" transform="translate(23,15)"/>
<path d="M0 0 C1.98 0 3.96 0 6 0 C6 1.65 6 3.3 6 5 C4.02 5 2.04 5 0 5 C0 3.35 0 1.7 0 0 Z " fill="#089EB4" transform="translate(74,75)"/>
<path d="M0 0 C2.79828356 0.38597015 3.8205884 0.80136573 5.75 2.9375 C7 5 7 5 7 7 C5.35 7 3.7 7 2 7 C1.34 4.69 0.68 2.38 0 0 Z " fill="#0D919E" transform="translate(33,73)"/>
<path d="M0 0 C0.33 0 0.66 0 1 0 C1.66 3.63 2.32 7.26 3 11 C2.01 11.33 1.02 11.66 0 12 C-1.1898306 9.6203388 -1.13349966 8.08514265 -1.125 5.4375 C-1.12886719 4.22900391 -1.12886719 4.22900391 -1.1328125 2.99609375 C-1 1 -1 1 0 0 Z " fill="#F3F5FA" transform="translate(22,23)"/>
<path d="M0 0 C1.32 0.66 2.64 1.32 4 2 C3.67 2.99 3.34 3.98 3 5 C5.64 5.33 8.28 5.66 11 6 C11 6.33 11 6.66 11 7 C6.71 7 2.42 7 -2 7 C-1.34 4.69 -0.68 2.38 0 0 Z " fill="#24B1B8" transform="translate(50,49)"/>
<path d="M0 0 C3.65316671 1.24976756 4.78065836 1.67098753 7 5 C6.01 6.485 6.01 6.485 5 8 C0.125 4.375 0.125 4.375 -1 1 C-0.67 0.67 -0.34 0.34 0 0 Z " fill="#F1F4F9" transform="translate(49,9)"/>
<path d="M0 0 C2.97 0 5.94 0 9 0 C9 0.99 9 1.98 9 3 C6.03 3 3.06 3 0 3 C0 2.01 0 1.02 0 0 Z " fill="#21307D" transform="translate(36,63)"/>
<path d="M0 0 C0.66 0.33 1.32 0.66 2 1 C1 4 1 4 -1 5 C-1 5.99 -1 6.98 -1 8 C-1.99 8 -2.98 8 -4 8 C-4.33 6.35 -4.66 4.7 -5 3 C-2.625 1.4375 -2.625 1.4375 0 0 Z " fill="#3C59A8" transform="translate(35,10)"/>
<path d="M0 0 C0.33 0 0.66 0 1 0 C1.02707139 2.24993359 1.04642829 4.49996095 1.0625 6.75 C1.07410156 8.00296875 1.08570313 9.2559375 1.09765625 10.546875 C1.02021027 13.28536501 0.82780815 15.41880293 0 18 C-0.66 18 -1.32 18 -2 18 C-2.042721 16.33388095 -2.04063832 14.66617115 -2 13 C-1.67 12.67 -1.34 12.34 -1 12 C-0.76572222 9.98405418 -0.58663876 7.961526 -0.4375 5.9375 C-0.35371094 4.83277344 -0.26992188 3.72804688 -0.18359375 2.58984375 C-0.12300781 1.73519531 -0.06242187 0.88054688 0 0 Z " fill="#ACBBD7" transform="translate(47,22)"/>
<path d="M0 0 C2.64 0 5.28 0 8 0 C6.6875 1.5 6.6875 1.5 5 3 C4.01 3 3.02 3 2 3 C1.67 3.99 1.34 4.98 1 6 C0.67 4.02 0.34 2.04 0 0 Z " fill="#D7176D" transform="translate(6,0)"/>
<path d="M0 0 C1.32 0.99 2.64 1.98 4 3 C3.67 4.32 3.34 5.64 3 7 C2.01 7 1.02 7 0 7 C0 5.35 0 3.7 0 2 C-0.66 1.67 -1.32 1.34 -2 1 C-1.34 0.67 -0.68 0.34 0 0 Z " fill="#0B3091" transform="translate(34,13)"/>
<path d="M0 0 C0.66 0 1.32 0 2 0 C2 2.31 2 4.62 2 7 C1.01 7.33 0.02 7.66 -1 8 C-1.04241723 5.66705225 -1.04092937 3.33297433 -1 1 C-0.67 0.67 -0.34 0.34 0 0 Z " fill="#FDFDFB" transform="translate(58,22)"/>
<path d="M0 0 C0 0.99 0 1.98 0 3 C-0.66 3 -1.32 3 -2 3 C-2.33 3.99 -2.66 4.98 -3 6 C-5 4.625 -5 4.625 -7 3 C-7 2.34 -7 1.68 -7 1 C-2.25 0 -2.25 0 0 0 Z " fill="#27459F" transform="translate(48,14)"/>
<path d="M0 0 C0.66 0.33 1.32 0.66 2 1 C1.67 2.32 1.34 3.64 1 5 C-0.65 5 -2.3 5 -4 5 C-4 4.01 -4 3.02 -4 2 C-2.125 0.9375 -2.125 0.9375 0 0 Z " fill="#DD0967" transform="translate(12,1)"/>
<path d="M0 0 C0.33 1.32 0.66 2.64 1 4 C-1.475 5.485 -1.475 5.485 -4 7 C-4.33 6.34 -4.66 5.68 -5 5 C-4.34 5 -3.68 5 -3 5 C-2.87625 4.360625 -2.7525 3.72125 -2.625 3.0625 C-2.41875 2.381875 -2.2125 1.70125 -2 1 C-1.34 0.67 -0.68 0.34 0 0 Z " fill="#E3DC01" transform="translate(33,63)"/>
<path d="M0 0 C0.33 0.66 0.66 1.32 1 2 C-1.64 2 -4.28 2 -7 2 C-7 1.34 -7 0.68 -7 0 C-4.30234372 -1.34882814 -2.84835666 -0.80338265 0 0 Z " fill="#01AAC0" transform="translate(30,53)"/>
<path d="M0 0 C0.33 0.66 0.66 1.32 1 2 C2.65 1.34 4.3 0.68 6 0 C6 1.32 6 2.64 6 4 C4.02 4 2.04 4 0 4 C0 2.68 0 1.36 0 0 Z " fill="#58DE0E" transform="translate(0,31)"/>
<path d="M0 0 C2.31 0 4.62 0 7 0 C7 0.66 7 1.32 7 2 C2.25 3.125 2.25 3.125 0 2 C0 1.34 0 0.68 0 0 Z " fill="#514F5D" transform="translate(37,68)"/>
<path d="M0 0 C1.98 0 3.96 0 6 0 C6 1.98 6 3.96 6 6 C5.01 4.68 4.02 3.36 3 2 C2.01 2.33 1.02 2.66 0 3 C0 2.01 0 1.02 0 0 Z " fill="#E50A76" transform="translate(0,35)"/>
<path d="M0 0 C3.63 0.33 7.26 0.66 11 1 C9.68 1.99 8.36 2.98 7 4 C4.69 3.01 2.38 2.02 0 1 C0 0.67 0 0.34 0 0 Z " fill="#1C3E9C" transform="translate(45,6)"/>
<path d="M0 0 C-2.91403262 1.94268841 -5.85808576 3.46395304 -9 5 C-9 4.01 -9 3.02 -9 2 C-5.5647952 -0.29013653 -4.014669 -0.17842973 0 0 Z " fill="#1B2F86" transform="translate(37,5)"/>
</svg>
