<?xml version="1.0" encoding="UTF-8"?>
<svg version="1.1" xmlns="http://www.w3.org/2000/svg" width="3264" height="679">
<path d="M0 0 C1.04900482 -0.0076664 1.04900482 -0.0076664 2.11920166 -0.01548767 C4.43632508 -0.0294149 6.75315215 -0.02842478 9.0703125 -0.02612305 C10.67692171 -0.03000793 12.28352988 -0.03434217 13.89013672 -0.03910828 C17.25947396 -0.04657697 20.62870643 -0.0462743 23.99804688 -0.04101562 C28.32278779 -0.03521648 32.64710107 -0.0521593 36.97177124 -0.0753603 C40.28998333 -0.09006744 43.60809166 -0.09097355 46.92633057 -0.08785057 C48.52118783 -0.08836519 50.11605068 -0.09362917 51.71087646 -0.10366249 C53.93774501 -0.1159533 56.16377069 -0.10928084 58.390625 -0.09765625 C59.65922363 -0.09828568 60.92782227 -0.0989151 62.23486328 -0.0995636 C63.70028564 0.08567619 63.70028564 0.08567619 65.1953125 0.2746582 C67.45930602 3.67064848 67.44315784 4.81856039 67.43582153 8.79850769 C67.43857086 9.94695663 67.44132019 11.09540558 67.44415283 12.27865601 C67.433367 14.17002792 67.433367 14.17002792 67.42236328 16.09960938 C67.42179917 17.43993623 67.42211572 18.78026371 67.42324829 20.12059021 C67.42382283 23.76084634 67.41205223 27.40097104 67.39810038 31.04119658 C67.38560983 34.84486588 67.38442384 38.64853809 67.38204956 42.45222473 C67.37582986 49.65576167 67.35941242 56.85923801 67.33935058 64.06274825 C67.31700682 72.26337879 67.30600199 80.46401219 67.29595971 88.66466558 C67.27504661 105.53469819 67.23986112 122.40467179 67.1953125 139.2746582 C68.30124756 138.64543457 69.40718262 138.01621094 70.54663086 137.36791992 C71.16871933 137.01398163 71.7908078 136.66004333 72.43174744 136.29537964 C74.57744792 135.05348473 76.66345147 133.72596197 78.7578125 132.3996582 C87.91231601 126.9125127 97.54530494 123.08872854 107.96484375 120.81762695 C110.15378705 120.4894484 110.15378705 120.4894484 111.1953125 119.2746582 C114.03503785 118.95114519 116.87604987 118.7616153 119.7265625 118.5559082 C122.136673 118.54080556 122.136673 118.54080556 123.1953125 117.2746582 C126.01787741 117.17458812 128.8105444 117.13590223 131.6328125 117.1496582 C132.42236328 117.14579102 133.21191406 117.14192383 134.02539062 117.13793945 C139.94205117 117.14802754 139.94205117 117.14802754 142.1953125 118.2746582 C143.79864041 118.35587744 145.40315276 118.41394954 147.0078125 118.4621582 C164.95180195 119.88389086 186.4449656 127.28130007 200.1953125 139.2746582 C200.1953125 139.9346582 200.1953125 140.5946582 200.1953125 141.2746582 C200.8553125 141.2746582 201.5153125 141.2746582 202.1953125 141.2746582 C202.1953125 141.9346582 202.1953125 142.5946582 202.1953125 143.2746582 C202.783125 143.53762695 203.3709375 143.8005957 203.9765625 144.0715332 C209.69059903 147.16998963 213.97357564 152.73327081 217.1953125 158.2746582 C217.1953125 158.9346582 217.1953125 159.5946582 217.1953125 160.2746582 C217.8553125 160.2746582 218.5153125 160.2746582 219.1953125 160.2746582 C228.47571295 178.22727752 228.47571295 178.22727752 231.1953125 187.2746582 C231.53304687 188.35545654 231.87078125 189.43625488 232.21875 190.54980469 C233.7486852 196.77225456 233.55556598 203.12671034 233.609375 209.49731445 C233.62839464 210.95363249 233.64811561 212.4099415 233.66847229 213.86624146 C233.72115493 217.85297622 233.76066181 221.83974107 233.79681015 225.82665634 C233.82035897 228.34212186 233.84712738 230.85753321 233.87490845 233.37295532 C234.21303131 264.236197 234.32715973 295.10151085 234.376091 325.96641159 C234.38282425 329.46827067 234.39293594 332.97010606 234.40386963 336.47195435 C234.42044115 342.00991642 234.42660783 347.54779548 234.42463493 353.0857811 C234.42539396 355.14295734 234.42952405 357.20013533 234.43716621 359.25729752 C234.4468984 362.07722338 234.44421625 364.8968669 234.43823242 367.71679688 C234.44385508 368.54676209 234.44947773 369.37672731 234.45527077 370.23184299 C234.43381381 374.10594614 234.39506879 375.97502377 232.1953125 379.2746582 C229.27282715 379.64888 229.27282715 379.64888 225.48242188 379.64697266 C224.7928389 379.65062332 224.10325592 379.65427399 223.39277649 379.65803528 C221.10795646 379.666157 218.82384208 379.65251802 216.5390625 379.63793945 C214.95487468 379.63742104 213.37068621 379.63793802 211.78649902 379.63945007 C208.46417657 379.63936028 205.14209642 379.62891615 201.81982422 379.61083984 C197.55568009 379.58815227 193.2918902 379.58760773 189.02770233 379.59435749 C185.75580686 379.59769487 182.48399253 379.59107178 179.21211243 379.58122826 C177.63959681 379.57737196 176.06707216 379.57622981 174.49455261 379.5778141 C172.29892704 379.5781839 170.10375999 379.56558905 167.90820312 379.54931641 C166.65736938 379.54470901 165.40653564 379.54010162 164.11779785 379.53535461 C161.1953125 379.2746582 161.1953125 379.2746582 159.1953125 377.2746582 C158.98234411 374.49548583 158.89436408 371.81355114 158.89233398 369.03198242 C158.8838635 368.17451825 158.87539301 367.31705408 158.86666584 366.43360615 C158.84060711 363.56551241 158.82857843 360.6975294 158.81640625 357.8293457 C158.80065592 355.80820497 158.78397602 353.78707128 158.76641846 351.76594543 C158.73064595 347.46291033 158.70068446 343.15988882 158.67514038 338.85678101 C158.63474575 332.16497642 158.57763016 325.47338493 158.5168457 318.78173828 C158.43778685 309.97520713 158.36175148 301.16866275 158.29101562 292.36206055 C158.27842319 290.79665921 158.27842319 290.79665921 158.26557636 289.1996336 C158.22808963 284.50380616 158.19153574 279.80797515 158.1574707 275.11212158 C158.09766155 266.88028796 158.02579899 258.64896826 157.92141724 250.4175415 C157.89595065 248.13811103 157.87762604 245.85858808 157.86691284 243.57904053 C157.79811838 229.21513373 157.37866096 216.73307675 148.3828125 204.8371582 C147.98255859 204.26545898 147.58230469 203.69375977 147.16992188 203.10473633 C141.91582924 195.92056885 134.76169818 191.59578515 126.1953125 189.2746582 C121.88631271 188.72064394 117.66031281 188.669012 113.3203125 188.7121582 C112.22589844 188.68831055 111.13148438 188.66446289 110.00390625 188.63989258 C98.15137113 188.66093258 87.66591649 192.90160435 79.1953125 201.2746582 C71.58869271 210.21577269 68.09874475 219.85309597 68.04382324 231.55032349 C68.03547958 232.81498444 68.02713593 234.07964539 68.01853943 235.38262939 C68.01423055 236.77648901 68.01000671 238.17034888 68.00585938 239.56420898 C67.99791264 241.03789504 67.98952434 242.51157878 67.98072815 243.98526001 C67.96270129 247.15383349 67.94767518 250.32240196 67.93495178 253.49100113 C67.91470432 258.49939513 67.88705708 263.50773153 67.85827637 268.51608276 C67.79313188 280.04851735 67.73763245 291.58099456 67.68228912 303.11347961 C67.63144937 313.6892778 67.57858328 324.265055 67.51776361 334.84080112 C67.48940067 339.82173183 67.46581035 344.80265568 67.44583893 349.78362679 C67.43246496 352.87796616 67.41505239 355.97227313 67.39652824 359.06658554 C67.38876431 360.50372246 67.38269818 361.94086968 67.37843513 363.37802124 C67.37239813 365.33635331 67.35977959 367.29466183 67.34680176 369.25296021 C67.34164803 370.34985231 67.33649429 371.44674442 67.33118439 372.57687569 C67.1953125 375.2746582 67.1953125 375.2746582 66.1953125 378.2746582 C63.28523664 379.72969613 60.7328159 379.41001661 57.48242188 379.41992188 C56.7928389 379.42328049 56.10325592 379.4266391 55.39277649 379.43009949 C53.10818696 379.43961617 50.82367063 379.44155282 48.5390625 379.44262695 C46.95487436 379.44583857 45.37068653 379.44920257 43.78649902 379.45271301 C40.46426709 379.45870575 37.14206118 379.46055272 33.81982422 379.45996094 C29.55571509 379.4598592 25.29177205 379.4735226 21.02770233 379.49073315 C17.75583118 379.50183161 14.48400048 379.50388083 11.21211243 379.50335121 C9.63958665 379.50453416 8.06705993 379.50897344 6.49455261 379.51668358 C4.29898304 379.52644209 2.10377812 379.5236223 -0.09179688 379.51757812 C-1.34263062 379.51900314 -2.59346436 379.52042816 -3.88220215 379.52189636 C-6.8046875 379.2746582 -6.8046875 379.2746582 -8.8046875 377.2746582 C-9.05538583 374.62405157 -9.05538583 374.62405157 -9.05636978 371.17763519 C-9.06158528 369.86861315 -9.06680077 368.55959111 -9.07217431 367.21090174 C-9.0678495 365.74431969 -9.06333616 364.27773818 -9.05865479 362.81115723 C-9.06095708 361.26405487 -9.06413204 359.7169536 -9.06810927 358.16985464 C-9.07649777 353.90261491 -9.07231372 349.63546405 -9.06613684 345.36822391 C-9.06162984 340.77239791 -9.06858736 336.17658768 -9.07409668 331.58076477 C-9.08301114 322.57126209 -9.08105956 313.56179265 -9.0752714 304.55228865 C-9.07076296 297.23303238 -9.07013845 289.91378546 -9.07231903 282.5945282 C-9.0726255 281.55461616 -9.07293196 280.51470412 -9.07324772 279.44327959 C-9.07388714 277.33101912 -9.07453556 275.21875865 -9.0751929 273.10649818 C-9.08090221 253.27864115 -9.0743289 233.45080259 -9.06359217 213.62294859 C-9.05465611 196.5929428 -9.05620799 179.56296428 -9.06542969 162.53295898 C-9.07612173 142.77825232 -9.08035283 123.02356186 -9.07420516 103.26885271 C-9.07356803 101.16416455 -9.07293929 99.05947638 -9.07231903 96.95478821 C-9.07201048 95.91911826 -9.07170193 94.88344831 -9.07138403 93.81639442 C-9.06965388 86.50207863 -9.07257905 79.18777307 -9.07727814 71.87345886 C-9.08287515 62.96528042 -9.08139548 54.05713724 -9.07071665 45.14896286 C-9.06544398 40.59993286 -9.06343018 36.05096176 -9.07001495 31.50193214 C-9.07594371 27.34334881 -9.07275059 23.18487935 -9.06205985 19.02630645 C-9.05981268 17.51624757 -9.06099129 16.00617921 -9.06581143 14.49612635 C-9.07183154 12.45465109 -9.06450354 10.41314915 -9.05636978 8.37168121 C-9.05604508 7.23436381 -9.05572037 6.0970464 -9.05538583 4.92526484 C-8.51779183 -0.75865906 -4.7888658 0.01739256 0 0 Z " fill="#FEFEFE" transform="translate(536.8046875,148.725341796875)"/>
<path d="M0 0 C0.66209473 -0.00095673 1.32418945 -0.00191345 2.00634766 -0.00289917 C3.40852961 -0.00358076 4.8107147 -0.00172792 6.21289062 0.00244141 C8.36595713 0.00779004 10.51881502 0.0024958 12.671875 -0.00390625 C14.03125046 -0.00324546 15.3906258 -0.00196429 16.75 0 C18.61785156 0.00169189 18.61785156 0.00169189 20.5234375 0.00341797 C23.375 0.1328125 23.375 0.1328125 24.375 1.1328125 C25.8925772 1.29255747 27.41466579 1.41016512 28.9375 1.5078125 C33.11627864 1.88716262 36.49651539 2.71922094 40.34765625 4.3359375 C42.48142099 5.17464272 44.58903352 5.70288326 46.8125 6.2578125 C58.51261899 9.69370525 69.76265883 16.78775573 79.375 24.1328125 C79.35179687 23.00101562 79.32859375 21.86921875 79.3046875 20.703125 C79.28593099 19.22136075 79.26773066 17.73958938 79.25 16.2578125 C79.23324219 15.51144531 79.21648437 14.76507813 79.19921875 13.99609375 C79.1816041 12.04086789 79.27179811 10.08539229 79.375 8.1328125 C82.21678065 5.29103185 84.10744767 5.87908696 88.08789062 5.87402344 C89.12226509 5.86876648 89.12226509 5.86876648 90.17753601 5.86340332 C92.46220905 5.85458421 94.74657368 5.86043563 97.03125 5.8671875 C98.61543843 5.8658409 100.19962646 5.86390041 101.78381348 5.86138916 C105.10607838 5.85843766 108.42823585 5.86273632 111.75048828 5.87207031 C116.01461591 5.88346492 120.27849179 5.87690558 124.54261017 5.86492538 C127.81449286 5.85770745 131.0863156 5.85999439 134.35820007 5.86518097 C135.93072031 5.86651765 137.50324595 5.86486909 139.07575989 5.86022186 C141.27135693 5.85515765 143.46654304 5.862865 145.66210938 5.87402344 C147.53835999 5.87641022 147.53835999 5.87641022 149.45251465 5.87884521 C152.375 6.1328125 152.375 6.1328125 154.375 8.1328125 C154.62569833 9.99473953 154.62569833 9.99473953 154.62668228 12.30889893 C154.63189778 13.18946331 154.63711327 14.07002769 154.64248681 14.97727585 C154.63802537 15.9506049 154.63356392 16.92393394 154.62896729 17.92675781 C154.63208727 18.95611073 154.63520725 19.98546364 154.63842177 21.04600906 C154.64644061 24.51770901 154.64006302 27.98923605 154.63378906 31.4609375 C154.6364972 33.94071557 154.64005713 36.42049283 154.64440918 38.90026855 C154.65260524 44.94997779 154.65137373 50.99961839 154.6455839 57.04932499 C154.64107399 61.96440603 154.64045159 66.87947315 154.64263153 71.79455566 C154.642938 72.49309827 154.64324446 73.19164088 154.64356022 73.91135144 C154.64419964 75.33026092 154.64484807 76.74917039 154.6455054 78.16807985 C154.65121361 91.4849202 154.64464312 104.80173306 154.63390467 118.1185689 C154.62496871 129.55432013 154.62652061 140.99003076 154.63574219 152.42578125 C154.64643617 165.69375147 154.65066424 178.96169756 154.64451766 192.22967148 C154.64388054 193.64347076 154.6432518 195.05727005 154.64263153 196.47106934 C154.64232298 197.16675372 154.64201443 197.86243811 154.64169653 198.57920384 C154.63996696 203.49051189 154.6428903 208.40180467 154.64759064 213.31311035 C154.65377335 219.91876975 154.64939517 226.52436409 154.63780212 233.13002014 C154.63514737 235.56091687 154.63593441 237.99182003 154.64032745 240.42271423 C154.64575228 243.7281874 154.63898617 247.03341019 154.62896729 250.33886719 C154.63342873 251.31219624 154.63789017 252.28552528 154.64248681 253.28834915 C154.63727132 254.16891354 154.63205582 255.04947792 154.62668228 255.95672607 C154.62635758 256.72039867 154.62603287 257.48407127 154.62569833 258.27088547 C154.375 260.1328125 154.375 260.1328125 152.375 262.1328125 C149.45251465 262.38677979 149.45251465 262.38677979 145.66210938 262.39160156 C144.62773491 262.39685852 144.62773491 262.39685852 143.57246399 262.40222168 C141.28779095 262.41104079 139.00342632 262.40518937 136.71875 262.3984375 C135.13456157 262.3997841 133.55037354 262.40172459 131.96618652 262.40423584 C128.64392162 262.40718734 125.32176415 262.40288868 121.99951172 262.39355469 C117.73538409 262.38216008 113.47150821 262.38871942 109.20738983 262.40069962 C105.93550714 262.40791755 102.6636844 262.40563061 99.39179993 262.40044403 C97.81927969 262.39910735 96.24675405 262.40075591 94.67424011 262.40540314 C92.47864307 262.41046735 90.28345696 262.40276 88.08789062 262.39160156 C86.83705688 262.39001038 85.58622314 262.38841919 84.29748535 262.38677979 C81.375 262.1328125 81.375 262.1328125 79.375 260.1328125 C79.22992305 257.38795657 79.18847577 254.74800707 79.25 252.0078125 C79.25902344 251.25371094 79.26804687 250.49960937 79.27734375 249.72265625 C79.3009313 247.85923996 79.33680281 245.99598657 79.375 244.1328125 C78.32699219 244.8546875 77.27898437 245.5765625 76.19921875 246.3203125 C74.82055961 247.25817586 73.44163974 248.19565602 72.0625 249.1328125 C71.37220703 249.60976563 70.68191406 250.08671875 69.97070312 250.578125 C68.97006836 251.25488281 68.97006836 251.25488281 67.94921875 251.9453125 C67.03015747 252.57373047 67.03015747 252.57373047 66.0925293 253.21484375 C64.375 254.1328125 64.375 254.1328125 61.375 254.1328125 C61.375 254.7928125 61.375 255.4528125 61.375 256.1328125 C60.51777344 256.45894531 59.66054687 256.78507812 58.77734375 257.12109375 C57.63394531 257.55808594 56.49054688 257.99507812 55.3125 258.4453125 C54.18714844 258.87457031 53.06179688 259.30382812 51.90234375 259.74609375 C49.56043967 260.66677586 47.24216021 261.65009094 44.953125 262.6953125 C25.75838032 270.40673831 -0.983988 269.74453021 -20.625 264.1328125 C-21.582854 263.86162598 -21.582854 263.86162598 -22.56005859 263.58496094 C-24.24970574 263.10558644 -25.93752756 262.61978698 -27.625 262.1328125 C-27.625 261.4728125 -27.625 260.8128125 -27.625 260.1328125 C-28.7078125 260.1946875 -28.7078125 260.1946875 -29.8125 260.2578125 C-32.83229369 260.12359945 -34.89435729 259.38110631 -37.625 258.1328125 C-37.625 257.4728125 -37.625 256.8128125 -37.625 256.1328125 C-39.275 256.1328125 -40.925 256.1328125 -42.625 256.1328125 C-42.625 255.4728125 -42.625 254.8128125 -42.625 254.1328125 C-43.181875 254.02066406 -43.73875 253.90851563 -44.3125 253.79296875 C-53.25742315 251.23943495 -62.35071768 244.76942917 -69.625 239.1328125 C-69.625 238.4728125 -69.625 237.8128125 -69.625 237.1328125 C-70.181875 236.9059375 -70.73875 236.6790625 -71.3125 236.4453125 C-74.26346163 234.77044238 -76.34842891 232.60109484 -78.625 230.1328125 C-79.25921875 229.45734375 -79.8934375 228.781875 -80.546875 228.0859375 C-91.625 216.00828242 -91.625 216.00828242 -91.625 211.1328125 C-92.285 211.1328125 -92.945 211.1328125 -93.625 211.1328125 C-93.625 210.1428125 -93.625 209.1528125 -93.625 208.1328125 C-94.285 208.1328125 -94.945 208.1328125 -95.625 208.1328125 C-95.625 206.8128125 -95.625 205.4928125 -95.625 204.1328125 C-96.285 204.1328125 -96.945 204.1328125 -97.625 204.1328125 C-99.38962683 201.04471555 -99.625 199.89969114 -99.625 196.1328125 C-100.285 196.1328125 -100.945 196.1328125 -101.625 196.1328125 C-112.66015718 167.89924545 -116.73340683 135.04511399 -110.625 105.1328125 C-110.45838867 104.31200195 -110.29177734 103.49119141 -110.12011719 102.64550781 C-106.18656436 83.69787599 -106.18656436 83.69787599 -101.640625 75.97265625 C-100.57351668 74.03954849 -100.06657067 72.28786935 -99.625 70.1328125 C-98.965 70.1328125 -98.305 70.1328125 -97.625 70.1328125 C-97.625 68.8128125 -97.625 67.4928125 -97.625 66.1328125 C-96.965 66.1328125 -96.305 66.1328125 -95.625 66.1328125 C-95.521875 65.5965625 -95.41875 65.0603125 -95.3125 64.5078125 C-94.44407303 61.50779206 -93.06879704 58.894859 -91.625 56.1328125 C-90.965 56.1328125 -90.305 56.1328125 -89.625 56.1328125 C-89.54121094 55.59140625 -89.45742187 55.05 -89.37109375 54.4921875 C-88.36649281 51.31533427 -86.65077067 49.06677747 -84.6875 46.3828125 C-83.97722656 45.39796875 -83.26695313 44.413125 -82.53515625 43.3984375 C-81.58962891 42.27695312 -81.58962891 42.27695312 -80.625 41.1328125 C-79.965 41.1328125 -79.305 41.1328125 -78.625 41.1328125 C-78.625 40.4728125 -78.625 39.8128125 -78.625 39.1328125 C-77.965 39.1328125 -77.305 39.1328125 -76.625 39.1328125 C-76.38394531 38.56820312 -76.14289063 38.00359375 -75.89453125 37.421875 C-74.36715369 34.66789577 -72.53255784 32.73906391 -70.3125 30.5078125 C-69.55324219 29.73179687 -68.79398438 28.95578125 -68.01171875 28.15625 C-65.60603646 26.11673539 -63.60097826 25.11251508 -60.625 24.1328125 C-60.625 23.4728125 -60.625 22.8128125 -60.625 22.1328125 C-58.0928393 20.4194343 -55.57823873 18.85054653 -52.9375 17.3203125 C-52.16672119 16.87034912 -51.39594238 16.42038574 -50.60180664 15.95678711 C-44.13933781 12.26652684 -37.67528255 9.53207183 -30.625 7.1328125 C-29.16480932 6.57515174 -27.70619946 6.01331382 -26.25 5.4453125 C-21.27706159 3.64476584 -16.50690529 2.17831756 -11.25 1.5703125 C-7.03118852 1.0611456 -4.54023597 0.00411253 0 0 Z M-23.9296875 93.875 C-33.30783177 106.27613583 -37.99708639 123.5498314 -36.625 139.1328125 C-35.17956561 148.44311051 -32.8678271 157.29322796 -29.625 166.1328125 C-28.965 166.1328125 -28.305 166.1328125 -27.625 166.1328125 C-27.625 167.1228125 -27.625 168.1128125 -27.625 169.1328125 C-26.965 169.1328125 -26.305 169.1328125 -25.625 169.1328125 C-25.521875 169.6896875 -25.41875 170.2465625 -25.3125 170.8203125 C-24.48321592 173.6097226 -23.28200944 175.7467189 -21.625 178.1328125 C-20.965 178.1328125 -20.305 178.1328125 -19.625 178.1328125 C-19.38007812 178.720625 -19.13515625 179.3084375 -18.8828125 179.9140625 C-15.25562928 186.31232358 -7.23492903 190.36779731 -0.625 193.1328125 C0.16519531 193.50535156 0.95539063 193.87789063 1.76953125 194.26171875 C11.59857653 198.29739256 22.89298252 198.08787882 33.375 197.1328125 C33.705 196.8028125 34.035 196.4728125 34.375 196.1328125 C35.32375 196.0503125 36.2725 195.9678125 37.25 195.8828125 C46.41661834 194.64560021 55.46841305 189.08056742 62.375 183.1328125 C62.375 182.4728125 62.375 181.8128125 62.375 181.1328125 C62.94347656 180.92269531 63.51195312 180.71257812 64.09765625 180.49609375 C72.82941839 175.2690183 77.38569542 162.28755777 80.375 153.1328125 C80.87 151.6478125 80.87 151.6478125 81.375 150.1328125 C81.66743977 145.51266756 81.65306299 140.8861468 81.6875 136.2578125 C81.71650391 134.99710938 81.74550781 133.73640625 81.77539062 132.4375 C81.85474401 120.57111711 79.16954303 110.37374273 73.3125 100.0703125 C72.80493164 99.13541992 72.80493164 99.13541992 72.28710938 98.18164062 C70.53331627 94.99631814 68.78366851 91.86900534 66.375 89.1328125 C65.715 89.1328125 65.055 89.1328125 64.375 89.1328125 C63.88 87.6478125 63.88 87.6478125 63.375 86.1328125 C56.53085807 79.59245754 45.64871973 73.42453927 36.125 72.5703125 C32.375 72.1328125 32.375 72.1328125 31.375 71.1328125 C8.58216743 69.56706345 -8.92074575 76.0169032 -23.9296875 93.875 Z " fill="#FEFEFE" transform="translate(1427.625,265.8671875)"/>
<path d="M0 0 C1.20591797 -0.00128906 2.41183594 -0.00257813 3.65429688 -0.00390625 C4.92466797 -0.00003906 6.19503906 0.00382812 7.50390625 0.0078125 C8.77041016 0.00394531 10.03691406 0.00007813 11.34179688 -0.00390625 C12.54900391 -0.00261719 13.75621094 -0.00132812 15 0 C16.11431396 0.00112793 17.22862793 0.00225586 18.37670898 0.00341797 C21.06640625 0.1328125 21.06640625 0.1328125 23.06640625 1.1328125 C24.39878607 1.21311218 25.73249511 1.27168032 27.06640625 1.3203125 C43.92684668 2.92375496 59.66043119 11.81100406 74.06640625 20.1328125 C74.06640625 20.7928125 74.06640625 21.4528125 74.06640625 22.1328125 C75.05640625 22.1328125 76.04640625 22.1328125 77.06640625 22.1328125 C77.03160156 21.31296875 76.99679688 20.493125 76.9609375 19.6484375 C76.93386719 18.57078125 76.90679688 17.493125 76.87890625 16.3828125 C76.84410156 15.31546875 76.80929688 14.248125 76.7734375 13.1484375 C77.1123362 9.6600402 77.5686158 8.55476171 80.06640625 6.1328125 C83.06445312 5.62487793 83.06445312 5.62487793 86.78515625 5.61523438 C87.46352539 5.6082251 88.14189453 5.60121582 88.84082031 5.59399414 C91.08309876 5.57638927 93.32411499 5.5880442 95.56640625 5.6015625 C97.12435142 5.59886826 98.68229496 5.59498641 100.24023438 5.58996582 C103.50537119 5.58406745 106.77007031 5.5926441 110.03515625 5.61132812 C114.22207476 5.63411851 118.40796776 5.62099715 122.59484863 5.59703827 C125.81192767 5.58258906 129.02876327 5.5871821 132.24584961 5.59754944 C133.78963339 5.60021919 135.33343923 5.59693822 136.87719727 5.58763123 C139.034613 5.57747927 141.19036461 5.59294407 143.34765625 5.61523438 C144.57548828 5.61841675 145.80332031 5.62159912 147.06835938 5.62487793 C150.06640625 6.1328125 150.06640625 6.1328125 151.73081589 7.54731655 C153.81993912 11.59153536 153.47189971 15.52175123 153.43389893 20.00868225 C153.43880219 21.52971523 153.43880219 21.52971523 153.4438045 23.08147615 C153.45110476 26.48944545 153.4369091 29.89698839 153.42285156 33.30493164 C153.42364215 35.74397352 153.42573854 38.18301529 153.42904663 40.62205505 C153.43365496 46.56490139 153.42436211 52.50763089 153.40875867 58.45044953 C153.39122932 65.36831533 153.38979963 72.28615604 153.38914308 79.20404058 C153.38745475 91.54499049 153.37163611 103.88588161 153.34765625 116.22680664 C153.32439299 128.20760587 153.31023085 140.18836782 153.30664062 152.16918945 C153.30641786 152.90721725 153.30619509 153.64524505 153.30596557 154.40563733 C153.30552298 155.89236555 153.30508095 157.37909377 153.3046395 158.86582198 C153.30441994 159.59917796 153.30420037 160.33253394 153.30397415 161.08811283 C153.30365017 162.18533267 153.30365017 162.18533267 153.30331965 163.30471856 C153.29962021 174.71488762 153.28826086 186.12505065 153.27584375 197.5352131 C153.27140651 201.67363091 153.26796906 205.81204816 153.26522163 209.95046742 C153.26037828 217.12669525 153.25027546 224.30289105 153.23439407 231.479105 C153.22986276 233.86604298 153.22703045 236.25298486 153.22598648 238.63992691 C153.22424675 241.887956 153.21637961 245.1359122 153.20684814 248.38392639 C153.20814787 249.81415865 153.20814787 249.81415865 153.20947385 251.27328449 C153.2056327 252.14067295 153.20179156 253.0080614 153.19783401 253.90173435 C153.19596427 255.02682088 153.19596427 255.02682088 153.19405675 256.17463642 C153.06640625 258.1328125 153.06640625 258.1328125 152.06640625 261.1328125 C149.18531712 262.57335707 146.68073936 262.28404808 143.46118164 262.30981445 C142.78295853 262.31638565 142.10473541 262.32295685 141.40596008 262.32972717 C139.15865981 262.34945981 136.91142627 262.3611209 134.6640625 262.37109375 C133.51401135 262.37720704 133.51401135 262.37720704 132.34072685 262.38344383 C128.28485254 262.40430168 124.22901206 262.41860616 120.1730957 262.42797852 C115.97841741 262.43905914 111.78426725 262.47347819 107.58977604 262.51315022 C104.36847425 262.53925463 101.14729968 262.54766466 97.92590141 262.55125999 C96.37929137 262.55613986 94.83268753 262.56779357 93.2861805 262.58629799 C91.12403165 262.61056623 88.96326783 262.60974842 86.80102539 262.6027832 C84.95475304 262.61158257 84.95475304 262.61158257 83.07118225 262.62055969 C80.06640625 262.1328125 80.06640625 262.1328125 78.1638031 260.30558777 C76.62138145 257.25169198 76.77699098 254.77998824 76.87890625 251.3828125 C76.91951172 249.62710938 76.91951172 249.62710938 76.9609375 247.8359375 C76.99574219 246.94390625 77.03054687 246.051875 77.06640625 245.1328125 C76.46054688 245.58011719 75.8546875 246.02742187 75.23046875 246.48828125 C62.92649728 255.36606989 48.91876648 261.85125654 34.06640625 265.1328125 C33.31004883 265.30272705 32.55369141 265.4726416 31.77441406 265.64770508 C24.14137648 267.21612788 16.71880929 267.48012447 8.94140625 267.4453125 C7.66330078 267.44112305 6.38519531 267.43693359 5.06835938 267.43261719 C-11.05193067 267.24061171 -25.96379841 264.27917008 -40.93359375 258.1328125 C-40.93359375 257.4728125 -40.93359375 256.8128125 -40.93359375 256.1328125 C-41.51367188 256.00777344 -42.09375 255.88273438 -42.69140625 255.75390625 C-52.02072714 253.16965186 -60.24623754 245.78105679 -67.93359375 240.1328125 C-69.13048828 239.30136719 -69.13048828 239.30136719 -70.3515625 238.453125 C-71.13466797 237.79957031 -71.13466797 237.79957031 -71.93359375 237.1328125 C-71.93359375 236.4728125 -71.93359375 235.8128125 -71.93359375 235.1328125 C-72.92359375 234.8028125 -73.91359375 234.4728125 -74.93359375 234.1328125 C-74.93359375 233.4728125 -74.93359375 232.8128125 -74.93359375 232.1328125 C-75.50851563 231.89949219 -76.0834375 231.66617188 -76.67578125 231.42578125 C-91.9771645 222.6632244 -103.59045896 196.01403259 -108.16186523 179.83618164 C-109.18483547 175.95553691 -110.08935623 172.05587304 -110.93359375 168.1328125 C-111.16820313 167.06160156 -111.4028125 165.99039063 -111.64453125 164.88671875 C-119.2522065 123.37527339 -110.55179297 81.35532671 -86.69433594 46.75439453 C-86.25766602 46.13677246 -85.82099609 45.51915039 -85.37109375 44.8828125 C-84.95375977 44.29226074 -84.53642578 43.70170898 -84.10644531 43.09326172 C-83.1046636 41.73025664 -82.02614304 40.42420148 -80.93359375 39.1328125 C-80.27359375 39.1328125 -79.61359375 39.1328125 -78.93359375 39.1328125 C-78.93359375 38.4728125 -78.93359375 37.8128125 -78.93359375 37.1328125 C-78.27359375 37.1328125 -77.61359375 37.1328125 -76.93359375 37.1328125 C-76.93359375 36.4728125 -76.93359375 35.8128125 -76.93359375 35.1328125 C-76.27359375 35.1328125 -75.61359375 35.1328125 -74.93359375 35.1328125 C-74.93359375 34.4728125 -74.93359375 33.8128125 -74.93359375 33.1328125 C-73.03515625 31.40625 -73.03515625 31.40625 -70.55859375 29.5078125 C-69.74648437 28.87617188 -68.934375 28.24453125 -68.09765625 27.59375 C-65.93359375 26.1328125 -65.93359375 26.1328125 -63.93359375 26.1328125 C-63.93359375 25.4728125 -63.93359375 24.8128125 -63.93359375 24.1328125 C-62.94359375 24.1328125 -61.95359375 24.1328125 -60.93359375 24.1328125 C-60.93359375 23.4728125 -60.93359375 22.8128125 -60.93359375 22.1328125 C-58.40143305 20.4194343 -55.88683248 18.85054653 -53.24609375 17.3203125 C-52.47531494 16.87034912 -51.70453613 16.42038574 -50.91040039 15.95678711 C-44.44793156 12.26652684 -37.9838763 9.53207183 -30.93359375 7.1328125 C-29.47340307 6.57515174 -28.01479321 6.01331382 -26.55859375 5.4453125 C-20.59330019 3.28546483 -15.05962594 1.90260161 -8.75390625 1.37890625 C-5.59196481 0.95143348 -3.65382134 0.00370221 0 0 Z M3.06640625 74.1328125 C2.15632813 74.47183594 1.24625 74.81085938 0.30859375 75.16015625 C-4.53855109 77.02382745 -8.84227441 78.90282354 -12.93359375 82.1328125 C-12.93359375 82.7928125 -12.93359375 83.4528125 -12.93359375 84.1328125 C-13.5265625 84.40609375 -14.11953125 84.679375 -14.73046875 84.9609375 C-24.98533892 90.41565568 -31.02930904 103.32346302 -34.43359375 113.9453125 C-38.97413522 133.58008643 -36.9858617 153.67147043 -26.68359375 171.0703125 C-17.68037156 183.9038529 -8.4769654 191.98457408 6.94921875 195.58984375 C9.06640625 196.1328125 9.06640625 196.1328125 10.06640625 197.1328125 C11.76199351 197.23213403 13.46166372 197.26361257 15.16015625 197.265625 C16.19011719 197.26691406 17.22007812 197.26820313 18.28125 197.26953125 C19.36535156 197.26566406 20.44945313 197.26179688 21.56640625 197.2578125 C23.19255859 197.26361328 23.19255859 197.26361328 24.8515625 197.26953125 C25.88152344 197.26824219 26.91148437 197.26695312 27.97265625 197.265625 C28.92462891 197.26449707 29.87660156 197.26336914 30.85742188 197.26220703 C33.04092763 197.37980706 33.04092763 197.37980706 34.06640625 196.1328125 C35.10152344 196.01035156 36.13664062 195.88789063 37.203125 195.76171875 C50.16794112 193.65116729 62.57407133 184.24096755 70.10546875 173.796875 C71.23309771 172.16441654 71.23309771 172.16441654 71.06640625 170.1328125 C71.72640625 170.1328125 72.38640625 170.1328125 73.06640625 170.1328125 C82.75897844 152.09827244 84.37674976 132.68123262 78.71679688 113.17236328 C74.19337897 98.9874409 65.25268046 85.81177227 52.1953125 78.22265625 C42.09839933 73.05377776 32.3104263 70.77705879 21.00390625 70.8203125 C20.15763672 70.80419922 19.31136719 70.78808594 18.43945312 70.77148438 C12.68659387 70.76704886 8.30193514 71.8106903 3.06640625 74.1328125 Z " fill="#FEFEFE" transform="translate(2720.93359375,265.8671875)"/>
<path d="M0 0 C1.21042969 -0.00128906 2.42085937 -0.00257813 3.66796875 -0.00390625 C4.94285156 -0.00003906 6.21773437 0.00382812 7.53125 0.0078125 C9.44357422 0.00201172 9.44357422 0.00201172 11.39453125 -0.00390625 C13.21017578 -0.00197266 13.21017578 -0.00197266 15.0625 0 C16.18205078 0.00112793 17.30160156 0.00225586 18.45507812 0.00341797 C21.03125 0.1328125 21.03125 0.1328125 22.03125 1.1328125 C23.5488272 1.29255747 25.07091579 1.41016512 26.59375 1.5078125 C30.78219562 1.88858028 34.20127761 2.71709632 38.06640625 4.33203125 C40.03343123 5.13370147 41.99382842 5.72333642 44.03125 6.3203125 C54.30010775 9.71350028 64.88610458 15.00581026 73.03125 22.1328125 C73.03125 22.7928125 73.03125 23.4528125 73.03125 24.1328125 C73.69125 24.1328125 74.35125 24.1328125 75.03125 24.1328125 C75.10472656 22.56080078 75.10472656 22.56080078 75.1796875 20.95703125 C75.25473143 19.57809896 75.33027857 18.199194 75.40625 16.8203125 C75.4371875 16.13001953 75.468125 15.43972656 75.5 14.72851562 C75.71249919 11.06290461 75.95058861 9.25380458 78.03125 6.1328125 C80.91577148 5.7585907 80.91577148 5.7585907 84.65234375 5.76049805 C85.33217316 5.75684738 86.01200256 5.75319672 86.71243286 5.74943542 C88.96479089 5.74131413 91.21643301 5.75495228 93.46875 5.76953125 C95.03051757 5.77004967 96.59228581 5.76953267 98.15405273 5.76802063 C101.42929814 5.76811042 104.70429776 5.77855414 107.97949219 5.79663086 C112.18310365 5.81931844 116.38635577 5.81986296 120.5900116 5.81311321 C123.81558439 5.80977575 127.04107488 5.81639908 130.26663208 5.82624245 C131.81681895 5.8300986 133.36701496 5.83124095 134.91720581 5.8296566 C137.08170087 5.82928678 139.24573088 5.84188223 141.41015625 5.8581543 C143.25975952 5.86506538 143.25975952 5.86506538 145.14672852 5.87211609 C148.03125 6.1328125 148.03125 6.1328125 150.03125 8.1328125 C150.28079766 10.00230223 150.28079766 10.00230223 150.28013897 12.32730961 C150.28703716 13.65430633 150.28703716 13.65430633 150.29407471 15.00811106 C150.28635937 16.47496423 150.28635937 16.47496423 150.27848816 17.97145081 C150.28090257 19.00559284 150.28331699 20.03973487 150.28580457 21.10521454 C150.29146969 24.59307384 150.28275726 28.08075226 150.27416992 31.56860352 C150.2752421 34.05985565 150.27717982 36.55110754 150.27992249 39.0423584 C150.28427844 45.1198098 150.27931431 51.1971896 150.27007218 57.27463026 C150.25970455 64.34545329 150.25975793 71.41626448 150.26024476 78.48709368 C150.26074573 91.09874777 150.25157429 103.71037653 150.23706055 116.32202148 C150.22296944 128.57267722 150.21588987 140.82331066 150.21655273 153.07397461 C150.21659269 153.82859364 150.21663265 154.58321267 150.21667381 155.36069895 C150.21671417 156.11398613 150.21675452 156.86727331 150.2167961 157.64338738 C150.21748517 171.57249631 150.2116007 185.50159572 150.20264288 199.43070157 C150.19962103 204.36501618 150.19856268 209.29932905 150.19811058 214.23364449 C150.19735897 220.86801418 150.19103418 227.5023633 150.18094444 234.13672638 C150.17801124 236.57933088 150.17679572 239.0219381 150.17737198 241.4645443 C150.17785888 244.78344102 150.17224464 248.10227044 150.16496277 251.42115784 C150.16651137 252.40129067 150.16805997 253.38142351 150.1696555 254.39125735 C150.16643106 255.27331408 150.16320661 256.15537081 150.15988445 257.06415653 C150.15918003 257.83124662 150.1584756 258.5983367 150.15774983 259.38867193 C150.03125 261.1328125 150.03125 261.1328125 149.03125 262.1328125 C146.83342939 262.2376849 144.63219585 262.27138281 142.43188477 262.27807617 C141.39772934 262.28311409 141.39772934 262.28311409 140.34268188 262.28825378 C138.05265525 262.2977902 135.76270153 262.29970824 133.47265625 262.30078125 C131.88703887 262.30399199 130.3014218 262.30735592 128.71580505 262.31086731 C125.38759677 262.31686533 122.05941448 262.31870652 118.73120117 262.31811523 C114.45921629 262.31801358 110.18739749 262.33166624 105.915452 262.34888744 C102.63928965 262.3599873 99.36316769 262.36203507 96.08698845 262.36150551 C94.5116716 262.36268866 92.93635381 262.36712906 91.36105537 262.37483788 C89.16058738 262.3845973 86.96048318 262.381776 84.76000977 262.37573242 C83.50615982 262.37715744 82.25230988 262.37858246 80.96046448 262.38005066 C78.03125 262.1328125 78.03125 262.1328125 76.03125 260.1328125 C75.72525937 257.56364593 75.52037913 255.08522866 75.40625 252.5078125 C75.36757813 251.80140625 75.32890625 251.095 75.2890625 250.3671875 C75.19477276 248.62282726 75.11192109 246.87785559 75.03125 245.1328125 C74.2475 245.6278125 73.46375 246.1228125 72.65625 246.6328125 C70.03125 248.1328125 70.03125 248.1328125 68.03125 248.1328125 C68.03125 248.7928125 68.03125 249.4528125 68.03125 250.1328125 C61.40625 254.1328125 61.40625 254.1328125 58.03125 254.1328125 C58.03125 254.7928125 58.03125 255.4528125 58.03125 256.1328125 C56.71125 256.1328125 55.39125 256.1328125 54.03125 256.1328125 C54.03125 256.7928125 54.03125 257.4528125 54.03125 258.1328125 C52.71125 258.1328125 51.39125 258.1328125 50.03125 258.1328125 C50.03125 258.7928125 50.03125 259.4528125 50.03125 260.1328125 C20.9097399 271.18664196 -12.89666471 270.29581252 -41.40625 257.8203125 C-74.15878239 242.33815279 -96.41744147 218.31595994 -108.87890625 184.4140625 C-122.11288142 144.56983618 -118.99331912 101.55880323 -100.4765625 63.89453125 C-96.39274856 56.04501935 -91.92240083 49.19837116 -85.68359375 42.8828125 C-83.89053684 41.23187461 -83.89053684 41.23187461 -82.96875 39.1328125 C-82.30875 39.1328125 -81.64875 39.1328125 -80.96875 39.1328125 C-80.96875 38.4728125 -80.96875 37.8128125 -80.96875 37.1328125 C-80.30875 37.1328125 -79.64875 37.1328125 -78.96875 37.1328125 C-78.96875 36.4728125 -78.96875 35.8128125 -78.96875 35.1328125 C-78.30875 35.1328125 -77.64875 35.1328125 -76.96875 35.1328125 C-76.96875 34.4728125 -76.96875 33.8128125 -76.96875 33.1328125 C-75.0703125 31.40625 -75.0703125 31.40625 -72.59375 29.5078125 C-71.78164063 28.87617188 -70.96953125 28.24453125 -70.1328125 27.59375 C-67.96875 26.1328125 -67.96875 26.1328125 -65.96875 26.1328125 C-65.96875 25.4728125 -65.96875 24.8128125 -65.96875 24.1328125 C-63.60447227 22.44534342 -61.25347871 20.89798628 -58.78125 19.3828125 C-58.0596167 18.93615234 -57.3379834 18.48949219 -56.59448242 18.02929688 C-50.27031508 14.18373565 -43.80372512 10.98634231 -36.96875 8.1328125 C-36.16179687 7.78347656 -35.35484375 7.43414062 -34.5234375 7.07421875 C-31.48191084 5.95341153 -28.44762853 5.25991147 -25.28125 4.5703125 C-21.00121072 3.70236941 -21.00121072 3.70236941 -16.96875 2.1328125 C-14.37731095 1.82235724 -11.78503268 1.62307338 -9.18359375 1.4140625 C-5.82259108 0.98726851 -3.80683758 0.00383533 0 0 Z M1.03125 74.1328125 C-0.53075593 74.67590228 -2.0932105 75.21770461 -3.65625 75.7578125 C-18.45891375 81.68338414 -28.25224368 93.21378296 -34.5234375 107.38671875 C-41.295445 124.03457053 -40.2938427 144.57730004 -34.22265625 161.22265625 C-29.19414709 172.89318373 -21.84597339 183.65506868 -9.96875 189.1328125 C-8.97875 189.1328125 -7.98875 189.1328125 -6.96875 189.1328125 C-6.96875 189.7928125 -6.96875 190.4528125 -6.96875 191.1328125 C-1.26543391 193.6000418 3.84680542 195.47489286 10.03125 196.1328125 C10.36125 196.4628125 10.69125 196.7928125 11.03125 197.1328125 C12.43473735 197.23141381 13.84305477 197.26360187 15.25 197.265625 C16.09949219 197.26691406 16.94898438 197.26820313 17.82421875 197.26953125 C18.71753906 197.26566406 19.61085938 197.26179688 20.53125 197.2578125 C21.42457031 197.26167969 22.31789063 197.26554687 23.23828125 197.26953125 C24.51251953 197.26759766 24.51251953 197.26759766 25.8125 197.265625 C26.59689453 197.26449707 27.38128906 197.26336914 28.18945312 197.26220703 C30.04877988 197.33388692 30.04877988 197.33388692 31.03125 196.1328125 C31.98 196.0503125 32.92875 195.9678125 33.90625 195.8828125 C38.52570588 195.3077765 42.41879508 193.28739978 46.578125 191.2890625 C49.03125 190.1328125 49.03125 190.1328125 52.03125 189.1328125 C52.03125 188.4728125 52.03125 187.8128125 52.03125 187.1328125 C52.90523437 186.97619141 52.90523437 186.97619141 53.796875 186.81640625 C56.36770423 186.02987633 57.7652558 184.95715359 59.78125 183.1953125 C60.70164062 182.40833984 60.70164062 182.40833984 61.640625 181.60546875 C63.26010563 180.22803634 63.26010563 180.22803634 63.03125 178.1328125 C63.69125 178.1328125 64.35125 178.1328125 65.03125 178.1328125 C75.53941972 166.40707148 80.41573095 148.72638276 80.14916992 133.16186523 C79.04544418 114.17001293 72.44935074 97.5391413 58.5703125 84.2890625 C54.96813298 81.22998082 51.3291017 79.06426558 47.03125 77.1328125 C46.22816406 76.75382812 45.42507813 76.37484375 44.59765625 75.984375 C39.36561072 73.68260146 34.67191243 72.62021216 28.96484375 72.30859375 C27.03125 72.1328125 27.03125 72.1328125 26.03125 71.1328125 C23.14323118 70.97799087 20.29564514 70.90101341 17.40625 70.8828125 C16.61089844 70.8621875 15.81554687 70.8415625 14.99609375 70.8203125 C9.51693825 70.78432461 5.93661856 71.70701514 1.03125 74.1328125 Z " fill="#FEFEFE" transform="translate(918.96875,265.8671875)"/>
<path d="M0 0 C0.82834351 0.00045822 1.65668701 0.00091644 2.51013184 0.00138855 C4.24114434 0.00438398 5.97215482 0.0121877 7.703125 0.0246582 C10.36467902 0.04311388 13.02588815 0.04516615 15.6875 0.04492188 C17.37500303 0.04983066 19.06250371 0.05565617 20.75 0.0625 C21.54780884 0.06361282 22.34561768 0.06472565 23.16760254 0.06587219 C28.72763498 0.11435373 28.72763498 0.11435373 29.84375 1.23046875 C31.3613272 1.39021372 32.88341579 1.50782137 34.40625 1.60546875 C38.57742865 1.98412894 41.95363565 2.81697793 45.80078125 4.421875 C48.015989 5.29863983 50.232939 5.91750247 52.53125 6.54296875 C64.37513989 10.04353651 77.39712494 16.16193958 86.84375 24.23046875 C86.84375 24.89046875 86.84375 25.55046875 86.84375 26.23046875 C87.50375 26.41609375 88.16375 26.60171875 88.84375 26.79296875 C92.47781905 28.5342935 95.02443357 30.86331436 97.9765625 33.57421875 C99.94718191 35.3984878 99.94718191 35.3984878 102.84375 37.23046875 C102.84375 37.89046875 102.84375 38.55046875 102.84375 39.23046875 C103.50375 39.23046875 104.16375 39.23046875 104.84375 39.23046875 C104.84375 39.89046875 104.84375 40.55046875 104.84375 41.23046875 C105.50375 41.23046875 106.16375 41.23046875 106.84375 41.23046875 C106.84375 41.89046875 106.84375 42.55046875 106.84375 43.23046875 C107.50375 43.23046875 108.16375 43.23046875 108.84375 43.23046875 C115.81072423 50.80255576 119.86311308 60.02059735 123.97705078 69.31054688 C124.69490903 70.90075457 125.46408485 72.46768255 126.24609375 74.02734375 C137.55086756 96.70912634 139.6893253 122.74161545 137.03125 147.60546875 C136.96131836 148.3008374 136.89138672 148.99620605 136.81933594 149.71264648 C136.29807747 153.92061446 135.47720769 156.89438168 132.84375 160.23046875 C119.85084039 164.37099927 103.74382852 162.58187814 90.2890625 162.64453125 C87.69969112 162.66331756 85.11032537 162.68289596 82.52096558 162.70321655 C77.09635283 162.74395414 71.67175448 162.77902852 66.24707031 162.80859375 C58.75653941 162.84942582 51.26613246 162.90232753 43.77569818 162.95786715 C13.79833119 163.17842549 -16.17811118 163.29263694 -46.15625 163.23046875 C-44.90275828 165.4673649 -43.64427474 167.70119796 -42.3828125 169.93359375 C-42.03162354 170.56152832 -41.68043457 171.18946289 -41.31860352 171.83642578 C-34.8531926 183.24597445 -24.02449834 193.79278994 -11.40625 198.23046875 C-9.99221809 198.57480768 -8.57516517 198.90684041 -7.15625 199.23046875 C-6.4540332 199.40199463 -5.75181641 199.57352051 -5.02832031 199.75024414 C17.33616772 204.77487529 40.19620383 202.27196049 59.54589844 190.06103516 C62.74248001 187.92462212 65.49126943 185.67489175 68.171875 182.9140625 C69.49445312 181.58568359 69.49445312 181.58568359 70.84375 180.23046875 C71.50375 180.23046875 72.16375 180.23046875 72.84375 180.23046875 C72.84375 179.57046875 72.84375 178.91046875 72.84375 178.23046875 C76.21079285 178.00089765 78.25745268 177.89103346 81.21875 179.60546875 C81.755 180.14171875 82.29125 180.67796875 82.84375 181.23046875 C82.84375 181.89046875 82.84375 182.55046875 82.84375 183.23046875 C83.40151123 183.4629834 83.95927246 183.69549805 84.53393555 183.93505859 C87.44328496 185.56670514 89.44723491 187.59219001 91.80078125 189.95703125 C92.26683273 190.42354095 92.73288422 190.89005066 93.21305847 191.37069702 C94.19788345 192.35853615 95.18028381 193.3487977 96.16040039 194.34130859 C97.63583043 195.83479922 99.1189074 197.32032625 100.60351562 198.8046875 C105.88302 204.10360875 111.09059178 209.44817595 115.84375 215.23046875 C116.68836792 216.22941162 116.68836792 216.22941162 117.55004883 217.24853516 C118.84375 219.23046875 118.84375 219.23046875 118.53125 222.48046875 C118.1909375 223.84171875 118.1909375 223.84171875 117.84375 225.23046875 C117.18375 225.23046875 116.52375 225.23046875 115.84375 225.23046875 C115.60269531 225.79378906 115.36164062 226.35710937 115.11328125 226.9375 C109.93249776 236.29479202 99.56875087 242.55248782 90.84375 248.23046875 C89.85375 248.89046875 88.86375 249.55046875 87.84375 250.23046875 C86.85375 250.23046875 85.86375 250.23046875 84.84375 250.23046875 C84.84375 250.89046875 84.84375 251.55046875 84.84375 252.23046875 C83.85375 252.23046875 82.86375 252.23046875 81.84375 252.23046875 C81.84375 252.89046875 81.84375 253.55046875 81.84375 254.23046875 C80.19375 254.23046875 78.54375 254.23046875 76.84375 254.23046875 C76.84375 254.89046875 76.84375 255.55046875 76.84375 256.23046875 C66.47017369 260.82272388 66.47017369 260.82272388 60.84375 260.23046875 C60.84375 260.89046875 60.84375 261.55046875 60.84375 262.23046875 C32.23474833 268.00617568 -0.06394029 271.89796505 -28.19140625 261.9128418 C-29.92400839 261.31112423 -31.6954592 260.82388519 -33.46875 260.35546875 C-41.70774563 257.84187686 -49.52335637 254.19370198 -57.15625 250.23046875 C-57.15625 249.57046875 -57.15625 248.91046875 -57.15625 248.23046875 C-57.84460937 248.15828125 -58.53296875 248.08609375 -59.2421875 248.01171875 C-62.9977556 247.00486403 -65.70877664 245.01645688 -68.78125 242.73046875 C-69.39444092 242.28195557 -70.00763184 241.83344238 -70.6394043 241.37133789 C-100.80114086 219.12113332 -119.07644891 189.464424 -124.85766602 152.24755859 C-129.8463312 118.54653511 -120.91888846 83.64091336 -100.9387207 56.15722656 C-96.99787456 50.88069169 -92.72282367 45.97627654 -88.15625 41.23046875 C-86.89941406 39.91369141 -86.89941406 39.91369141 -85.6171875 38.5703125 C-81.08481964 33.92155453 -76.67319031 29.67855645 -71.15625 26.23046875 C-70.49625 26.23046875 -69.83625 26.23046875 -69.15625 26.23046875 C-69.15625 25.57046875 -69.15625 24.91046875 -69.15625 24.23046875 C-66.62410449 22.51710083 -64.109402 20.94831479 -61.46875 19.41796875 C-60.31366943 18.74302368 -60.31366943 18.74302368 -59.13525391 18.05444336 C-52.6691162 14.35941188 -46.18822323 11.68607845 -39.15625 9.23046875 C-38.021875 8.71484375 -36.8875 8.19921875 -35.71875 7.66796875 C-24.39704298 3.09956065 -12.23412855 -0.11247037 0 0 Z M3.84375 64.23046875 C2.51259937 64.35956741 1.17854168 64.45954427 -0.15625 64.54296875 C-5.6156819 65.10380927 -10.19399603 66.96613927 -15.15625 69.23046875 C-15.87039062 69.55273438 -16.58453125 69.875 -17.3203125 70.20703125 C-21.98549507 72.42254266 -26.10387024 75.02233477 -30.15625 78.23046875 C-30.15625 78.89046875 -30.15625 79.55046875 -30.15625 80.23046875 C-30.81625 80.23046875 -31.47625 80.23046875 -32.15625 80.23046875 C-32.15625 80.89046875 -32.15625 81.55046875 -32.15625 82.23046875 C-33.14625 82.56046875 -34.13625 82.89046875 -35.15625 83.23046875 C-36.92752304 85.23441439 -36.92752304 85.23441439 -38.59375 87.73046875 C-39.16996094 88.54515625 -39.74617188 89.35984375 -40.33984375 90.19921875 C-41.87056351 92.75371022 -43.07994301 95.20118491 -44.26977539 97.91992188 C-44.62463516 98.72788208 -44.97949493 99.53584229 -45.34510803 100.36828613 C-45.61278488 100.9828064 -45.88046173 101.59732666 -46.15625 102.23046875 C-9.77610547 103.30254651 26.4660807 103.07775681 62.84375 102.23046875 C61.52375 98.60046875 60.20375 94.97046875 58.84375 91.23046875 C58.18375 91.23046875 57.52375 91.23046875 56.84375 91.23046875 C56.84375 90.24046875 56.84375 89.25046875 56.84375 88.23046875 C56.18375 88.23046875 55.52375 88.23046875 54.84375 88.23046875 C54.555 87.46734375 54.26625 86.70421875 53.96875 85.91796875 C52.88105987 83.08017567 52.88105987 83.08017567 50.84375 80.23046875 C50.18375 80.23046875 49.52375 80.23046875 48.84375 80.23046875 C48.84375 79.57046875 48.84375 78.91046875 48.84375 78.23046875 C48.18375 78.23046875 47.52375 78.23046875 46.84375 78.23046875 C46.84375 77.57046875 46.84375 76.91046875 46.84375 76.23046875 C36.99607902 68.43439589 16.21603924 58.04432413 3.84375 64.23046875 Z " fill="#FEFEFE" transform="translate(2186.15625,265.76953125)"/>
<path d="M0 0 C0.841642 0.00202423 1.683284 0.00404846 2.5504303 0.00613403 C3.83966148 0.00469894 3.83966148 0.00469894 5.15493774 0.00323486 C6.97662936 0.00255296 8.7983234 0.00440792 10.62001038 0.00857544 C13.41392975 0.01391708 16.20768788 0.00863415 19.00160217 0.00222778 C20.76787857 0.00288869 22.53415487 0.00417012 24.3004303 0.00613403 C25.14004807 0.0041098 25.97966583 0.00208557 26.84472656 0 C32.7619271 0.02399181 32.7619271 0.02399181 34.99183655 1.13894653 C36.34298354 1.2932001 37.69812853 1.41348668 39.05433655 1.51394653 C43.19644366 1.93742074 46.78865433 2.92273518 50.69496155 4.33035278 C53.00345086 5.14303524 55.32076455 5.80014152 57.67933655 6.45144653 C66.85769704 9.1762723 75.85090691 13.09932342 83.99183655 18.13894653 C83.99183655 18.79894653 83.99183655 19.45894653 83.99183655 20.13894653 C84.53582092 20.23175903 85.0798053 20.32457153 85.64027405 20.42019653 C94.99086302 23.27818386 103.07122474 31.53521256 109.99183655 38.13894653 C110.55128967 38.6352356 111.1107428 39.13152466 111.68714905 39.64285278 C113.72835283 41.50326423 114.97942662 43.11136891 116.11683655 45.63894653 C115.99183655 48.13894653 115.99183655 48.13894653 113.86683655 50.63894653 C112.91808655 51.46394653 111.96933655 52.28894653 110.99183655 53.13894653 C108.61583182 55.47968589 106.27438139 57.85177311 103.93519592 60.22927856 C101.56193918 62.64034207 99.18324393 65.04595918 96.80433655 67.45144653 C95.98513733 68.28740356 95.16593811 69.1233606 94.32191467 69.98464966 C93.5388092 70.77420044 92.75570374 71.56375122 91.9488678 72.37722778 C91.2370636 73.09950562 90.5252594 73.82178345 89.79188538 74.56594849 C87.99183655 76.13894653 87.99183655 76.13894653 85.99183655 76.13894653 C85.99183655 76.79894653 85.99183655 77.45894653 85.99183655 78.13894653 C85.33183655 78.13894653 84.67183655 78.13894653 83.99183655 78.13894653 C83.99183655 78.79894653 83.99183655 79.45894653 83.99183655 80.13894653 C83.33183655 80.13894653 82.67183655 80.13894653 81.99183655 80.13894653 C81.99183655 80.79894653 81.99183655 81.45894653 81.99183655 82.13894653 C79.51703558 84.68912215 76.74359869 86.89474269 73.99183655 89.13894653 C73.43367249 89.60687622 72.87550842 90.07480591 72.3004303 90.55691528 C70.80433655 91.70144653 70.80433655 91.70144653 67.99183655 93.13894653 C64.3819657 92.08028249 61.9810287 90.46756696 59.17933655 88.01394653 C50.90104839 81.35501997 38.47516181 74.31397034 27.74183655 73.57644653 C24.32627612 73.33052618 20.99710991 72.98779987 17.61683655 72.45144653 C3.7963458 70.92676606 -10.97139527 75.89242395 -21.76597595 84.23660278 C-23.97632321 86.047004 -23.97632321 86.047004 -25.68785095 87.88504028 C-27.00816345 89.13894653 -27.00816345 89.13894653 -29.00816345 89.13894653 C-29.00816345 89.79894653 -29.00816345 90.45894653 -29.00816345 91.13894653 C-29.66816345 91.13894653 -30.32816345 91.13894653 -31.00816345 91.13894653 C-31.25695251 91.66101685 -31.50574158 92.18308716 -31.7620697 92.72097778 C-33.04398488 95.20845582 -34.45037899 97.604933 -35.87705994 100.01150513 C-45.07592582 115.63507583 -47.31662515 131.942377 -43.89878845 149.95925903 C-41.62870935 158.06383968 -38.26762494 166.18932537 -33.2776947 172.99441528 C-31.00816345 176.13894653 -31.00816345 176.13894653 -31.00816345 178.13894653 C-30.34816345 178.13894653 -29.68816345 178.13894653 -29.00816345 178.13894653 C-29.00816345 178.79894653 -29.00816345 179.45894653 -29.00816345 180.13894653 C-28.34816345 180.13894653 -27.68816345 180.13894653 -27.00816345 180.13894653 C-27.00816345 180.79894653 -27.00816345 181.45894653 -27.00816345 182.13894653 C-26.43324158 182.40964966 -25.8583197 182.68035278 -25.26597595 182.95925903 C-22.98012109 184.15359842 -20.98251052 185.51883958 -18.88316345 187.01394653 C-11.24082369 192.1380727 -4.12547044 194.41535074 4.99183655 195.13894653 C5.32183655 195.46894653 5.65183655 195.79894653 5.99183655 196.13894653 C8.30257823 196.23827045 10.61646597 196.26864272 12.92933655 196.26394653 C14.19648499 196.26652466 15.46363342 196.26910278 16.7691803 196.27175903 C19.88338544 196.36400722 19.88338544 196.36400722 21.99183655 195.13894653 C23.90632971 194.98418212 25.82371351 194.86414699 27.74183655 194.76394653 C32.56052312 194.41276388 35.74801034 193.51962953 39.99183655 191.13894653 C42.86683655 190.95144653 42.86683655 190.95144653 44.99183655 191.13894653 C44.99183655 190.47894653 44.99183655 189.81894653 44.99183655 189.13894653 C45.68148499 188.78703247 46.37113342 188.43511841 47.0816803 188.07254028 C52.93926802 184.99509707 58.13384439 181.70385137 63.2144928 177.45925903 C64.99183655 176.13894653 64.99183655 176.13894653 66.99183655 176.13894653 C66.99183655 175.47894653 66.99183655 174.81894653 66.99183655 174.13894653 C70.77970252 174.66503903 73.16335879 175.51998565 75.99183655 178.13894653 C75.99183655 178.79894653 75.99183655 179.45894653 75.99183655 180.13894653 C76.5641803 180.39675903 77.13652405 180.65457153 77.72621155 180.92019653 C80.2031265 182.25260595 82.12595315 183.78950771 84.24183655 185.63894653 C84.9482428 186.24738403 85.65464905 186.85582153 86.38246155 187.48269653 C87.99183655 189.13894653 87.99183655 189.13894653 87.99183655 191.13894653 C88.65183655 191.13894653 89.31183655 191.13894653 89.99183655 191.13894653 C89.99183655 191.79894653 89.99183655 192.45894653 89.99183655 193.13894653 C90.65183655 193.13894653 91.31183655 193.13894653 91.99183655 193.13894653 C91.99183655 193.79894653 91.99183655 194.45894653 91.99183655 195.13894653 C92.65183655 195.13894653 93.31183655 195.13894653 93.99183655 195.13894653 C93.99183655 195.79894653 93.99183655 196.45894653 93.99183655 197.13894653 C94.52808655 197.34519653 95.06433655 197.55144653 95.61683655 197.76394653 C98.91161663 199.67145079 101.58547283 202.18714037 103.99183655 205.13894653 C103.99183655 205.79894653 103.99183655 206.45894653 103.99183655 207.13894653 C104.65183655 207.13894653 105.31183655 207.13894653 105.99183655 207.13894653 C105.99183655 207.79894653 105.99183655 208.45894653 105.99183655 209.13894653 C106.65183655 209.13894653 107.31183655 209.13894653 107.99183655 209.13894653 C109.9723053 211.18582153 109.9723053 211.18582153 112.17933655 213.88894653 C113.28341858 215.21152466 113.28341858 215.21152466 114.4098053 216.56082153 C115.99183655 219.13894653 115.99183655 219.13894653 115.80433655 221.32254028 C110.3251076 233.57177807 98.57485202 241.95598507 86.99183655 248.13894653 C86.00183655 248.13894653 85.01183655 248.13894653 83.99183655 248.13894653 C83.99183655 248.79894653 83.99183655 249.45894653 83.99183655 250.13894653 C71.35748103 256.88684096 58.08974233 262.35985545 43.99183655 265.13894653 C42.98378967 265.34390747 41.9757428 265.54886841 40.93714905 265.76004028 C12.34135337 270.54801993 -19.84667135 268.12044565 -46.00816345 255.13894653 C-46.82671814 254.7483606 -47.64527283 254.35777466 -48.4886322 253.95535278 C-59.18195614 248.77019571 -68.98705963 242.9023003 -78.00816345 235.13894653 C-78.85378845 234.41578247 -79.69941345 233.69261841 -80.57066345 232.94754028 C-102.81073481 213.4535753 -120.65121224 182.96283212 -123.19615173 152.91973877 C-123.26910246 150.66100193 -123.28568598 148.41053013 -123.27378845 146.15066528 C-123.2757019 145.32621414 -123.27761536 144.501763 -123.27958679 143.65232849 C-123.28093796 141.92040702 -123.27731685 140.18847506 -123.26890564 138.45657349 C-123.25823228 135.84329792 -123.26881619 133.23071617 -123.28160095 130.61746216 C-123.29028711 121.60905599 -123.02269993 112.96488762 -121.00816345 104.13894653 C-120.81093689 103.27293823 -120.61371033 102.40692993 -120.4105072 101.51467896 C-114.82180129 78.59794736 -104.37922552 60.08866175 -88.00816345 43.13894653 C-87.32882751 42.4080481 -86.64949158 41.67714966 -85.9495697 40.92410278 C-80.57962821 35.28622242 -74.48889027 30.44613728 -68.00816345 26.13894653 C-67.34816345 26.13894653 -66.68816345 26.13894653 -66.00816345 26.13894653 C-66.00816345 25.47894653 -66.00816345 24.81894653 -66.00816345 24.13894653 C-65.47449158 23.84761841 -64.9408197 23.55629028 -64.39097595 23.25613403 C-59.5033604 20.58023326 -59.5033604 20.58023326 -54.7464447 17.68191528 C-48.24365689 13.49760869 -41.50300775 10.90719875 -34.2542572 8.33816528 C-31.1948937 7.46509283 -31.1948937 7.46509283 -30.00816345 6.13894653 C-28.49222595 5.95332153 -28.49222595 5.95332153 -26.94566345 5.76394653 C-23.89394321 5.2795465 -21.84753133 4.76945005 -19.07066345 3.63894653 C-15.04905789 2.02087867 -11.30650773 1.59140383 -7.00816345 1.13894653 C-5.14307264 -0.72614428 -2.48118513 0.01010114 0 0 Z " fill="#FEFEFE" transform="translate(381.00816345214844,265.8610534667969)"/>
<path d="M0 0 C0.77915771 0.00202423 1.55831543 0.00404846 2.36108398 0.00613403 C3.15635498 0.00517731 3.95162598 0.00422058 4.77099609 0.00323486 C6.45564859 0.0025531 8.1403037 0.00440711 9.82495117 0.00857544 C12.41257595 0.01392378 15.00002714 0.00863034 17.58764648 0.00222778 C19.22045937 0.00288857 20.85327215 0.00416973 22.48608398 0.00613403 C23.65482056 0.00309769 23.65482056 0.00309769 24.84716797 0 C30.30863294 0.02399549 30.30863294 0.02399549 31.42358398 1.13894653 C33.25264634 1.34732073 35.08746532 1.50644312 36.92358398 1.63894653 C42.31247287 2.02783542 42.31247287 2.02783542 43.42358398 3.13894653 C44.43420898 3.26269653 45.44483398 3.38644653 46.48608398 3.51394653 C49.44731123 3.9839826 51.49536303 4.44959837 54.20092773 5.51394653 C56.83835547 6.53384529 59.46840077 7.50112042 62.14233398 8.42800903 C80.84486777 14.95842907 103.15317121 26.23332738 114.42358398 43.13894653 C114.89624023 45.95925903 114.89624023 45.95925903 114.42358398 49.13894653 C112.61645886 51.36447008 110.96658566 53.12175552 108.86108398 55.01394653 C107.81533421 55.98753039 106.77239936 56.96414585 105.73217773 57.94363403 C105.1873877 58.45627808 104.64259766 58.96892212 104.08129883 59.49710083 C102.37246933 61.18957188 100.80637043 62.95089124 99.23999023 64.77566528 C94.84071686 69.87884674 90.17793878 74.71454361 85.45336914 79.51419067 C84.42722914 80.56211118 83.40741328 81.61625928 82.39379883 82.67630005 C80.90770264 84.22942561 79.40271615 85.76181621 77.89233398 87.29129028 C77.0099707 88.19870972 76.12760742 89.10612915 75.21850586 90.04104614 C71.8552178 92.5655687 69.5940181 93.00517501 65.42358398 93.13894653 C62.61499023 91.69754028 62.61499023 91.69754028 59.98608398 89.57644653 C59.03604492 88.83652466 58.08600586 88.09660278 57.10717773 87.33425903 C55.53082903 86.04472778 53.95858172 84.75010071 52.39624023 83.44363403 C39.89835585 73.35020521 23.97165789 71.27627921 8.42358398 72.13894653 C8.09358398 72.46894653 7.76358398 72.79894653 7.42358398 73.13894653 C5.98775397 73.24731106 4.54956378 73.3247082 3.11108398 73.38894653 C-11.79609743 74.83089296 -25.18768374 84.876678 -34.57641602 96.13894653 C-42.85772848 107.82907831 -47.741357 121.6784835 -46.57641602 136.13894653 C-46.4565332 137.66068481 -46.4565332 137.66068481 -46.33422852 139.21316528 C-44.9232164 152.07065322 -40.54362843 163.86543579 -32.57641602 174.13894653 C-32.12782227 174.74996216 -31.67922852 175.36097778 -31.21704102 175.99050903 C-24.17143599 184.97563455 -11.74480359 192.92479674 -0.27563477 194.44363403 C1.30473573 194.60998882 2.88684624 194.76088505 4.47045898 194.89285278 C6.42358398 195.13894653 6.42358398 195.13894653 8.42358398 196.13894653 C10.75526616 196.23609996 13.08988356 196.26872871 15.42358398 196.26394653 C16.68170898 196.26652466 17.93983398 196.26910278 19.23608398 196.27175903 C22.32036216 196.36122011 22.32036216 196.36122011 24.42358398 195.13894653 C25.90143331 195.0348319 27.38105625 194.95525178 28.86108398 194.88894653 C35.06410784 194.31690975 39.94571617 191.97902276 45.42358398 189.13894653 C46.1622168 188.7792981 46.90084961 188.41964966 47.66186523 188.04910278 C51.28956215 186.18551442 54.51249769 184.11638867 57.66186523 181.52957153 C58.23179199 181.06575073 58.80171875 180.60192993 59.38891602 180.12405396 C60.51930806 179.19028667 61.63441614 178.23763769 62.73168945 177.26516724 C64.31030273 175.95535278 64.31030273 175.95535278 67.42358398 174.13894653 C70.81811523 174.85379028 70.81811523 174.85379028 73.42358398 176.13894653 C73.42358398 176.79894653 73.42358398 177.45894653 73.42358398 178.13894653 C74.08358398 178.13894653 74.74358398 178.13894653 75.42358398 178.13894653 C75.95983398 178.81957153 76.49608398 179.50019653 77.04858398 180.20144653 C78.90862089 182.5020185 80.44104432 184.08546029 82.66186523 185.94754028 C88.67311905 191.15242305 94.37044655 196.67863684 100.04492188 202.24539185 C101.34731151 203.51584009 102.65768128 204.77815486 103.97558594 206.03250122 C105.89565895 207.86159465 107.78844564 209.71539023 109.67749023 211.57644653 C110.2700209 212.13082397 110.86255157 212.68520142 111.47303772 213.25637817 C113.04059231 214.83162185 114.32095188 216.20864242 115.42358398 218.13894653 C115.27629369 224.80706224 113.03859505 228.54870297 108.42358398 233.13894653 C82.1276826 254.28204802 49.472019 267.61968267 15.54858398 267.45144653 C14.39181152 267.44798218 13.23503906 267.44451782 12.04321289 267.44094849 C4.22999496 267.34431104 -3.45200169 266.82269054 -11.20141602 265.82644653 C-12.57595947 265.65012695 -12.57595947 265.65012695 -13.97827148 265.47024536 C-19.06033735 264.73395272 -23.76545117 263.57977284 -28.60009766 261.84573364 C-32.83718836 260.33043067 -37.20268846 259.18864115 -41.57641602 258.13894653 C-41.57641602 257.47894653 -41.57641602 256.81894653 -41.57641602 256.13894653 C-42.59735352 255.98425903 -42.59735352 255.98425903 -43.63891602 255.82644653 C-47.2055759 254.99169635 -50.23863796 253.64421899 -53.57641602 252.13894653 C-53.57641602 251.47894653 -53.57641602 250.81894653 -53.57641602 250.13894653 C-54.14875977 250.0164856 -54.72110352 249.89402466 -55.31079102 249.76785278 C-57.67594792 249.11131785 -59.64848399 248.20171141 -61.82641602 247.07644653 C-62.53282227 246.71421997 -63.23922852 246.35199341 -63.96704102 245.97879028 C-64.49813477 245.70164185 -65.02922852 245.42449341 -65.57641602 245.13894653 C-65.57641602 244.47894653 -65.57641602 243.81894653 -65.57641602 243.13894653 C-66.19516602 242.99457153 -66.81391602 242.85019653 -67.45141602 242.70144653 C-69.57641602 242.13894653 -69.57641602 242.13894653 -71.57641602 241.13894653 C-71.57641602 240.47894653 -71.57641602 239.81894653 -71.57641602 239.13894653 C-72.36016602 238.89144653 -73.14391602 238.64394653 -73.95141602 238.38894653 C-76.8995871 236.98505554 -77.47889372 236.13218916 -78.57641602 233.13894653 C-79.23641602 233.13894653 -79.89641602 233.13894653 -80.57641602 233.13894653 C-80.57641602 232.47894653 -80.57641602 231.81894653 -80.57641602 231.13894653 C-81.19516602 230.82957153 -81.81391602 230.52019653 -82.45141602 230.20144653 C-83.82641602 229.51394653 -85.20141602 228.82644653 -86.57641602 228.13894653 C-86.57641602 227.47894653 -86.57641602 226.81894653 -86.57641602 226.13894653 C-87.23641602 226.13894653 -87.89641602 226.13894653 -88.57641602 226.13894653 C-88.82391602 225.35519653 -89.07141602 224.57144653 -89.32641602 223.76394653 C-90.73030701 220.81577545 -91.58317339 220.23646883 -94.57641602 219.13894653 C-94.57641602 218.47894653 -94.57641602 217.81894653 -94.57641602 217.13894653 C-95.23641602 217.13894653 -95.89641602 217.13894653 -96.57641602 217.13894653 C-98.08422852 215.49441528 -98.08422852 215.49441528 -99.70141602 213.32644653 C-100.5096582 212.26490356 -100.5096582 212.26490356 -101.33422852 211.18191528 C-102.57641602 209.13894653 -102.57641602 209.13894653 -102.57641602 206.13894653 C-103.23641602 206.13894653 -103.89641602 206.13894653 -104.57641602 206.13894653 C-106.57641602 203.13894653 -106.57641602 203.13894653 -106.57641602 200.13894653 C-107.23641602 200.13894653 -107.89641602 200.13894653 -108.57641602 200.13894653 C-108.82391602 199.31394653 -109.07141602 198.48894653 -109.32641602 197.63894653 C-110.25295544 195.04463613 -111.17647718 192.91324088 -112.45141602 190.51394653 C-116.8074015 181.94825866 -118.97656145 173.15462312 -120.18188477 163.65847778 C-120.31233215 161.20662986 -120.31233215 161.20662986 -121.57641602 160.13894653 C-121.72187553 158.49165507 -121.80362605 156.83863953 -121.85766602 155.18582153 C-121.91374023 153.66795044 -121.91374023 153.66795044 -121.97094727 152.11941528 C-122.00575195 151.0533606 -122.04055664 149.98730591 -122.07641602 148.88894653 C-122.14561116 146.80027826 -122.21840592 144.71172547 -122.29516602 142.62332153 C-122.32545898 141.69229614 -122.35575195 140.76127075 -122.38696289 139.80203247 C-122.51640111 137.11211672 -122.51640111 137.11211672 -123.15649414 134.4211731 C-123.57641602 132.13894653 -123.57641602 132.13894653 -122.57641602 130.13894653 C-122.4472657 128.4817899 -122.37408362 126.82008329 -122.33032227 125.15847778 C-122.28101563 123.65897583 -122.28101563 123.65897583 -122.23071289 122.12918091 C-122.17008189 120.03031638 -122.11272705 117.93135435 -122.05883789 115.83230591 C-121.86979054 110.26432627 -121.39119316 105.45547676 -119.57641602 100.13894653 C-119.0253418 98.24209106 -119.0253418 98.24209106 -118.46313477 96.30691528 C-116.37926552 89.32482548 -114.17604653 82.77942603 -110.71313477 76.33425903 C-109.00758145 73.04037256 -107.80639066 69.63466395 -106.57641602 66.13894653 C-105.91641602 66.13894653 -105.25641602 66.13894653 -104.57641602 66.13894653 C-104.47329102 65.57433716 -104.37016602 65.00972778 -104.26391602 64.42800903 C-101.68918211 55.85531547 -93.5659916 48.48947582 -87.57641602 42.13894653 C-86.81264648 41.313302 -86.81264648 41.313302 -86.03344727 40.47097778 C-84.25147057 38.60127301 -82.72485963 37.21104772 -80.38891602 36.07644653 C-78.42149452 35.29720097 -78.42149452 35.29720097 -77.76391602 33.32644653 C-75.93335962 29.95436896 -72.86757061 28.03291286 -69.57641602 26.13894653 C-68.91641602 26.13894653 -68.25641602 26.13894653 -67.57641602 26.13894653 C-67.57641602 25.47894653 -67.57641602 24.81894653 -67.57641602 24.13894653 C-66.25641602 24.13894653 -64.93641602 24.13894653 -63.57641602 24.13894653 C-63.08141602 22.65394653 -63.08141602 22.65394653 -62.57641602 21.13894653 C-54.07766037 14.73864907 -43.67527674 10.48437878 -33.47485352 7.71707153 C-31.58481421 7.30415931 -31.58481421 7.30415931 -30.57641602 6.13894653 C-27.07641602 5.63894653 -27.07641602 5.63894653 -23.57641602 5.13894653 C-23.24641602 4.80894653 -22.91641602 4.47894653 -22.57641602 4.13894653 C-20.24344168 4.09801716 -17.90936377 4.0965293 -15.57641602 4.13894653 C-15.57641602 3.47894653 -15.57641602 2.81894653 -15.57641602 2.13894653 C-14.61928711 2.04806763 -14.61928711 2.04806763 -13.64282227 1.95535278 C-12.8165332 1.87156372 -11.99024414 1.78777466 -11.13891602 1.70144653 C-10.31520508 1.6202356 -9.49149414 1.53902466 -8.64282227 1.45535278 C-5.58328485 0.98687919 -3.44017873 0.01511477 0 0 Z " fill="#FEFEFE" transform="translate(1740.576416015625,265.8610534667969)"/>
<path d="M0 0 C0.68783066 -0.0065712 1.37566132 -0.0131424 2.08433533 -0.01991272 C4.36953834 -0.03968743 6.65467553 -0.05131709 8.93994141 -0.0612793 C9.7185918 -0.06535482 10.4972422 -0.06943035 11.29948807 -0.07362938 C15.4201964 -0.09450734 19.54087126 -0.10880187 23.66162109 -0.11816406 C27.924706 -0.12923595 32.18726997 -0.1636393 36.45017052 -0.20333576 C39.7220865 -0.22944241 42.99387723 -0.23785052 46.26588821 -0.24144554 C47.83761745 -0.24632651 49.40934054 -0.25798332 50.98096848 -0.27648354 C53.17914202 -0.30075163 55.37595314 -0.29993365 57.57421875 -0.29296875 C58.82584808 -0.29883499 60.07747742 -0.30470123 61.36703491 -0.31074524 C64.41650391 0.17700195 64.41650391 0.17700195 66.32286072 1.61573792 C68.01595822 5.58089747 67.80810541 9.36007843 67.75708008 13.62719727 C67.75751816 14.58363129 67.75795624 15.54006531 67.75840759 16.52548218 C67.75631824 19.6855717 67.73297988 22.84513015 67.70947266 26.00512695 C67.70387724 28.19659129 67.69960688 30.38805938 67.6966095 32.57952881 C67.68515654 38.34670375 67.65568526 44.11365194 67.62249756 49.8807373 C67.59180653 55.76591932 67.57810621 61.65113798 67.56298828 67.53637695 C67.53081617 79.08335156 67.47961419 90.6301579 67.41650391 102.17700195 C68.11363495 102.17034012 68.81076599 102.16367828 69.52902222 102.15681458 C76.09175598 102.09675839 82.65441331 102.05105575 89.21735954 102.02156544 C92.59163997 102.00589451 95.96569377 101.98463102 99.33984375 101.95068359 C103.21702139 101.91442836 107.09387562 101.89730467 110.97119141 101.8840332 C112.18580048 101.86854935 113.40040955 101.85306549 114.65182495 101.83711243 C116.33334152 101.83677254 116.33334152 101.83677254 118.04882812 101.83642578 C119.03922089 101.82976395 120.02961365 101.82310211 121.05001831 101.8162384 C121.83095856 101.93529037 122.6118988 102.05434235 123.41650391 102.17700195 C125.74430519 105.66870388 125.66926405 107.05210992 125.67529297 111.17724609 C125.68159729 112.41185074 125.68790161 113.64645538 125.69439697 114.91847229 C125.69081757 116.26636905 125.6867157 117.6142645 125.68212891 118.9621582 C125.68347608 120.34313526 125.68541705 121.72411185 125.68792725 123.10508728 C125.69087509 125.99767579 125.68659121 128.89014071 125.67724609 131.78271484 C125.66584095 135.4941721 125.67241969 139.20534045 125.68439102 142.91678715 C125.69160975 145.76747321 125.68932185 148.6180905 125.68413544 151.46877861 C125.68279952 152.83754956 125.68444464 154.20632671 125.68909454 155.57509041 C125.69416085 157.48544321 125.68507277 159.39581786 125.67529297 161.30615234 C125.67370178 162.39408585 125.6721106 163.48201935 125.67047119 164.60292053 C125.41650391 167.17700195 125.41650391 167.17700195 123.41650391 169.17700195 C121.05001831 169.41751099 121.05001831 169.41751099 118.04882812 169.40405273 C116.36731155 169.40382614 116.36731155 169.40382614 114.65182495 169.40359497 C113.43721588 169.3932724 112.22260681 169.38294983 110.97119141 169.37231445 C109.73104279 169.36948456 108.49089417 169.36665466 107.21316528 169.36373901 C103.91525758 169.3544237 100.61754418 169.33645085 97.31970215 169.31433105 C93.95485821 169.29387669 90.58998584 169.28473819 87.22509766 169.2746582 C80.62215668 169.25256714 74.01934619 169.21906678 67.41650391 169.17700195 C67.41926929 170.12675526 67.42203466 171.07650856 67.42488384 172.05504227 C67.49143528 195.14759628 67.54075872 218.24013788 67.57194042 241.33276749 C67.58741984 252.50011856 67.60852989 263.66740634 67.64282227 274.8347168 C67.67269172 284.56632871 67.69207109 294.29789479 67.69876939 304.02955127 C67.70268581 309.18403721 67.71191224 314.33839202 67.73369408 319.492836 C67.75402046 324.34204102 67.7603455 329.19106061 67.75582695 334.04030418 C67.75665388 335.82212264 67.7626424 337.60394715 67.77412033 339.38572884 C67.78900438 341.81493814 67.78547272 344.24344351 67.77726746 346.67266846 C67.78600598 347.38084253 67.7947445 348.08901659 67.80374783 348.81865048 C67.77591857 351.85818791 67.55289504 353.92782047 66.08175468 356.6155386 C63.46965245 359.06484051 61.19554863 358.66371883 57.68188477 358.64697266 C57.00190933 358.64916306 56.3219339 358.65135345 55.62135315 358.65361023 C53.3741895 358.65592144 51.12833655 358.6296691 48.88134766 358.6027832 C47.32101355 358.59786004 45.76067354 358.59456068 44.20033264 358.59281921 C40.93097055 358.58517776 37.66204602 358.56461213 34.39282227 358.53369141 C30.1971519 358.49408368 26.00176614 358.47607771 21.80593014 358.46638203 C17.81019723 358.45641906 13.81453418 358.43652295 9.81884766 358.4152832 C9.05362226 358.41188745 8.28839687 358.40849171 7.49998283 358.40499306 C5.34047971 358.39344265 3.1811587 358.37492629 1.02172852 358.35400391 C-0.20832413 358.3441597 -1.43837677 358.33431549 -2.70570374 358.32417297 C-5.58349609 358.17700195 -5.58349609 358.17700195 -7.58349609 357.17700195 C-7.58349609 295.13700195 -7.58349609 233.09700195 -7.58349609 169.17700195 C-26.72349609 169.17700195 -45.86349609 169.17700195 -65.58349609 169.17700195 C-67.33579649 164.79625095 -67.83729113 162.92297738 -67.8581543 158.45629883 C-67.86768631 157.33163208 -67.87721832 156.20696533 -67.88703918 155.04821777 C-67.88567207 153.24024719 -67.88567207 153.24024719 -67.88427734 151.39575195 C-67.88856247 150.1495105 -67.8928476 148.90326904 -67.89726257 147.6192627 C-67.90446808 144.31347523 -67.90138624 141.00787027 -67.89569092 137.7020874 C-67.89599582 135.67880079 -67.90604068 133.65580634 -67.91967773 131.63256836 C-67.94415158 127.74098971 -67.94833403 123.8498979 -67.94677734 119.95825195 C-67.95598709 118.75293823 -67.96519684 117.54762451 -67.97468567 116.30578613 C-67.96845688 115.18111938 -67.96222809 114.05645264 -67.95581055 112.89770508 C-67.95643997 111.91129028 -67.9570694 110.92487549 -67.9577179 109.90856934 C-67.50216796 106.58336126 -66.74269086 104.75369833 -64.58349609 102.17700195 C-62.05879211 101.57572937 -62.05879211 101.57572937 -59.01049805 101.609375 C-57.86954178 101.60975266 -56.72858551 101.61013031 -55.55305481 101.61051941 C-54.32173325 101.63632584 -53.09041168 101.66213226 -51.82177734 101.6887207 C-50.56084763 101.69579544 -49.29991791 101.70287018 -48.0007782 101.7101593 C-44.65128218 101.73342806 -41.30348941 101.77833089 -37.95446777 101.8336792 C-34.53603834 101.88486543 -31.11743282 101.90767178 -27.69873047 101.93286133 C-20.9931809 101.98805072 -14.28843684 102.0717697 -7.58349609 102.17700195 C-7.58571671 100.91388687 -7.58793732 99.65077179 -7.59022522 98.34938049 C-7.61045445 86.47376356 -7.62546717 74.5981501 -7.63530827 62.72251987 C-7.64053765 56.61643826 -7.6476363 50.51037051 -7.65893555 44.40429688 C-7.66976246 38.51695048 -7.67577251 32.62961746 -7.67837334 26.74226189 C-7.68022794 24.49067919 -7.68384922 22.23909726 -7.68922615 19.98752022 C-7.69643398 16.84566768 -7.69748714 13.70387112 -7.69702148 10.56201172 C-7.70061676 9.6211824 -7.70421204 8.68035309 -7.70791626 7.71101379 C-7.69560758 0.08937211 -7.51295196 0.05916544 0 0 Z " fill="#FEFEFE" transform="translate(1928.58349609375,169.822998046875)"/>
<path d="M0 0 C1.79244141 0.01353516 1.79244141 0.01353516 3.62109375 0.02734375 C6.53927834 0.05068923 9.45702776 0.08343344 12.375 0.125 C12.375 0.785 12.375 1.445 12.375 2.125 C12.94347656 2.10179687 13.51195312 2.07859375 14.09765625 2.0546875 C19.30058648 1.93308312 23.44812243 2.44776508 28.375 4.125 C28.375 4.785 28.375 5.445 28.375 6.125 C29.08140625 6.23585938 29.7878125 6.34671875 30.515625 6.4609375 C41.49045299 9.00973635 51.61053601 16.27916248 58.375 25.125 C59.365 25.455 60.355 25.785 61.375 26.125 C61.7398841 30.235014 61.86739585 32.41768547 59.46875 35.86328125 C58.6128125 36.71277344 57.756875 37.56226563 56.875 38.4375 C53.44026605 41.96912348 50.20534772 45.47966414 47.1875 49.375 C44.31375801 53.04410089 41.26976548 56.29767365 37.91015625 59.51953125 C36.3880085 61.1113957 35.23657984 62.70390128 34.0625 64.5625 C33.505625 65.408125 32.94875 66.25375 32.375 67.125 C31.715 67.125 31.055 67.125 30.375 67.125 C30.375 67.785 30.375 68.445 30.375 69.125 C29.715 69.125 29.055 69.125 28.375 69.125 C28.375 69.785 28.375 70.445 28.375 71.125 C27.715 71.125 27.055 71.125 26.375 71.125 C25.941875 72.0221875 25.941875 72.0221875 25.5 72.9375 C24.375 75.125 24.375 75.125 22.375 78.125 C21.715 78.125 21.055 78.125 20.375 78.125 C20.375 78.785 20.375 79.445 20.375 80.125 C16.87468251 81.32491944 15.4961336 81.17393012 12 79.76171875 C10.78419744 79.12606546 9.57592548 78.4758317 8.375 77.8125 C1.69100072 74.24912859 -3.60082932 71.82459274 -11.25 71.4375 C-12.31178467 71.38215088 -12.31178467 71.38215088 -13.39501953 71.32568359 C-26.97939247 70.72460515 -36.2538173 73.05021514 -46.625 82.125 C-47.285 82.125 -47.945 82.125 -48.625 82.125 C-48.8725 82.681875 -49.12 83.23875 -49.375 83.8125 C-50.625 86.125 -50.625 86.125 -52.5 88.25 C-61.08968925 99.87134428 -60.92244238 115.1296642 -60.91210938 128.97143555 C-60.91815075 130.40851726 -60.92507926 131.84559548 -60.93281555 133.28266907 C-60.94756854 136.34744471 -60.95641877 139.41215675 -60.96052551 142.47696495 C-60.96729546 147.32193246 -60.98910812 152.16676415 -61.01306152 157.01167297 C-61.06591549 168.153773 -61.09963394 179.29591447 -61.13282013 190.43808746 C-61.16350673 200.6876794 -61.19824046 210.93721174 -61.24913073 221.18672591 C-61.27249202 226.00572593 -61.28622222 230.8246289 -61.29262543 235.64367998 C-61.2985457 238.62982268 -61.31262334 241.61588574 -61.32896996 244.60198784 C-61.33486451 245.98956015 -61.33731435 247.37715185 -61.33613014 248.76473618 C-61.3349776 250.65292217 -61.34710137 252.5411026 -61.35998535 254.429245 C-61.36291847 255.48717097 -61.36585159 256.54509695 -61.3688736 257.63508129 C-61.625 260.125 -61.625 260.125 -63.625 262.125 C-66.54075623 262.39242554 -66.54075623 262.39242554 -70.32202148 262.41552734 C-71.00999817 262.42224457 -71.69797485 262.42896179 -72.40679932 262.43588257 C-74.68663709 262.45491889 -76.9661814 262.45878947 -79.24609375 262.4609375 C-80.82788719 262.46736133 -82.40967943 262.47408937 -83.99147034 262.48110962 C-87.30952714 262.49309632 -90.62747971 262.496789 -93.94555664 262.49560547 C-98.20080572 262.49540215 -102.45538787 262.52271066 -106.71047878 262.55714989 C-109.97812479 262.57936902 -113.245609 262.58344456 -116.51332283 262.58238602 C-118.08224856 262.58474927 -119.65117827 262.59361344 -121.22002983 262.60905075 C-123.41335861 262.62861225 -125.6052326 262.6229134 -127.79858398 262.61083984 C-129.04719711 262.61368988 -130.29581024 262.61653992 -131.58226013 262.61947632 C-134.625 262.125 -134.625 262.125 -136.29136181 260.71091652 C-138.37614564 256.66853307 -138.03751897 252.73987881 -138.00595093 248.25585938 C-138.0106309 247.24254295 -138.01531087 246.22922653 -138.02013266 245.18520355 C-138.03212725 241.77958708 -138.02260781 238.37436968 -138.01318359 234.96875 C-138.0172473 232.53132898 -138.02258805 230.09390981 -138.02911377 227.65649414 C-138.04139288 221.71733531 -138.03956848 215.77828065 -138.03087585 209.83912468 C-138.02410404 205.0127761 -138.0231804 200.18645939 -138.0264473 195.36010742 C-138.026907 194.67351469 -138.02736669 193.98692195 -138.02784032 193.27952337 C-138.02879949 191.88477642 -138.02977213 190.49002948 -138.0307581 189.09528255 C-138.03931523 176.01299033 -138.02947282 162.93076115 -138.013357 149.84847927 C-137.99995351 138.62030877 -138.00228151 127.39223132 -138.01611328 116.1640625 C-138.03216341 103.12897458 -138.03849122 90.09394194 -138.02927649 77.05884552 C-138.02832083 75.66919455 -138.02737772 74.27954357 -138.0264473 72.88989258 C-138.02598447 72.20613603 -138.02552164 71.52237948 -138.02504479 70.81790304 C-138.0224532 65.99667123 -138.02682954 61.17547444 -138.03388596 56.35424805 C-138.04317236 49.86672034 -138.03657228 43.37932722 -138.01920319 36.89181519 C-138.01522703 34.50691013 -138.01639156 32.12199031 -138.02299118 29.73709106 C-138.03115203 26.48923886 -138.02095087 23.24195624 -138.00595093 19.99414062 C-138.01264309 19.04356529 -138.01933526 18.09298996 -138.02623022 17.11360931 C-137.96934951 10.79258306 -137.96934951 10.79258306 -136.29136181 7.53950405 C-133.62371545 5.2750519 -131.23674341 5.62374857 -127.79858398 5.62329102 C-127.10885498 5.61788803 -126.41912598 5.61248505 -125.70849609 5.60691833 C-123.42892534 5.59441175 -121.15061276 5.61093137 -118.87109375 5.62890625 C-117.28833449 5.62875132 -115.70557484 5.62726338 -114.12281799 5.62449646 C-110.80639874 5.62311168 -107.49041156 5.63568466 -104.17407227 5.65844727 C-99.91768621 5.68685576 -95.66201696 5.68408958 -91.40557766 5.67135715 C-88.13794299 5.6644116 -84.87047482 5.67217589 -81.6028614 5.68461418 C-80.03313904 5.68913803 -78.46339887 5.68945736 -76.89367485 5.68554878 C-74.7027491 5.68264685 -72.51282129 5.69909186 -70.32202148 5.72094727 C-68.45029518 5.72905174 -68.45029518 5.72905174 -66.54075623 5.73731995 C-65.57855667 5.86525436 -64.61635712 5.99318878 -63.625 6.125 C-61.35545369 9.52931947 -61.25950051 11.29024202 -61 15.3125 C-60.88785156 16.94251953 -60.88785156 16.94251953 -60.7734375 18.60546875 C-60.72445313 19.43691406 -60.67546875 20.26835937 -60.625 21.125 C-60.233125 20.7125 -59.84125 20.3 -59.4375 19.875 C-50.56186727 11.30542357 -38.78309303 6.03599872 -26.78515625 3.59765625 C-24.65534488 3.33521845 -24.65534488 3.33521845 -23.625 2.125 C-15.83567229 -0.16399682 -8.04820658 -0.11664068 0 0 Z " fill="#FEFEFE" transform="translate(1258.625,265.875)"/>
<path d="M0 0 C1.16660156 0.00322266 2.33320313 0.00644531 3.53515625 0.00976562 C4.75847656 0.01814453 5.98179687 0.02652344 7.2421875 0.03515625 C8.47324219 0.03966797 9.70429688 0.04417969 10.97265625 0.04882812 C14.02088142 0.06064295 17.06901064 0.07711597 20.1171875 0.09765625 C20.1171875 0.75765625 20.1171875 1.41765625 20.1171875 2.09765625 C20.96990234 2.04544922 20.96990234 2.04544922 21.83984375 1.9921875 C27.40640549 1.79703258 31.03598255 2.60324655 36.1171875 5.09765625 C37.40470021 5.56753202 38.69662001 6.02546826 39.9921875 6.47265625 C48.37921006 9.60768973 55.22514613 14.4712443 62.1171875 20.09765625 C62.80554687 20.60425781 63.49390625 21.11085938 64.203125 21.6328125 C64.83476562 22.11621094 65.46640625 22.59960938 66.1171875 23.09765625 C66.6740625 23.51015625 67.2309375 23.92265625 67.8046875 24.34765625 C69.96900893 27.23341815 70.10960962 29.53605123 70.1171875 33.09765625 C68.53756804 35.41443146 67.23433689 36.96414025 65.2421875 38.84765625 C64.21610201 39.88540928 63.19270821 40.9258299 62.171875 41.96875 C61.65592773 42.48808105 61.13998047 43.00741211 60.60839844 43.54248047 C58.37165116 45.87517205 56.37733853 48.3818175 54.3671875 50.91015625 C51.38455858 54.61857587 48.29457146 57.98486195 44.87109375 61.28125 C42.0005595 64.254075 39.52922431 67.53991177 36.9765625 70.78515625 C34.8294542 73.45550943 32.68560039 75.83140958 30.1171875 78.09765625 C29.4571875 78.09765625 28.7971875 78.09765625 28.1171875 78.09765625 C27.1271875 80.07765625 27.1271875 80.07765625 26.1171875 82.09765625 C23.8071875 81.43765625 21.4971875 80.77765625 19.1171875 80.09765625 C19.1171875 79.43765625 19.1171875 78.77765625 19.1171875 78.09765625 C18.55644531 77.98550781 17.99570313 77.87335938 17.41796875 77.7578125 C15.1171875 77.09765625 15.1171875 77.09765625 12.91015625 75.90625 C5.70045666 72.11224017 -0.63752389 71.60846866 -8.6953125 71.59765625 C-10.18091675 71.58883423 -10.18091675 71.58883423 -11.6965332 71.57983398 C-17.54535586 71.67903349 -21.67869669 72.43164091 -26.8828125 75.09765625 C-28.0378125 75.51015625 -29.1928125 75.92265625 -30.3828125 76.34765625 C-39.20244289 80.75747144 -45.47027658 89.81097505 -48.953125 98.88671875 C-49.68033244 101.28014907 -50.31825995 103.66139487 -50.8828125 106.09765625 C-51.14133625 106.96736887 -51.14133625 106.96736887 -51.4050827 107.85465145 C-52.0043978 110.66851539 -52.0206154 113.29892692 -52.03430176 116.17713928 C-52.04264542 117.42359726 -52.05098907 118.67005524 -52.05958557 119.95428467 C-52.06389472 121.33288549 -52.06811854 122.71148657 -52.07226562 124.09008789 C-52.08021017 125.54392231 -52.0885983 126.99775436 -52.09739685 128.45158386 C-52.11543974 131.58034134 -52.13046026 134.70909365 -52.14317322 137.83787727 C-52.16340314 142.78318249 -52.19105339 147.72842906 -52.21984863 152.6736908 C-52.28502792 164.06236415 -52.34048548 175.45108099 -52.39583588 186.8398056 C-52.44667164 197.28029333 -52.49954574 207.72075975 -52.56036139 218.16119474 C-52.58872752 223.07940304 -52.61231703 227.99760437 -52.63228607 232.91585362 C-52.645661 235.97195346 -52.66307376 239.02802053 -52.68159676 242.08409309 C-52.68936036 243.50349093 -52.69542664 244.92289919 -52.69968987 246.34231186 C-52.70572747 248.27661284 -52.71834611 250.21088998 -52.73132324 252.14515686 C-52.73647697 253.2285991 -52.74163071 254.31204134 -52.74694061 255.42831516 C-52.8828125 258.09765625 -52.8828125 258.09765625 -53.8828125 261.09765625 C-56.79125457 262.55187729 -59.34699287 262.24105513 -62.59570312 262.25878906 C-63.2852861 262.26375397 -63.97486908 262.26871887 -64.68534851 262.27383423 C-66.96992992 262.28845814 -69.25444195 262.29525713 -71.5390625 262.30078125 C-73.12325035 262.30653119 -74.70743818 262.31228894 -76.29162598 262.3180542 C-79.61385422 262.32856392 -82.93605825 262.33440721 -86.25830078 262.33789062 C-90.52248066 262.34338452 -94.78634269 262.36743146 -99.05042267 262.39586258 C-102.32229561 262.41445057 -105.59409128 262.41969243 -108.86601257 262.4212265 C-110.43855025 262.42426076 -112.01108632 262.43231518 -113.58357239 262.44541168 C-115.77927152 262.46239764 -117.97418438 262.46061116 -120.16992188 262.45410156 C-121.42075562 262.45774719 -122.67158936 262.46139282 -123.96032715 262.46514893 C-124.92474731 262.34387634 -125.88916748 262.22260376 -126.8828125 262.09765625 C-128.95118177 258.99510234 -129.13326605 258.34369905 -129.13728809 254.83255005 C-129.14603638 253.52009213 -129.14603638 253.52009213 -129.15496141 252.18111992 C-129.15118208 251.21916773 -129.14740276 250.25721554 -129.14350891 249.26611328 C-129.14733446 248.24477861 -129.15116001 247.22344395 -129.15510148 246.17115974 C-129.16545954 242.73254444 -129.161434 239.29409524 -129.1574707 235.85546875 C-129.16181559 233.39686935 -129.16699798 230.93827131 -129.17295837 228.47967529 C-129.18498716 222.48525104 -129.187497 216.49089263 -129.18515811 210.49646235 C-129.18337686 205.62574927 -129.18512045 200.75504982 -129.18938255 195.88433838 C-129.18997774 195.19177071 -129.19057293 194.49920304 -129.19118616 193.78564847 C-129.19239787 192.37882026 -129.19361201 190.97199205 -129.19482853 189.56516385 C-129.20571039 176.3656071 -129.20353839 163.16607588 -129.19744369 149.96651769 C-129.19227269 137.88276499 -129.20353363 125.79909287 -129.22254191 113.71535611 C-129.24189818 101.31561293 -129.25018028 88.91590791 -129.24641865 76.51614952 C-129.2445034 69.55144983 -129.24702566 62.58681875 -129.26113319 55.62213135 C-129.27425939 49.07553215 -129.27181713 42.52906809 -129.25872231 35.98246002 C-129.25634565 33.57455644 -129.25912985 31.16664165 -129.26734543 28.75875092 C-129.27772252 25.48204265 -129.26978515 22.2058869 -129.2570343 18.92919922 C-129.26440859 17.96724703 -129.27178287 17.00529484 -129.27938062 16.01419258 C-129.27217408 15.13922064 -129.26496753 14.2642487 -129.25754261 13.36276245 C-129.25759763 12.60608717 -129.25765264 11.84941189 -129.25770932 11.06980705 C-128.77467016 8.5287717 -127.92753979 7.64311267 -125.8828125 6.09765625 C-122.88476562 5.7099762 -122.88476562 5.7099762 -119.1640625 5.69360352 C-118.48569336 5.68674026 -117.80732422 5.67987701 -117.10839844 5.67280579 C-114.86632349 5.65450598 -112.62494608 5.65837907 -110.3828125 5.6640625 C-108.82486747 5.65950253 -107.26692445 5.65419751 -105.70898438 5.6481781 C-102.44392728 5.63924104 -99.17911471 5.64167713 -95.9140625 5.65161133 C-91.72718064 5.66310816 -87.54114127 5.64288251 -83.35437012 5.61369419 C-80.13731515 5.59536096 -76.92046322 5.59561871 -73.70336914 5.60133171 C-72.15957456 5.60148525 -70.61576649 5.5954142 -69.07202148 5.58304024 C-66.91466163 5.56818334 -64.75887272 5.57876501 -62.6015625 5.59594727 C-60.75981445 5.59619652 -60.75981445 5.59619652 -58.88085938 5.59645081 C-55.8828125 6.09765625 -55.8828125 6.09765625 -53.99487305 7.95420837 C-52.59748282 10.64761668 -52.37511213 12.82702247 -52.1953125 15.84765625 C-52.12957031 16.8325 -52.06382812 17.81734375 -51.99609375 18.83203125 C-51.94001953 19.95351563 -51.94001953 19.95351563 -51.8828125 21.09765625 C-51.40714844 20.68515625 -50.93148437 20.27265625 -50.44140625 19.84765625 C-41.45717552 12.43525226 -30.9976619 6.40020123 -19.640625 3.5703125 C-17.86971364 3.25097095 -17.86971364 3.25097095 -16.8828125 2.09765625 C-15.40884511 1.88997396 -13.9278999 1.73049608 -12.4453125 1.59765625 C-8.02890993 1.20067624 -4.51381503 -0.02191172 0 0 Z " fill="#FEFEFE" transform="translate(2485.8828125,265.90234375)"/>
<path d="M0 0 C1.04900482 -0.0076664 1.04900482 -0.0076664 2.11920166 -0.01548767 C4.43632508 -0.0294149 6.75315215 -0.02842478 9.0703125 -0.02612305 C10.67692171 -0.03000793 12.28352988 -0.03434217 13.89013672 -0.03910828 C17.25947396 -0.04657697 20.62870643 -0.0462743 23.99804688 -0.04101562 C28.32278779 -0.03521648 32.64710107 -0.0521593 36.97177124 -0.0753603 C40.28998333 -0.09006744 43.60809166 -0.09097355 46.92633057 -0.08785057 C48.52118783 -0.08836519 50.11605068 -0.09362917 51.71087646 -0.10366249 C53.93774501 -0.1159533 56.16377069 -0.10928084 58.390625 -0.09765625 C59.65922363 -0.09828568 60.92782227 -0.0989151 62.23486328 -0.0995636 C63.70028564 0.08567619 63.70028564 0.08567619 65.1953125 0.2746582 C67.26434379 3.37820514 67.44548767 4.02767543 67.44699478 7.5397644 C67.45221028 8.41473635 67.45742577 9.28970829 67.46279931 10.19119453 C67.45833787 11.15314672 67.45387642 12.11509892 67.44927979 13.10620117 C67.45239977 14.12753584 67.45551975 15.14887051 67.45873427 16.20115471 C67.46674189 19.63977626 67.46037983 23.07822269 67.45410156 26.5168457 C67.45681019 28.97544458 67.4603704 31.43404264 67.46472168 33.89263916 C67.47291278 39.88706746 67.47168883 45.88142647 67.4658964 51.87585211 C67.4613842 56.74656428 67.46076508 61.61726241 67.46294403 66.48797607 C67.4632505 67.18054375 67.46355696 67.87311142 67.46387272 68.58666599 C67.46451215 69.9934942 67.46516058 71.4003224 67.4658179 72.8071506 C67.47152439 86.00671009 67.4649583 99.20624183 67.45421717 112.40579677 C67.44528136 123.73774886 67.44683331 135.06965998 67.45605469 146.40161133 C67.46675169 159.55313606 67.47097504 172.70463646 67.46483016 185.85616493 C67.46419305 187.25789006 67.4635643 188.6596152 67.46294403 190.06134033 C67.4624812 191.09592103 67.4624812 191.09592103 67.46200903 192.15140235 C67.46028037 197.01766854 67.46320085 201.88391931 67.46790314 206.75018311 C67.47408991 213.2967632 67.46970089 219.8432777 67.45811462 226.38985443 C67.45546184 228.79775615 67.45624359 231.20566437 67.46063995 233.61356354 C67.46607248 236.8901701 67.45928914 240.16652489 67.44927979 243.44311523 C67.45374123 244.40506742 67.45820267 245.36701962 67.46279931 246.35812187 C67.45497607 247.67057979 67.45497607 247.67057979 67.44699478 249.009552 C67.44667008 249.76622728 67.44634537 250.52290257 67.44601083 251.3025074 C67.1953125 253.2746582 67.1953125 253.2746582 65.1953125 256.2746582 C62.23486328 256.64888 62.23486328 256.64888 58.390625 256.64697266 C57.69128845 256.65062332 56.9919519 256.65427399 56.27142334 256.65803528 C53.95414121 256.66615741 51.63755476 256.65251762 49.3203125 256.63793945 C47.71370443 256.63742104 46.10709572 256.637938 44.50048828 256.63945007 C41.13108875 256.63936028 37.76192811 256.62891574 34.39257812 256.61083984 C30.06790129 256.58815228 25.74357372 256.58760771 21.41885376 256.59435749 C18.10063559 256.59769479 14.78249744 256.59107193 11.46429443 256.58122826 C9.86945006 256.57737182 8.27459679 256.57622987 6.67974854 256.5778141 C4.45299237 256.57818388 2.22668841 256.56558962 0 256.54931641 C-1.26859863 256.54470901 -2.53719727 256.54010162 -3.84423828 256.53535461 C-6.8046875 256.2746582 -6.8046875 256.2746582 -8.8046875 254.2746582 C-9.05538583 252.41273117 -9.05538583 252.41273117 -9.05636978 250.09857178 C-9.06158528 249.21800739 -9.06680077 248.33744301 -9.07217431 247.43019485 C-9.06771287 246.45686581 -9.06325142 245.48353676 -9.05865479 244.48071289 C-9.06177477 243.45135998 -9.06489475 242.42200706 -9.06810927 241.36146164 C-9.07612811 237.88976169 -9.06975052 234.41823465 -9.06347656 230.9465332 C-9.0661847 228.46675514 -9.06974463 225.98697787 -9.07409668 223.50720215 C-9.08229274 217.45749292 -9.08106123 211.40785231 -9.0752714 205.35814571 C-9.07076149 200.44306467 -9.07013909 195.52799755 -9.07231903 190.61291504 C-9.0726255 189.91437243 -9.07293196 189.21582983 -9.07324772 188.49611926 C-9.07388714 187.07720979 -9.07453557 185.65830032 -9.0751929 184.23939085 C-9.08090111 170.9225505 -9.07433062 157.60573765 -9.06359217 144.28890181 C-9.05465621 132.85315058 -9.05620811 121.41743995 -9.06542969 109.98168945 C-9.07612367 96.71371924 -9.08035174 83.44577315 -9.07420516 70.17779922 C-9.07356804 68.76399994 -9.0729393 67.35020066 -9.07231903 65.93640137 C-9.07201048 65.24071698 -9.07170193 64.54503259 -9.07138403 63.82826686 C-9.06965446 58.91695882 -9.0725778 54.00566603 -9.07727814 49.09436035 C-9.08346085 42.48870095 -9.07908267 35.88310661 -9.06748962 29.27745056 C-9.06483487 26.84655383 -9.06562191 24.41565068 -9.07001495 21.98475647 C-9.07543978 18.6792833 -9.06867367 15.37406051 -9.05865479 12.06860352 C-9.06311623 11.09527447 -9.06757767 10.12194542 -9.07217431 9.11912155 C-9.06695882 8.23855717 -9.06174332 7.35799278 -9.05636978 6.45074463 C-9.05604508 5.68707203 -9.05572037 4.92339943 -9.05538583 4.13658524 C-8.37735376 -0.89913337 -4.03473588 0.01465366 0 0 Z " fill="#FEFEFE" transform="translate(2934.8046875,271.725341796875)"/>
<path d="M0 0 C1.1859375 0.00257813 2.371875 0.00515625 3.59375 0.0078125 C4.7796875 0.00523437 5.965625 0.00265625 7.1875 0 C10.09375 0.1328125 10.09375 0.1328125 11.09375 1.1328125 C12.94266946 1.36645131 14.79863031 1.54584885 16.65625 1.6953125 C18.17412109 1.82099609 18.17412109 1.82099609 19.72265625 1.94921875 C20.89634766 2.04009766 20.89634766 2.04009766 22.09375 2.1328125 C22.09375 2.7928125 22.09375 3.4528125 22.09375 4.1328125 C23.16496094 4.05353516 23.16496094 4.05353516 24.2578125 3.97265625 C31.54374887 4.38412098 38.76234617 9.91497527 43.59765625 15.14453125 C52.9425676 27.56374764 53.88715005 42.17796999 53.09375 57.1328125 C51.42623754 68.37704788 44.02418873 79.26324425 35.09375 86.1328125 C22.60365163 93.29088057 8.33606286 95.42054723 -5.71875 92.0078125 C-18.72799179 87.77542049 -28.0298961 79.96014121 -34.90625 68.1328125 C-40.20600577 57.23887009 -40.53855591 43.90056771 -37.34375 32.3828125 C-33.0394807 20.11714999 -25.41738615 10.36361097 -13.90625 4.1328125 C-12.17511836 3.53357463 -10.4237348 2.98937273 -8.65625 2.5078125 C-5.48121177 1.63420731 -3.15523212 0.14419072 0 0 Z " fill="#FEFEFE" transform="translate(2519.90625,439.8671875)"/>
<path d="M0 0 C8.81748059 6.9311539 13.01434258 15.9224106 15.10546875 26.7265625 C15.21520779 28.09970735 15.29489698 29.47537192 15.35546875 30.8515625 C15.41863281 31.851875 15.48179687 32.8521875 15.546875 33.8828125 C16.01090313 46.69597623 11.2776065 55.87172663 3.35546875 65.8515625 C2.69546875 65.8515625 2.03546875 65.8515625 1.35546875 65.8515625 C1.35546875 66.5115625 1.35546875 67.1715625 1.35546875 67.8515625 C-0.65625 69.2890625 -0.65625 69.2890625 -3.33203125 70.8515625 C-4.20214844 71.3671875 -5.07226562 71.8828125 -5.96875 72.4140625 C-16.86148398 78.26592543 -28.92802526 77.82355426 -40.64453125 74.8515625 C-41.32386719 74.69171875 -42.00320312 74.531875 -42.703125 74.3671875 C-51.93988362 71.61660345 -59.85876581 62.98736374 -64.64453125 54.8515625 C-69.93363288 45.06672449 -70.16759372 33.34971621 -67.984375 22.6015625 C-64.42139184 11.74294714 -56.97621596 1.77197724 -46.83203125 -3.65234375 C-31.86022702 -10.64051301 -14.0195871 -9.04920884 0 0 Z " fill="#FEFEFE" transform="translate(2990.64453125,163.1484375)"/>
</svg>
