<?xml version="1.0" encoding="UTF-8"?>
<svg version="1.1" xmlns="http://www.w3.org/2000/svg" width="80" height="80">
<path d="M0 0 C26.4 0 52.8 0 80 0 C80 26.4 80 52.8 80 80 C53.6 80 27.2 80 0 80 C0 53.6 0 27.2 0 0 Z " fill="#715D49" transform="translate(0,0)"/>
<path d="M0 0 C1.20269531 -0.02578125 2.40539062 -0.0515625 3.64453125 -0.078125 C8.58087838 0.37904497 11.85106966 1.98781579 15.4375 5.375 C18.95882405 7.77590276 21.69473905 7.77070374 25.8828125 7.87890625 C28.61300037 8.31851277 29.47420326 9.13917362 31.1875 11.25 C30.8575 12.24 30.5275 13.23 30.1875 14.25 C30.21809402 16.0216718 30.28443852 17.79287983 30.375 19.5625 C30.45292766 24.92533991 29.48103712 27.1330786 26.1875 31.25 C26.1875 32.24 26.1875 33.23 26.1875 34.25 C26.8475 34.91 27.5075 35.57 28.1875 36.25 C27.8575 37.24 27.5275 38.23 27.1875 39.25 C27.86296875 39.22679687 28.5384375 39.20359375 29.234375 39.1796875 C30.57242188 39.15261719 30.57242188 39.15261719 31.9375 39.125 C33.26007812 39.09019531 33.26007812 39.09019531 34.609375 39.0546875 C37.3010858 39.25860498 38.88654974 39.88448279 41.1875 41.25 C40.1975 41.58 39.2075 41.91 38.1875 42.25 C38.1875 43.9 38.1875 45.55 38.1875 47.25 C38.8475 47.25 39.5075 47.25 40.1875 47.25 C40.1875 48.9 40.1875 50.55 40.1875 52.25 C39.52363281 52.21519531 38.85976563 52.18039063 38.17578125 52.14453125 C32.88038952 51.98219077 29.5749103 51.99078092 25.1875 55.25 C23.53166775 55.94313908 21.86639021 56.61474424 20.1875 57.25 C19.1975 57.745 19.1975 57.745 18.1875 58.25 C16.64726004 58.31950541 15.10415012 58.33452357 13.5625 58.3125 C12.33660156 58.29896484 12.33660156 58.29896484 11.0859375 58.28515625 C10.45945312 58.27355469 9.83296875 58.26195312 9.1875 58.25 C8.8575 59.24 8.5275 60.23 8.1875 61.25 C7.8722405 55.26006953 8.50530178 51.61439644 11.1875 46.25 C15.6425 45.755 15.6425 45.755 20.1875 45.25 C20.98703138 41.96303767 21.28408936 40.53976808 20.1875 37.25 C16.67559191 36.02030122 16.67559191 36.02030122 13.1875 35.25 C13.1875 34.59 13.1875 33.93 13.1875 33.25 C9.7225 32.755 9.7225 32.755 6.1875 32.25 C5.94 30.826875 5.94 30.826875 5.6875 29.375 C4.56527898 26.16873588 4.56527898 26.16873588 2.2734375 25.40625 C0.26565136 24.92381375 -1.77391284 24.57880438 -3.8125 24.25 C-4.74673645 21.23968256 -4.85699911 20.38349732 -3.8125 17.25 C-5.5140625 17.2809375 -5.5140625 17.2809375 -7.25 17.3125 C-10.8125 17.25 -10.8125 17.25 -11.8125 16.25 C-11.88508946 14.06360547 -11.89623783 11.87499611 -11.875 9.6875 C-11.86597656 8.48996094 -11.85695313 7.29242188 -11.84765625 6.05859375 C-11.83605469 5.13175781 -11.82445312 4.20492188 -11.8125 3.25 C-11.1525 3.25 -10.4925 3.25 -9.8125 3.25 C-9.8125 2.59 -9.8125 1.93 -9.8125 1.25 C-6.38258462 0.10669487 -3.6138584 0.04618349 0 0 Z " fill="#F1D387" transform="translate(11.8125,7.75)"/>
<path d="M0 0 C2.64 0.33 5.28 0.66 8 1 C8 3.31 8 5.62 8 8 C8.9075 7.9175 9.815 7.835 10.75 7.75 C14 8 14 8 16.375 9.75 C18 12 18 12 18 16 C20.31 16.33 22.62 16.66 25 17 C25 17.66 25 18.32 25 19 C26.11375 19.0825 27.2275 19.165 28.375 19.25 C32 20 32 20 33.4375 21.8125 C34 24 34 24 34 28 C33.39671875 27.91621094 32.7934375 27.83242188 32.171875 27.74609375 C31.37265625 27.64425781 30.5734375 27.54242188 29.75 27.4375 C28.96109375 27.33308594 28.1721875 27.22867188 27.359375 27.12109375 C23.8988113 26.94348204 21.26550447 27.91149851 18 29 C16.68 28.67 15.36 28.34 14 28 C14 32.29 14 36.58 14 41 C14.99 41.33 15.98 41.66 17 42 C17.99 41.505 17.99 41.505 19 41 C19.144375 42.134375 19.28875 43.26875 19.4375 44.4375 C19.61171478 47.80777201 19.61171478 47.80777201 21 49 C34.9298695 50.32904841 34.9298695 50.32904841 47.3125 45.9375 C47.869375 45.298125 48.42625 44.65875 49 44 C51.75 43.75 51.75 43.75 54 44 C53 47 53 47 51.3125 47.9375 C50.1678125 48.4634375 50.1678125 48.4634375 49 49 C47.700625 50.0209375 47.700625 50.0209375 46.375 51.0625 C42.52248581 53.27412852 39.82640329 53.54741471 35.46484375 53.7265625 C32.49170966 53.94545423 32.49170966 53.94545423 28 56 C18.76 56 9.52 56 0 56 C0 37.52 0 19.04 0 0 Z " fill="#4E2A13" transform="translate(0,24)"/>
<path d="M0 0 C0.87527344 -0.00257812 1.75054687 -0.00515625 2.65234375 -0.0078125 C5.0625 0.125 5.0625 0.125 8.0625 1.125 C8.0625 1.785 8.0625 2.445 8.0625 3.125 C9.3825 3.125 10.7025 3.125 12.0625 3.125 C12.3925 3.785 12.7225 4.445 13.0625 5.125 C15.58983235 5.78055119 15.58983235 5.78055119 18.0625 6.125 C18.0625 6.455 18.0625 6.785 18.0625 7.125 C17.12277344 7.21587891 17.12277344 7.21587891 16.1640625 7.30859375 C15.34679687 7.39238281 14.52953125 7.47617187 13.6875 7.5625 C12.87539063 7.64371094 12.06328125 7.72492187 11.2265625 7.80859375 C9.01977195 8.01590114 9.01977195 8.01590114 7.0625 9.125 C7.0625 10.115 7.0625 11.105 7.0625 12.125 C11.0225 12.125 14.9825 12.125 19.0625 12.125 C18.0625 15.125 18.0625 15.125 16.0625 16.125 C16.7225 16.785 17.3825 17.445 18.0625 18.125 C18.0625 19.445 18.0625 20.765 18.0625 22.125 C21.6925 21.795 25.3225 21.465 29.0625 21.125 C30.19146218 25.64084871 29.97439414 25.40742806 28.0625 29.125 C27.67500787 31.44995277 27.33267161 33.78351268 27.0625 36.125 C26.4025 35.465 25.7425 34.805 25.0625 34.125 C22.74073258 32.85177271 20.58662752 31.96637584 18.0625 31.125 C18.0625 30.465 18.0625 29.805 18.0625 29.125 C15.7525 28.795 13.4425 28.465 11.0625 28.125 C10.815 26.701875 10.815 26.701875 10.5625 25.25 C9.44027898 22.04373588 9.44027898 22.04373588 7.1484375 21.28125 C5.14065136 20.79881375 3.10108716 20.45380438 1.0625 20.125 C0.12826355 17.11468256 0.01800089 16.25849732 1.0625 13.125 C-0.6390625 13.1559375 -0.6390625 13.1559375 -2.375 13.1875 C-5.9375 13.125 -5.9375 13.125 -6.9375 12.125 C-7.00976502 10.27212498 -7.0213122 8.41666122 -7 6.5625 C-6.99097656 5.55058594 -6.98195313 4.53867187 -6.97265625 3.49609375 C-6.96105469 2.71363281 -6.94945312 1.93117188 -6.9375 1.125 C-4.46371876 -0.11189062 -2.75834683 -0.00810087 0 0 Z " fill="#BB680F" transform="translate(6.9375,11.875)"/>
<path d="M0 0 C21.12 0 42.24 0 64 0 C64 3.3 64 6.6 64 10 C62.20676747 9.71812064 60.41542874 9.4241719 58.625 9.125 C57.62726562 8.96257813 56.62953125 8.80015625 55.6015625 8.6328125 C53 8 53 8 51 6 C48.51275961 5.70465423 48.51275961 5.70465423 45.6015625 5.76953125 C44.49111572 5.77073975 43.38066895 5.77194824 42.23657227 5.77319336 C40.44884399 5.79265015 40.44884399 5.79265015 38.625 5.8125 C36.80923462 5.82325562 36.80923462 5.82325562 34.95678711 5.83422852 C27.48599123 5.90072535 20.02504224 6.07881879 12.5625 6.4375 C11.34071045 6.49611206 11.34071045 6.49611206 10.09423828 6.5559082 C6.60808395 6.75132714 3.36576778 7.0824026 0 8 C0 5.36 0 2.72 0 0 Z " fill="#5F4D3B" transform="translate(0,0)"/>
<path d="M0 0 C0.79509979 -0.00902847 1.59019958 -0.01805695 2.40939331 -0.02735901 C4.09889985 -0.04186347 5.78846258 -0.05074874 7.47802734 -0.05444336 C9.99811899 -0.06614361 12.51559603 -0.115148 15.03515625 -0.16601562 C27.90236615 -0.29201595 38.77598113 2.31985829 50.9296875 6.37109375 C50.9296875 7.36109375 50.9296875 8.35109375 50.9296875 9.37109375 C42.35825893 8.37109375 42.35825893 8.37109375 38.9296875 7.37109375 C38.9296875 8.03109375 38.9296875 8.69109375 38.9296875 9.37109375 C37.9809375 9.51546875 37.0321875 9.65984375 36.0546875 9.80859375 C32.5319262 10.44269078 31.44103988 10.85974137 28.9296875 13.37109375 C28.4346875 12.38109375 28.4346875 12.38109375 27.9296875 11.37109375 C25.77042969 11.09296356 25.77042969 11.09296356 23.2421875 11.05859375 C17.76589803 10.63734071 15.83950627 9.09906049 11.9296875 5.37109375 C7.41309687 2.9128018 3.11457018 3.13718181 -1.8828125 3.24609375 C-2.67107422 3.25511719 -3.45933594 3.26414062 -4.27148438 3.2734375 C-6.20455916 3.29686871 -8.1374763 3.33273537 -10.0703125 3.37109375 C-10.0703125 4.03109375 -10.0703125 4.69109375 -10.0703125 5.37109375 C-10.7303125 5.37109375 -11.3903125 5.37109375 -12.0703125 5.37109375 C-12.0703125 4.38109375 -12.0703125 3.39109375 -12.0703125 2.37109375 C-8.27455974 -0.10798016 -4.37909333 0.0311418 0 0 Z " fill="#846849" transform="translate(12.0703125,5.62890625)"/>
<path d="M0 0 C0 0.33 0 0.66 0 1 C0.85271484 0.94779297 0.85271484 0.94779297 1.72265625 0.89453125 C7.35733664 0.6969882 10.98012442 1.43883899 16 4 C16.66 4.33 17.32 4.66 18 5 C18 5.66 18 6.32 18 7 C18.66 7 19.32 7 20 7 C22.63949433 11.93303552 24.59243216 16.58627752 26 22 C26.495 22.99 26.495 22.99 27 24 C23.52674819 25.1577506 20.63932552 25.06866652 17 25 C16.87625 24.38125 16.7525 23.7625 16.625 23.125 C16.12802644 20.80879168 16.12802644 20.80879168 14 19 C15.32 17.68 16.64 16.36 18 15 C17.01 15.33 16.02 15.66 15 16 C12.73828125 15.87890625 12.73828125 15.87890625 10.3125 15.5625 C9.50425781 15.46066406 8.69601563 15.35882812 7.86328125 15.25390625 C7.24839844 15.17011719 6.63351562 15.08632813 6 15 C6.33 13.35 6.66 11.7 7 10 C8.65 9.67 10.3 9.34 12 9 C11.67 8.01 11.34 7.02 11 6 C9.68 6 8.36 6 7 6 C7 5.34 7 4.68 7 4 C2.05 4 -2.9 4 -8 4 C-8 3.34 -8 2.68 -8 2 C-7.34 2 -6.68 2 -6 2 C-6 1.34 -6 0.68 -6 0 C-3 -1 -3 -1 0 0 Z " fill="#F3BE3C" transform="translate(8,9)"/>
<path d="M0 0 C3.33388318 0.16951948 4.94441987 0.43192871 7.6875 2.1875 C7.3575 2.8475 7.0275 3.5075 6.6875 4.1875 C3.7175 4.1875 0.7475 4.1875 -2.3125 4.1875 C-4.18033046 9.67425196 -4.5483396 14.40942976 -4.3125 20.1875 C8.51477596 18.95374072 8.51477596 18.95374072 19.29296875 12.5390625 C19.75316406 12.09304687 20.21335938 11.64703125 20.6875 11.1875 C22.875 11.5 22.875 11.5 24.6875 12.1875 C19.33742943 18.1548864 13.65574134 19.57700133 5.98046875 20.7578125 C3.73076308 20.95598065 3.73076308 20.95598065 2.6875 22.1875 C1.16821962 22.25929964 -0.35417482 22.27142007 -1.875 22.25 C-2.70128906 22.24097656 -3.52757812 22.23195313 -4.37890625 22.22265625 C-5.33603516 22.20525391 -5.33603516 22.20525391 -6.3125 22.1875 C-6.6425 20.2075 -6.9725 18.2275 -7.3125 16.1875 C-7.9725 16.5175 -8.6325 16.8475 -9.3125 17.1875 C-10.3025 16.5275 -11.2925 15.8675 -12.3125 15.1875 C-12.6107655 10.63895106 -12.42212199 6.62598796 -11.3125 2.1875 C-8.82185112 1.50042445 -6.93363708 1.1875 -4.3125 1.1875 C-3.3125 0.1875 -3.3125 0.1875 0 0 Z " fill="#746153" transform="translate(25.3125,49.8125)"/>
<path d="M0 0 C0.87527344 -0.00257812 1.75054687 -0.00515625 2.65234375 -0.0078125 C5.0625 0.125 5.0625 0.125 8.0625 1.125 C8.0625 1.785 8.0625 2.445 8.0625 3.125 C9.3825 3.125 10.7025 3.125 12.0625 3.125 C12.3925 3.785 12.7225 4.445 13.0625 5.125 C15.58983235 5.78055119 15.58983235 5.78055119 18.0625 6.125 C18.0625 6.455 18.0625 6.785 18.0625 7.125 C17.12277344 7.21587891 17.12277344 7.21587891 16.1640625 7.30859375 C15.34679687 7.39238281 14.52953125 7.47617187 13.6875 7.5625 C12.87539063 7.64371094 12.06328125 7.72492187 11.2265625 7.80859375 C9.01977195 8.01590114 9.01977195 8.01590114 7.0625 9.125 C7.0625 10.115 7.0625 11.105 7.0625 12.125 C2.4425 12.125 -2.1775 12.125 -6.9375 12.125 C-6.9375 8.495 -6.9375 4.865 -6.9375 1.125 C-4.46371876 -0.11189062 -2.75834683 -0.00810087 0 0 Z " fill="#C89634" transform="translate(6.9375,11.875)"/>
<path d="M0 0 C0.99 0.33 1.98 0.66 3 1 C2.01 1.33 1.02 1.66 0 2 C0 3.65 0 5.3 0 7 C0.66 7 1.32 7 2 7 C2 8.65 2 10.3 2 12 C1.33613281 11.96519531 0.67226563 11.93039063 -0.01171875 11.89453125 C-5.30711048 11.73219077 -8.6125897 11.74078092 -13 15 C-14.65583225 15.69313908 -16.32110979 16.36474424 -18 17 C-18.66 17.33 -19.32 17.66 -20 18 C-21.54023996 18.06950541 -23.08334988 18.08452357 -24.625 18.0625 C-25.85089844 18.04896484 -25.85089844 18.04896484 -27.1015625 18.03515625 C-27.72804688 18.02355469 -28.35453125 18.01195313 -29 18 C-29.33 18.99 -29.66 19.98 -30 21 C-30.25 13.375 -30.25 13.375 -28 10 C-27.67 10.33 -27.34 10.66 -27 11 C-24.39706497 10.76823181 -21.83727707 10.47574003 -19.25 10.125 C-18.17492187 9.98771484 -18.17492187 9.98771484 -17.078125 9.84765625 C-9.63530944 9.05498715 -9.63530944 9.05498715 -3 6 C-2.27840576 4.35636866 -1.60648579 2.68949614 -1 1 C-0.67 0.67 -0.34 0.34 0 0 Z " fill="#A89177" transform="translate(50,48)"/>
<path d="M0 0 C0.66 0.33 1.32 0.66 2 1 C2 5.97497319 -0.93877556 9.70663272 -4 13.4375 C-6 15 -6 15 -10 15 C-10.33 15.99 -10.66 16.98 -11 18 C-13.0625 18.6875 -13.0625 18.6875 -15 19 C-15 19.66 -15 20.32 -15 21 C-15.66 21 -16.32 21 -17 21 C-17 19.68 -17 18.36 -17 17 C-17.66 17 -18.32 17 -19 17 C-19 15.35 -19 13.7 -19 12 C-16.09399739 10.74335022 -14.20395416 10 -11 10 C-10.90589844 9.39671875 -10.81179687 8.7934375 -10.71484375 8.171875 C-9.83601348 5.50176772 -8.866928 4.80225504 -6.5625 3.25 C-5.94503906 2.82203125 -5.32757813 2.3940625 -4.69140625 1.953125 C-3 1 -3 1 -1 1 C-0.67 0.67 -0.34 0.34 0 0 Z " fill="#846C56" transform="translate(69,38)"/>
<path d="M0 0 C3.1875 1.125 3.1875 1.125 6 3 C6.69351562 3.46019531 7.38703125 3.92039062 8.1015625 4.39453125 C13.78755756 8.36267268 13.78755756 8.36267268 14.73046875 11.19140625 C14.81941406 11.78824219 14.90835938 12.38507812 15 13 C17.475 13.495 17.475 13.495 20 14 C19.979375 14.721875 19.95875 15.44375 19.9375 16.1875 C19.99820559 18.91925138 20.39258535 21.34256091 21 24 C19.02 24.99 19.02 24.99 17 26 C12.7012107 21.55297658 11.54455705 16.80438638 10 11 C9.67 10.01 9.34 9.02 9 8 C8.34 8 7.68 8 7 8 C7 7.34 7 6.68 7 6 C-0.77729519 2.78180889 -7.64259099 2.67901843 -16 3 C-10.63338369 -0.57774421 -6.36694398 -0.48906824 0 0 Z " fill="#F7E092" transform="translate(19,8)"/>
<path d="M0 0 C1.32 0 2.64 0 4 0 C3.51319648 6.45014663 3.51319648 6.45014663 1.25 8.875 C-3.65693409 11.32846705 -9.42272349 11.45259235 -14.8125 12.0625 C-15.60076172 12.15337891 -16.38902344 12.24425781 -17.20117188 12.33789062 C-19.13390203 12.56044743 -21.06692286 12.78047746 -23 13 C-22.67 11.02 -22.34 9.04 -22 7 C-17.545 6.505 -17.545 6.505 -13 6 C-12.34 4.35 -11.68 2.7 -11 1 C-10.67 1 -10.34 1 -10 1 C-9.67 2.65 -9.34 4.3 -9 6 C-8.34 6 -7.68 6 -7 6 C-6.67 5.34 -6.34 4.68 -6 4 C-4.02 4 -2.04 4 0 4 C0 2.68 0 1.36 0 0 Z " fill="#CEB38E" transform="translate(45,47)"/>
<path d="M0 0 C3.3 0 6.6 0 10 0 C9 3 9 3 7 4 C7.66 4.66 8.32 5.32 9 6 C9 7.32 9 8.64 9 10 C14.445 9.505 14.445 9.505 20 9 C20.33 10.32 20.66 11.64 21 13 C19 15 19 15 16.72265625 15.265625 C15.84480469 15.26046875 14.96695312 15.2553125 14.0625 15.25 C13.18722656 15.25515625 12.31195313 15.2603125 11.41015625 15.265625 C9 15 9 15 6 13 C5.3125 9.375 5.3125 9.375 5 6 C3.35 6 1.7 6 0 6 C0 4.02 0 2.04 0 0 Z " fill="#D58619" transform="translate(16,24)"/>
<path d="M0 0 C2.70860665 -0.05429278 5.41610901 -0.09381211 8.125 -0.125 C8.88554687 -0.14175781 9.64609375 -0.15851562 10.4296875 -0.17578125 C15.03270731 -0.21546246 18.66464004 0.24092423 23 2 C23 2.66 23 3.32 23 4 C27.29 4.33 31.58 4.66 36 5 C36 5.66 36 6.32 36 7 C38.31 7 40.62 7 43 7 C41 9 41 9 37.875 9.125 C36.92625 9.08375 35.9775 9.0425 35 9 C34.67 9.99 34.34 10.98 34 12 C33.34 11.34 32.68 10.68 32 10 C29.76482384 9.72531734 29.76482384 9.72531734 27.25 9.6875 C21.81192817 9.26497356 19.88412897 7.70347181 16 4 C12.3844039 2.24122698 9.18027615 1.66363442 5.1875 1.375 C4.21167969 1.30023438 3.23585938 1.22546875 2.23046875 1.1484375 C1.12638672 1.07496094 1.12638672 1.07496094 0 1 C0 0.67 0 0.34 0 0 Z " fill="#B0975A" transform="translate(8,7)"/>
<path d="M0 0 C1.69141656 0.08963062 3.37959602 0.24577676 5.0625 0.4375 C6.44115234 0.59025391 6.44115234 0.59025391 7.84765625 0.74609375 C8.55792969 0.82988281 9.26820312 0.91367187 10 1 C10 1.33 10 1.66 10 2 C8.3603125 2.4021875 8.3603125 2.4021875 6.6875 2.8125 C3.07029381 3.97736301 2.44818464 4.47409521 0 7 C-7.03672772 10.31921119 -14.32701878 11.08398398 -22 12 C-21.625 9.5625 -21.625 9.5625 -21 7 C-18.24378946 5.62189473 -15.90736665 6.02080116 -12.875 6.16015625 C-10.75208132 6.18165579 -10.75208132 6.18165579 -9 4 C-7.66587276 3.4297902 -6.30834833 2.91269425 -4.9375 2.4375 C-2.23198802 1.60255667 -2.23198802 1.60255667 0 0 Z " fill="#917A67" transform="translate(42,59)"/>
<path d="M0 0 C1.4540625 0.0309375 1.4540625 0.0309375 2.9375 0.0625 C2.9375 2.3725 2.9375 4.6825 2.9375 7.0625 C3.845 6.98 4.7525 6.8975 5.6875 6.8125 C8.9375 7.0625 8.9375 7.0625 11.25 8.8125 C14.43335577 13.05697436 14.03783376 16.84514468 13.9375 22.0625 C11.9375 18.3125 11.9375 18.3125 11.9375 16.0625 C11.2775 16.0625 10.6175 16.0625 9.9375 16.0625 C9.6075 15.0725 9.2775 14.0825 8.9375 13.0625 C8.298125 13.7225 7.65875 14.3825 7 15.0625 C4.9375 17.0625 4.9375 17.0625 3.9375 17.0625 C3.6075 14.0925 3.2775 11.1225 2.9375 8.0625 C1.6175 7.7325 0.2975 7.4025 -1.0625 7.0625 C-1.7225 6.7325 -2.3825 6.4025 -3.0625 6.0625 C-3.75 3.5625 -3.75 3.5625 -4.0625 1.0625 C-3.0625 0.0625 -3.0625 0.0625 0 0 Z " fill="#622602" transform="translate(5.0625,24.9375)"/>
<path d="M0 0 C0.66 0.33 1.32 0.66 2 1 C0.948125 1.8353125 0.948125 1.8353125 -0.125 2.6875 C-3.04175443 4.95204016 -3.04175443 4.95204016 -5.6171875 7.59375 C-9.45510437 10.79162006 -13.16118534 10.77656821 -18 10.8125 C-19.17175781 10.85020508 -19.17175781 10.85020508 -20.3671875 10.88867188 C-24.57738085 11.01270956 -28.78813933 11.02024933 -33 11 C-33.33 10.34 -33.66 9.68 -34 9 C-31.94921875 8.77213542 -29.8984375 8.54427083 -27.84765625 8.31640625 C-25.98859771 8.18113386 -25.98859771 8.18113386 -25 7 C-23.2507786 6.91857073 -21.50045458 6.86061459 -19.75 6.8125 C-13.23701685 6.36736806 -8.35989526 4.16809897 -2.6171875 1.1796875 C-1.32167969 0.59574219 -1.32167969 0.59574219 0 0 Z " fill="#584840" transform="translate(54,63)"/>
<path d="M0 0 C2.75 -0.25 2.75 -0.25 5 0 C4 3 4 3 2.3125 3.9375 C1.549375 4.288125 0.78625 4.63875 0 5 C-1.299375 6.0209375 -1.299375 6.0209375 -2.625 7.0625 C-7.10257129 9.63295759 -10.92117204 9.79877861 -16 10 C-17.27875 10.103125 -18.5575 10.20625 -19.875 10.3125 C-23 10 -23 10 -25.4375 8 C-25.953125 7.34 -26.46875 6.68 -27 6 C-23.88246302 5.2253393 -20.91199497 4.91512971 -17.71484375 4.82421875 C-16.93689453 4.80037109 -16.15894531 4.77652344 -15.35742188 4.75195312 C-13.74050588 4.70888757 -12.1232314 4.67768953 -10.50585938 4.65820312 C-5.63589417 4.54195864 -5.63589417 4.54195864 -1.61328125 1.97265625 C-1.08089844 1.32167969 -0.54851563 0.67070313 0 0 Z " fill="#443833" transform="translate(49,68)"/>
<path d="M0 0 C0 0.33 0 0.66 0 1 C0.85271484 0.94779297 0.85271484 0.94779297 1.72265625 0.89453125 C7.35733664 0.6969882 10.98012442 1.43883899 16 4 C16.66 4.33 17.32 4.66 18 5 C18 5.66 18 6.32 18 7 C18.66 7 19.32 7 20 7 C20 7.66 20 8.32 20 9 C17.36 9 14.72 9 12 9 C11.67 8.01 11.34 7.02 11 6 C9.68 6 8.36 6 7 6 C7 5.34 7 4.68 7 4 C2.05 4 -2.9 4 -8 4 C-8 3.34 -8 2.68 -8 2 C-7.34 2 -6.68 2 -6 2 C-6 1.34 -6 0.68 -6 0 C-3 -1 -3 -1 0 0 Z " fill="#E8BF58" transform="translate(8,9)"/>
<path d="M0 0 C7.26 0 14.52 0 22 0 C18.47058 3.52942 15.70909294 3.92080604 11 4.6875 C10.27554687 4.81705078 9.55109375 4.94660156 8.8046875 5.08007812 C5.83353339 5.59811145 3.02092339 6 0 6 C0 4.02 0 2.04 0 0 Z " fill="#40352D" transform="translate(0,0)"/>
<path d="M0 0 C5.61 0 11.22 0 17 0 C17 3.3 17 6.6 17 10 C15.2984375 8.8553125 15.2984375 8.8553125 13.5625 7.6875 C9.25073306 4.9723981 4.88056968 3.38960665 0 2 C0 1.34 0 0.68 0 0 Z " fill="#463A31" transform="translate(47,0)"/>
<path d="M0 0 C0.99 0.66 1.98 1.32 3 2 C2.67 2.99 2.34 3.98 2 5 C3.98 5 5.96 5 8 5 C8.33 5.66 8.66 6.32 9 7 C8.67 7.66 8.34 8.32 8 9 C6.02 9 4.04 9 2 9 C1.67 9.99 1.34 10.98 1 12 C0.01 11.67 -0.98 11.34 -2 11 C-2.33 8.36 -2.66 5.72 -3 3 C-2.01 2.67 -1.02 2.34 0 2 C0 1.34 0 0.68 0 0 Z " fill="#E6C997" transform="translate(37,42)"/>
<path d="M0 0 C0.99 0.33 1.98 0.66 3 1 C2.01 1.33 1.02 1.66 0 2 C0 3.65 0 5.3 0 7 C0.66 7 1.32 7 2 7 C2 8.65 2 10.3 2 12 C1.26136719 11.9278125 0.52273437 11.855625 -0.23828125 11.78125 C-7.18313352 11.14588867 -14.02781245 10.87647699 -21 11 C-21 10.67 -21 10.34 -21 10 C-20.33613281 9.93941406 -19.67226563 9.87882812 -18.98828125 9.81640625 C-10.56714201 9.27272995 -10.56714201 9.27272995 -3 6 C-2.27840576 4.35636866 -1.60648579 2.68949614 -1 1 C-0.67 0.67 -0.34 0.34 0 0 Z " fill="#BCA58A" transform="translate(50,48)"/>
<path d="M0 0 C6.11485027 -0.09706112 11.93303301 0.22959149 18 1 C18 1.66 18 2.32 18 3 C19.65 3 21.3 3 23 3 C23.33 3.99 23.66 4.98 24 6 C21.69 6 19.38 6 17 6 C17 5.34 17 4.68 17 4 C16.09507813 4.01740234 16.09507813 4.01740234 15.171875 4.03515625 C13.97304688 4.04869141 13.97304688 4.04869141 12.75 4.0625 C11.56664062 4.07990234 11.56664062 4.07990234 10.359375 4.09765625 C8.09308998 4.00385306 6.1711105 3.63241063 4 3 C4 2.34 4 1.68 4 1 C2.68 0.67 1.36 0.34 0 0 Z " fill="#9E7E54" transform="translate(27,8)"/>
<path d="M0 0 C-0.33 4.29 -0.66 8.58 -1 13 C-0.34 13.33 0.32 13.66 1 14 C0.01 14.66 -0.98 15.32 -2 16 C-2.99 15.34 -3.98 14.68 -5 14 C-5.2982655 9.45145106 -5.10962199 5.43848796 -4 1 C-1 0 -1 0 0 0 Z " fill="#6C4429" transform="translate(18,51)"/>
<path d="M0 0 C0.33 0.66 0.66 1.32 1 2 C-3.23579416 7.07265319 -7.53860413 12.19575591 -13 16 C-13.66 16 -14.32 16 -15 16 C-15 14.35 -15 12.7 -15 11 C-12.09399739 9.74335022 -10.20395416 9 -7 9 C-6.95875 8.443125 -6.9175 7.88625 -6.875 7.3125 C-5.53069626 3.75969726 -2.99025811 2.29041047 0 0 Z " fill="#997D60" transform="translate(65,39)"/>
<path d="M0 0 C2.4375 1 2.4375 1 4 2 C3.67 2.66 3.34 3.32 3 4 C0.03 4 -2.94 4 -6 4 C-6.33 5.32 -6.66 6.64 -7 8 C-8.32 7.67 -9.64 7.34 -11 7 C-10.6875 4.625 -10.6875 4.625 -10 2 C-6.29873141 -0.46751239 -4.37776468 -0.30721156 0 0 Z " fill="#8C5C35" transform="translate(29,50)"/>
<path d="M0 0 C4.76412345 1.67626566 7.60450118 4.30489834 11 8 C10.34 8.66 9.68 9.32 9 10 C9 9.34 9 8.68 9 8 C8.34 8 7.68 8 7 8 C7 7.34 7 6.68 7 6 C-0.77729519 2.78180889 -7.64259099 2.67901843 -16 3 C-10.63692715 -0.5753819 -6.36340101 -0.49573237 0 0 Z " fill="#F2DC82" transform="translate(19,8)"/>
<path d="M0 0 C4.875 0.875 4.875 0.875 6 2 C8.51859228 2.5619518 11.02873303 3.07976773 13.5625 3.5625 C14.27341797 3.70107422 14.98433594 3.83964844 15.71679688 3.98242188 C17.47719932 4.32505054 19.23851797 4.66296553 21 5 C21.33 6.32 21.66 7.64 22 9 C21.01 9.495 21.01 9.495 20 10 C19.67 9.34 19.34 8.68 19 8 C16.84074219 7.72186981 16.84074219 7.72186981 14.3125 7.6875 C8.87419313 7.26797347 6.80729602 5.80729602 3 2 C2.01 1.34 1.02 0.68 0 0 Z " fill="#C8A563" transform="translate(21,9)"/>
<path d="M0 0 C2.31 0 4.62 0 7 0 C7 0.33 7 0.66 7 1 C4.69 1.33 2.38 1.66 0 2 C0 1.34 0 0.68 0 0 Z M0 3 C-6.31032216 9.84412585 -16.28411195 9.95947966 -25 11 C-24.67 10.01 -24.34 9.02 -24 8 C-19.38 7.67 -14.76 7.34 -10 7 C-10 6.34 -10 5.68 -10 5 C-3.375 1.875 -3.375 1.875 0 3 Z " fill="#836D5D" transform="translate(45,60)"/>
<path d="M0 0 C3.3 0 6.6 0 10 0 C10 0.99 10 1.98 10 3 C10.66 3.33 11.32 3.66 12 4 C11.67 4.99 11.34 5.98 11 7 C11 6.34 11 5.68 11 5 C10.01 5.33 9.02 5.66 8 6 C5.73828125 5.87890625 5.73828125 5.87890625 3.3125 5.5625 C2.10013672 5.40974609 2.10013672 5.40974609 0.86328125 5.25390625 C0.24839844 5.17011719 -0.36648438 5.08632813 -1 5 C-0.67 3.35 -0.34 1.7 0 0 Z " fill="#E3A32B" transform="translate(15,19)"/>
<path d="M0 0 C3.96 0 7.92 0 12 0 C12.33 1.32 12.66 2.64 13 4 C8.71 4 4.42 4 0 4 C0 2.68 0 1.36 0 0 Z " fill="#C68229" transform="translate(0,20)"/>
<path d="M0 0 C2.75457718 0.37994168 3.82020574 0.8073633 5.75 2.875 C7 5 7 5 7 8 C10.3 8.33 13.6 8.66 17 9 C17.33 9.99 17.66 10.98 18 12 C15.69 11.67 13.38 11.34 11 11 C11 10.34 11 9.68 11 9 C8.69 8.67 6.38 8.34 4 8 C3.566875 6.576875 3.566875 6.576875 3.125 5.125 C2.23174891 1.94788422 2.23174891 1.94788422 0 0 Z " fill="#A4540A" transform="translate(14,32)"/>
<path d="M0 0 C2 3 2 3 2 5 C3.98 4.34 5.96 3.68 8 3 C8.66 4.32 9.32 5.64 10 7 C6.52674819 8.1577506 3.63932552 8.06866652 0 8 C-0.185625 7.071875 -0.185625 7.071875 -0.375 6.125 C-0.87197356 3.80879168 -0.87197356 3.80879168 -3 2 C-2.01 1.34 -1.02 0.68 0 0 Z " fill="#E7A229" transform="translate(25,26)"/>
<path d="M0 0 C1.4370809 -0.05422947 2.87475462 -0.09289723 4.3125 -0.125 C5.11300781 -0.14820312 5.91351563 -0.17140625 6.73828125 -0.1953125 C9 0 9 0 12 2 C12.75 4 12.75 4 13 6 C12.67 6.66 12.34 7.32 12 8 C10.35 8 8.7 8 7 8 C6.06576355 4.98968256 5.95550089 4.13349732 7 1 C4.69 1 2.38 1 0 1 C0 0.67 0 0.34 0 0 Z " fill="#A65312" transform="translate(1,24)"/>
<path d="M0 0 C3.3 0 6.6 0 10 0 C10 1.32 10 2.64 10 4 C6.7 4 3.4 4 0 4 C0 2.68 0 1.36 0 0 Z " fill="#A16A25" transform="translate(0,15)"/>
<path d="M0 0 C2.3125 0.0625 2.3125 0.0625 5 1 C7.79273401 5.81505863 8.34433027 9.37593889 8 15 C6 11.25 6 11.25 6 9 C5.34 9 4.68 9 4 9 C3.71125 7.88625 3.4225 6.7725 3.125 5.625 C2.30758671 1.99708908 2.30758671 1.99708908 0 0 Z " fill="#823E09" transform="translate(11,32)"/>
<path d="M0 0 C0 0.99 0 1.98 0 3 C-1.65766798 4.65766798 -3.60346405 4.21049503 -5.875 4.25 C-6.75929688 4.27578125 -7.64359375 4.3015625 -8.5546875 4.328125 C-11 4 -11 4 -14 1 C-9.38 0.67 -4.76 0.34 0 0 Z " fill="#C7751A" transform="translate(36,35)"/>
<path d="M0 0 C1.4540625 0.0309375 1.4540625 0.0309375 2.9375 0.0625 C2.9375 2.3725 2.9375 4.6825 2.9375 7.0625 C-0.0325 6.5675 -0.0325 6.5675 -3.0625 6.0625 C-3.44468767 4.40635343 -3.77645102 2.73792976 -4.0625 1.0625 C-3.0625 0.0625 -3.0625 0.0625 0 0 Z " fill="#76390F" transform="translate(5.0625,24.9375)"/>
<path d="M0 0 C1.32 0.33 2.64 0.66 4 1 C4.66 3.97 5.32 6.94 6 10 C5.01 10.33 4.02 10.66 3 11 C2.49384702 9.73160474 1.99530901 8.46016898 1.5 7.1875 C1.2215625 6.47980469 0.943125 5.77210937 0.65625 5.04296875 C0 3 0 3 0 0 Z " fill="#FCF1AB" transform="translate(29,16)"/>
<path d="M0 0 C0.66 0.66 1.32 1.32 2 2 C1.67 2.66 1.34 3.32 1 4 C1.66 4.33 2.32 4.66 3 5 C5 7 5 7 7 10 C5.68 11.32 4.36 12.64 3 14 C3 12.35 3 10.7 3 9 C2.01 9.33 1.02 9.66 0 10 C0 6.7 0 3.4 0 0 Z " fill="#3F1505" transform="translate(0,24)"/>
<path d="M0 0 C1.40185547 0.00966797 1.40185547 0.00966797 2.83203125 0.01953125 C4.28416016 0.04466797 4.28416016 0.04466797 5.765625 0.0703125 C6.74917969 0.07933594 7.73273437 0.08835937 8.74609375 0.09765625 C11.16951907 0.12118465 13.59244722 0.15405882 16.015625 0.1953125 C16.015625 0.5253125 16.015625 0.8553125 16.015625 1.1953125 C14.85804687 1.25589844 13.70046875 1.31648437 12.5078125 1.37890625 C10.96874043 1.46336752 9.42967845 1.54801268 7.890625 1.6328125 C7.13007813 1.67212891 6.36953125 1.71144531 5.5859375 1.75195312 C1.33053297 1.99040252 -2.78808326 2.39761487 -6.984375 3.1953125 C-6.984375 3.8553125 -6.984375 4.5153125 -6.984375 5.1953125 C-7.644375 5.1953125 -8.304375 5.1953125 -8.984375 5.1953125 C-8.984375 4.2053125 -8.984375 3.2153125 -8.984375 2.1953125 C-5.85508322 0.36461347 -3.60794354 -0.04399931 0 0 Z " fill="#88754A" transform="translate(8.984375,5.8046875)"/>
<path d="M0 0 C1.33998047 0.06960937 1.33998047 0.06960937 2.70703125 0.140625 C3.60808594 0.17671875 4.50914063 0.2128125 5.4375 0.25 C6.46810547 0.31960937 6.46810547 0.31960937 7.51953125 0.390625 C5.76088879 2.5699394 4.82557125 3.32748919 2.0390625 3.90234375 C1.14574219 3.96035156 0.25242187 4.01835938 -0.66796875 4.078125 C-1.56902344 4.14386719 -2.47007813 4.20960937 -3.3984375 4.27734375 C-4.42904297 4.33341797 -4.42904297 4.33341797 -5.48046875 4.390625 C-3.17521711 0.50003419 -3.17521711 0.50003419 0 0 Z " fill="#4E4234" transform="translate(14.48046875,-0.390625)"/>
<path d="M0 0 C0.99 0.33 1.98 0.66 3 1 C3 1.66 3 2.32 3 3 C3.59167969 2.855625 4.18335938 2.71125 4.79296875 2.5625 C8.92529941 1.59177306 12.7229762 0.72406298 17 1 C16.401875 1.28875 15.80375 1.5775 15.1875 1.875 C12.80672208 3.04742026 12.80672208 3.04742026 10 5 C7.73828125 5.1953125 7.73828125 5.1953125 5.3125 5.125 C4.50425781 5.10695313 3.69601563 5.08890625 2.86328125 5.0703125 C1.94095703 5.03550781 1.94095703 5.03550781 1 5 C0.67 5.99 0.34 6.98 0 8 C0 5.36 0 2.72 0 0 Z " fill="#9F8872" transform="translate(20,61)"/>
<path d="M0 0 C0.66 0.66 1.32 1.32 2 2 C1.9765625 5.2578125 1.9765625 5.2578125 1.625 9.125 C1.51414062 10.40632813 1.40328125 11.68765625 1.2890625 13.0078125 C1.19367187 13.99523437 1.09828125 14.98265625 1 16 C0.67 16 0.34 16 0 16 C0 13.36 0 10.72 0 8 C-0.66 8 -1.32 8 -2 8 C-2 5.69 -2 3.38 -2 1 C-1.34 0.67 -0.68 0.34 0 0 Z " fill="#75563E" transform="translate(19,56)"/>
<path d="M0 0 C7.625 1.875 7.625 1.875 11 3 C11 3.99 11 4.98 11 6 C8.6568787 5.74438677 6.32156597 5.40729228 4 5 C3.67 4.34 3.34 3.68 3 3 C2.01 2.67 1.02 2.34 0 2 C0 1.34 0 0.68 0 0 Z " fill="#7E6349" transform="translate(52,9)"/>
<path d="M0 0 C2.05078125 0.03255208 4.1015625 0.06510417 6.15234375 0.09765625 C2.56858599 3.68141401 -2.98265766 4.02153386 -7.91015625 4.22265625 C-8.54953125 4.18140625 -9.18890625 4.14015625 -9.84765625 4.09765625 C-10.17765625 3.43765625 -10.50765625 2.77765625 -10.84765625 2.09765625 C-8.796875 1.86979167 -6.74609375 1.64192708 -4.6953125 1.4140625 C-2.51789177 1.04118495 -2.21147387 0.11688551 0 0 Z " fill="#635246" transform="translate(30.84765625,69.90234375)"/>
<path d="M0 0 C-4.27575688 4.13782924 -8.31953056 5.05944297 -14 6 C-11.72698066 3.45655714 -9.54913519 2.12383563 -6.4375 0.75 C-5.65246094 0.39421875 -4.86742187 0.0384375 -4.05859375 -0.328125 C-2 -1 -2 -1 0 0 Z " fill="#614F46" transform="translate(56,64)"/>
<path d="M0 0 C2.97 0 5.94 0 9 0 C9.625 2.8125 9.625 2.8125 10 6 C9.01 7.485 9.01 7.485 8 9 C7.79375 8.05125 7.5875 7.1025 7.375 6.125 C6.29166667 2.70833333 6.29166667 2.70833333 2.875 1.625 C1.451875 1.315625 1.451875 1.315625 0 1 C0 0.67 0 0.34 0 0 Z " fill="#AB661E" transform="translate(25,39)"/>
<path d="M0 0 C0.66 0 1.32 0 2 0 C2.33 3.3 2.66 6.6 3 10 C1.68 10 0.36 10 -1 10 C-1.33 8.68 -1.66 7.36 -2 6 C-1.01 5.67 -0.02 5.34 1 5 C0.67 3.35 0.34 1.7 0 0 Z " fill="#F9EA9F" transform="translate(34,21)"/>
<path d="M0 0 C3.3 0 6.6 0 10 0 C9 3 9 3 6 5 C5.01 5 4.02 5 3 5 C3 4.01 3 3.02 3 2 C2.01 1.67 1.02 1.34 0 1 C0 0.67 0 0.34 0 0 Z " fill="#CD7B10" transform="translate(16,24)"/>
<path d="M0 0 C1.22589844 0.01353516 1.22589844 0.01353516 2.4765625 0.02734375 C3.41628906 0.04474609 3.41628906 0.04474609 4.375 0.0625 C4.375 1.0525 4.375 2.0425 4.375 3.0625 C0.745 3.0625 -2.885 3.0625 -6.625 3.0625 C-6.625 2.4025 -6.625 1.7425 -6.625 1.0625 C-4.21954362 -0.14022819 -2.67503047 -0.03821472 0 0 Z " fill="#D79A3C" transform="translate(6.625,11.9375)"/>
<path d="M0 0 C2.97 0 5.94 0 9 0 C7.375 2 7.375 2 5 4 C1.75 4.25 1.75 4.25 -1 4 C-0.67 2.68 -0.34 1.36 0 0 Z " fill="#DFBF9C" transform="translate(23,54)"/>
<path d="M0 0 C0.99 0.495 0.99 0.495 2 1 C3.99960012 1.039992 6.00047242 1.04346799 8 1 C5.6875 3.5 5.6875 3.5 3 6 C2.01 6 1.02 6 0 6 C0 4.02 0 2.04 0 0 Z " fill="#B79E85" transform="translate(21,58)"/>
<path d="M0 0 C3.55780196 0.60990891 6.6828589 1.5783681 10 3 C10 3.99 10 4.98 10 6 C12.31 6 14.62 6 17 6 C17 6.33 17 6.66 17 7 C10.01685362 7.60199538 10.01685362 7.60199538 7.23828125 5.95703125 C5.77210129 4.6976676 4.38267253 3.35051736 3 2 C2.01 1.34 1.02 0.68 0 0 Z " fill="#D8BB6E" transform="translate(21,9)"/>
<path d="M0 0 C0.99 0 1.98 0 3 0 C2.45276317 3.37462715 1.9451 5.08235 0 8 C-0.66 8 -1.32 8 -2 8 C-1.125 1.125 -1.125 1.125 0 0 Z " fill="#7B634E" transform="translate(72,30)"/>
<path d="M0 0 C1.98 0 3.96 0 6 0 C6 0.66 6 1.32 6 2 C8.31 2 10.62 2 13 2 C11 4 11 4 8.1875 4.3125 C4.66597409 3.96725236 2.82757446 3.07909887 0 1 C0 0.67 0 0.34 0 0 Z " fill="#B39061" transform="translate(38,12)"/>
<path d="M0 0 C0.99773438 0.02320313 1.99546875 0.04640625 3.0234375 0.0703125 C4.52777344 0.09738281 4.52777344 0.09738281 6.0625 0.125 C6.83335938 0.14820313 7.60421875 0.17140625 8.3984375 0.1953125 C8.3984375 0.5253125 8.3984375 0.8553125 8.3984375 1.1953125 C5.4284375 1.1953125 2.4584375 1.1953125 -0.6015625 1.1953125 C-0.9315625 2.5153125 -1.2615625 3.8353125 -1.6015625 5.1953125 C-2.2615625 5.1953125 -2.9215625 5.1953125 -3.6015625 5.1953125 C-3.9315625 4.2053125 -4.2615625 3.2153125 -4.6015625 2.1953125 C-2.6015625 0.1953125 -2.6015625 0.1953125 0 0 Z " fill="#996F4F" transform="translate(23.6015625,52.8046875)"/>
<path d="M0 0 C1.65 0 3.3 0 5 0 C5.33 1.32 5.66 2.64 6 4 C4.02 4 2.04 4 0 4 C0 2.68 0 1.36 0 0 Z " fill="#D4871D" transform="translate(7,20)"/>
<path d="M0 0 C1.32 0 2.64 0 4 0 C4 0.66 4 1.32 4 2 C4.99 2.33 5.98 2.66 7 3 C7 3.66 7 4.32 7 5 C8.98 5 10.96 5 13 5 C13 5.33 13 5.66 13 6 C10.69 6 8.38 6 6 6 C5.67 5.01 5.34 4.02 5 3 C3.68 3 2.36 3 1 3 C0.67 2.01 0.34 1.02 0 0 Z " fill="#D9B259" transform="translate(14,12)"/>
<path d="M0 0 C0.66 0.33 1.32 0.66 2 1 C0.6875 3 0.6875 3 -1 5 C-1.99 5 -2.98 5 -4 5 C-4.33 5.66 -4.66 6.32 -5 7 C-5 5.35 -5 3.7 -5 2 C-2.625 0.9375 -2.625 0.9375 0 0 Z " fill="#A0856A" transform="translate(55,48)"/>
<path d="M0 0 C2.31 0.66 4.62 1.32 7 2 C7 2.66 7 3.32 7 4 C4.69 3.67 2.38 3.34 0 3 C0 2.01 0 1.02 0 0 Z " fill="#A45A16" transform="translate(25,40)"/>
<path d="M0 0 C1.32 0.66 2.64 1.32 4 2 C4 2.66 4 3.32 4 4 C4.66 4 5.32 4 6 4 C5.67 4.66 5.34 5.32 5 6 C2.03 5.505 2.03 5.505 -1 5 C-0.67 3.35 -0.34 1.7 0 0 Z " fill="#EDCE6A" transform="translate(22,12)"/>
<path d="M0 0 C-0.99 1.485 -0.99 1.485 -2 3 C-4.31 2.34 -6.62 1.68 -9 1 C-5.64919071 -1.10976881 -3.77897651 -1.0497157 0 0 Z " fill="#4E3E36" transform="translate(31,74)"/>
<path d="M0 0 C0.99 0.33 1.98 0.66 3 1 C2.01 1.33 1.02 1.66 0 2 C0 3.65 0 5.3 0 7 C0.66 7.33 1.32 7.66 2 8 C1.34 8 0.68 8 0 8 C0 8.66 0 9.32 0 10 C-0.66 10 -1.32 10 -2 10 C-1.85950482 8.52031676 -1.71245174 7.04125484 -1.5625 5.5625 C-1.48128906 4.73878906 -1.40007813 3.91507813 -1.31640625 3.06640625 C-1 1 -1 1 0 0 Z " fill="#B2997C" transform="translate(50,48)"/>
<path d="M0 0 C7.42857143 -0.28571429 7.42857143 -0.28571429 11 2 C10.67 2.66 10.34 3.32 10 4 C8.35 3.67 6.7 3.34 5 3 C5 2.34 5 1.68 5 1 C3.35 1 1.7 1 0 1 C0 0.67 0 0.34 0 0 Z " fill="#8D6F51" transform="translate(45,10)"/>
<path d="M0 0 C1.32 0.99 2.64 1.98 4 3 C3.34 4.98 2.68 6.96 2 9 C-0.29013653 5.5647952 -0.17842973 4.014669 0 0 Z " fill="#E6C273" transform="translate(39,16)"/>
<path d="M0 0 C3.65316671 1.24976756 4.78065836 1.67098753 7 5 C6.34 5.66 5.68 6.32 5 7 C5 6.34 5 5.68 5 5 C4.34 5 3.68 5 3 5 C3 4.34 3 3.68 3 3 C2.01 2.67 1.02 2.34 0 2 C0 1.34 0 0.68 0 0 Z " fill="#F8E790" transform="translate(23,11)"/>
<path d="M0 0 C1.32 0 2.64 0 4 0 C3.67 0.99 3.34 1.98 3 3 C0.9375 3.6875 0.9375 3.6875 -1 4 C-1 1 -1 1 0 0 Z " fill="#4D3F39" transform="translate(50,68)"/>
<path d="M0 0 C0 0.66 0 1.32 0 2 C-2.31 3.32 -4.62 4.64 -7 6 C-6.6875 4.125 -6.6875 4.125 -6 2 C-3 0 -3 0 0 0 Z " fill="#80502E" transform="translate(25,50)"/>
<path d="M0 0 C2.375 0.3125 2.375 0.3125 5 1 C7 4 7 4 6.625 6.1875 C6.41875 6.785625 6.2125 7.38375 6 8 C4 5 4 5 4 2 C2.68 1.34 1.36 0.68 0 0 Z " fill="#914406" transform="translate(11,32)"/>
<path d="M0 0 C0.99 0 1.98 0 3 0 C3.33 1.65 3.66 3.3 4 5 C3.01 5.33 2.02 5.66 1 6 C0.67 4.02 0.34 2.04 0 0 Z " fill="#F9F7BC" transform="translate(31,21)"/>
</svg>
