<?xml version="1.0" encoding="UTF-8"?>
<svg version="1.1" xmlns="http://www.w3.org/2000/svg" width="80" height="80">
<path d="M0 0 C26.4 0 52.8 0 80 0 C80 26.4 80 52.8 80 80 C53.6 80 27.2 80 0 80 C0 53.6 0 27.2 0 0 Z " fill="#4E4738" transform="translate(0,0)"/>
<path d="M0 0 C10.23 0 20.46 0 31 0 C31 26.4 31 52.8 31 80 C20.11 80 9.22 80 -2 80 C-2 72.41 -2 64.82 -2 57 C-2.66 57 -3.32 57 -4 57 C-4.33 59.31 -4.66 61.62 -5 64 C-5.99 64 -6.98 64 -8 64 C-8.33 64.99 -8.66 65.98 -9 67 C-9.96600942 63.24329669 -9.77076968 60.75750219 -9 57 C-9.3167715 55.66263516 -9.65188018 54.32954935 -10 53 C-10.13929356 51.63323368 -10.24365301 50.2625433 -10.31640625 48.890625 C-10.35830078 48.13652344 -10.40019531 47.38242187 -10.44335938 46.60546875 C-10.48267578 45.82816406 -10.52199219 45.05085938 -10.5625 44.25 C-10.60568359 43.45722656 -10.64886719 42.66445313 -10.69335938 41.84765625 C-10.79902991 39.89862185 -10.89997966 37.94933252 -11 36 C-13.238962 39.60074162 -14.7702107 42.93223538 -16 47 C-16.66 47 -17.32 47 -18 47 C-16.45139279 27.95444261 -16.45139279 27.95444261 -11 23 C-9.67298339 22.64234682 -8.33986618 22.30601882 -7 22 C-6.67 21.34 -6.34 20.68 -6 20 C-6.99 20 -7.98 20 -9 20 C-9 18 -9 18 -7 16 C-6.566875 15.13375 -6.13375 14.2675 -5.6875 13.375 C-4 11 -4 11 -1.4375 10.5 C1 11 1 11 3 14 C2.625 16.6875 2.625 16.6875 2 19 C2.99 19 3.98 19 5 19 C5.74512137 21.19065683 6.48060365 23.38379414 7.203125 25.58203125 C7.82756112 27.47676633 8.47242127 29.36477257 9.125 31.25 C10.2037943 35.87340416 10.3878614 40.3729291 10.55859375 45.109375 C11.03252381 48.21298781 11.54382029 49.13985324 14 51 C20.61600314 43.84756417 22.56042993 37.62140623 22.2890625 27.83984375 C21.7882223 22.91942718 20.50358327 19.45936023 16.875 15.9375 C15 14 15 14 14.82421875 11.12109375 C14.28510447 7.68649882 14.28510447 7.68649882 10.83984375 5.8828125 C9.54957686 5.2740712 8.2480761 4.68868865 6.9375 4.125 C6.27427734 3.81820313 5.61105469 3.51140625 4.92773438 3.1953125 C3.29434751 2.44324948 1.64827001 1.71885841 0 1 C0 0.67 0 0.34 0 0 Z " fill="#41322C" transform="translate(49,0)"/>
<path d="M0 0 C0.72960938 0.33515625 1.45921875 0.6703125 2.2109375 1.015625 C4.78105412 2.4297503 4.97524821 4.31002655 6 7 C6.66 7.639375 7.32 8.27875 8 8.9375 C11.89247304 12.95161282 12.16789005 17.36514137 12.375 22.75 C12.24316781 29.38280685 11.03275561 35.72314454 6.3984375 40.73046875 C4.75 42.125 4.75 42.125 2 44 C-1.02882563 40.66506965 -1.37148232 38.31956973 -1.5 33.875 C-1.86422338 24.30564111 -1.86422338 24.30564111 -6 16 C-6.04063832 14.33382885 -6.042721 12.66611905 -6 11 C-6.99 11 -7.98 11 -9 11 C-9.495 7.535 -9.495 7.535 -10 4 C-11.65 4 -13.3 4 -15 4 C-16.10836423 5.88316159 -16.10836423 5.88316159 -17 8 C-16.67 8.66 -16.34 9.32 -16 10 C-17.32 10 -18.64 10 -20 10 C-20 10.66 -20 11.32 -20 12 C-19.01 12 -18.02 12 -17 12 C-17.33 12.99 -17.66 13.98 -18 15 C-18.8971875 15.12375 -18.8971875 15.12375 -19.8125 15.25 C-22.76366446 16.26182782 -23.71443195 18.02517538 -25.12109375 20.72265625 C-27.91499639 27.96196843 -28.20891083 36.14588727 -28.75390625 43.8203125 C-29 46 -29 46 -30 48 C-33.125 48.5625 -33.125 48.5625 -37 48 C-39.54778789 45.30545013 -41.22957257 42.2404187 -43 39 C-43.61875 38.05125 -44.2375 37.1025 -44.875 36.125 C-47.74938682 28.14059217 -46.1782891 19.67129217 -43 12 C-39.49691788 4.80135873 -33.89004346 -1.64949952 -26.203125 -4.5234375 C-16.3594834 -6.65273586 -8.44039916 -5.21597701 0 0 Z " fill="#D5C69B" transform="translate(60,8)"/>
<path d="M0 0 C12.54 0 25.08 0 38 0 C35 2 35 2 31.5625 3.375 C28.14901331 4.93202902 26.50728834 6.31361964 24 9 C23.01 9.33 22.02 9.66 21 10 C20.01 11.485 20.01 11.485 19 13 C18.34 13 17.68 13 17 13 C16.34 15.97 15.68 18.94 15 22 C14.34 22 13.68 22 13 22 C12.9708456 25.39581516 12.95314932 28.79159786 12.9375 32.1875 C12.92912109 33.14720703 12.92074219 34.10691406 12.91210938 35.09570312 C12.90888672 36.02705078 12.90566406 36.95839844 12.90234375 37.91796875 C12.89710693 38.77156982 12.89187012 39.6251709 12.88647461 40.50463867 C12.93227049 43.05759945 12.93227049 43.05759945 13.59521484 45.72460938 C13.7955835 46.85092773 13.7955835 46.85092773 14 48 C13.02167271 49.02121287 12.02004398 50.02045404 11 51 C10.63786432 53.51289675 10.63786432 53.51289675 10.8125 56.1875 C10.83957031 57.08855469 10.86664063 57.98960938 10.89453125 58.91796875 C10.92933594 59.60503906 10.96414063 60.29210938 11 61 C12.216875 60.87625 13.43375 60.7525 14.6875 60.625 C17.34518579 60.59667653 18.55872585 60.64153026 20.64453125 62.3359375 C22 64 22 64 24 67 C23.67 67.33 23.34 67.66 23 68 C18.38 68 13.76 68 9 68 C9 56.12 9 44.24 9 32 C8.01 32 7.02 32 6 32 C6.04600342 33.13429443 6.09200684 34.26858887 6.1394043 35.43725586 C6.30706072 39.680393 6.4527213 43.92405871 6.59204102 48.16821289 C6.65513227 49.99850464 6.72403975 51.82860615 6.79907227 53.65844727 C6.90642624 56.30194881 6.99224049 58.94544772 7.07421875 61.58984375 C7.11157639 62.39646957 7.14893402 63.2030954 7.18742371 64.03416443 C7.33905772 69.876618 6.16153039 74.58353393 4 80 C2.68 80 1.36 80 0 80 C0 53.6 0 27.2 0 0 Z " fill="#381A1D" transform="translate(0,0)"/>
<path d="M0 0 C2.4375 0.5 2.4375 0.5 4.4375 3.5 C4.0625 6.1875 4.0625 6.1875 3.4375 8.5 C4.4275 8.5 5.4175 8.5 6.4375 8.5 C7.18200478 10.68884407 7.91603436 12.88000536 8.6328125 15.078125 C9.27303433 17.00500623 9.97063246 18.91280102 10.6875 20.8125 C11.77019791 26.13576472 11.08860561 31.14157683 10.4375 36.5 C8.9525 36.005 8.9525 36.005 7.4375 35.5 C6.9425 33.025 6.9425 33.025 6.4375 30.5 C6.41244385 31.18626465 6.3873877 31.8725293 6.36157227 32.57958984 C6.24578573 35.67825817 6.12298115 38.77660923 6 41.875 C5.96068359 42.95523438 5.92136719 44.03546875 5.88085938 45.1484375 C5.83896484 46.1796875 5.79707031 47.2109375 5.75390625 48.2734375 C5.71724854 49.22653809 5.68059082 50.17963867 5.64282227 51.16162109 C5.4375 53.5 5.4375 53.5 4.4375 55.5 C4.36633618 57.87402501 4.35340915 60.25000677 4.375 62.625 C4.38402344 63.90632813 4.39304687 65.18765625 4.40234375 66.5078125 C4.41394531 67.49523437 4.42554687 68.48265625 4.4375 69.5 C2.7875 69.5 1.1375 69.5 -0.5625 69.5 C-0.5625 61.91 -0.5625 54.32 -0.5625 46.5 C-1.2225 46.5 -1.8825 46.5 -2.5625 46.5 C-2.8925 48.81 -3.2225 51.12 -3.5625 53.5 C-4.5525 53.5 -5.5425 53.5 -6.5625 53.5 C-6.8925 54.49 -7.2225 55.48 -7.5625 56.5 C-8.52850942 52.74329669 -8.33326968 50.25750219 -7.5625 46.5 C-7.8792715 45.16263516 -8.21438018 43.82954935 -8.5625 42.5 C-8.70179356 41.13323368 -8.80615301 39.7625433 -8.87890625 38.390625 C-8.92080078 37.63652344 -8.96269531 36.88242187 -9.00585938 36.10546875 C-9.04517578 35.32816406 -9.08449219 34.55085938 -9.125 33.75 C-9.16818359 32.95722656 -9.21136719 32.16445313 -9.25585938 31.34765625 C-9.36152991 29.39862185 -9.46247966 27.44933252 -9.5625 25.5 C-11.801462 29.10074162 -13.3327107 32.43223538 -14.5625 36.5 C-15.2225 36.5 -15.8825 36.5 -16.5625 36.5 C-15.01389279 17.45444261 -15.01389279 17.45444261 -9.5625 12.5 C-8.23548339 12.14234682 -6.90236618 11.80601882 -5.5625 11.5 C-5.2325 10.84 -4.9025 10.18 -4.5625 9.5 C-5.5525 9.5 -6.5425 9.5 -7.5625 9.5 C-7.5625 7.5 -7.5625 7.5 -5.5625 5.5 C-5.129375 4.63375 -4.69625 3.7675 -4.25 2.875 C-2.5625 0.5 -2.5625 0.5 0 0 Z " fill="#361020" transform="translate(47.5625,10.5)"/>
<path d="M0 0 C0.16824906 2.8602341 0.04043844 4.88824896 -0.94140625 7.6015625 C-2.25210482 11.80934021 -2.65689601 15.87653088 -3.0625 20.25 C-3.87646771 28.75293542 -3.87646771 28.75293542 -5 31 C-8.125 31.5625 -8.125 31.5625 -12 31 C-14.54778789 28.30545013 -16.22957257 25.2404187 -18 22 C-18.61875 21.05125 -19.2375 20.1025 -19.875 19.125 C-21.55663411 14.45379415 -21.23602762 9.9128711 -21 5 C-7.55125285 -0.74031891 -7.55125285 -0.74031891 0 0 Z " fill="#9AB389" transform="translate(35,25)"/>
<path d="M0 0 C0 4.29 0 8.58 0 13 C0.66 13.33 1.32 13.66 2 14 C0.68 14 -0.64 14 -2 14 C-2 14.66 -2 15.32 -2 16 C-1.01 16 -0.02 16 1 16 C0.67 16.99 0.34 17.98 0 19 C-0.61875 19.12375 -1.2375 19.2475 -1.875 19.375 C-4.28796315 19.8410703 -4.28796315 19.8410703 -5.75 22.5625 C-6.1625 23.366875 -6.575 24.17125 -7 25 C-7.33 24.34 -7.66 23.68 -8 23 C-7.67 22.34 -7.34 21.68 -7 21 C-13.20660746 21.93872177 -18.44158424 22.94287133 -24 26 C-24.99 26 -25.98 26 -27 26 C-26.52858426 17.35737802 -23.49895217 11.05092509 -17.1875 5.0625 C-11.7739566 0.64995142 -6.97237726 0 0 0 Z " fill="#D8C79C" transform="translate(42,4)"/>
<path d="M0 0 C3.63 0 7.26 0 11 0 C8 2 8 2 4.5625 3.375 C1.14901331 4.93202902 -0.49271166 6.31361964 -3 9 C-3.99 9.33 -4.98 9.66 -6 10 C-6.99 11.485 -6.99 11.485 -8 13 C-8.66 13 -9.32 13 -10 13 C-10.66 15.97 -11.32 18.94 -12 22 C-12.66 22 -13.32 22 -14 22 C-14.0291544 25.39581516 -14.04685068 28.79159786 -14.0625 32.1875 C-14.07087891 33.14720703 -14.07925781 34.10691406 -14.08789062 35.09570312 C-14.09272461 36.49272461 -14.09272461 36.49272461 -14.09765625 37.91796875 C-14.10289307 38.77156982 -14.10812988 39.6251709 -14.11352539 40.50463867 C-14.06772951 43.05759945 -14.06772951 43.05759945 -13.40478516 45.72460938 C-13.2044165 46.85092773 -13.2044165 46.85092773 -13 48 C-13.97832729 49.02121287 -14.97995602 50.02045404 -16 51 C-16.36213568 53.51289675 -16.36213568 53.51289675 -16.1875 56.1875 C-16.16042969 57.08855469 -16.13335938 57.98960938 -16.10546875 58.91796875 C-16.07066406 59.60503906 -16.03585938 60.29210938 -16 61 C-14.783125 60.87625 -13.56625 60.7525 -12.3125 60.625 C-9.65481421 60.59667653 -8.44127415 60.64153026 -6.35546875 62.3359375 C-5 64 -5 64 -3 67 C-3.33 67.33 -3.66 67.66 -4 68 C-8.62 68 -13.24 68 -18 68 C-18 56.12 -18 44.24 -18 32 C-18.99 31.67 -19.98 31.34 -21 31 C-20.34 31 -19.68 31 -19 31 C-19.103125 29.865625 -19.20625 28.73125 -19.3125 27.5625 C-19.33136966 22.26955969 -17.09304327 18.19956861 -14 14 C-13.01 13.34 -12.02 12.68 -11 12 C-9.80767387 9.94996045 -9.80767387 9.94996045 -9 8 C-8.34 8 -7.68 8 -7 8 C-6.62875 7.0409375 -6.62875 7.0409375 -6.25 6.0625 C-5 4 -5 4 -2.9375 3.4375 C-2.298125 3.293125 -1.65875 3.14875 -1 3 C-0.67 2.01 -0.34 1.02 0 0 Z " fill="#5C2829" transform="translate(27,0)"/>
<path d="M0 0 C3.80777213 5.71165819 3.5761238 11.32994697 3 18 C1.3526774 24.83403545 -1.20386861 29.04809224 -7 33 C-10.40295412 29.46019786 -10.5325645 25.93347893 -10.6875 21.25 C-10.72166016 20.55261719 -10.75582031 19.85523437 -10.79101562 19.13671875 C-10.87308295 17.42502892 -10.93822919 15.7125424 -11 14 C-10.01 14 -9.02 14 -8 14 C-7.62875 12.576875 -7.62875 12.576875 -7.25 11.125 C-5.79055367 7.47638418 -5.27069167 7.63534584 -2 6 C-0.70768358 2.95800528 -0.70768358 2.95800528 0 0 Z " fill="#ACBF90" transform="translate(69,19)"/>
<path d="M0 0 C0.99 0 1.98 0 3 0 C3 11.88 3 23.76 3 36 C6.96 36 10.92 36 15 36 C13 37.33333333 11 38.66666667 9 40 C8.42251197 41.96361864 8.42251197 41.96361864 8.3125 44.125 C8.209375 45.40375 8.10625 46.6825 8 48 C4.7 48 1.4 48 -2 48 C-2 43 -2 43 -1.01220703 41.24511719 C0.61394639 37.63824145 0.24376519 33.98544417 0.1953125 30.078125 C0.1924826 29.21813904 0.18965271 28.35815308 0.18673706 27.47210693 C0.1755615 24.73126179 0.15046179 21.99074602 0.125 19.25 C0.1149668 17.38932764 0.10584155 15.52865015 0.09765625 13.66796875 C0.07563076 9.11185268 0.04111897 4.55598214 0 0 Z " fill="#723C3B" transform="translate(6,32)"/>
<path d="M0 0 C0.99 0.495 0.99 0.495 2 1 C2.226875 1.825 2.45375 2.65 2.6875 3.5 C4.21460004 7.57226679 6.39316419 10.19557102 9.11328125 13.54296875 C12.13296004 17.47542829 14.52249995 21.70969504 17 26 C11.39 26 5.78 26 0 26 C0 17.42 0 8.84 0 0 Z " fill="#556145" transform="translate(53,40)"/>
<path d="M0 0 C0.33 0 0.66 0 1 0 C1.36508677 2.54052114 1.71731457 5.0817628 2.0625 7.625 C2.16626953 8.33785156 2.27003906 9.05070312 2.37695312 9.78515625 C2.95108834 14.10106924 2.97103611 17.69484691 2 22 C3.32 22 4.64 22 6 22 C6.33 19.69 6.66 17.38 7 15 C7.66 15 8.32 15 9 15 C9 22.59 9 30.18 9 38 C5.7 38 2.4 38 -1 38 C-0.98839844 37.10796875 -0.97679687 36.2159375 -0.96484375 35.296875 C-0.95582031 34.12640625 -0.94679687 32.9559375 -0.9375 31.75 C-0.92589844 30.58984375 -0.91429687 29.4296875 -0.90234375 28.234375 C-0.85237514 25.15880029 -0.85237514 25.15880029 -1.62890625 22.953125 C-2 21 -2 21 -1.0703125 18.2421875 C0.17756276 14.46212741 0.22390439 11.05074358 0.125 7.125 C0.11597656 6.43664063 0.10695312 5.74828125 0.09765625 5.0390625 C0.07432513 3.35922162 0.03846326 1.67956254 0 0 Z " fill="#391522" transform="translate(38,42)"/>
<path d="M0 0 C2.45840605 -0.02691685 4.91651882 -0.04679802 7.375 -0.0625 C8.07367188 -0.07087891 8.77234375 -0.07925781 9.4921875 -0.08789062 C14.7734375 -0.11328125 14.7734375 -0.11328125 17 1 C18.43947496 4.7426349 18 7.7778448 18 12 C13.05 12 8.1 12 3 12 C-0.375 5.25 -0.375 5.25 0 0 Z " fill="#A89F74" transform="translate(52,68)"/>
<path d="M0 0 C2.7734375 1.82421875 2.7734375 1.82421875 3.7734375 4.82421875 C0.52535426 4.18489015 -1.77579649 2.95428508 -4.6015625 1.26171875 C-11.78252752 -2.37112934 -19.45190106 -2.63256639 -27.1328125 -0.2890625 C-34.67122177 3.12819833 -39.17483818 7.99246337 -42.4765625 15.51171875 C-44.55539623 21.13323164 -45.4530031 26.90038232 -46.2265625 32.82421875 C-46.5565625 32.82421875 -46.8865625 32.82421875 -47.2265625 32.82421875 C-47.2265625 27.54421875 -47.2265625 22.26421875 -47.2265625 16.82421875 C-46.5665625 16.82421875 -45.9065625 16.82421875 -45.2265625 16.82421875 C-45.07960938 15.91929688 -45.07960938 15.91929688 -44.9296875 14.99609375 C-43.38123876 6.7199022 -43.38123876 6.7199022 -39.2265625 3.82421875 C-38.2365625 3.82421875 -37.2465625 3.82421875 -36.2265625 3.82421875 C-35.88625 2.92703125 -35.88625 2.92703125 -35.5390625 2.01171875 C-33.29146092 -1.73428388 -30.08205786 -2.85069301 -26.1015625 -4.36328125 C-15.8231464 -6.51843301 -9.06673478 -4.86205727 0 0 Z " fill="#5F5252" transform="translate(60.2265625,5.17578125)"/>
<path d="M0 0 C0.26160007 4.44720111 -0.46951823 6.40855469 -2 11 C-7.61 10.67 -13.22 10.34 -19 10 C-19.33 8.35 -19.66 6.7 -20 5 C-13.16076141 1.80835533 -7.61554118 -0.73226358 0 0 Z " fill="#B1C393" transform="translate(35,25)"/>
<path d="M0 0 C1.8871875 0.0309375 1.8871875 0.0309375 3.8125 0.0625 C3.461875 0.5575 3.11125 1.0525 2.75 1.5625 C1.35238399 5.28947603 2.16217141 8.16052848 2.8125 12.0625 C-1.8075 12.0625 -6.4275 12.0625 -11.1875 12.0625 C-11.53480339 6.76612331 -11.53480339 6.76612331 -11.1875 4.0625 C-8.02520819 0.6821191 -4.50712892 -0.07388736 0 0 Z " fill="#A38869" transform="translate(25.1875,67.9375)"/>
<path d="M0 0 C0.33 0 0.66 0 1 0 C1.0580966 3.9166043 1.09362893 7.83309763 1.125 11.75 C1.14175781 12.86117187 1.15851562 13.97234375 1.17578125 15.1171875 C1.18222656 16.18710937 1.18867187 17.25703125 1.1953125 18.359375 C1.20578613 19.34389648 1.21625977 20.32841797 1.22705078 21.34277344 C0.99489618 24.05973111 0.39036273 25.68112513 -1 28 C-2.98 27.67 -4.96 27.34 -7 27 C-6.60930395 23.6214694 -6.1828267 20.24837096 -5.75 16.875 C-5.64042969 15.92367187 -5.53085937 14.97234375 -5.41796875 13.9921875 C-4.66560758 8.29008181 -3.73638906 4.4388302 0 0 Z " fill="#9CBC8D" transform="translate(38,35)"/>
<path d="M0 0 C3.63 0 7.26 0 11 0 C11 4.95 11 9.9 11 15 C5.2610861 12.13054305 3.13121257 7.90181941 1 2 C0.67 1.34 0.34 0.68 0 0 Z " fill="#39171D" transform="translate(69,62)"/>
<path d="M0 0 C6.79877427 6.23220975 9.5684453 11.6189059 10.03125 20.875 C9.95163932 28.83606836 8.76759141 37.04121772 3 43 C0.8359375 43.7109375 0.8359375 43.7109375 -1 44 C-0.5873879 41.21486833 0.04223903 39.94931316 1.875 37.75 C7.25674007 30.7853952 7.87017449 23.54887636 7 15 C6.06812595 11.22523484 4.59282881 8.59282881 1.8125 5.8125 C1.214375 5.214375 0.61625 4.61625 0 4 C0 2.68 0 1.36 0 0 Z " fill="#584A40" transform="translate(64,10)"/>
<path d="M0 0 C0.66 0 1.32 0 2 0 C2 7.59 2 15.18 2 23 C0.02 23 -1.96 23 -4 23 C-4.33 20.03 -4.66 17.06 -5 14 C-4.34 14 -3.68 14 -3 14 C-1.23384882 9.29026351 -0.51405169 4.96916636 0 0 Z " fill="#874942" transform="translate(45,57)"/>
<path d="M0 0 C0.99 0.495 0.99 0.495 2 1 C2.2475 1.845625 2.495 2.69125 2.75 3.5625 C4.38112992 8.04810728 7.02459648 11.31349375 10 15 C8.46006593 18.31256928 7.17177465 20.07771233 4 22 C3.01 22 2.02 22 1 22 C1 21.34 1 20.68 1 20 C5.38461538 17 5.38461538 17 8 17 C8 16.34 8 15.68 8 15 C5.36 15 2.72 15 0 15 C0 10.05 0 5.1 0 0 Z " fill="#A4BC8E" transform="translate(53,40)"/>
<path d="M0 0 C2 3 2 3 2 6 C2.66 6 3.32 6 4 6 C4 8.31 4 10.62 4 13 C3.34 12.01 2.68 11.02 2 10 C-0.30119506 13.55639236 -1.77472971 16.94718288 -3 21 C-3.66 21 -4.32 21 -5 21 C-4.74382807 18.43526688 -4.47065547 15.87427663 -4.1875 13.3125 C-4.11724609 12.59126953 -4.04699219 11.87003906 -3.97460938 11.12695312 C-3.47207497 6.72475171 -2.65365657 3.68603803 0 0 Z " fill="#62192A" transform="translate(36,26)"/>
<path d="M0 0 C10.15317287 0.19256018 10.15317287 0.19256018 13.6875 3.5625 C14.120625 4.366875 14.55375 5.17125 15 6 C14 7 14 7 10.83984375 7.09765625 C8.90818359 7.08025391 8.90818359 7.08025391 6.9375 7.0625 C5.64714844 7.05347656 4.35679688 7.04445313 3.02734375 7.03515625 C2.02832031 7.02355469 1.02929688 7.01195313 0 7 C0 4.69 0 2.38 0 0 Z " fill="#3D191A" transform="translate(9,61)"/>
<path d="M0 0 C2.87355849 0.08451643 4.54298589 0.54522068 6.59765625 2.58984375 C7.6421364 3.8447597 8.66649466 5.11675301 9.66796875 6.40625 C10.92936016 8.13113625 10.92936016 8.13113625 13 9 C13 9.99 13 10.98 13 12 C9.7 12 6.4 12 3 12 C2.92652344 10.82630859 2.92652344 10.82630859 2.8515625 9.62890625 C2.77679688 8.61699219 2.70203125 7.60507813 2.625 6.5625 C2.55539063 5.55316406 2.48578125 4.54382813 2.4140625 3.50390625 C2.27742188 2.67761719 2.14078125 1.85132812 2 1 C1.34 0.67 0.68 0.34 0 0 Z " fill="#9E383F" transform="translate(67,68)"/>
<path d="M0 0 C2.25245881 2.68841859 3.88213958 4.64641875 5 8 C-1.93 7.67 -8.86 7.34 -16 7 C-14.70470665 13.05670046 -14.70470665 13.05670046 -13 19 C-13.99 19 -14.98 19 -16 19 C-16.89893758 15.90765472 -17.16349234 13.09202643 -17.1875 9.875 C-17.20167969 9.00617188 -17.21585938 8.13734375 -17.23046875 7.2421875 C-17 5 -17 5 -15 3 C-15 3.66 -15 4.32 -15 5 C-7.08 4.505 -7.08 4.505 1 4 C0.34 3.01 -0.32 2.02 -1 1 C-0.67 0.67 -0.34 0.34 0 0 Z " fill="#5A3F35" transform="translate(68,61)"/>
<path d="M0 0 C-0.969375 0.33 -1.93875 0.66 -2.9375 1 C-6.10721418 2.60746443 -6.10721418 2.60746443 -6.62109375 4.98046875 C-6.85087251 6.97777644 -6.93411797 8.99059814 -7 11 C-8.98 11 -10.96 11 -13 11 C-13 8.03 -13 5.06 -13 2 C-12.34 2 -11.68 2 -11 2 C-11 1.34 -11 0.68 -11 0 C-3.57142857 -1.28571429 -3.57142857 -1.28571429 0 0 Z " fill="#8D373D" transform="translate(21,69)"/>
<path d="M0 0 C0.33 0 0.66 0 1 0 C0.98839844 1.02480469 0.97679687 2.04960937 0.96484375 3.10546875 C0.95545978 4.466144 0.94636023 5.82682124 0.9375 7.1875 C0.92912109 7.86103516 0.92074219 8.53457031 0.91210938 9.22851562 C0.89752591 12.21812682 0.97265881 14.88924501 1.69140625 17.80078125 C1.79324219 18.52652344 1.89507813 19.25226562 2 20 C1.02167271 21.02121287 0.02004398 22.02045404 -1 23 C-1.36213568 25.51289675 -1.36213568 25.51289675 -1.1875 28.1875 C-1.16042969 29.08855469 -1.13335937 29.98960938 -1.10546875 30.91796875 C-1.07066406 31.60503906 -1.03585937 32.29210938 -1 33 C1.64 33 4.28 33 7 33 C7 33.33 7 33.66 7 34 C5.52093108 34.02689216 4.04172517 34.04634621 2.5625 34.0625 C1.73878906 34.07410156 0.91507813 34.08570313 0.06640625 34.09765625 C-2 34 -2 34 -3 33 C-3.09983684 31.08548183 -3.12967589 29.16711381 -3.125 27.25 C-3.12757812 26.20328125 -3.13015625 25.1565625 -3.1328125 24.078125 C-3.01099661 21.25486256 -2.55387222 18.76063868 -2 16 C-1.93466565 14.06348981 -1.91415697 12.12497139 -1.9375 10.1875 C-1.94652344 9.21167969 -1.95554687 8.23585938 -1.96484375 7.23046875 C-1.97644531 6.49441406 -1.98804688 5.75835937 -2 5 C-1.34 5 -0.68 5 0 5 C0 3.35 0 1.7 0 0 Z " fill="#52332F" transform="translate(12,28)"/>
<path d="M0 0 C2.4375 0.5 2.4375 0.5 4.4375 3.5 C4.5625 6.6875 4.5625 6.6875 4.4375 9.5 C0.27611737 9.58159574 -3.5097484 9.48248524 -7.5625 8.5 C-6.9025 7.51 -6.2425 6.52 -5.5625 5.5 C-5.129375 4.613125 -4.69625 3.72625 -4.25 2.8125 C-2.5625 0.5 -2.5625 0.5 0 0 Z " fill="#321B26" transform="translate(47.5625,10.5)"/>
<path d="M0 0 C0.33 0 0.66 0 1 0 C1.0580966 3.9166043 1.09362893 7.83309763 1.125 11.75 C1.14175781 12.86117187 1.15851562 13.97234375 1.17578125 15.1171875 C1.18222656 16.18710937 1.18867187 17.25703125 1.1953125 18.359375 C1.20578613 19.34389648 1.21625977 20.32841797 1.22705078 21.34277344 C0.99489618 24.05973111 0.39036273 25.68112513 -1 28 C-2.98 27.67 -4.96 27.34 -7 27 C-6.67 25.02 -6.34 23.04 -6 21 C-4.35 21 -2.7 21 -1 21 C-1.00523682 20.39937744 -1.01047363 19.79875488 -1.01586914 19.17993164 C-1.03658014 16.47413162 -1.04964125 13.76834823 -1.0625 11.0625 C-1.07087891 10.11697266 -1.07925781 9.17144531 -1.08789062 8.19726562 C-1.09111328 7.29814453 -1.09433594 6.39902344 -1.09765625 5.47265625 C-1.10289307 4.64000244 -1.10812988 3.80734863 -1.11352539 2.94946289 C-1 1 -1 1 0 0 Z " fill="#976F63" transform="translate(38,35)"/>
<path d="M0 0 C2.35386309 2.77419578 4.15462075 5.30390975 5.8125 8.5625 C8.02768083 12.63700932 10.8842398 14.02126913 15 16 C15 16.99 15 17.98 15 19 C8.7991392 16.99383915 4.62973367 13.63906177 1.625 7.9375 C0.12369953 4.85556204 0 3.64125071 0 0 Z " fill="#7B725D" transform="translate(15,43)"/>
<path d="M0 0 C0.66 0.33 1.32 0.66 2 1 C1.67 1.99 1.34 2.98 1 4 C0.34 4 -0.32 4 -1 4 C-0.97679687 4.77085938 -0.95359375 5.54171875 -0.9296875 6.3359375 C-0.90261719 7.84027344 -0.90261719 7.84027344 -0.875 9.375 C-0.85179687 10.37273438 -0.82859375 11.37046875 -0.8046875 12.3984375 C-1 15 -1 15 -3 17 C-3 15.35 -3 13.7 -3 12 C-3.66 12 -4.32 12 -5 12 C-5.33 9.36 -5.66 6.72 -6 4 C-4.7934375 3.566875 -4.7934375 3.566875 -3.5625 3.125 C-0.8673532 2.26737432 -0.8673532 2.26737432 0 0 Z " fill="#461325" transform="translate(43,20)"/>
<path d="M0 0 C1.32 0 2.64 0 4 0 C4.33 3.96 4.66 7.92 5 12 C3.35 12 1.7 12 0 12 C0 8.04 0 4.08 0 0 Z " fill="#33101C" transform="translate(47,68)"/>
<path d="M0 0 C0.33 0 0.66 0 1 0 C1 4.95 1 9.9 1 15 C0.67 15 0.34 15 0 15 C0 13.35 0 11.7 0 10 C-0.66 10 -1.32 10 -2 10 C-2.66 8.68 -3.32 7.36 -4 6 C-4.99 6 -5.98 6 -7 6 C-7.66 5.01 -8.32 4.02 -9 3 C-5.535 2.505 -5.535 2.505 -2 2 C-2 2.66 -2 3.32 -2 4 C-1.34 4 -0.68 4 0 4 C0 2.68 0 1.36 0 0 Z " fill="#481C2C" transform="translate(52,40)"/>
<path d="M0 0 C0.33 0 0.66 0 1 0 C1.34548714 6.33393082 0.29342747 11.10261508 -2 17 C-3.32 17 -4.64 17 -6 17 C-6.25 13.6875 -6.25 13.6875 -6 10 C-4.125 8.0625 -4.125 8.0625 -2 7 C-1.34 7 -0.68 7 0 7 C0 4.69 0 2.38 0 0 Z " fill="#451B21" transform="translate(6,63)"/>
<path d="M0 0 C0.33 0 0.66 0 1 0 C3.10940829 11.41205061 2.78595756 20.73634362 0 32 C-2.47146094 22.32539221 -2.47146094 22.32539221 -1.02734375 18.265625 C0.16365137 14.47980022 0.22371574 11.04325556 0.125 7.125 C0.11597656 6.43664063 0.10695312 5.74828125 0.09765625 5.0390625 C0.07432513 3.35922162 0.03846326 1.67956254 0 0 Z " fill="#5F0E25" transform="translate(38,42)"/>
<path d="M0 0 C2.64 0 5.28 0 8 0 C7.67 3.96 7.34 7.92 7 12 C5.68 12 4.36 12 3 12 C2.875 4.25 2.875 4.25 4 2 C2.68 1.34 1.36 0.68 0 0 Z " fill="#B5A87D" transform="translate(30,68)"/>
<path d="M0 0 C0.66 0 1.32 0 2 0 C1.731875 0.78375 1.46375 1.5675 1.1875 2.375 C-1.17866555 9.59803168 -3.29676558 16.40506823 -4 24 C-4.33 24 -4.66 24 -5 24 C-5 18.72 -5 13.44 -5 8 C-4.34 8 -3.68 8 -3 8 C-2.87625 7.05125 -2.7525 6.1025 -2.625 5.125 C-2 2 -2 2 0 0 Z " fill="#807668" transform="translate(18,14)"/>
<path d="M0 0 C2.97 0.495 2.97 0.495 6 1 C6 3.64 6 6.28 6 9 C4.35 9 2.7 9 1 9 C0.67 6.03 0.34 3.06 0 0 Z " fill="#311221" transform="translate(27,71)"/>
<path d="M0 0 C0.66 0 1.32 0 2 0 C2.33 3.96 2.66 7.92 3 12 C1.35 12 -0.3 12 -2 12 C-2 10.02 -2 8.04 -2 6 C-1.34 6 -0.68 6 0 6 C0 4.02 0 2.04 0 0 Z " fill="#B4A87D" transform="translate(44,68)"/>
<path d="M0 0 C0.66 0 1.32 0 2 0 C1.85805236 2.06277107 1.71127784 4.12521031 1.5625 6.1875 C1.48128906 7.33605469 1.40007813 8.48460937 1.31640625 9.66796875 C1.04596188 12.51598171 0.62478253 15.21210482 0 18 C-0.33 18 -0.66 18 -1 18 C-1 16.02 -1 14.04 -1 12 C-1.804375 11.71125 -2.60875 11.4225 -3.4375 11.125 C-6 10 -6 10 -7 8 C-4.03 8.495 -4.03 8.495 -1 9 C-0.67 6.03 -0.34 3.06 0 0 Z " fill="#544241" transform="translate(31,47)"/>
<path d="M0 0 C0.33 0 0.66 0 1 0 C0.56179109 4.55737263 0.14958831 7.57653445 -3 11 C-3 9.02 -3 7.04 -3 5 C-3.66 5 -4.32 5 -5 5 C-5 6.65 -5 8.3 -5 10 C-5.33 10 -5.66 10 -6 10 C-6 7.03 -6 4.06 -6 1 C-5.01 1 -4.02 1 -3 1 C-3 1.66 -3 2.32 -3 3 C-2.01 3 -1.02 3 0 3 C0 2.01 0 1.02 0 0 Z " fill="#480E27" transform="translate(50,52)"/>
<path d="M0 0 C0.33 0 0.66 0 1 0 C1.103125 1.2375 1.20625 2.475 1.3125 3.75 C1.7423119 7.327552 2.57776909 9.26182593 5 12 C5 12.66 5 13.32 5 14 C5.99 13.67 6.98 13.34 8 13 C8.66 15.31 9.32 17.62 10 20 C4.26608625 17.80051645 1.52965899 12.3225195 -1 7 C-1.28093284 4.17129694 -0.91189275 2.73567824 0 0 Z " fill="#4C4A3C" transform="translate(58,40)"/>
<path d="M0 0 C2.97 0.495 2.97 0.495 6 1 C6 3.31 6 5.62 6 8 C3.53199953 6.84826645 1.95216435 5.95216435 0 4 C0 2.68 0 1.36 0 0 Z " fill="#62212C" transform="translate(74,69)"/>
<path d="M0 0 C4.875 0.875 4.875 0.875 6 2 C6.07205511 3.68608966 6.08386068 5.37500659 6.0625 7.0625 C6.05347656 7.98160156 6.04445313 8.90070313 6.03515625 9.84765625 C6.02355469 10.55792969 6.01195313 11.26820312 6 12 C5.01 12 4.02 12 3 12 C2.92652344 10.82630859 2.92652344 10.82630859 2.8515625 9.62890625 C2.77679688 8.61699219 2.70203125 7.60507813 2.625 6.5625 C2.55539063 5.55316406 2.48578125 4.54382813 2.4140625 3.50390625 C2.27742188 2.67761719 2.14078125 1.85132812 2 1 C1.34 0.67 0.68 0.34 0 0 Z " fill="#A3524F" transform="translate(67,68)"/>
<path d="M0 0 C2.64 0 5.28 0 8 0 C8 0.66 8 1.32 8 2 C3.61538462 5 3.61538462 5 1 5 C1.33 5.99 1.66 6.98 2 8 C1.34 8 0.68 8 0 8 C0 5.36 0 2.72 0 0 Z " fill="#67704F" transform="translate(53,55)"/>
<path d="M0 0 C4.99213851 0.46801299 9.12963993 2.91715737 13 6 C13 6.66 13 7.32 13 8 C9.61108678 7.31113213 6.81988387 6.01283514 3.75 4.4375 C2.85796875 3.98246094 1.9659375 3.52742187 1.046875 3.05859375 C0.37140625 2.70925781 -0.3040625 2.35992187 -1 2 C-0.67 1.34 -0.34 0.68 0 0 Z " fill="#82796B" transform="translate(51,2)"/>
<path d="M0 0 C1.77049689 -0.05410687 3.54146849 -0.09284119 5.3125 -0.125 C6.29863281 -0.14820312 7.28476562 -0.17140625 8.30078125 -0.1953125 C11 0 11 0 14 2 C12.34233202 3.65766798 10.39653595 3.21049503 8.125 3.25 C7.24070312 3.27578125 6.35640625 3.3015625 5.4453125 3.328125 C2.59035628 2.94503183 1.76004103 2.21462117 0 0 Z " fill="#544542" transform="translate(38,0)"/>
<path d="M0 0 C0.66 0 1.32 0 2 0 C2 0.66 2 1.32 2 2 C1.38125 2.433125 0.7625 2.86625 0.125 3.3125 C-2.39313367 5.31219438 -3.02185105 6.98404073 -4 10 C-4.99 10 -5.98 10 -7 10 C-7.33 8.68 -7.66 7.36 -8 6 C-7.236875 5.566875 -6.47375 5.13375 -5.6875 4.6875 C-3.03713747 3.16247642 -3.03713747 3.16247642 -1.3125 1.3125 C-0.879375 0.879375 -0.44625 0.44625 0 0 Z " fill="#C4CB99" transform="translate(65,23)"/>
<path d="M0 0 C2.6875 -0.3125 2.6875 -0.3125 5 0 C4 3 4 3 1 5 C0.67 5.99 0.34 6.98 0 8 C-1.65 8 -3.3 8 -5 8 C-4.34 7.01 -3.68 6.02 -3 5 C-2.566875 4.113125 -2.13375 3.22625 -1.6875 2.3125 C-1.130625 1.549375 -0.57375 0.78625 0 0 Z " fill="#654749" transform="translate(45,11)"/>
<path d="M0 0 C-0.928125 0.433125 -1.85625 0.86625 -2.8125 1.3125 C-7.52482156 3.80725847 -9.38398771 6.39083548 -12 11 C-12.66 10.34 -13.32 9.68 -14 9 C-12.625 6.5 -12.625 6.5 -11 4 C-10.34 4 -9.68 4 -9 4 C-9 3.34 -9 2.68 -9 2 C-3.375 -1.125 -3.375 -1.125 0 0 Z " fill="#4C1D1F" transform="translate(27,3)"/>
<path d="M0 0 C3.3 0 6.6 0 10 0 C10 0.99 10 1.98 10 3 C10.66 3.33 11.32 3.66 12 4 C9.5332355 4.88336837 8.36140628 5.1312406 5.859375 4.22265625 C5.16328125 3.83980469 4.4671875 3.45695313 3.75 3.0625 C3.04359375 2.68222656 2.3371875 2.30195312 1.609375 1.91015625 C1.07828125 1.60980469 0.5471875 1.30945313 0 1 C0 0.67 0 0.34 0 0 Z " fill="#493D32" transform="translate(49,0)"/>
<path d="M0 0 C0.66 0 1.32 0 2 0 C2 2.64 2 5.28 2 8 C0.68 8 -0.64 8 -2 8 C-2.20086443 4.28400809 -2.1519437 3.22791555 0 0 Z " fill="#9C4D4B" transform="translate(12,72)"/>
<path d="M0 0 C0.33 0 0.66 0 1 0 C1.25 2.8125 1.25 2.8125 1 6 C-0.875 7.875 -0.875 7.875 -3 9 C-3.66 9 -4.32 9 -5 9 C-4.42680151 5.13091017 -2.56186024 2.88209277 0 0 Z " fill="#707A5B" transform="translate(68,45)"/>
<path d="M0 0 C0.33 0.99 0.66 1.98 1 3 C0.01 4.485 0.01 4.485 -1 6 C-1.16699232 9.12521833 -1.16699232 9.12521833 -1 12 C-1.99 12.495 -1.99 12.495 -3 13 C-4.60372657 8.99068358 -3.38691773 5.94176618 -2 2 C-1.34 1.34 -0.68 0.68 0 0 Z " fill="#94A97E" transform="translate(37,37)"/>
<path d="M0 0 C0.66 1.32 1.32 2.64 2 4 C-3.625 9 -3.625 9 -7 9 C-7 8.34 -7 7.68 -7 7 C-2.61538462 4 -2.61538462 4 0 4 C0 3.34 0 2.68 0 2 C-0.99 1.67 -1.98 1.34 -3 1 C-2.01 0.67 -1.02 0.34 0 0 Z " fill="#939B74" transform="translate(61,53)"/>
<path d="M0 0 C0.66 0 1.32 0 2 0 C2.33 2.64 2.66 5.28 3 8 C0.525 7.01 0.525 7.01 -2 6 C-1.34 4.02 -0.68 2.04 0 0 Z " fill="#BBA875" transform="translate(25,72)"/>
<path d="M0 0 C0.94875 0.350625 1.8975 0.70125 2.875 1.0625 C2.545 1.7225 2.215 2.3825 1.875 3.0625 C-0.765 3.0625 -3.405 3.0625 -6.125 3.0625 C-5.795 2.0725 -5.465 1.0825 -5.125 0.0625 C-3.125 -0.9375 -3.125 -0.9375 0 0 Z " fill="#615911" transform="translate(32.125,68.9375)"/>
<path d="M0 0 C0.99 0.33 1.98 0.66 3 1 C2.34 1 1.68 1 1 1 C1 2.98 1 4.96 1 7 C0.34 7 -0.32 7 -1 7 C-1 8.98 -1 10.96 -1 13 C-1.33 13 -1.66 13 -2 13 C-2.33 10.03 -2.66 7.06 -3 4 C-2.34 4 -1.68 4 -1 4 C-0.67 2.68 -0.34 1.36 0 0 Z " fill="#735A52" transform="translate(43,67)"/>
<path d="M0 0 C0.66 0.66 1.32 1.32 2 2 C-3.14285714 7.57142857 -3.14285714 7.57142857 -7 8 C-7 6 -7 6 -5.1875 3.875 C-3 2 -3 2 0 2 C0 1.34 0 0.68 0 0 Z " fill="#695754" transform="translate(24,7)"/>
<path d="M0 0 C0.66 0 1.32 0 2 0 C2.66 3.63 3.32 7.26 4 11 C2 10 2 10 0.875 7.75 C-0.00513321 4.98386705 -0.1645438 2.87951649 0 0 Z " fill="#644C43" transform="translate(12,38)"/>
<path d="M0 0 C2.33046701 3.6413547 2.30891093 6.7524747 2 11 C1.34 11.99 0.68 12.98 0 14 C0.020625 12.9275 0.04125 11.855 0.0625 10.75 C0.14516436 7.21993579 0.14516436 7.21993579 -0.5625 4.75 C-1 3 -1 3 0 0 Z " fill="#7D2834" transform="translate(37,60)"/>
<path d="M0 0 C1.98 0.99 3.96 1.98 6 3 C6 3.99 6 4.98 6 6 C3.5625 5.25 3.5625 5.25 1 4 C0.1875 1.875 0.1875 1.875 0 0 Z " fill="#81886E" transform="translate(24,56)"/>
<path d="M0 0 C0.33 0 0.66 0 1 0 C1.36923077 7.50769231 1.36923077 7.50769231 -0.5 10 C-0.995 10.33 -1.49 10.66 -2 11 C-1.125 3.375 -1.125 3.375 0 0 Z " fill="#565444" transform="translate(71,37)"/>
<path d="M0 0 C2.97 0 5.94 0 9 0 C5.71536341 2.18975773 2.79303725 2.99806563 -1 4 C-0.67 2.68 -0.34 1.36 0 0 Z " fill="#5A382E" transform="translate(29,0)"/>
<path d="M0 0 C0.99 0 1.98 0 3 0 C2.34 3.3 1.68 6.6 1 10 C0.67 10 0.34 10 0 10 C0 6.7 0 3.4 0 0 Z " fill="#401829" transform="translate(47,70)"/>
<path d="M0 0 C2.475 0.495 2.475 0.495 5 1 C5.33 1.99 5.66 2.98 6 4 C4.02 4 2.04 4 0 4 C0 2.68 0 1.36 0 0 Z " fill="#575F42" transform="translate(31,62)"/>
<path d="M0 0 C2.88437779 1.29299694 4.87219421 2.65941363 7 5 C6.67 5.99 6.34 6.98 6 8 C4.9970458 6.85675161 3.99770973 5.71032809 3 4.5625 C2.443125 3.92441406 1.88625 3.28632812 1.3125 2.62890625 C0 1 0 1 0 0 Z " fill="#69604E" transform="translate(17,51)"/>
<path d="M0 0 C0.33 0 0.66 0 1 0 C1 2.31 1 4.62 1 7 C0.01 7.33 -0.98 7.66 -2 8 C-1.125 1.125 -1.125 1.125 0 0 Z " fill="#371C20" transform="translate(33,39)"/>
<path d="M0 0 C1.65 1.65 3.3 3.3 5 5 C4.67 5.99 4.34 6.98 4 8 C2 6.25 2 6.25 0 4 C0 2.68 0 1.36 0 0 Z " fill="#918574" transform="translate(64,10)"/>
<path d="M0 0 C1.32 0.66 2.64 1.32 4 2 C4 2.99 4 3.98 4 5 C2.35 5 0.7 5 -1 5 C-0.67 3.35 -0.34 1.7 0 0 Z " fill="#8C2C32" transform="translate(76,75)"/>
<path d="M0 0 C-1.66666667 1.66666667 -3.33333333 3.33333333 -5 5 C-5.66 4.34 -6.32 3.68 -7 3 C-7 2.01 -7 1.02 -7 0 C-3.98968256 -0.93423645 -3.13349732 -1.04449911 0 0 Z " fill="#A79662" transform="translate(29,69)"/>
<path d="M0 0 C0.33 1.32 0.66 2.64 1 4 C-1.97 3.505 -1.97 3.505 -5 3 C-5 2.34 -5 1.68 -5 1 C-3.35 0.67 -1.7 0.34 0 0 Z " fill="#7E8264" transform="translate(36,59)"/>
<path d="M0 0 C0.99 0 1.98 0 3 0 C3 1.32 3 2.64 3 4 C2.34 4 1.68 4 1 4 C1 5.65 1 7.3 1 9 C0.67 9 0.34 9 0 9 C0 6.03 0 3.06 0 0 Z " fill="#5E172A" transform="translate(44,53)"/>
</svg>
