<?xml version="1.0" encoding="UTF-8"?>
<svg version="1.1" xmlns="http://www.w3.org/2000/svg" width="80" height="80">
<path d="M0 0 C26.4 0 52.8 0 80 0 C80 26.4 80 52.8 80 80 C53.6 80 27.2 80 0 80 C0 53.6 0 27.2 0 0 Z " fill="#0F91CC" transform="translate(0,0)"/>
<path d="M0 0 C26.4 0 52.8 0 80 0 C80 26.4 80 52.8 80 80 C53.6 80 27.2 80 0 80 C0 73.73 0 67.46 0 61 C6 66 6 66 8.25 68.5 C15.24229673 74.85663339 22.01355831 76.78941511 31.40625 76.421875 C43.11108555 75.04782909 54.91675845 70.75284721 62.42578125 61.3359375 C69.59340931 50.70010232 70.63574385 39.62675481 68.5234375 27.1953125 C66.75436083 21.03551541 62.93321146 15.78383496 58.3125 11.3984375 C57 10 57 10 57 8 C56.26523437 7.71382813 55.53046875 7.42765625 54.7734375 7.1328125 C52 6 52 6 49.8515625 4.9296875 C40.33412763 0.42142888 29.11064032 0.46685092 19.2109375 3.953125 C13.17456447 6.81133697 8.61426543 11.25756053 4 16 C2.68 16.99 1.36 17.98 0 19 C0 12.73 0 6.46 0 0 Z " fill="#E3493E" transform="translate(0,0)"/>
<path d="M0 0 C7.2725852 0.88152548 11.66196222 4.27393105 16.1875 9.75 C24.37436454 20.50715922 26.33204784 30.71305142 25 44 C22.78086729 53.51520807 17.01497749 61.97543324 8.8515625 67.4375 C6.91572026 68.44621473 5.0556063 69.26841091 3 70 C2.06800781 70.35578125 1.13601562 70.7115625 0.17578125 71.078125 C-3.23707476 72.06881875 -6.0781705 72.26661278 -9.625 72.25 C-10.73101562 72.25515625 -11.83703125 72.2603125 -12.9765625 72.265625 C-15.97301015 72.0023712 -17.40921083 71.39463852 -20 70 C-21.78203852 69.63659335 -23.57563731 69.32711216 -25.375 69.0625 C-33.78111279 67.55860265 -33.78111279 67.55860265 -37 65 C-38.07925269 62.04126823 -38.62059941 59.12024282 -39 56 C-34.27382469 56.63981428 -29.60882085 57.41280102 -24.9375 58.375 C-23.77089844 58.60960937 -22.60429687 58.84421875 -21.40234375 59.0859375 C-17.96716011 60.00882266 -15.11586891 61.30215971 -12 63 C-11.67 62.01 -11.34 61.02 -11 60 C-11.598125 59.7525 -12.19625 59.505 -12.8125 59.25 C-15.52934654 57.69751626 -16.61677567 56.83924995 -18 54 C-17.94727563 50.9472587 -17.53260705 48.00313371 -17 45 C-14.525 44.505 -14.525 44.505 -12 44 C-12 43.34 -12 42.68 -12 42 C-10.02 42 -8.04 42 -6 42 C-6.1875 44.375 -6.1875 44.375 -7 47 C-9.5625 48.3125 -9.5625 48.3125 -12 49 C-10.99163938 50.23267348 -10.99163938 50.23267348 -8.93359375 50.09765625 C-8.10988281 50.08605469 -7.28617188 50.07445312 -6.4375 50.0625 C-5.61121094 50.05347656 -4.78492188 50.04445312 -3.93359375 50.03515625 C-3.29550781 50.02355469 -2.65742187 50.01195312 -2 50 C-2 49.34 -2 48.68 -2 48 C-2.99 47.505 -2.99 47.505 -4 47 C0.875 44 0.875 44 2 44 C2.66 43.01 3.32 42.02 4 41 C6.34765625 39.8671875 6.34765625 39.8671875 9.0625 38.875 C12.28747567 37.85620817 12.28747567 37.85620817 15 36 C11.37 35.67 7.74 35.34 4 35 C4.33 33.35 4.66 31.7 5 30 C4.01 30 3.02 30 2 30 C2.495 28.515 2.495 28.515 3 27 C5.0625 26.3125 5.0625 26.3125 7 26 C7.33 24.35 7.66 22.7 8 21 C6.68 21.33 5.36 21.66 4 22 C4 21.34 4 20.68 4 20 C4.66 19.67 5.32 19.34 6 19 C5.505 17.515 5.505 17.515 5 16 C4.34 16 3.68 16 3 16 C3.66 14.35 4.32 12.7 5 11 C3.35 11 1.7 11 0 11 C0 11.66 0 12.32 0 13 C-0.99 13 -1.98 13 -3 13 C-3 12.01 -3 11.02 -3 10 C-5.00393821 8.41310436 -5.00393821 8.41310436 -7.5 7 C-10.03125 5.5 -10.03125 5.5 -12 4 C-12 3.01 -12 2.02 -12 1 C-0.74647887 0.55868545 -0.74647887 0.55868545 4.25 5 C7.2377593 8.41458206 7 10.56187807 7 15 C7.495 15.495 7.495 15.495 8 16 C7.88244776 11.09486554 7.77799697 7.9375861 4.5625 4.0625 C3.2940625 3.0415625 3.2940625 3.0415625 2 2 C1.34 1.34 0.68 0.68 0 0 Z " fill="#093964" transform="translate(45,3)"/>
<path d="M0 0 C7.2725852 0.88152548 11.66196222 4.27393105 16.1875 9.75 C24.37436454 20.50715922 26.33204784 30.71305142 25 44 C22.77854274 53.52517526 16.98746652 62.08791183 8.74609375 67.47265625 C3.43291492 70.20263212 -0.77908113 71.1209992 -6.6875 71.0625 C-7.86699219 71.05347656 -9.04648437 71.04445313 -10.26171875 71.03515625 C-11.61716797 71.01775391 -11.61716797 71.01775391 -13 71 C-10.20700726 68.20700726 -6.8329797 67.31146376 -3.1875 66 C-1.7641602 65.47961151 -0.3409794 64.9587879 1.08203125 64.4375 C1.75830566 64.19257812 2.43458008 63.94765625 3.13134766 63.6953125 C4.71102983 63.10752379 6.27048407 62.46579923 7.82421875 61.8125 C10 61 10 61 13 61 C13.103125 59.72125 13.20625 58.4425 13.3125 57.125 C13.69925714 53.51337081 14.45069815 50.26852556 15.5625 46.8125 C16.76222901 43.07353871 17.30483647 39.96287413 17 36 C17 35.67 17 35.34 17 35 C16.34 35.185625 15.68 35.37125 15 35.5625 C11.10669886 36.13027308 7.88624521 35.59281707 4 35 C4.33 33.35 4.66 31.7 5 30 C4.01 30 3.02 30 2 30 C2.33 29.01 2.66 28.02 3 27 C5.0625 26.3125 5.0625 26.3125 7 26 C7.33 24.35 7.66 22.7 8 21 C6.68 21.33 5.36 21.66 4 22 C4 21.34 4 20.68 4 20 C4.66 19.67 5.32 19.34 6 19 C5.67 18.01 5.34 17.02 5 16 C4.34 16 3.68 16 3 16 C3.66 14.35 4.32 12.7 5 11 C3.35 11 1.7 11 0 11 C0 11.66 0 12.32 0 13 C-0.99 13 -1.98 13 -3 13 C-3 12.01 -3 11.02 -3 10 C-5.00393821 8.41310436 -5.00393821 8.41310436 -7.5 7 C-10.03125 5.5 -10.03125 5.5 -12 4 C-12 3.01 -12 2.02 -12 1 C-0.74647887 0.55868545 -0.74647887 0.55868545 4.25 5 C7.2377593 8.41458206 7 10.56187807 7 15 C7.33 15.33 7.66 15.66 8 16 C7.88244776 11.09486554 7.77799697 7.9375861 4.5625 4.0625 C3.716875 3.381875 2.87125 2.70125 2 2 C1.34 1.34 0.68 0.68 0 0 Z " fill="#072A55" transform="translate(45,3)"/>
<path d="M0 0 C-1.50599021 3.01198042 -4.02586996 3.57241758 -7 5 C-7.99 5.66 -8.98 6.32 -10 7 C-12.6875 7.125 -12.6875 7.125 -15 7 C-14.67 7.66 -14.34 8.32 -14 9 C-10.97065509 9.65772428 -10.97065509 9.65772428 -8 10 C-8 9.34 -8 8.68 -8 8 C-5.6875 7.3125 -5.6875 7.3125 -3 7 C-0.80029578 8.49265644 -0.12616302 9.47957755 0.5 12.0625 C0.87267251 14.39687193 0.87267251 14.39687193 4 16 C4 16.66 4 17.32 4 18 C0.37 18 -3.26 18 -7 18 C-7 17.34 -7 16.68 -7 16 C-9.475 15.505 -9.475 15.505 -12 15 C-11.95875 15.886875 -11.9175 16.77375 -11.875 17.6875 C-12.00133499 21.03537714 -12.77484656 22.93711639 -14 26 C-14.16757757 29.20870233 -14.16757757 29.20870233 -14 32 C-12.02 31.67 -10.04 31.34 -8 31 C-8.33 32.32 -8.66 33.64 -9 35 C-9.495 34.505 -9.495 34.505 -10 34 C-12.33297433 33.95907063 -14.66705225 33.95758277 -17 34 C-17.33 35.98 -17.66 37.96 -18 40 C-17.01 40 -16.02 40 -15 40 C-15 39.34 -15 38.68 -15 38 C-14.01 38 -13.02 38 -12 38 C-12.33 39.32 -12.66 40.64 -13 42 C-11.515 42.495 -11.515 42.495 -10 43 C-9.67 43.99 -9.34 44.98 -9 46 C-9.66 46 -10.32 46 -11 46 C-11 45.34 -11 44.68 -11 44 C-11.69867187 43.84144531 -12.39734375 43.68289062 -13.1171875 43.51953125 C-20.6432247 41.59005146 -20.6432247 41.59005146 -22.625 38.3125 C-22.74875 37.549375 -22.8725 36.78625 -23 36 C-23.99 36 -24.98 36 -26 36 C-26.02696365 34.20841511 -26.04637917 32.41671527 -26.0625 30.625 C-26.07410156 29.62726562 -26.08570313 28.62953125 -26.09765625 27.6015625 C-26 25 -26 25 -25 23 C-24.34 23 -23.68 23 -23 23 C-23 20.03 -23 17.06 -23 14 C-27.23039958 15.74192924 -31.1273638 17.53559514 -35 20 C-30.83280795 10.62381789 -22.23880423 4.82779091 -13 1 C-8.6965242 -0.29104274 -4.45972515 -0.07558856 0 0 Z " fill="#7C696C" transform="translate(35,1)"/>
<path d="M0 0 C0.33 0 0.66 0 1 0 C1 7.92 1 15.84 1 24 C-25.4 24 -51.8 24 -79 24 C-79 17.73 -79 11.46 -79 5 C-73 10 -73 10 -70.75 12.5 C-63.13280255 19.42472495 -53.42575696 22.38390023 -43.3125 22.3125 C-42.51956543 22.30903564 -41.72663086 22.30557129 -40.90966797 22.30200195 C-32.6511425 22.14981369 -25.68018982 21.01659042 -19 16 C-18.19691406 15.69707031 -17.39382812 15.39414063 -16.56640625 15.08203125 C-13.43117863 13.76017729 -11.43762585 11.98668837 -8.9375 9.6875 C-8.10089844 8.92824219 -7.26429687 8.16898438 -6.40234375 7.38671875 C-4.05522337 5.0548642 -2.05569706 2.58679029 0 0 Z " fill="#F7CE24" transform="translate(79,56)"/>
<path d="M0 0 C0 0.66 0 1.32 0 2 C0.763125 2.2475 1.52625 2.495 2.3125 2.75 C5.44463315 4.20680612 6.48717792 4.89473363 8 8 C8.23973517 11.01753619 8.17421827 13.98021673 8 17 C7.34 16.67 6.68 16.34 6 16 C6.061875 15.113125 6.12375 14.22625 6.1875 13.3125 C5.97664477 9.58739096 5.31649619 7.89562024 3 5 C0.99427359 4.18553891 0.99427359 4.18553891 -1 4 C-1.66 3.67 -2.32 3.34 -3 3 C-4.53668865 2.77532169 -6.07968054 2.59203195 -7.625 2.4375 C-8.44226563 2.35371094 -9.25953125 2.26992187 -10.1015625 2.18359375 C-10.72804688 2.12300781 -11.35453125 2.06242188 -12 2 C-12 2.99 -12 3.98 -12 5 C-11.278125 5.226875 -10.55625 5.45375 -9.8125 5.6875 C-6.46790687 7.24831013 -4.48396041 9.3031287 -2 12 C-2.33 12.66 -2.66 13.32 -3 14 C-2.01 14 -1.02 14 0 14 C0 13.34 0 12.68 0 12 C1.65 12 3.3 12 5 12 C4.34 13.65 3.68 15.3 3 17 C3.66 17 4.32 17 5 17 C5 17.66 5 18.32 5 19 C5.66 19.33 6.32 19.66 7 20 C6.01 20.33 5.02 20.66 4 21 C5.32 21.33 6.64 21.66 8 22 C7.505 24.475 7.505 24.475 7 27 C6.01 27 5.02 27 4 27 C3.67 27.66 3.34 28.32 3 29 C1.68 28.67 0.36 28.34 -1 28 C-1.495 25.525 -1.495 25.525 -2 23 C-4.31 23.33 -6.62 23.66 -9 24 C-9.33 23.01 -9.66 22.02 -10 21 C-10.78375 21.66 -11.5675 22.32 -12.375 23 C-15 25 -15 25 -17 25 C-17.144375 25.804375 -17.28875 26.60875 -17.4375 27.4375 C-18 30 -18 30 -19 31 C-20.66617115 31.04063832 -22.33388095 31.042721 -24 31 C-24.33 28.03 -24.66 25.06 -25 22 C-24.34 22 -23.68 22 -23 22 C-22.67 19.36 -22.34 16.72 -22 14 C-20.35 14.33 -18.7 14.66 -17 15 C-17 15.66 -17 16.32 -17 17 C-13.37 17 -9.74 17 -6 17 C-8.83656989 13.96731398 -8.83656989 13.96731398 -12 12 C-11.34 12 -10.68 12 -10 12 C-10.33 10.35 -10.66 8.7 -11 7 C-13.31 7 -15.62 7 -18 7 C-18 7.66 -18 8.32 -18 9 C-21 10 -21 10 -23.1875 9.0625 C-23.785625 8.711875 -24.38375 8.36125 -25 8 C-25 7.34 -25 6.68 -25 6 C-23.9275 5.731875 -22.855 5.46375 -21.75 5.1875 C-18.35172901 4.11138085 -16.66946318 3.20921091 -14 1 C-9.59720845 -1.88458757 -4.87878988 -1.62626329 0 0 Z " fill="#1F76BF" transform="translate(45,2)"/>
<path d="M0 0 C9.24 0 18.48 0 28 0 C28.09180498 6.90577429 28.17145382 13.80943379 28.21972656 20.71533203 C28.23984814 23.06468884 28.26714851 25.41399554 28.30175781 27.76318359 C28.3502504 31.13912315 28.37296357 34.51440086 28.390625 37.890625 C28.41127014 38.94179504 28.43191528 39.99296509 28.45318604 41.07598877 C28.45544041 48.39384462 28.45544041 48.39384462 25.97558594 51.69433594 C24.9976709 52.34063965 24.9976709 52.34063965 24 53 C24.309375 51.453125 24.309375 51.453125 24.625 49.875 C26.19088527 37.25843871 22.38644016 23.2392868 15 13 C14.2575 11.948125 13.515 10.89625 12.75 9.8125 C9.70777934 6.70113796 6.75641104 4.9982174 2.890625 3.078125 C1 2 1 2 0 0 Z " fill="#A630C3" transform="translate(52,0)"/>
<path d="M0 0 C2.35171131 0.59861742 4.6859378 1.26924352 7 2 C7.66666667 3.33333333 8.33333333 4.66666667 9 6 C11.3140622 6.73075648 13.64828869 7.40138258 16 8 C16.33 8.66 16.66 9.32 17 10 C11.06 9.01 11.06 9.01 5 8 C10.59527239 10.84850231 16.24314449 13.49470177 22 16 C22 16.66 22 17.32 22 18 C21.33613281 17.7834375 20.67226563 17.566875 19.98828125 17.34375 C19.10527344 17.0653125 18.22226562 16.786875 17.3125 16.5 C16.44238281 16.2215625 15.57226562 15.943125 14.67578125 15.65625 C12.00608323 15.00149195 9.73603316 14.88168505 7 15 C7 15.66 7 16.32 7 17 C13.3246158 18.7899856 19.4491015 19.54240047 26 20 C26.66 19.01 27.32 18.02 28 17 C28.61875 17.804375 29.2375 18.60875 29.875 19.4375 C31.74164041 22.03874519 31.74164041 22.03874519 34 23 C33.505 25.475 33.505 25.475 33 28 C32.505 26.515 32.505 26.515 32 25 C29.68536989 24.06374527 29.68536989 24.06374527 26.8125 23.5 C25.74128906 23.25636719 24.67007812 23.01273438 23.56640625 22.76171875 C22.38949219 22.51035156 21.21257813 22.25898437 20 22 C18.69652259 21.71526457 17.39313864 21.43010094 16.08984375 21.14453125 C12.72920313 20.41633547 9.36617119 19.70211559 6 19 C7.07801518 24.81924956 7.07801518 24.81924956 10.6640625 29.23046875 C14.97748297 30.92318555 19.41666171 31.42256608 24.01953125 31.69140625 C26 32 26 32 29 34 C31.73872955 34.45772063 31.73872955 34.45772063 34.6875 34.625 C35.68136719 34.69976562 36.67523438 34.77453125 37.69921875 34.8515625 C38.45847656 34.90054688 39.21773437 34.94953125 40 35 C40 35.33 40 35.66 40 36 C29.29276355 38.39714249 20.37721575 37.95769928 10.93359375 32.07421875 C9.96550781 31.38972656 8.99742188 30.70523438 8 30 C7.14535156 29.42894531 6.29070313 28.85789062 5.41015625 28.26953125 C2.05012311 25.40553112 0.26399989 23.01545288 -0.32177734 18.54345703 C-0.67420375 12.34834301 -0.43990737 6.18492838 0 0 Z " fill="#3191DD" transform="translate(0,40)"/>
<path d="M0 0 C11.25352113 -0.44131455 11.25352113 -0.44131455 16.25 4 C19.2377593 7.41458206 19 9.56187807 19 14 C19.33 14.33 19.66 14.66 20 15 C20 12.36 20 9.72 20 7 C24.58660699 12.06108357 27 17.17508752 27 24 C27.66 24 28.32 24 29 24 C29 26.31 29 28.62 29 31 C29.66 31.33 30.32 31.66 31 32 C28.63310671 34.19219402 27.48272731 34.9871902 24.203125 35.07421875 C22.74132813 34.88279297 22.74132813 34.88279297 21.25 34.6875 C20.26515625 34.56761719 19.2803125 34.44773438 18.265625 34.32421875 C17.51796875 34.21722656 16.7703125 34.11023437 16 34 C16.33 32.35 16.66 30.7 17 29 C16.01 29 15.02 29 14 29 C14.33 28.01 14.66 27.02 15 26 C17.0625 25.3125 17.0625 25.3125 19 25 C19.33 23.35 19.66 21.7 20 20 C18.68 20.33 17.36 20.66 16 21 C16 20.34 16 19.68 16 19 C16.66 18.67 17.32 18.34 18 18 C17.67 17.01 17.34 16.02 17 15 C16.34 15 15.68 15 15 15 C15.66 13.35 16.32 11.7 17 10 C15.35 10 13.7 10 12 10 C12 10.66 12 11.32 12 12 C11.01 12 10.02 12 9 12 C9 11.01 9 10.02 9 9 C6.99606179 7.41310436 6.99606179 7.41310436 4.5 6 C1.96875 4.5 1.96875 4.5 0 3 C0 2.01 0 1.02 0 0 Z " fill="#3164A9" transform="translate(33,4)"/>
<path d="M0 0 C4.75522044 0.63848868 9.43163808 1.44209467 14.125 2.4375 C15.89230469 2.80681641 15.89230469 2.80681641 17.6953125 3.18359375 C20.6355064 3.90995371 23.27525912 4.682708 26 6 C26.875 8 26.875 8 27 10 C26.67 10.66 26.34 11.32 26 12 C27.77444057 11.40651139 29.54445553 10.79977999 31.3125 10.1875 C32.29863281 9.85105469 33.28476562 9.51460937 34.30078125 9.16796875 C37.00743784 8.19818791 37.00743784 8.19818791 38.60546875 6.36328125 C40 5 40 5 44 5 C44 5.99 44 6.98 44 8 C38.72 9.98 33.44 11.96 28 14 C30.64 14.33 33.28 14.66 36 15 C36 15.33 36 15.66 36 16 C33.91695462 16.05418326 31.83350232 16.09287551 29.75 16.125 C28.58984375 16.14820312 27.4296875 16.17140625 26.234375 16.1953125 C23.05359269 16.00323627 21.71248802 15.48910057 19 14 C17.21796148 13.63659335 15.42436269 13.32711216 13.625 13.0625 C5.21888721 11.55860265 5.21888721 11.55860265 2 9 C0.92074731 6.04126823 0.37940059 3.12024282 0 0 Z " fill="#0968AF" transform="translate(6,59)"/>
<path d="M0 0 C0 2.97 0 5.94 0 9 C-0.66 9 -1.32 9 -2 9 C-2.33 13.29 -2.66 17.58 -3 22 C-2.01 22 -1.02 22 0 22 C1.60355101 25.50776784 2.22036864 28.14354879 2 32 C-0.375 32.125 -0.375 32.125 -3 32 C-3.66 31.34 -4.32 30.68 -5 30 C-5 29.01 -5 28.02 -5 27 C-5.969375 26.855625 -6.93875 26.71125 -7.9375 26.5625 C-11 26 -11 26 -12 25 C-12.91305921 18.30824928 -14.07138702 9.2669857 -10.35546875 3.40625 C-6.69891421 0.63839424 -4.64953864 0 0 0 Z " fill="#0680CE" transform="translate(12,15)"/>
<path d="M0 0 C0.25 2.3125 0.25 2.3125 0 5 C-1.9375 6.625 -1.9375 6.625 -4 8 C-4.33 8.99 -4.66 9.98 -5 11 C-10.62919351 15.18916726 -15.98561153 18.16495375 -23 19 C-22.34 16.36 -21.68 13.72 -21 11 C-21.598125 10.773125 -22.19625 10.54625 -22.8125 10.3125 C-25 9 -25 9 -28 4 C-23.05 4 -18.1 4 -13 4 C-13 3.34 -13 2.68 -13 2 C-8.50343896 -0.24828052 -4.92127034 -0.16682272 0 0 Z " fill="#564C39" transform="translate(55,52)"/>
<path d="M0 0 C-1.50599021 3.01198042 -4.02586996 3.57241758 -7 5 C-7.99 5.66 -8.98 6.32 -10 7 C-12.6875 7.125 -12.6875 7.125 -15 7 C-14.01 8.65 -13.02 10.3 -12 12 C-12.99 12.33 -13.98 12.66 -15 13 C-14.34 13.33 -13.68 13.66 -13 14 C-13 15.98 -13 17.96 -13 20 C-14.98 20.99 -14.98 20.99 -17 22 C-17 22.66 -17 23.32 -17 24 C-18.32 23.67 -19.64 23.34 -21 23 C-20.979375 22.05125 -20.95875 21.1025 -20.9375 20.125 C-20.77448174 17.09333717 -20.77448174 17.09333717 -22 15 C-27.28798182 15.41474367 -30.11690718 16.35224614 -34 20 C-34 15.79693911 -31.83733197 13.83733197 -29 11 C-19.99940824 3.22763398 -11.82991637 -0.20050706 0 0 Z " fill="#484F4F" transform="translate(35,1)"/>
<path d="M0 0 C10.23 0 20.46 0 31 0 C27.84761744 1.57619128 25.57604447 2.42378513 22.25 3.25 C14.53746412 5.49901635 9.51096 10.33595778 4 16 C2.68 16.99 1.36 17.98 0 19 C0 12.73 0 6.46 0 0 Z " fill="#F68F29" transform="translate(0,0)"/>
<path d="M0 0 C6 5 6 5 8.25 7.5 C12.05011029 10.95464571 16.35591878 12.88085614 21 15 C21 15.66 21 16.32 21 17 C22.32 17.66 23.64 18.32 25 19 C16.75 19 8.5 19 0 19 C0 12.73 0 6.46 0 0 Z " fill="#ED5A75" transform="translate(0,61)"/>
<path d="M0 0 C0.33 0 0.66 0 1 0 C1.25 6.625 1.25 6.625 -1 10 C-1.66 10 -2.32 10 -3 10 C-3.23332031 10.56589844 -3.46664062 11.13179687 -3.70703125 11.71484375 C-7.54005477 18.48922066 -14.70718214 23.61325961 -22 26 C-22.76699219 26.26296875 -23.53398438 26.5259375 -24.32421875 26.796875 C-26.54276598 27.55425344 -28.76843915 28.28209477 -31 29 C-31.99 29.33 -32.98 29.66 -34 30 C-37.01710399 30.22347527 -40.03794064 30.18513522 -43.0625 30.1875 C-44.30483398 30.20586914 -44.30483398 30.20586914 -45.57226562 30.22460938 C-46.36439453 30.22654297 -47.15652344 30.22847656 -47.97265625 30.23046875 C-48.69718994 30.23457764 -49.42172363 30.23868652 -50.16821289 30.24291992 C-52 30 -52 30 -54 28 C-52.18628906 27.85304688 -52.18628906 27.85304688 -50.3359375 27.703125 C-31.50595082 26.45293916 -31.50595082 26.45293916 -16 17 C-15.13761719 16.6803125 -14.27523437 16.360625 -13.38671875 16.03125 C-10.06011489 14.5938958 -9.38557508 12.7051932 -7.8125 9.5 C-5.13910761 4.13910761 -5.13910761 4.13910761 -3 2 C-2.505 2.495 -2.505 2.495 -2 3 C-1.34 2.01 -0.68 1.02 0 0 Z " fill="#F25A1A" transform="translate(79,49)"/>
<path d="M0 0 C3.11379442 3.11379442 3.27360459 6.7524336 4 11 C4.17273438 11.97195312 4.34546875 12.94390625 4.5234375 13.9453125 C5.5652783 21.63134559 4.35607931 25.71047372 0 32 C-0.42023438 32.75796875 -0.84046875 33.5159375 -1.2734375 34.296875 C-4.31248772 39.75555119 -4.31248772 39.75555119 -7.8125 41 C-8.534375 41 -9.25625 41 -10 41 C-10.33 41.99 -10.66 42.98 -11 44 C-16.44533569 47.78805961 -22.44997948 49.92671946 -29 51 C-31.33203125 50.57421875 -31.33203125 50.57421875 -33 50 C-32.23816406 49.69707031 -31.47632813 49.39414063 -30.69140625 49.08203125 C-24.1831821 46.44136602 -18.05286336 43.55465898 -12 40 C-11.05125 39.505 -10.1025 39.01 -9.125 38.5 C-6.46887502 36.62508825 -5.53020981 34.86914339 -4 32 C-3.58854736 31.47688232 -3.17709473 30.95376465 -2.75317383 30.41479492 C1.85397371 24.27938245 1.4283925 18.90843351 0.8125 11.5 C0.74224609 10.39140625 0.67199219 9.2828125 0.59960938 8.140625 C0.42399484 5.42445359 0.22360209 2.7125709 0 0 Z " fill="#EC4471" transform="translate(73,25)"/>
<path d="M0 0 C7.55713548 5.74952094 11.79245656 11.68571584 14 21 C14.97021342 31.40681551 14.63150625 40.82657271 9 50 C6.828125 52.32421875 6.828125 52.32421875 5 54 C5.40379509 50.56774177 6.06007298 48.91695793 8.125 46.0625 C10.46033014 42.24812745 9.81076397 41.27447078 9 37 C8.95692319 34.62539069 8.95966611 32.24965749 9 29.875 C9.01936449 24.97094284 9.00996732 20.08552065 8.75 15.1875 C8.70359375 14.23230469 8.6571875 13.27710938 8.609375 12.29296875 C8.24146089 9.83907926 8.24146089 9.83907926 6.05859375 8.828125 C5.37925781 8.55484375 4.69992188 8.2815625 4 8 C2.16252704 5.34587239 1.02212951 3.06638854 0 0 Z " fill="#161C42" transform="translate(56,9)"/>
<path d="M0 0 C5.61 0 11.22 0 17 0 C17 6.93 17 13.86 17 21 C16.01 19.68 15.02 18.36 14 17 C13.48179688 16.32839844 12.96359375 15.65679687 12.4296875 14.96484375 C11.91664062 14.29582031 11.40359375 13.62679688 10.875 12.9375 C10.09769531 11.93009766 10.09769531 11.93009766 9.3046875 10.90234375 C8 9 8 9 7 6 C6.01 5.67 5.02 5.34 4 5 C2.68 3.35 1.36 1.7 0 0 Z " fill="#F7B312" transform="translate(63,0)"/>
<path d="M0 0 C0 0.66 0 1.32 0 2 C0.763125 2.2475 1.52625 2.495 2.3125 2.75 C5.44463315 4.20680612 6.48717792 4.89473363 8 8 C8.23973517 11.01753619 8.17421827 13.98021673 8 17 C7.34 16.67 6.68 16.34 6 16 C6.061875 15.113125 6.12375 14.22625 6.1875 13.3125 C5.97664477 9.58739096 5.31649619 7.89562024 3 5 C0.99427359 4.18553891 0.99427359 4.18553891 -1 4 C-1.66 3.67 -2.32 3.34 -3 3 C-4.53668865 2.77532169 -6.07968054 2.59203195 -7.625 2.4375 C-8.44226563 2.35371094 -9.25953125 2.26992187 -10.1015625 2.18359375 C-10.72804688 2.12300781 -11.35453125 2.06242188 -12 2 C-12 2.99 -12 3.98 -12 5 C-11.236875 5.268125 -10.47375 5.53625 -9.6875 5.8125 C-7.05139882 6.97728889 -5.64668495 7.65997402 -4 10 C-3.8125 12.6875 -3.8125 12.6875 -4 15 C-7.37462715 14.45276317 -9.08235 13.9451 -12 12 C-11.34 12 -10.68 12 -10 12 C-10.33 10.35 -10.66 8.7 -11 7 C-13.31 7 -15.62 7 -18 7 C-18 7.66 -18 8.32 -18 9 C-21 10 -21 10 -23.1875 9.0625 C-23.785625 8.711875 -24.38375 8.36125 -25 8 C-25 7.34 -25 6.68 -25 6 C-23.9275 5.731875 -22.855 5.46375 -21.75 5.1875 C-18.35172901 4.11138085 -16.66946318 3.20921091 -14 1 C-9.59720845 -1.88458757 -4.87878988 -1.62626329 0 0 Z " fill="#7683D8" transform="translate(45,2)"/>
<path d="M0 0 C0 4.62 0 9.24 0 14 C-7.92 14 -15.84 14 -24 14 C-21.29539104 12.19692736 -19.14827807 11.26724217 -16.125 10.1875 C-11.74409014 8.48098279 -9.1234964 6.5828341 -6 3 C-2.37931034 0 -2.37931034 0 0 0 Z " fill="#8E0B47" transform="translate(80,66)"/>
<path d="M0 0 C3.3956697 -0.08745946 6.79104773 -0.14054444 10.1875 -0.1875 C11.14720703 -0.21263672 12.10691406 -0.23777344 13.09570312 -0.26367188 C18.25962245 -0.31727657 21.79372282 -0.34534326 26 3 C26.94875 3.556875 27.8975 4.11375 28.875 4.6875 C32.80696884 7.59715694 36.37858091 10.83520103 39 15 C39.1953125 17.75390625 39.1953125 17.75390625 39 20 C38.01 19.67 37.02 19.34 36 19 C36 18.01 36 17.02 36 16 C35.0925 15.7525 34.185 15.505 33.25 15.25 C29.87503877 13.95193799 28.25897879 12.78028159 26 10 C26 9.34 26 8.68 26 8 C25.27039063 7.71253906 24.54078125 7.42507812 23.7890625 7.12890625 C22.083477 6.43855022 20.38748169 5.72300793 18.7109375 4.96484375 C12.46777322 2.21910428 6.79729483 1.25845227 0 1 C0 0.67 0 0.34 0 0 Z " fill="#EE1F34" transform="translate(31,0)"/>
<path d="M0 0 C2.55816566 -0.46512103 4.34320325 -0.38738255 6.609375 0.94921875 C12.94602548 6.02144586 18.91577266 13.45858263 22 21 C22.45676696 25.65518462 22.37030595 30.32472725 22.375 35 C22.39949219 36.28390625 22.42398438 37.5678125 22.44921875 38.890625 C22.45501953 40.73914062 22.45501953 40.73914062 22.4609375 42.625 C22.46915527 43.75164063 22.47737305 44.87828125 22.48583984 46.0390625 C21.90137686 49.60105602 20.75572857 50.7610132 18 53 C19 48 19 48 19.51953125 45.6796875 C21.85319875 32.66427363 18.3989209 20.78458783 11 10 C8.50553195 7.40632015 5.82540439 5.21694843 3 3 C1.98528821 2.01493148 0.98008246 1.0195285 0 0 Z " fill="#2D0B8D" transform="translate(58,0)"/>
<path d="M0 0 C1.65 0.33 3.3 0.66 5 1 C5 1.99 5 2.98 5 4 C6.423125 3.9071875 6.423125 3.9071875 7.875 3.8125 C8.90625 3.874375 9.9375 3.93625 11 4 C11.99 5.485 11.99 5.485 13 7 C10.32521756 8.6627026 8.0004856 9.99983813 5 11 C4.855625 11.804375 4.71125 12.60875 4.5625 13.4375 C4 16 4 16 3 17 C1.33382885 17.04063832 -0.33388095 17.042721 -2 17 C-2.33 14.03 -2.66 11.06 -3 8 C-2.34 8 -1.68 8 -1 8 C-0.67 5.36 -0.34 2.72 0 0 Z " fill="#A2ACBB" transform="translate(23,16)"/>
<path d="M0 0 C0.66 0 1.32 0 2 0 C2 1.32 2 2.64 2 4 C4.31 4 6.62 4 9 4 C9 4.66 9 5.32 9 6 C6.69 6.66 4.38 7.32 2 8 C2.66 9.98 3.32 11.96 4 14 C4.66 11.69 5.32 9.38 6 7 C7.32 7 8.64 7 10 7 C10 7.66 10 8.32 10 9 C13.465 8.505 13.465 8.505 17 8 C16.67 9.32 16.34 10.64 16 12 C15.67 11.67 15.34 11.34 15 11 C12.66702567 10.95907063 10.33294775 10.95758277 8 11 C7.67 12.98 7.34 14.96 7 17 C7.99 17 8.98 17 10 17 C10 16.34 10 15.68 10 15 C10.99 15 11.98 15 13 15 C12.67 16.32 12.34 17.64 12 19 C12.99 19.33 13.98 19.66 15 20 C15.33 20.99 15.66 21.98 16 23 C15.34 23 14.68 23 14 23 C14 22.34 14 21.68 14 21 C13.30132812 20.84144531 12.60265625 20.68289062 11.8828125 20.51953125 C4.3567753 18.59005146 4.3567753 18.59005146 2.375 15.3125 C2.25125 14.549375 2.1275 13.78625 2 13 C1.01 13 0.02 13 -1 13 C-1.02696365 11.20841511 -1.04637917 9.41671527 -1.0625 7.625 C-1.07410156 6.62726562 -1.08570313 5.62953125 -1.09765625 4.6015625 C-1 2 -1 2 0 0 Z " fill="#3E6B5D" transform="translate(10,24)"/>
<path d="M0 0 C1.98 0 3.96 0 6 0 C5.8125 2.375 5.8125 2.375 5 5 C2.4375 6.3125 2.4375 6.3125 0 7 C1.00836062 8.23267348 1.00836062 8.23267348 3.06640625 8.09765625 C3.89011719 8.08605469 4.71382812 8.07445312 5.5625 8.0625 C6.38878906 8.05347656 7.21507812 8.04445313 8.06640625 8.03515625 C8.70449219 8.02355469 9.34257813 8.01195312 10 8 C10 7.34 10 6.68 10 6 C9.34 5.67 8.68 5.34 8 5 C9.65 4.01 11.3 3.02 13 2 C13.433125 2.9590625 13.433125 2.9590625 13.875 3.9375 C14.82823451 6.15206079 14.82823451 6.15206079 17 7 C13.91190305 8.76462683 12.76687864 9 9 9 C9 9.66 9 10.32 9 11 C7.25093341 11.19601608 5.50068154 11.38147403 3.75 11.5625 C2.77546875 11.66691406 1.8009375 11.77132812 0.796875 11.87890625 C-1.7631352 11.98974468 -3.58148159 11.77738092 -6 11 C-5.67 8.36 -5.34 5.72 -5 3 C-3.35 2.67 -1.7 2.34 0 2 C0 1.34 0 0.68 0 0 Z " fill="#1A855C" transform="translate(33,45)"/>
<path d="M0 0 C0 0.66 0 1.32 0 2 C-0.61875 2.45375 -1.2375 2.9075 -1.875 3.375 C-5.92001863 6.46824954 -6.3335973 10.1130469 -7 15 C-4.69 15.33 -2.38 15.66 0 16 C0 16.66 0 17.32 0 18 C-5.625 18.25 -5.625 18.25 -9 16 C-9.33 17.32 -9.66 18.64 -10 20 C-8.02 20 -6.04 20 -4 20 C-5 22 -5 22 -7.375 22.8125 C-10 23 -10 23 -11.875 21.8125 C-13 20 -13 20 -12.6875 17.8125 C-12.460625 17.214375 -12.23375 16.61625 -12 16 C-12.99 16 -13.98 16 -15 16 C-15 16.66 -15 17.32 -15 18 C-15.99 18 -16.98 18 -18 18 C-18.04254356 16.00045254 -18.04080783 13.99958364 -18 12 C-17 11 -17 11 -13.5 10.875 C-10 11 -10 11 -9 12 C-8.773125 10.7625 -8.54625 9.525 -8.3125 8.25 C-7.49444795 4.93070966 -7.03101568 4.03101568 -4.5 1.5 C-2 0 -2 0 0 0 Z " fill="#1F9BC3" transform="translate(35,23)"/>
<path d="M0 0 C2.15613937 6.4684181 1.88756384 10.56007632 0 17 C0.99 17 1.98 17 3 17 C3.66 18.65 4.32 20.3 5 22 C1.37 21.67 -2.26 21.34 -6 21 C-5.67 19.35 -5.34 17.7 -5 16 C-5.99 16 -6.98 16 -8 16 C-7.67 15.01 -7.34 14.02 -7 13 C-4.9375 12.3125 -4.9375 12.3125 -3 12 C-2.67 10.35 -2.34 8.7 -2 7 C-3.32 7.33 -4.64 7.66 -6 8 C-6 7.34 -6 6.68 -6 6 C-5.38125 5.938125 -4.7625 5.87625 -4.125 5.8125 C-1.72238859 5.171081 -1.72238859 5.171081 -0.75 2.4375 C-0.5025 1.633125 -0.255 0.82875 0 0 Z " fill="#1167A7" transform="translate(55,17)"/>
<path d="M0 0 C0 0.99 0 1.98 0 3 C-3.465 4.485 -3.465 4.485 -7 6 C-6.67 7.32 -6.34 8.64 -6 10 C-7.32 9.34 -8.64 8.68 -10 8 C-10.99 8.66 -11.98 9.32 -13 10 C-12.67 10.99 -12.34 11.98 -12 13 C-15.01324195 14.50662097 -17.68286377 14.17770373 -21 14 C-21.66 13.34 -22.32 12.68 -23 12 C-21.02 11.34 -19.04 10.68 -17 10 C-17 9.34 -17 8.68 -17 8 C-17.66 7.67 -18.32 7.34 -19 7 C-18.01 7 -17.02 7 -16 7 C-16 5.68 -16 4.36 -16 3 C-14.02 3 -12.04 3 -10 3 C-9.67 2.34 -9.34 1.68 -9 1 C-5.99083491 -0.07470182 -3.17106439 -0.08808512 0 0 Z " fill="#2A9A88" transform="translate(55,40)"/>
<path d="M0 0 C4.79027826 0.58063979 8.04307058 2.33668212 12 5 C12.8125 7.125 12.8125 7.125 13 9 C13.66 9.66 14.32 10.32 15 11 C15.70626239 12.98636298 16.36893571 14.98848259 17 17 C17.37125 17.7425 17.7425 18.485 18.125 19.25 C19.46257178 23.45379702 19.15294284 27.62413532 19 32 C18.34 32 17.68 32 17 32 C15.875 27.25 15.875 27.25 17 25 C16.34 25 15.68 25 15 25 C14.68869141 23.87464844 14.68869141 23.87464844 14.37109375 22.7265625 C11.66176542 13.72569768 7.96283407 5.46571724 0 0 Z " fill="#0C4072" transform="translate(45,3)"/>
<path d="M0 0 C0.99 0.33 1.98 0.66 3 1 C1.39460942 5.81617175 -2.72723049 7.28406715 -7 9.6875 C-10.04241431 11.01855626 -12.71395454 11.60880411 -16 12 C-15.34 9.36 -14.68 6.72 -14 4 C-14.66 4 -15.32 4 -16 4 C-16 3.34 -16 2.68 -16 2 C-12.535 1.505 -12.535 1.505 -9 1 C-8.67 1.99 -8.34 2.98 -8 4 C-3.70111387 2.48134786 -3.70111387 2.48134786 0 0 Z " fill="#322614" transform="translate(48,59)"/>
<path d="M0 0 C0.33 0.99 0.66 1.98 1 3 C-0.32 4.32 -1.64 5.64 -3 7 C-2.01 7.66 -1.02 8.32 0 9 C-1 11 -1 11 -3 13 C-5.84227545 13.49986848 -8.06915075 13.2791285 -11 13 C-13.13562754 10.86437246 -13.63318342 9.93453261 -14 7 C-11.73725135 4.73725135 -9.97142905 4.07338058 -7 2.9375 C-3.45044525 1.58079164 -3.45044525 1.58079164 0 0 Z " fill="#0C5393" transform="translate(61,39)"/>
<path d="M0 0 C-1.50599021 3.01198042 -4.02586996 3.57241758 -7 5 C-7.99 5.66 -8.98 6.32 -10 7 C-12.6875 7.125 -12.6875 7.125 -15 7 C-14.67 7.99 -14.34 8.98 -14 10 C-17.96 10 -21.92 10 -26 10 C-18.70199082 1.78973967 -10.67391103 -0.18091375 0 0 Z " fill="#506DAD" transform="translate(35,1)"/>
<path d="M0 0 C5.94 0 11.88 0 18 0 C15.05896531 2.94103469 13.69135557 3.53008895 10 5 C8.37819764 6.15618813 6.7935939 7.36629759 5.25 8.625 C1.08979592 12 1.08979592 12 0 12 C0 8.04 0 4.08 0 0 Z " fill="#A31223" transform="translate(0,0)"/>
<path d="M0 0 C-8.4258978 6.92796041 -16.89070072 8.24800186 -27.5625 8.3125 C-28.36083252 8.31805908 -29.15916504 8.32361816 -29.98168945 8.3293457 C-35.74308181 8.25691819 -35.74308181 8.25691819 -38 6 C-36.82566406 5.91363281 -35.65132812 5.82726562 -34.44140625 5.73828125 C-24.9993073 4.94593038 -16.26954406 3.58015392 -7.25805664 0.58911133 C-2.17408021 -1.08704011 -2.17408021 -1.08704011 0 0 Z " fill="#F64A12" transform="translate(63,71)"/>
<path d="M0 0 C0.94875 0.886875 1.8975 1.77375 2.875 2.6875 C7.14239617 6.37656322 11.89330071 8.67783895 17 11 C17 11.33 17 11.66 17 12 C11.39 12 5.78 12 0 12 C0 8.04 0 4.08 0 0 Z " fill="#F4C21B" transform="translate(0,68)"/>
<path d="M0 0 C5.65258216 1.84037559 5.65258216 1.84037559 8.3125 3.0625 C11.5258746 4.18344463 14.53186913 4.42538356 17.9140625 4.65625 C20 5 20 5 23 7 C25.73872955 7.45772063 25.73872955 7.45772063 28.6875 7.625 C29.68136719 7.69976562 30.67523438 7.77453125 31.69921875 7.8515625 C32.45847656 7.90054688 33.21773437 7.94953125 34 8 C34 8.33 34 8.66 34 9 C22.72927263 11.52329717 14.44202093 10.58029754 4.546875 4.82421875 C2 3 2 3 0 0 Z " fill="#8C73BC" transform="translate(6,67)"/>
<path d="M0 0 C1.65 0.33 3.3 0.66 5 1 C5.268125 1.94875 5.53625 2.8975 5.8125 3.875 C6.74986588 7.25267273 6.74986588 7.25267273 10 9 C10 9.66 10 10.32 10 11 C6.37 11 2.74 11 -1 11 C-1 10.34 -1 9.68 -1 9 C-1.99 9 -2.98 9 -4 9 C-3.67 7.68 -3.34 6.36 -3 5 C-2.34 5 -1.68 5 -1 5 C-0.67 3.35 -0.34 1.7 0 0 Z " fill="#3D6F99" transform="translate(29,8)"/>
<path d="M0 0 C2.37682369 2.13714399 3.59931002 3.93778054 4.6875 6.9375 C4.93886719 7.60652344 5.19023438 8.27554687 5.44921875 8.96484375 C6 11 6 11 6 15 C6.66 15 7.32 15 8 15 C8 17.31 8 19.62 8 22 C8.66 22.33 9.32 22.66 10 23 C9.34 23.66 8.68 24.32 8 25 C7.01 25 6.02 25 5 25 C4.67 23.68 4.34 22.36 4 21 C3.01 21 2.02 21 1 21 C1.08378906 20.32453125 1.16757812 19.6490625 1.25390625 18.953125 C1.35574219 18.06109375 1.45757812 17.1690625 1.5625 16.25 C1.66691406 15.36828125 1.77132812 14.4865625 1.87890625 13.578125 C2.12158355 11.04997171 2.12158355 11.04997171 1.46484375 8.859375 C1 7 1 7 2 4 C1.34 4 0.68 4 0 4 C0 2.68 0 1.36 0 0 Z " fill="#0C518C" transform="translate(54,13)"/>
<path d="M0 0 C0.33 0 0.66 0 1 0 C1.375 2.25 1.375 2.25 1 5 C-3.97297297 9 -3.97297297 9 -7 9 C-7.25523438 9.61617187 -7.51046875 10.23234375 -7.7734375 10.8671875 C-10.13897034 14.98050257 -14.92088861 16.37274267 -19.3046875 17.6953125 C-21.19295857 18.17242014 -23.09561857 18.59191827 -25 19 C-24 17 -24 17 -22.00390625 16.2890625 C-20.38004053 15.84737102 -18.75503486 15.40984877 -17.12890625 14.9765625 C-14.44088655 13.74352594 -14.16850546 12.64894246 -13 10 C-9.46389604 6.35701128 -5.4244112 3.47246508 -1 1 C-0.67 0.67 -0.34 0.34 0 0 Z " fill="#BE315B" transform="translate(79,61)"/>
<path d="M0 0 C0 0.99 0 1.98 0 3 C-5.28 4.98 -10.56 6.96 -16 9 C-13.36 9.33 -10.72 9.66 -8 10 C-8 10.33 -8 10.66 -8 11 C-10.08304538 11.05418326 -12.16649768 11.09287551 -14.25 11.125 C-15.99023438 11.15980469 -15.99023438 11.15980469 -17.765625 11.1953125 C-20.82786046 11.0103949 -22.44202751 10.60823023 -25 9 C-22.6875 6.5 -22.6875 6.5 -20 4 C-19.01 4 -18.02 4 -17 4 C-17.33 4.99 -17.66 5.98 -18 7 C-16.22555943 6.40651139 -14.45554447 5.79977999 -12.6875 5.1875 C-11.70136719 4.85105469 -10.71523438 4.51460938 -9.69921875 4.16796875 C-6.99256216 3.19818791 -6.99256216 3.19818791 -5.39453125 1.36328125 C-4 0 -4 0 0 0 Z " fill="#5165AA" transform="translate(50,64)"/>
<path d="M0 0 C3.375 0.75 3.375 0.75 7 2 C7.66666667 3.33333333 8.33333333 4.66666667 9 6 C11.3140622 6.73075648 13.64828869 7.40138258 16 8 C16.33 8.66 16.66 9.32 17 10 C12 9 7 8 2 7 C2 7.66 2 8.32 2 9 C2.99 9.33 3.98 9.66 5 10 C4.01 10.495 4.01 10.495 3 11 C3 11.66 3 12.32 3 13 C2.01 13 1.02 13 0 13 C0 8.71 0 4.42 0 0 Z " fill="#0F8DDA" transform="translate(0,40)"/>
<path d="M0 0 C0 0.66 0 1.32 0 2 C0.763125 2.2475 1.52625 2.495 2.3125 2.75 C5.44463315 4.20680612 6.48717792 4.89473363 8 8 C8.23973517 11.01753619 8.17421827 13.98021673 8 17 C7.34 16.67 6.68 16.34 6 16 C6.061875 15.113125 6.12375 14.22625 6.1875 13.3125 C5.97664477 9.58739096 5.31649619 7.89562024 3 5 C0.99427359 4.18553891 0.99427359 4.18553891 -1 4 C-1.66 3.67 -2.32 3.34 -3 3 C-4.53668865 2.77532169 -6.07968054 2.59203195 -7.625 2.4375 C-8.44226562 2.35371094 -9.25953125 2.26992187 -10.1015625 2.18359375 C-10.72804688 2.12300781 -11.35453125 2.06242188 -12 2 C-12 2.99 -12 3.98 -12 5 C-13.65 4.67 -15.3 4.34 -17 4 C-12.16328125 -1.32039063 -6.90810771 -2.30270257 0 0 Z " fill="#6B79CB" transform="translate(45,2)"/>
<path d="M0 0 C6.46546493 5.12151997 10.92249639 9.50311438 12 18 C12.11240298 20.24805957 12.17453439 22.49916945 12.1875 24.75 C12.20167969 25.87921875 12.21585938 27.0084375 12.23046875 28.171875 C12 31 12 31 10 33 C9.66324721 30.10452736 9.33048266 27.20868928 9 24.3125 C8.85691406 23.08756836 8.85691406 23.08756836 8.7109375 21.83789062 C8.26129478 17.87139948 7.86965457 13.99997537 8 10 C7.401875 9.773125 6.80375 9.54625 6.1875 9.3125 C2.54679079 7.12807447 1.30801932 3.92405795 0 0 Z " fill="#052041" transform="translate(56,9)"/>
<path d="M0 0 C0.99 0.33 1.98 0.66 3 1 C2.01 1.66 1.02 2.32 0 3 C0.66 3.33 1.32 3.66 2 4 C2 5.98 2 7.96 2 10 C0.02 10.99 0.02 10.99 -2 12 C-2 12.66 -2 13.32 -2 14 C-3.32 13.67 -4.64 13.34 -6 13 C-5.80949082 4.89470038 -5.80949082 4.89470038 -2.625 1.375 C-1.75875 0.92125 -0.8925 0.4675 0 0 Z " fill="#393428" transform="translate(20,11)"/>
<path d="M0 0 C0 2.97 0 5.94 0 9 C-0.66 9 -1.32 9 -2 9 C-2.33 10.65 -2.66 12.3 -3 14 C-3.93423645 10.98968256 -4.04449911 10.13349732 -3 7 C-4.670625 7.309375 -4.670625 7.309375 -6.375 7.625 C-7.57125 7.74875 -8.7675 7.8725 -10 8 C-10.66 7.34 -11.32 6.68 -12 6 C-10.75945552 4.98829382 -9.5071298 3.99102203 -8.25 3 C-7.55390625 2.443125 -6.8578125 1.88625 -6.140625 1.3125 C-4 0 -4 0 0 0 Z " fill="#0E6FB3" transform="translate(12,15)"/>
<path d="M0 0 C0.66 0 1.32 0 2 0 C2 3.3 2 6.6 2 10 C-1.96 10 -5.92 10 -10 10 C-8 7 -8 7 -5.5625 5.5625 C-2.93002703 3.95733355 -1.7790354 2.45676317 0 0 Z " fill="#06000A" transform="translate(78,70)"/>
<path d="M0 0 C1.6396875 0.4640625 1.6396875 0.4640625 3.3125 0.9375 C8.48276323 2.2463099 13.69261392 2.62926347 19 3 C19.66 2.01 20.32 1.02 21 0 C21.61875 0.804375 22.2375 1.60875 22.875 2.4375 C24.74164041 5.03874519 24.74164041 5.03874519 27 6 C26.67 7.65 26.34 9.3 26 11 C25.67 10.01 25.34 9.02 25 8 C22.54929739 7.03080811 22.54929739 7.03080811 19.5625 6.4375 C17.94214844 6.06818359 17.94214844 6.06818359 16.2890625 5.69140625 C12.55127278 4.90567136 8.81293698 4.13247096 5.05859375 3.4296875 C3 3 3 3 0 2 C0 1.34 0 0.68 0 0 Z " fill="#5E92CB" transform="translate(7,57)"/>
<path d="M0 0 C4.95 0 9.9 0 15 0 C15 0.66 15 1.32 15 2 C16.2684375 2.12375 16.2684375 2.12375 17.5625 2.25 C22.77014535 3.38621353 26.57442066 6.04961377 31 9 C31.6875 12.125 31.6875 12.125 32 15 C29.95880212 13.38405168 27.95927063 11.7143618 26 10 C26 9.34 26 8.68 26 8 C25.27039063 7.71253906 24.54078125 7.42507812 23.7890625 7.12890625 C22.083477 6.43855022 20.38748169 5.72300793 18.7109375 4.96484375 C12.46777322 2.21910428 6.79729483 1.25845227 0 1 C0 0.67 0 0.34 0 0 Z " fill="#E96251" transform="translate(31,0)"/>
<path d="M0 0 C0 1.65 0 3.3 0 5 C-0.66 5 -1.32 5 -2 5 C-2.33 4.34 -2.66 3.68 -3 3 C-4.98 3 -6.96 3 -9 3 C-9 3.99 -9 4.98 -9 6 C-14.03733166 7.5111995 -18.88171027 6.64599773 -24 6 C-24 5.67 -24 5.34 -24 5 C-18.555 4.505 -18.555 4.505 -13 4 C-13 3.34 -13 2.68 -13 2 C-8.50343896 -0.24828052 -4.92127034 -0.16682272 0 0 Z " fill="#3A493F" transform="translate(55,52)"/>
<path d="M0 0 C3.31574297 -0.59513335 5.40076765 -0.36076233 8.296875 1.3828125 C16.18759638 7.33953354 16.18759638 7.33953354 18 12 C17.67 12.99 17.34 13.98 17 15 C16.59910156 14.48050781 16.19820312 13.96101562 15.78515625 13.42578125 C11.91708941 8.68060175 8.33542479 5.68123982 2.8203125 3.0078125 C1 2 1 2 0 0 Z " fill="#B2279D" transform="translate(52,0)"/>
<path d="M0 0 C0.99 0.66 1.98 1.32 3 2 C3 2.66 3 3.32 3 4 C3.66 4.33 4.32 4.66 5 5 C1.91190305 6.76462683 0.76687864 7 -3 7 C-3 7.66 -3 8.32 -3 9 C-4.74906659 9.19601608 -6.49931846 9.38147403 -8.25 9.5625 C-9.22453125 9.66691406 -10.1990625 9.77132812 -11.203125 9.87890625 C-13.7631352 9.98974468 -15.58148159 9.77738092 -18 9 C-18 8.34 -18 7.68 -18 7 C-17.02160156 7.01740234 -17.02160156 7.01740234 -16.0234375 7.03515625 C-11.2238086 7.08470994 -6.72215315 6.99413751 -2 6 C-2 5.34 -2 4.68 -2 4 C-2.66 3.67 -3.32 3.34 -4 3 C-2.68 2.01 -1.36 1.02 0 0 Z " fill="#117044" transform="translate(45,47)"/>
<path d="M0 0 C-0.33 0.99 -0.66 1.98 -1 3 C-5.3534469 4.95065425 -9.14741951 5.22148123 -13.875 5.125 C-15.02742188 5.10695313 -16.17984375 5.08890625 -17.3671875 5.0703125 C-18.23601563 5.04710938 -19.10484375 5.02390625 -20 5 C-17.55634834 2.55634834 -15.51039337 1.93579473 -12.25 0.8125 C-11.22390625 0.44769531 -10.1978125 0.08289063 -9.140625 -0.29296875 C-5.7148834 -1.0641867 -3.3919613 -0.79721246 0 0 Z " fill="#173269" transform="translate(52,69)"/>
<path d="M0 0 C1.32 0.33 2.64 0.66 4 1 C4 1.99 4 2.98 4 4 C5.32 3.67 6.64 3.34 8 3 C10.67927341 7.01891012 10.15601248 9.24161923 10 14 C8.68 14.33 7.36 14.66 6 15 C5.72736328 14.12988281 5.72736328 14.12988281 5.44921875 13.2421875 C3.9581894 8.60852707 2.31666424 4.30237645 0 0 Z " fill="#F6423A" transform="translate(63,15)"/>
<path d="M0 0 C-1.09399414 1.47509766 -1.09399414 1.47509766 -3 3 C-5.93920898 3.38818359 -5.93920898 3.38818359 -9.49609375 3.3984375 C-10.77677734 3.40230469 -12.05746094 3.40617187 -13.37695312 3.41015625 C-14.37674194 3.40072998 -14.37674194 3.40072998 -15.39672852 3.39111328 C-17.42728194 3.37508068 -19.45583722 3.3909519 -21.48632812 3.41015625 C-22.76830078 3.40628906 -24.05027344 3.40242188 -25.37109375 3.3984375 C-26.54599365 3.39505371 -27.72089355 3.39166992 -28.93139648 3.38818359 C-32.22684637 2.97130355 -33.59995342 2.23265303 -36 0 C-34.78957031 0.24169922 -34.78957031 0.24169922 -33.5546875 0.48828125 C-29.3789401 1.08940533 -25.33697721 1.18398416 -21.125 1.1875 C-20.36058594 1.19974609 -19.59617187 1.21199219 -18.80859375 1.22460938 C-14.8999862 1.23456338 -11.45742887 0.96601619 -7.6796875 -0.07421875 C-4.18654131 -0.95306763 -3.22179559 -1.01542109 0 0 Z " fill="#F9C31D" transform="translate(57,77)"/>
<path d="M0 0 C1.32 0 2.64 0 4 0 C5.29423468 1.45601401 6.58296744 2.92166768 7.76171875 4.47265625 C9.27346399 6.33730101 11.08039214 7.57806825 13 9 C13 9.66 13 10.32 13 11 C13.66 11 14.32 11 15 11 C17.09350689 14.4019487 17.17942163 17.05272412 17 21 C16.56945312 20.42378906 16.13890625 19.84757812 15.6953125 19.25390625 C14.61516918 17.81786317 13.5274005 16.38750164 12.4296875 14.96484375 C11.91664062 14.29582031 11.40359375 13.62679688 10.875 12.9375 C10.09769531 11.93009766 10.09769531 11.93009766 9.3046875 10.90234375 C8 9 8 9 7 6 C6.01 5.67 5.02 5.34 4 5 C2.61423077 3.37667033 1.27358732 1.71275535 0 0 Z " fill="#E83312" transform="translate(63,0)"/>
<path d="M0 0 C4.69794496 4.69794496 4.62101299 13.98564241 5.11328125 20.3125 C5 23 5 23 3.0625 26.25 C2.381875 26.8275 1.70125 27.405 1 28 C1.01160156 27.319375 1.02320312 26.63875 1.03515625 25.9375 C1.1159987 17.25271113 0.61521207 8.65691267 0 0 Z " fill="#EC4685" transform="translate(73,25)"/>
<path d="M0 0 C0.99 0.33 1.98 0.66 3 1 C3.33 5.95 3.66 10.9 4 16 C2.68 16.33 1.36 16.66 0 17 C-0.19386492 14.35448944 -0.38038267 11.70882217 -0.5625 9.0625 C-0.61857422 8.30775391 -0.67464844 7.55300781 -0.73242188 6.77539062 C-0.86176157 4.85254042 -0.93516912 2.92610452 -1 1 C-0.67 0.67 -0.34 0.34 0 0 Z " fill="#FC6445" transform="translate(71,28)"/>
<path d="M0 0 C0 0.99 0 1.98 0 3 C-5.75 6 -5.75 6 -8 6 C-8 5.34 -8 4.68 -8 4 C-11.3 4.66 -14.6 5.32 -18 6 C-18.33 4.35 -18.66 2.7 -19 1 C-17.87980469 1.09539063 -16.75960937 1.19078125 -15.60546875 1.2890625 C-14.1328565 1.40161885 -12.66019763 1.5135663 -11.1875 1.625 C-10.44951172 1.68945312 -9.71152344 1.75390625 -8.95117188 1.8203125 C-4.19441504 2.17970261 -4.19441504 2.17970261 0 0 Z " fill="#2B8BD1" transform="translate(63,36)"/>
<path d="M0 0 C0.66 0.66 1.32 1.32 2 2 C1.67 2.66 1.34 3.32 1 4 C1.99 4 2.98 4 4 4 C4 3.34 4 2.68 4 2 C5.65 2 7.3 2 9 2 C8.34 3.65 7.68 5.3 7 7 C7.66 7 8.32 7 9 7 C9 7.66 9 8.32 9 9 C4.25 10.125 4.25 10.125 2 9 C2 8.34 2 7.68 2 7 C1.01 6.67 0.02 6.34 -1 6 C-0.67 4.02 -0.34 2.04 0 0 Z " fill="#608DCF" transform="translate(41,12)"/>
<path d="M0 0 C1.60568666 0.28317926 3.20952047 0.57687791 4.8125 0.875 C6.15248047 1.11863281 6.15248047 1.11863281 7.51953125 1.3671875 C10 2 10 2 13 4 C12.67 4.66 12.34 5.32 12 6 C14.31 5.34 16.62 4.68 19 4 C19 4.66 19 5.32 19 6 C19.99 6 20.98 6 22 6 C22 6.66 22 7.32 22 8 C14.13367253 8.3146531 7.67475021 6.07812901 1 2 C0.67 1.34 0.34 0.68 0 0 Z " fill="#0A84C8" transform="translate(4,47)"/>
<path d="M0 0 C6.17288188 -0.3306901 10.38102832 0.33838184 16 3 C16.33 3.99 16.66 4.98 17 6 C15.41590006 5.88512252 13.83271037 5.75765492 12.25 5.625 C11.36828125 5.55539063 10.4865625 5.48578125 9.578125 5.4140625 C7.00933618 5.00149945 5.24158985 4.28839043 3 3 C3 2.34 3 1.68 3 1 C2.01 0.67 1.02 0.34 0 0 Z " fill="#1B83C6" transform="translate(4,54)"/>
<path d="M0 0 C4.68858776 5.09814946 3.47363075 11.45705044 3.4375 18 C3.45748047 19.28390625 3.47746094 20.5678125 3.49804688 21.890625 C3.49740234 23.12296875 3.49675781 24.3553125 3.49609375 25.625 C3.49794678 26.75164063 3.4997998 27.87828125 3.50170898 29.0390625 C2.8995584 32.59277652 1.75117566 33.76221794 -1 36 C0 31 0 31 0.52734375 28.9453125 C1.21668626 24.64974019 1.14397917 20.40556692 1.125 16.0625 C1.12886719 15.18142578 1.13273437 14.30035156 1.13671875 13.39257812 C1.12986032 8.81457929 0.93490801 4.50388225 0 0 Z " fill="#640369" transform="translate(77,17)"/>
<path d="M0 0 C-1.66036776 3.32073552 -5.0047488 3.88438531 -8.34375 5.1796875 C-11.78430064 6.24221049 -14.4334801 6.31013217 -18 6 C-17 4 -17 4 -14 3 C-13.67 2.34 -13.34 1.68 -13 1 C-8.71230214 -0.29930238 -4.43489655 -0.07516774 0 0 Z " fill="#364D92" transform="translate(35,1)"/>
<path d="M0 0 C-3.73872492 2.17525813 -7.76813277 3.02702096 -11.9375 4 C-16.42464367 5.05289531 -20.76370237 6.14299282 -25 8 C-17.45834248 -0.45579782 -10.78903798 -0.43805117 0 0 Z " fill="#F89F0F" transform="translate(31,0)"/>
<path d="M0 0 C-1.875 4.875 -1.875 4.875 -3 6 C-4.85287502 6.07226502 -6.70833878 6.0838122 -8.5625 6.0625 C-9.57441406 6.05347656 -10.58632813 6.04445313 -11.62890625 6.03515625 C-12.41136719 6.02355469 -13.19382812 6.01195313 -14 6 C-14.33 5.34 -14.66 4.68 -15 4 C-12.36 4 -9.72 4 -7 4 C-7 3.01 -7 2.02 -7 1 C-3.375 -1.125 -3.375 -1.125 0 0 Z " fill="#12569A" transform="translate(31,66)"/>
<path d="M0 0 C0.33 0 0.66 0 1 0 C1.25532751 3.06393013 1.21861333 4.63233212 -0.375 7.3125 C-0.91125 7.869375 -1.4475 8.42625 -2 9 C-2.66 9 -3.32 9 -4 9 C-4.33 9.99 -4.66 10.98 -5 12 C-5.99 12 -6.98 12 -8 12 C-8.33 12.66 -8.66 13.32 -9 14 C-8.29186565 9.04305957 -6.54556225 5.54556225 -3 2 C-2.67 2.33 -2.34 2.66 -2 3 C-1.34 2.01 -0.68 1.02 0 0 Z " fill="#DB1E31" transform="translate(79,49)"/>
<path d="M0 0 C0 0.99 0 1.98 0 3 C-3.465 4.485 -3.465 4.485 -7 6 C-6.67 7.32 -6.34 8.64 -6 10 C-8.31 9.01 -10.62 8.02 -13 7 C-13 6.34 -13 5.68 -13 5 C-11.35 5 -9.7 5 -8 5 C-8 4.34 -8 3.68 -8 3 C-8.66 2.67 -9.32 2.34 -10 2 C-6.49223216 0.39644899 -3.85645121 -0.22036864 0 0 Z " fill="#6AA3DE" transform="translate(55,40)"/>
<path d="M0 0 C2.64 0 5.28 0 8 0 C8 2.31 8 4.62 8 7 C7.67 6.34 7.34 5.68 7 5 C5.68 5.33 4.36 5.66 3 6 C2.67 8.31 2.34 10.62 2 13 C0.5 11.75 0.5 11.75 -1 10 C-1 8.68 -1 7.36 -1 6 C2 4 2 4 6 4 C6 3.34 6 2.68 6 2 C4.35 2.33 2.7 2.66 1 3 C0.67 2.01 0.34 1.02 0 0 Z " fill="#9B8E95" transform="translate(13,26)"/>
<path d="M0 0 C2.97 0 5.94 0 9 0 C9 2.31 9 4.62 9 7 C5.51375944 6.3543999 2.87501211 5.07639763 0 3 C0 2.01 0 1.02 0 0 Z " fill="#363857" transform="translate(33,4)"/>
<path d="M0 0 C2.95708033 2.40692585 5.69651501 4.66279446 8.25 7.5 C12.05011029 10.95464571 16.35591878 12.88085614 21 15 C18 16 18 16 15.80078125 15.25 C9.9987523 12.33532298 4.12422243 9.14951795 0 4 C0 2.68 0 1.36 0 0 Z " fill="#F29790" transform="translate(0,61)"/>
<path d="M0 0 C-7.14518584 6.28283583 -18.88565279 6.5670216 -28 6 C-28 5.67 -28 5.34 -28 5 C-26.865625 4.938125 -25.73125 4.87625 -24.5625 4.8125 C-18.7507001 4.20710418 -13.30841789 2.41395596 -7.76586914 0.63989258 C-2.20369675 -1.10184838 -2.20369675 -1.10184838 0 0 Z " fill="#EE422D" transform="translate(63,71)"/>
<path d="M0 0 C3.96 0 7.92 0 12 0 C12 0.99 12 1.98 12 3 C12.99 3.33 13.98 3.66 15 4 C13.25 5.5625 13.25 5.5625 11 7 C8.75 6.6875 8.75 6.6875 7 6 C6.67 4.68 6.34 3.36 6 2 C3.03 1.505 3.03 1.505 0 1 C0 0.67 0 0.34 0 0 Z " fill="#529ABB" transform="translate(28,19)"/>
<path d="M0 0 C4.44093825 0.53829555 8.78721186 1.77855206 12 5 C12.88825643 8.01279959 13.04681521 10.87006856 13 14 C10.47592643 11.66289484 8.43445651 9.26432189 6.5 6.4375 C4.61934215 3.72422892 2.83020045 1.78197806 0 0 Z " fill="#1D3C75" transform="translate(45,3)"/>
<path d="M0 0 C0.99 0.33 1.98 0.66 3 1 C1.71034824 2.37562854 0.37310707 3.70766393 -1 5 C-1.66 5 -2.32 5 -3 5 C-3 5.66 -3 6.32 -3 7 C-4.74635165 7.53293835 -6.49727652 8.05090663 -8.25 8.5625 C-9.22453125 8.85253906 -10.1990625 9.14257812 -11.203125 9.44140625 C-13.96243932 9.99249836 -15.3912824 9.93789609 -18 9 C-17.20335937 8.68546875 -16.40671875 8.3709375 -15.5859375 8.046875 C-8.72927516 5.3730013 -8.72927516 5.3730013 -2.4375 1.625 C-1.633125 1.08875 -0.82875 0.5525 0 0 Z " fill="#D86668" transform="translate(58,66)"/>
<path d="M0 0 C3.25724605 0.56159415 5.03790401 1.29043887 7 4 C7.6875 7.1875 7.6875 7.1875 8 10 C4.63362603 8.5572683 2.33497429 6.83532593 0 4 C0 2.68 0 1.36 0 0 Z " fill="#0D8CD7" transform="translate(0,57)"/>
<path d="M0 0 C-0.1875 1.875 -0.1875 1.875 -1 4 C-4.37823976 5.87679987 -7.17632299 6.21849583 -11 6 C-11 5.34 -11 4.68 -11 4 C-9.68 3.67 -8.36 3.34 -7 3 C-7 2.01 -7 1.02 -7 0 C-3.98968256 -0.93423645 -3.13349732 -1.04449911 0 0 Z " fill="#83666D" transform="translate(53,55)"/>
<path d="M0 0 C1.32 0 2.64 0 4 0 C4 0.99 4 1.98 4 3 C4.94875 2.938125 5.8975 2.87625 6.875 2.8125 C7.90625 2.874375 8.9375 2.93625 10 3 C10.99 4.485 10.99 4.485 12 6 C10.56260487 6.02712066 9.12506137 6.04645067 7.6875 6.0625 C6.48673828 6.07990234 6.48673828 6.07990234 5.26171875 6.09765625 C3 6 3 6 0 5 C0 3.35 0 1.7 0 0 Z " fill="#CAD6EB" transform="translate(24,17)"/>
<path d="M0 0 C2.97 0 5.94 0 9 0 C8 3 8 3 5.0625 4.5 C4.051875 4.995 3.04125 5.49 2 6 C1.34 6.99 0.68 7.98 0 9 C0 6.03 0 3.06 0 0 Z " fill="#39022A" transform="translate(0,0)"/>
<path d="M0 0 C0.33 0.99 0.66 1.98 1 3 C0.38511719 3.38671875 -0.22976562 3.7734375 -0.86328125 4.171875 C-1.67152344 4.69265625 -2.47976562 5.2134375 -3.3125 5.75 C-4.11300781 6.26046875 -4.91351563 6.7709375 -5.73828125 7.296875 C-8.00368861 9.00277761 -9.42684167 10.65808145 -11 13 C-12.32 12.67 -13.64 12.34 -15 12 C-13.60886005 10.72403068 -12.21185587 9.45445352 -10.8125 8.1875 C-10.03519531 7.47980469 -9.25789063 6.77210937 -8.45703125 6.04296875 C-6.07901883 4.06570246 -3.67545716 2.53873443 -1 1 C-0.67 0.67 -0.34 0.34 0 0 Z " fill="#E98069" transform="translate(79,61)"/>
<path d="M0 0 C2.97 0.495 2.97 0.495 6 1 C7.125 4.75 7.125 4.75 6 7 C3.03 6.505 3.03 6.505 0 6 C0 4.02 0 2.04 0 0 Z " fill="#169DD7" transform="translate(28,32)"/>
<path d="M0 0 C-3.52127761 4.5929708 -7.57747597 5.11941917 -13 6 C-12.67 4.35 -12.34 2.7 -12 1 C-11.01 1 -10.02 1 -9 1 C-8.38125 0.835 -7.7625 0.67 -7.125 0.5 C-4.69625848 -0.07146859 -2.4865081 -0.06906967 0 0 Z " fill="#3A3035" transform="translate(45,65)"/>
<path d="M0 0 C-0.1875 1.875 -0.1875 1.875 -1 4 C-4.37823976 5.87679987 -7.17632299 6.21849583 -11 6 C-10.67 5.01 -10.34 4.02 -10 3 C-6.5065403 1.25327015 -3.93154432 0 0 0 Z " fill="#0E2D58" transform="translate(58,64)"/>
<path d="M0 0 C0.66 0 1.32 0 2 0 C2 1.32 2 2.64 2 4 C4.31 4 6.62 4 9 4 C9 4.66 9 5.32 9 6 C4.545 7.485 4.545 7.485 0 9 C-1.125 2.25 -1.125 2.25 0 0 Z " fill="#5C564B" transform="translate(10,24)"/>
<path d="M0 0 C0.66 0.66 1.32 1.32 2 2 C1.67 3.32 1.34 4.64 1 6 C4.3 6.33 7.6 6.66 11 7 C11 7.33 11 7.66 11 8 C8.91695462 8.05418326 6.83350232 8.09287551 4.75 8.125 C3.00976562 8.15980469 3.00976562 8.15980469 1.234375 8.1953125 C-1.82786046 8.0103949 -3.44202751 7.60823023 -6 6 C-4 4 -2 2 0 0 Z " fill="#53558C" transform="translate(31,67)"/>
<path d="M0 0 C6.6116849 -0.46128034 9.95130764 2.07323928 15 6 C14.67 6.99 14.34 7.98 14 9 C13.360625 8.401875 12.72125 7.80375 12.0625 7.1875 C8.25459354 4.46756681 4.46045863 3.28274627 0 2 C0 1.34 0 0.68 0 0 Z " fill="#F63231" transform="translate(46,0)"/>
<path d="M0 0 C0 0.33 0 0.66 0 1 C-2.31 1.33 -4.62 1.66 -7 2 C-7 2.66 -7 3.32 -7 4 C-10 5 -10 5 -12.1875 4.0625 C-12.785625 3.711875 -13.38375 3.36125 -14 3 C-14 2.34 -14 1.68 -14 1 C-8.83430559 -0.79217969 -5.48946087 -1.12029814 0 0 Z " fill="#AEA1D7" transform="translate(34,7)"/>
<path d="M0 0 C4.24822374 0.47202486 6.19989709 2.96655518 9 6 C6.03 6 3.06 6 0 6 C0 4.02 0 2.04 0 0 Z " fill="#85113D" transform="translate(0,74)"/>
<path d="M0 0 C0.33 0.99 0.66 1.98 1 3 C-2.70090521 6.9252025 -6.54959656 9.94580156 -11 13 C-11.66 12.67 -12.32 12.34 -13 12 C-8.84792208 7.7373638 -4.63678779 3.73204871 0 0 Z " fill="#470133" transform="translate(79,67)"/>
<path d="M0 0 C0 0.66 0 1.32 0 2 C-1.65 2.33 -3.3 2.66 -5 3 C-5 3.66 -5 4.32 -5 5 C-5.804375 5.12375 -6.60875 5.2475 -7.4375 5.375 C-8.7059375 5.684375 -8.7059375 5.684375 -10 6 C-10.33 6.66 -10.66 7.32 -11 8 C-11.33 6.35 -11.66 4.7 -12 3 C-10.56445975 2.49440092 -9.1264798 1.9957251 -7.6875 1.5 C-6.88699219 1.2215625 -6.08648437 0.943125 -5.26171875 0.65625 C-3 0 -3 0 0 0 Z " fill="#42AAC3" transform="translate(38,42)"/>
<path d="M0 0 C0.99 0.33 1.98 0.66 3 1 C3.73046875 2.84765625 3.73046875 2.84765625 4.1875 5.0625 C4.34605469 5.79597656 4.50460938 6.52945313 4.66796875 7.28515625 C4.83232422 8.13400391 4.83232422 8.13400391 5 9 C3.35 9 1.7 9 0 9 C0.33 7.35 0.66 5.7 1 4 C0.01 4 -0.98 4 -2 4 C-1 1 -1 1 0 0 Z " fill="#0B75BB" transform="translate(49,29)"/>
<path d="M0 0 C4.56048012 3.61251516 8.01665146 6.98797445 11 12 C10 14 10 14 8 15 C8 13.35 8 11.7 8 10 C7.401875 9.773125 6.80375 9.54625 6.1875 9.3125 C2.54679079 7.12807447 1.30801932 3.92405795 0 0 Z " fill="#13264B" transform="translate(56,9)"/>
<path d="M0 0 C2 3 2 3 2 6 C2.66 6.33 3.32 6.66 4 7 C1.36 6.67 -1.28 6.34 -4 6 C-4 6.66 -4 7.32 -4 8 C-4.99 7.67 -5.98 7.34 -7 7 C-6.34 7 -5.68 7 -5 7 C-5 6.34 -5 5.68 -5 5 C-4.34 5 -3.68 5 -3 5 C-2.814375 4.0409375 -2.814375 4.0409375 -2.625 3.0625 C-2.41875 2.381875 -2.2125 1.70125 -2 1 C-1.34 0.67 -0.68 0.34 0 0 Z " fill="#1A93D4" transform="translate(43,37)"/>
<path d="M0 0 C2.91517292 1.07401108 4.77810176 1.77810176 7 4 C7 5.32 7 6.64 7 8 C4 7 4 7 3 6 C2.01 6 1.02 6 0 6 C0 4.02 0 2.04 0 0 Z " fill="#0D4A85" transform="translate(42,5)"/>
<path d="M0 0 C5.75 0.75 5.75 0.75 8 3 C9.98723268 3.70381157 11.98777953 4.3711811 14 5 C14.66 5.33 15.32 5.66 16 6 C16 6.66 16 7.32 16 8 C12.7 7.01 9.4 6.02 6 5 C6 4.34 6 3.68 6 3 C4.02 2.34 2.04 1.68 0 1 C0 0.67 0 0.34 0 0 Z " fill="#5B9FE5" transform="translate(6,50)"/>
<path d="M0 0 C-0.33 0.99 -0.66 1.98 -1 3 C-4.0625 4.1875 -4.0625 4.1875 -7 5 C-7.66 4.01 -8.32 3.02 -9 2 C-5.96271914 -1.03728086 -4.06215635 -1.35405212 0 0 Z " fill="#257DC0" transform="translate(56,44)"/>
<path d="M0 0 C0.66 0.33 1.32 0.66 2 1 C1.67 1.99 1.34 2.98 1 4 C2.65 3.67 4.3 3.34 6 3 C5.34 4.65 4.68 6.3 4 8 C2.35 7.67 0.7 7.34 -1 7 C-1.33 5.02 -1.66 3.04 -2 1 C-1.34 0.67 -0.68 0.34 0 0 Z " fill="#2C86D3" transform="translate(45,23)"/>
<path d="M0 0 C3.73487777 0.4979837 5.81237635 0.87491756 9 3 C9 3.66 9 4.32 9 5 C2.25 5.125 2.25 5.125 0 4 C0 2.68 0 1.36 0 0 Z " fill="#434E45" transform="translate(30,14)"/>
<path d="M0 0 C0.66 0.33 1.32 0.66 2 1 C-1.3 3.64 -4.6 6.28 -8 9 C-9 6 -9 6 -8.4375 3.875 C-7 2 -7 2 -3.9375 1.3125 C-2.4834375 1.1578125 -2.4834375 1.1578125 -1 1 C-0.67 0.67 -0.34 0.34 0 0 Z " fill="#9D0F2D" transform="translate(9,3)"/>
<path d="M0 0 C1.32 0.33 2.64 0.66 4 1 C4 1.99 4 2.98 4 4 C5.32 3.67 6.64 3.34 8 3 C10 6 10 6 9.625 8.1875 C9.41875 8.785625 9.2125 9.38375 9 10 C9 9.01 9 8.02 9 7 C8.071875 6.95875 7.14375 6.9175 6.1875 6.875 C3 6 3 6 1.125 2.9375 C0.75375 1.968125 0.3825 0.99875 0 0 Z " fill="#E7394D" transform="translate(63,15)"/>
<path d="M0 0 C1.98 0.66 3.96 1.32 6 2 C5.2265625 2.3403125 5.2265625 2.3403125 4.4375 2.6875 C1.07596873 4.4975553 -1.92911144 6.73996404 -5 9 C-5 4.61031544 -2.87194899 3.23094261 0 0 Z " fill="#756068" transform="translate(6,12)"/>
<path d="M0 0 C-1.125 1.5 -1.125 1.5 -3 3 C-6.1875 3.1875 -6.1875 3.1875 -9 3 C-9 3.99 -9 4.98 -9 6 C-10.65 5.67 -12.3 5.34 -14 5 C-9.69558088 0.26513897 -6.3635157 -0.2447506 0 0 Z " fill="#8E70BB" transform="translate(42,1)"/>
<path d="M0 0 C4.72224516 1.53472968 9.35855331 3.23945126 14 5 C11 7 11 7 8.125 6.4375 C4.60502375 4.81831092 2.56740234 2.86944968 0 0 Z " fill="#8E8BDA" transform="translate(6,67)"/>
<path d="M0 0 C0 3 0 3 -1.375 4.6875 C-3 6 -3 6 -5 6 C-5.33 6.99 -5.66 7.98 -6 9 C-7.875 10.75 -7.875 10.75 -10 12 C-10.99 11.67 -11.98 11.34 -13 11 C-12.195625 10.38125 -11.39125 9.7625 -10.5625 9.125 C-7.96125481 7.25835959 -7.96125481 7.25835959 -7 5 C-5.34467377 3.98133771 -3.67739862 2.98189187 -2 2 C-1.34 1.34 -0.68 0.68 0 0 Z " fill="#ED4681" transform="translate(68,60)"/>
<path d="M0 0 C5.96564796 0.50771472 10.63809899 2.38592128 16 5 C12.1837441 6.2720853 10.64016164 5.47128403 6.875 4.1875 C5.79992187 3.83042969 4.72484375 3.47335938 3.6171875 3.10546875 C1 2 1 2 0 0 Z " fill="#5CA4EA" transform="translate(1,44)"/>
<path d="M0 0 C2 1 2 1 3.0625 3.875 C3.371875 4.90625 3.68125 5.9375 4 7 C4.33 7.99 4.66 8.98 5 10 C3.35 9.67 1.7 9.34 0 9 C-0.84454356 5.62182575 -1.10844919 3.32534757 0 0 Z " fill="#083863" transform="translate(58,13)"/>
<path d="M0 0 C4.84455959 2.29015544 4.84455959 2.29015544 7 4 C7.9375 7.25 7.9375 7.25 8 10 C5.95880212 8.38405168 3.95927063 6.7143618 2 5 C2 4.34 2 3.68 2 3 C1.01 2.67 0.02 2.34 -1 2 C-0.67 1.34 -0.34 0.68 0 0 Z " fill="#D64B4C" transform="translate(55,5)"/>
<path d="M0 0 C-1.26391488 1.00873016 -2.53640883 2.00671822 -3.8125 3 C-4.87404297 3.8353125 -4.87404297 3.8353125 -5.95703125 4.6875 C-8 6 -8 6 -11 6 C-9.90648447 2.82880497 -8.9873012 1.99216457 -6.0625 0.1875 C-3 -1 -3 -1 0 0 Z " fill="#EEE436" transform="translate(17,5)"/>
<path d="M0 0 C5.6 1.46086957 5.6 1.46086957 7.4375 3.9375 C8 6 8 6 7 9 C5.83037314 7.69013727 4.66437056 6.3770374 3.5 5.0625 C2.8503125 4.33160156 2.200625 3.60070312 1.53125 2.84765625 C0 1 0 1 0 0 Z " fill="#B428AE" transform="translate(62,6)"/>
<path d="M0 0 C1.32 0 2.64 0 4 0 C5.921875 1.96875 5.921875 1.96875 7.75 4.5 C8.67039062 5.75296875 8.67039062 5.75296875 9.609375 7.03125 C10.06828125 7.6809375 10.5271875 8.330625 11 9 C10.67 9.66 10.34 10.32 10 11 C8.5 9.625 8.5 9.625 7 8 C7 7.34 7 6.68 7 6 C6.01 5.67 5.02 5.34 4 5 C2.61423077 3.37667033 1.27358732 1.71275535 0 0 Z " fill="#B00833" transform="translate(63,0)"/>
<path d="M0 0 C0.99 0.99 1.98 1.98 3 3 C2.85546875 5.48046875 2.85546875 5.48046875 2.1875 8.1875 C1.97480469 9.08855469 1.76210937 9.98960938 1.54296875 10.91796875 C1.27419922 11.94857422 1.27419922 11.94857422 1 13 C0.67 13 0.34 13 0 13 C0 8.71 0 4.42 0 0 Z " fill="#687F83" transform="translate(12,15)"/>
<path d="M0 0 C0 2.97 0 5.94 0 9 C-0.66 7.68 -1.32 6.36 -2 5 C-4.53770003 3.71745356 -4.53770003 3.71745356 -7 3 C-4.49955934 -0.00052879 -4.2621484 0 0 0 Z " fill="#2074A5" transform="translate(12,15)"/>
<path d="M0 0 C0.33 0.99 0.66 1.98 1 3 C-0.32 3 -1.64 3 -3 3 C-3 3.66 -3 4.32 -3 5 C-3.99 5 -4.98 5 -6 5 C-6 4.01 -6 3.02 -6 2 C-6.66 1.34 -7.32 0.68 -8 0 C-4.71303767 -0.79953138 -3.28976808 -1.09658936 0 0 Z " fill="#2566A8" transform="translate(48,11)"/>
<path d="M0 0 C1.98 0 3.96 0 6 0 C6 2.64 6 5.28 6 8 C3.33264727 5.51047079 1.44253657 3.36591866 0 0 Z " fill="#C54254" transform="translate(74,0)"/>
<path d="M0 0 C0 0.99 0 1.98 0 3 C-6.75 4.125 -6.75 4.125 -9 3 C-9 2.34 -9 1.68 -9 1 C-5.8035914 -0.06546953 -3.34252724 -0.07427838 0 0 Z " fill="#786DBA" transform="translate(26,72)"/>
<path d="M0 0 C0.99 0.33 1.98 0.66 3 1 C2.2575 2.175625 2.2575 2.175625 1.5 3.375 C-0.16537965 5.78552327 -0.16537965 5.78552327 0 8 C-0.99 8.33 -1.98 8.66 -3 9 C-3 8.34 -3 7.68 -3 7 C-3.66 6.67 -4.32 6.34 -5 6 C-4.34 6 -3.68 6 -3 6 C-2.87625 5.38125 -2.7525 4.7625 -2.625 4.125 C-2 2 -2 2 0 0 Z " fill="#234E8C" transform="translate(53,57)"/>
<path d="M0 0 C2.475 0.495 2.475 0.495 5 1 C5.33 2.32 5.66 3.64 6 5 C4.35 5.33 2.7 5.66 1 6 C0.67 4.02 0.34 2.04 0 0 Z " fill="#198CD0" transform="translate(13,42)"/>
<path d="M0 0 C1.98 0.99 1.98 0.99 4 2 C4 2.66 4 3.32 4 4 C5.98 4 7.96 4 10 4 C8 7 8 7 5.5625 7.5 C3 7 3 7 1.1875 4.625 C0 2 0 2 0 0 Z " fill="#3480AE" transform="translate(39,17)"/>
<path d="M0 0 C0.89130413 2.6739124 1.47731534 5.23723823 2 8 C-0.64 8 -3.28 8 -6 8 C-6 7.34 -6 6.68 -6 6 C-5.38125 5.938125 -4.7625 5.87625 -4.125 5.8125 C-1.72238859 5.171081 -1.72238859 5.171081 -0.75 2.4375 C-0.5025 1.633125 -0.255 0.82875 0 0 Z " fill="#0D5EA1" transform="translate(55,17)"/>
<path d="M0 0 C1.79244141 0.01740234 1.79244141 0.01740234 3.62109375 0.03515625 C5.41740234 0.04869141 5.41740234 0.04869141 7.25 0.0625 C8.17683594 0.07410156 9.10367187 0.08570313 10.05859375 0.09765625 C6.69191224 1.86806635 3.88650342 2.77866378 0.05859375 3.09765625 C-2.31640625 2.16015625 -2.31640625 2.16015625 -3.94140625 1.09765625 C-2.94140625 0.09765625 -2.94140625 0.09765625 0 0 Z " fill="#FAAB1A" transform="translate(20.94140625,-0.09765625)"/>
<path d="M0 0 C0.33 0 0.66 0 1 0 C1.3125 2.25 1.3125 2.25 1 5 C-1.5 7.3125 -1.5 7.3125 -4 9 C-4.33 8.01 -4.66 7.02 -5 6 C-2.625 2.8125 -2.625 2.8125 0 0 Z " fill="#F8C24D" transform="translate(79,56)"/>
<path d="M0 0 C2.475 0.495 2.475 0.495 5 1 C5 1.66 5 2.32 5 3 C6.32 3.33 7.64 3.66 9 4 C6.69 4.66 4.38 5.32 2 6 C2 4.35 2 2.7 2 1 C1.34 0.67 0.68 0.34 0 0 Z " fill="#634944" transform="translate(37,58)"/>
<path d="M0 0 C1.09658936 3.28976808 0.79953138 4.71303767 0 8 C-1.32 8 -2.64 8 -4 8 C-4.33 7.01 -4.66 6.02 -5 5 C-3.35 3.35 -1.7 1.7 0 0 Z " fill="#083D77" transform="translate(62,40)"/>
<path d="M0 0 C2.31 0 4.62 0 7 0 C6.01 0.66 5.02 1.32 4 2 C4.33 2.66 4.66 3.32 5 4 C3.02 4.33 1.04 4.66 -1 5 C-0.67 3.35 -0.34 1.7 0 0 Z " fill="#0E90C8" transform="translate(18,34)"/>
<path d="M0 0 C1.32 0 2.64 0 4 0 C4 0.99 4 1.98 4 3 C3.34 3 2.68 3 2 3 C2 3.99 2 4.98 2 6 C1.01 6.66 0.02 7.32 -1 8 C-1.99 7.67 -2.98 7.34 -4 7 C-2.625 5.5 -2.625 5.5 -1 4 C-0.34 4 0.32 4 1 4 C0.67 2.68 0.34 1.36 0 0 Z " fill="#C3D7DE" transform="translate(26,24)"/>
<path d="M0 0 C1.32 0 2.64 0 4 0 C3.375 1.875 3.375 1.875 2 4 C-1.125 5.25 -1.125 5.25 -4 6 C-2.25 3 -2.25 3 0 0 Z " fill="#EF5A58" transform="translate(63,60)"/>
<path d="M0 0 C0.66 0.33 1.32 0.66 2 1 C2 2.32 2 3.64 2 5 C1.34 5 0.68 5 0 5 C0 5.66 0 6.32 0 7 C-0.66 7 -1.32 7 -2 7 C-2 6.34 -2 5.68 -2 5 C-2.66 4.67 -3.32 4.34 -4 4 C-3.34 4 -2.68 4 -2 4 C-1.34 2.68 -0.68 1.36 0 0 Z " fill="#164079" transform="translate(55,58)"/>
<path d="M0 0 C0.33 0 0.66 0 1 0 C1.49230769 6.4 1.49230769 6.4 -1 9.4375 C-1.99 10.2109375 -1.99 10.2109375 -3 11 C-2.32829194 7.1936543 -1.27253436 3.64793184 0 0 Z " fill="#A00960" transform="translate(79,42)"/>
<path d="M0 0 C0.99 0 1.98 0 3 0 C2.67 1.32 2.34 2.64 2 4 C2.99 4.33 3.98 4.66 5 5 C5.33 5.99 5.66 6.98 6 8 C5.34 8 4.68 8 4 8 C4 7.34 4 6.68 4 6 C1.525 5.01 1.525 5.01 -1 4 C-0.67 2.68 -0.34 1.36 0 0 Z " fill="#80A272" transform="translate(20,39)"/>
<path d="M0 0 C0 0.99 0 1.98 0 3 C-5.75 6 -5.75 6 -8 6 C-8.33 4.68 -8.66 3.36 -9 2 C-7.6078125 2.061875 -7.6078125 2.061875 -6.1875 2.125 C-2.84190281 2.27136339 -2.84190281 2.27136339 0 0 Z " fill="#497CBE" transform="translate(63,36)"/>
<path d="M0 0 C-0.33 0.99 -0.66 1.98 -1 3 C-3.50390625 3.94921875 -3.50390625 3.94921875 -6.5625 4.6875 C-7.57441406 4.93886719 -8.58632813 5.19023438 -9.62890625 5.44921875 C-10.41136719 5.63097656 -11.19382813 5.81273438 -12 6 C-10.66144904 3.32289809 -9.27941912 3.04870906 -6.5625 1.875 C-5.75941406 1.52179688 -4.95632812 1.16859375 -4.12890625 0.8046875 C-2 0 -2 0 0 0 Z " fill="#D85544" transform="translate(66,74)"/>
<path d="M0 0 C3.26460973 1.80412643 4.88929795 2.83394693 7 6 C6.01 6.33 5.02 6.66 4 7 C2 5.1875 2 5.1875 0 3 C0 2.01 0 1.02 0 0 Z " fill="#E45A94" transform="translate(0,65)"/>
<path d="M0 0 C5.875 4.625 5.875 4.625 7 8 C4.50638429 6.79618552 2.31856917 5.54571278 0 4 C0 2.68 0 1.36 0 0 Z " fill="#DBB8BC" transform="translate(0,61)"/>
<path d="M0 0 C0.99 0.33 1.98 0.66 3 1 C3 1.66 3 2.32 3 3 C1.35 3.66 -0.3 4.32 -2 5 C-1.67 5.66 -1.34 6.32 -1 7 C-1.99 7 -2.98 7 -4 7 C-4.33 6.01 -4.66 5.02 -5 4 C-2.6875 1.9375 -2.6875 1.9375 0 0 Z " fill="#3D956E" transform="translate(35,47)"/>
<path d="M0 0 C2.475 0.99 2.475 0.99 5 2 C5 2.66 5 3.32 5 4 C2.6875 5.125 2.6875 5.125 0 6 C-0.99 5.34 -1.98 4.68 -3 4 C-1.68 4 -0.36 4 1 4 C0.67 2.68 0.34 1.36 0 0 Z " fill="#078DC9" transform="translate(18,43)"/>
<path d="M0 0 C2.64 0.33 5.28 0.66 8 1 C8 1.33 8 1.66 8 2 C6.35 2 4.7 2 3 2 C3 2.66 3 3.32 3 4 C3.99 4.33 4.98 4.66 6 5 C4.35 5 2.7 5 1 5 C0.67 3.35 0.34 1.7 0 0 Z " fill="#56AAC3" transform="translate(39,43)"/>
<path d="M0 0 C0.66 1.32 1.32 2.64 2 4 C3.98 4 5.96 4 8 4 C7 6 7 6 4.625 6.8125 C2 7 2 7 0.125 5.8125 C-1 4 -1 4 -0.6875 1.8125 C-0.460625 1.214375 -0.23375 0.61625 0 0 Z " fill="#118C8A" transform="translate(23,39)"/>
<path d="M0 0 C0 0.66 0 1.32 0 2 C-0.61875 2.45375 -1.2375 2.9075 -1.875 3.375 C-4.13442278 5.10279389 -4.92750301 6.40813228 -6 9 C-6.66 9 -7.32 9 -8 9 C-7.70100785 5.41209425 -7.23013399 4.21833224 -4.5625 1.6875 C-2 0 -2 0 0 0 Z " fill="#118C5A" transform="translate(35,23)"/>
<path d="M0 0 C0.66 0.33 1.32 0.66 2 1 C0.35830472 3.02054804 -1.30911778 5.02043058 -3 7 C-3.33 7 -3.66 7 -4 7 C-4 5.35 -4 3.7 -4 2 C-2.125 0.9375 -2.125 0.9375 0 0 Z " fill="#F4E44C" transform="translate(4,12)"/>
<path d="M0 0 C-3.22791555 2.1519437 -4.28400809 2.20086443 -8 2 C-7.67 2.99 -7.34 3.98 -7 5 C-8.32 4.34 -9.64 3.68 -11 3 C-7.83370093 -0.83288835 -4.68080329 -1.56026776 0 0 Z " fill="#3A66A9" transform="translate(28,6)"/>
<path d="M0 0 C8.03571429 0.80357143 8.03571429 0.80357143 12 3 C10.37581255 3.08090971 8.75048255 3.13914995 7.125 3.1875 C5.76761719 3.23970703 5.76761719 3.23970703 4.3828125 3.29296875 C3.20332031 3.14794922 3.20332031 3.14794922 2 3 C1.34 2.01 0.68 1.02 0 0 Z " fill="#1073BA" transform="translate(15,61)"/>
<path d="M0 0 C0.99 0.33 1.98 0.66 3 1 C2.67 1.99 2.34 2.98 2 4 C-0.5625 5.1875 -0.5625 5.1875 -3 6 C-3.33 5.01 -3.66 4.02 -4 3 C-2.1875 1.4375 -2.1875 1.4375 0 0 Z " fill="#2D2925" transform="translate(48,59)"/>
<path d="M0 0 C1.65 0 3.3 0 5 0 C4.67 1.32 4.34 2.64 4 4 C2.35 3.67 0.7 3.34 -1 3 C-0.67 2.01 -0.34 1.02 0 0 Z " fill="#157BC5" transform="translate(4,22)"/>
<path d="M0 0 C0.66 0.33 1.32 0.66 2 1 C2 1.66 2 2.32 2 3 C2.99 3.66 3.98 4.32 5 5 C4.34 5 3.68 5 3 5 C3 5.66 3 6.32 3 7 C1.68 6.67 0.36 6.34 -1 6 C-0.67 4.02 -0.34 2.04 0 0 Z " fill="#504939" transform="translate(15,18)"/>
<path d="M0 0 C1.32 0 2.64 0 4 0 C4 1.65 4 3.3 4 5 C2.35 4.67 0.7 4.34 -1 4 C-0.67 2.68 -0.34 1.36 0 0 Z " fill="#8E9CE7" transform="translate(37,12)"/>
<path d="M0 0 C0.99 0.33 1.98 0.66 3 1 C4.1875 4.5625 4.1875 4.5625 5 8 C4.34 8 3.68 8 3 8 C3 7.34 3 6.68 3 6 C2.01 6 1.02 6 0 6 C0 4.02 0 2.04 0 0 Z " fill="#4F7288" transform="translate(9,31)"/>
<path d="M0 0 C0.66 0 1.32 0 2 0 C2 2.31 2 4.62 2 7 C2.66 7.33 3.32 7.66 4 8 C2.68 8 1.36 8 0 8 C-0.38063221 5.6739143 -0.71269945 3.33944736 -1 1 C-0.67 0.67 -0.34 0.34 0 0 Z " fill="#104C81" transform="translate(60,28)"/>
<path d="M0 0 C0.99 0.33 1.98 0.66 3 1 C3 3.31 3 5.62 3 8 C2.34 7.01 1.68 6.02 1 5 C0.01 5.495 0.01 5.495 -1 6 C-1.042721 4.33388095 -1.04063832 2.66617115 -1 1 C-0.67 0.67 -0.34 0.34 0 0 Z " fill="#FE5646" transform="translate(71,28)"/>
<path d="M0 0 C3.8665284 3.222107 4.88059018 6.14922412 6 11 C2.1334716 7.777893 1.11940982 4.85077588 0 0 Z " fill="#7F29D0" transform="translate(68,9)"/>
<path d="M0 0 C3.67230705 3.07999946 4.56802365 5.2482602 5 10 C0.76169024 7.17446016 1.02284652 4.87819112 0 0 Z " fill="#5066B3" transform="translate(47,6)"/>
<path d="M0 0 C2.375 -0.1875 2.375 -0.1875 5 0 C5.66 0.99 6.32 1.98 7 3 C6.67 3.99 6.34 4.98 6 6 C6 5.34 6 4.68 6 4 C5.38125 3.896875 4.7625 3.79375 4.125 3.6875 C2 3 2 3 0 0 Z " fill="#F7DB0C" transform="translate(68,0)"/>
<path d="M0 0 C0 0.66 0 1.32 0 2 C-2.40545638 3.20272819 -3.94996953 3.10071472 -6.625 3.0625 C-7.85089844 3.04896484 -7.85089844 3.04896484 -9.1015625 3.03515625 C-10.04128906 3.01775391 -10.04128906 3.01775391 -11 3 C-6.98213116 0.99106558 -4.56087444 -0.12002301 0 0 Z " fill="#234280" transform="translate(45,70)"/>
<path d="M0 0 C0.66 0 1.32 0 2 0 C2.33 1.98 2.66 3.96 3 6 C4.98 6 6.96 6 9 6 C9 6.33 9 6.66 9 7 C6.36 7 3.72 7 1 7 C-0.231394 4.53721199 -0.07159196 2.7204945 0 0 Z " fill="#21846A" transform="translate(28,48)"/>
<path d="M0 0 C0.66 0.33 1.32 0.66 2 1 C0.875 3 0.875 3 -1 5 C-4.1875 5.25 -4.1875 5.25 -7 5 C-4.702779 3.25728062 -2.40133271 1.60088848 0 0 Z " fill="#145386" transform="translate(59,47)"/>
<path d="M0 0 C1.65 0 3.3 0 5 0 C4.67 1.65 4.34 3.3 4 5 C2.68 5 1.36 5 0 5 C0 3.35 0 1.7 0 0 Z " fill="#2090CA" transform="translate(16,48)"/>
<path d="M0 0 C3.3 0.33 6.6 0.66 10 1 C10 1.66 10 2.32 10 3 C5.06071112 3.3367697 4.21507278 3.16130459 0 0 Z " fill="#208DAD" transform="translate(25,38)"/>
<path d="M0 0 C2.64 0 5.28 0 8 0 C8.33 0.99 8.66 1.98 9 3 C2.25 2.25 2.25 2.25 0 0 Z " fill="#8185D6" transform="translate(37,2)"/>
<path d="M0 0 C1.98 0 3.96 0 6 0 C5.67 0.99 5.34 1.98 5 3 C3.35 3.33 1.7 3.66 0 4 C0 2.68 0 1.36 0 0 Z " fill="#0B0107" transform="translate(0,0)"/>
<path d="M0 0 C1.32 1.32 2.64 2.64 4 4 C3.67 4.99 3.34 5.98 3 7 C2.01 6.67 1.02 6.34 0 6 C0 4.02 0 2.04 0 0 Z " fill="#F3B127" transform="translate(0,68)"/>
<path d="M0 0 C-1.1875 1.5625 -1.1875 1.5625 -3 3 C-5.6875 2.6875 -5.6875 2.6875 -8 2 C-6.14210462 -1.71579076 -3.44525918 -1.06921837 0 0 Z " fill="#59AEA7" transform="translate(40,51)"/>
<path d="M0 0 C0.33 1.32 0.66 2.64 1 4 C-0.875 4.625 -0.875 4.625 -3 5 C-3.66 4.34 -4.32 3.68 -5 3 C-3.35 2.01 -1.7 1.02 0 0 Z " fill="#0B65AB" transform="translate(53,47)"/>
<path d="M0 0 C0 1.65 0 3.3 0 5 C-0.99 5 -1.98 5 -3 5 C-3.33 3.68 -3.66 2.36 -4 1 C-2 0 -2 0 0 0 Z " fill="#F9533C" transform="translate(75,44)"/>
<path d="M0 0 C0.5625 1.9375 0.5625 1.9375 1 4 C0 5 0 5 -2.5625 5.0625 C-3.7690625 5.0315625 -3.7690625 5.0315625 -5 5 C-4.67 4.01 -4.34 3.02 -4 2 C-2.68 2 -1.36 2 0 2 C0 1.34 0 0.68 0 0 Z " fill="#523725" transform="translate(21,17)"/>
</svg>
