<?xml version="1.0" encoding="UTF-8"?>
<svg version="1.1" xmlns="http://www.w3.org/2000/svg" width="80" height="80">
<path d="M0 0 C26.4 0 52.8 0 80 0 C80 26.4 80 52.8 80 80 C53.6 80 27.2 80 0 80 C0 53.6 0 27.2 0 0 Z " fill="#B167C0" transform="translate(0,0)"/>
<path d="M0 0 C4.83501485 3.51637444 6.00691378 7.34629134 7 13 C7.33016769 14.70894798 7.66359 16.41726987 8 18.125 C8.16242188 18.9603125 8.32484375 19.795625 8.4921875 20.65625 C9.11287828 23.52097666 9.98723235 26.25105924 11 29 C13.31 29 15.62 29 18 29 C19.36201166 42.37690026 19 55.46347088 19 69 C-7.4 69 -33.8 69 -61 69 C-61 61.41 -61 53.82 -61 46 C-50.2578125 45.8046875 -50.2578125 45.8046875 -47 46 C-46.34 46.66 -45.68 47.32 -45 48 C-42.6754661 48.37051993 -42.6754661 48.37051993 -39.9921875 48.4140625 C-39.00605469 48.45273437 -38.01992188 48.49140625 -37.00390625 48.53125 C-35.97136719 48.5621875 -34.93882813 48.593125 -33.875 48.625 C-32.83472656 48.66367187 -31.79445313 48.70234375 -30.72265625 48.7421875 C-28.14861689 48.83664766 -25.57458845 48.92221214 -23 49 C-23 48.34 -23 47.68 -23 47 C-10.46 46.67 2.08 46.34 15 46 C15.33 45.01 15.66 44.02 16 43 C14.99839844 43.144375 13.99679688 43.28875 12.96484375 43.4375 C11.62243078 43.62525007 10.27998085 43.81273594 8.9375 44 C8.28072266 44.09539063 7.62394531 44.19078125 6.94726562 44.2890625 C2.59861237 44.88887674 -1.61329071 45.09127093 -6 45 C-6 44.34 -6 43.68 -6 43 C-7.98 43 -9.96 43 -12 43 C-12.78511745 35.86147057 -13.48299222 29.07273214 -12 22 C-9.94921875 20.7578125 -9.94921875 20.7578125 -8 20 C-8 18.68 -8 17.36 -8 16 C-7.34 16 -6.68 16 -6 16 C-6.33 19.3 -6.66 22.6 -7 26 C-3.72226496 25.24849977 -3.72226496 25.24849977 -2 22 C-1.80516021 19.26937763 -1.72106357 16.66475836 -1.75 13.9375 C-1.74226563 13.20466797 -1.73453125 12.47183594 -1.7265625 11.71679688 C-1.5944283 7.39266152 -1.5944283 7.39266152 -4 4 C-4.99 4 -5.98 4 -7 4 C-7.33 5.32 -7.66 6.64 -8 8 C-8.66 8 -9.32 8 -10 8 C-10.25 5.6875 -10.25 5.6875 -10 3 C-7.04401591 -0.29705918 -4.28439401 -0.6994929 0 0 Z " fill="#C0B3C4" transform="translate(61,11)"/>
<path d="M0 0 C4.83501485 3.51637444 6.00691378 7.34629134 7 13 C7.33016769 14.70894798 7.66359 16.41726987 8 18.125 C8.24363281 19.37796875 8.24363281 19.37796875 8.4921875 20.65625 C9.11287828 23.52097666 9.98723235 26.25105924 11 29 C13.31 29 15.62 29 18 29 C18 33.95 18 38.9 18 44 C17.01 44.495 17.01 44.495 16 45 C16 44.34 16 43.68 16 43 C14.99839844 43.144375 13.99679688 43.28875 12.96484375 43.4375 C11.62243078 43.62525007 10.27998085 43.81273594 8.9375 44 C8.28072266 44.09539063 7.62394531 44.19078125 6.94726562 44.2890625 C2.59861237 44.88887674 -1.61329071 45.09127093 -6 45 C-6 44.34 -6 43.68 -6 43 C-7.98 43 -9.96 43 -12 43 C-12.78511745 35.86147057 -13.48299222 29.07273214 -12 22 C-9.94921875 20.7578125 -9.94921875 20.7578125 -8 20 C-8 18.68 -8 17.36 -8 16 C-7.34 16 -6.68 16 -6 16 C-6.33 19.3 -6.66 22.6 -7 26 C-3.72226496 25.24849977 -3.72226496 25.24849977 -2 22 C-1.80516021 19.26937763 -1.72106357 16.66475836 -1.75 13.9375 C-1.74226563 13.20466797 -1.73453125 12.47183594 -1.7265625 11.71679688 C-1.5944283 7.39266152 -1.5944283 7.39266152 -4 4 C-4.99 4 -5.98 4 -7 4 C-7.33 5.32 -7.66 6.64 -8 8 C-8.66 8 -9.32 8 -10 8 C-10.25 5.6875 -10.25 5.6875 -10 3 C-7.04401591 -0.29705918 -4.28439401 -0.6994929 0 0 Z " fill="#24202C" transform="translate(61,11)"/>
<path d="M0 0 C0 4.95 0 9.9 0 15 C-15.18 15 -30.36 15 -46 15 C-46.33 10.38 -46.66 5.76 -47 1 C-41.43158779 0.85644683 -35.8631472 0.71406854 -30.29467773 0.57275391 C-28.40241698 0.52457022 -26.51016422 0.47607186 -24.61791992 0.42724609 C-21.88983187 0.35690865 -19.16171661 0.28772252 -16.43359375 0.21875 C-15.17536049 0.18593933 -15.17536049 0.18593933 -13.89170837 0.15246582 C-13.09140701 0.13244507 -12.29110565 0.11242432 -11.46655273 0.09179688 C-10.77150131 0.07403198 -10.07644989 0.05626709 -9.3603363 0.03796387 C-6.24060205 -0.01221423 -3.12013776 0 0 0 Z " fill="#2C1C32" transform="translate(80,65)"/>
<path d="M0 0 C1.32 0.33 2.64 0.66 4 1 C3.67 3.31 3.34 5.62 3 8 C3.66 7.67 4.32 7.34 5 7 C9.16735187 6.84274144 12.94441928 7.01682892 17 8 C17 10.31 17 12.62 17 15 C18.98 15 20.96 15 23 15 C23 15.66 23 16.32 23 17 C30.26 16.34 37.52 15.68 45 15 C44.67 16.32 44.34 17.64 44 19 C31.46 19 18.92 19 6 19 C6 19.66 6 20.32 6 21 C2.37506666 21.05787784 -1.24974857 21.0935542 -4.875 21.125 C-5.90753906 21.14175781 -6.94007812 21.15851562 -8.00390625 21.17578125 C-8.99003906 21.18222656 -9.97617187 21.18867187 -10.9921875 21.1953125 C-12.35899658 21.21102295 -12.35899658 21.21102295 -13.75341797 21.22705078 C-16 21 -16 21 -18 19 C-20.36509361 18.69940057 -22.74441881 18.50484988 -25.125 18.375 C-26.40632813 18.30023438 -27.68765625 18.22546875 -29.0078125 18.1484375 C-30.48894531 18.07496094 -30.48894531 18.07496094 -32 18 C-32 16.35 -32 14.7 -32 13 C-28.82212459 11.9407082 -26.57411057 11.88541061 -23.23828125 11.90234375 C-22.12001953 11.90556641 -21.00175781 11.90878906 -19.84960938 11.91210938 C-18.68236328 11.92048828 -17.51511719 11.92886719 -16.3125 11.9375 C-15.13365234 11.94201172 -13.95480469 11.94652344 -12.74023438 11.95117188 C-9.82677211 11.96296727 -6.91341137 11.9794273 -4 12 C-3.67 9.03 -3.34 6.06 -3 3 C-2.34 3 -1.68 3 -1 3 C-0.67 2.01 -0.34 1.02 0 0 Z " fill="#836B6D" transform="translate(32,39)"/>
<path d="M0 0 C0.33 0 0.66 0 1 0 C1 2.31 1 4.62 1 7 C-0.96622314 7.08302368 -0.96622314 7.08302368 -2.97216797 7.16772461 C-7.8738237 7.37545752 -12.77531086 7.58696312 -17.67675781 7.79956055 C-19.79097204 7.89074612 -21.9052296 7.98093282 -24.01953125 8.07006836 C-27.07303852 8.19897822 -30.12636759 8.33157816 -33.1796875 8.46484375 C-34.11239471 8.50343002 -35.04510193 8.5420163 -36.006073 8.58177185 C-42.03116844 8.84927301 -48.00561222 9.33678575 -54 10 C-54 10.66 -54 11.32 -54 12 C-57.79165074 12.0289337 -61.58327327 12.04677601 -65.375 12.0625 C-66.45523438 12.07087891 -67.53546875 12.07925781 -68.6484375 12.08789062 C-70.1953125 12.09272461 -70.1953125 12.09272461 -71.7734375 12.09765625 C-72.72653809 12.10289307 -73.67963867 12.10812988 -74.66162109 12.11352539 C-77 12 -77 12 -79 11 C-79 8.36 -79 5.72 -79 3 C-76.70858714 2.94615479 -74.41681812 2.90727913 -72.125 2.875 C-70.21074219 2.84019531 -70.21074219 2.84019531 -68.2578125 2.8046875 C-65 3 -65 3 -63 5 C-60.6754661 5.37051993 -60.6754661 5.37051993 -57.9921875 5.4140625 C-56.51298828 5.47207031 -56.51298828 5.47207031 -55.00390625 5.53125 C-53.97136719 5.5621875 -52.93882813 5.593125 -51.875 5.625 C-50.83472656 5.66367187 -49.79445313 5.70234375 -48.72265625 5.7421875 C-46.14861689 5.83664766 -43.57458845 5.92221214 -41 6 C-41 5.34 -41 4.68 -41 4 C-39.29686646 3.97812622 -39.29686646 3.97812622 -37.55932617 3.95581055 C-33.34904391 3.89786324 -29.1392985 3.82063059 -24.92944336 3.73754883 C-23.10694081 3.7042826 -21.28433481 3.67625594 -19.46166992 3.65356445 C-16.8424875 3.62004919 -14.22425452 3.56773648 -11.60546875 3.51171875 C-10.38188911 3.50213387 -10.38188911 3.50213387 -9.1335907 3.49235535 C-4.86387299 3.52978503 -4.86387299 3.52978503 -1.32319641 1.47297668 C-0.8865416 0.98689438 -0.44988678 0.50081207 0 0 Z " fill="#F3F1F3" transform="translate(79,54)"/>
<path d="M0 0 C1.85625 0.4021875 1.85625 0.4021875 3.75 0.8125 C12.43671086 2.56243161 21.23344776 3.72648921 30 5 C30 7.64 30 10.28 30 13 C20.1 13 10.2 13 0 13 C0 8.71 0 4.42 0 0 Z " fill="#D590E4" transform="translate(0,67)"/>
<path d="M0 0 C15.84 0.33 31.68 0.66 48 1 C48 1.66 48 2.32 48 3 C57.57 2.67 67.14 2.34 77 2 C76.67 2.66 76.34 3.32 76 4 C63.46 4 50.92 4 38 4 C38 4.66 38 5.32 38 6 C34.37506666 6.05787784 30.75025143 6.0935542 27.125 6.125 C26.09246094 6.14175781 25.05992188 6.15851562 23.99609375 6.17578125 C23.00996094 6.18222656 22.02382813 6.18867187 21.0078125 6.1953125 C19.64100342 6.21102295 19.64100342 6.21102295 18.24658203 6.22705078 C16 6 16 6 14 4 C11.63490639 3.69940057 9.25558119 3.50484988 6.875 3.375 C4.95300781 3.26285156 4.95300781 3.26285156 2.9921875 3.1484375 C1.51105469 3.07496094 1.51105469 3.07496094 0 3 C0 2.01 0 1.02 0 0 Z " fill="#D8D3D8" transform="translate(0,54)"/>
<path d="M0 0 C2.29141286 -0.05384521 4.58318188 -0.09272087 6.875 -0.125 C8.78925781 -0.15980469 8.78925781 -0.15980469 10.7421875 -0.1953125 C14 0 14 0 16 2 C19.39305041 2.2916768 22.74384392 2.41533662 26.14648438 2.47851562 C30.62114161 2.64667415 31.69293378 2.69293378 35 6 C31.7 6.33 28.4 6.66 25 7 C25 7.66 25 8.32 25 9 C21.20834926 9.0289337 17.41672673 9.04677601 13.625 9.0625 C12.54476563 9.07087891 11.46453125 9.07925781 10.3515625 9.08789062 C8.8046875 9.09272461 8.8046875 9.09272461 7.2265625 9.09765625 C6.27346191 9.10289307 5.32036133 9.10812988 4.33837891 9.11352539 C2 9 2 9 0 8 C0 5.36 0 2.72 0 0 Z " fill="#B4ACB7" transform="translate(0,57)"/>
<path d="M0 0 C2.86724686 0.57344937 3.8614515 0.8614515 6 3 C6.28013291 5.65683945 6.41618681 8.15308766 6.4375 10.8125 C6.47037109 11.52470703 6.50324219 12.23691406 6.53710938 12.97070312 C6.57852487 17.04071719 6.1630068 18.79564513 3.59765625 22.01171875 C1 24 1 24 -1 24 C-1.19622241 19.78121808 -0.80230168 16.82989106 1 13 C0.34 13 -0.32 13 -1 13 C-1.33 14.32 -1.66 15.64 -2 17 C-2.33 13.04 -2.66 9.08 -3 5 C-2.34 5 -1.68 5 -1 5 C-0.67 3.35 -0.34 1.7 0 0 Z " fill="#C87B51" transform="translate(54,14)"/>
<path d="M0 0 C15.84 0.495 15.84 0.495 32 1 C32 5.62 32 10.24 32 15 C31.34 15 30.68 15 30 15 C30 12.36 30 9.72 30 7 C29.00742187 6.97421875 28.01484375 6.9484375 26.9921875 6.921875 C17.41435073 6.56033537 9.13647402 5.06928424 0 2 C0 1.34 0 0.68 0 0 Z " fill="#755481" transform="translate(0,65)"/>
<path d="M0 0 C2.57285724 2.172635 4.48996919 3.97993838 6 7 C6.07092842 9.2072923 6.08415025 11.41667452 6.0625 13.625 C6.05347656 14.81351563 6.04445313 16.00203125 6.03515625 17.2265625 C6.02355469 18.14179688 6.01195313 19.05703125 6 20 C4 19 2 18 0 17 C0.0825 15.96875 0.165 14.9375 0.25 13.875 C-0.04052381 9.37188097 -1.09558739 7.40231192 -4 4 C-4.99 4 -5.98 4 -7 4 C-7.33 5.32 -7.66 6.64 -8 8 C-8.66 8 -9.32 8 -10 8 C-10.25 5.6875 -10.25 5.6875 -10 3 C-7.04401591 -0.29705918 -4.28439401 -0.6994929 0 0 Z " fill="#1D070C" transform="translate(61,11)"/>
<path d="M0 0 C0 1.32 0 2.64 0 4 C-10.13715202 5.63964205 -21.8815897 6.25800314 -32 4 C-32.66 3.34 -33.32 2.68 -34 2 C-22.60029192 0.52226006 -11.49520875 -0.28189885 0 0 Z " fill="#AAA1AB" transform="translate(80,61)"/>
<path d="M0 0 C1.11826172 0.00322266 2.23652344 0.00644531 3.38867188 0.00976562 C4.55591797 0.01814453 5.72316406 0.02652344 6.92578125 0.03515625 C8.10462891 0.03966797 9.28347656 0.04417969 10.49804688 0.04882812 C13.41150914 0.06062352 16.32486988 0.07708355 19.23828125 0.09765625 C19.56828125 1.41765625 19.89828125 2.73765625 20.23828125 4.09765625 C15.96746211 4.1266306 11.69666816 4.14444621 7.42578125 4.16015625 C5.60336914 4.17272461 5.60336914 4.17272461 3.74414062 4.18554688 C1.99907227 4.19038086 1.99907227 4.19038086 0.21875 4.1953125 C-0.85479736 4.20054932 -1.92834473 4.20578613 -3.03442383 4.21118164 C-5.76171875 4.09765625 -5.76171875 4.09765625 -8.76171875 3.09765625 C-8.76171875 2.43765625 -8.76171875 1.77765625 -8.76171875 1.09765625 C-5.58384334 0.03836445 -3.33582932 -0.01693314 0 0 Z " fill="#F7F6F7" transform="translate(8.76171875,50.90234375)"/>
<path d="M0 0 C2.33333333 0.33333333 4.66666667 0.66666667 7 1 C8.175625 1.165 9.35125 1.33 10.5625 1.5 C13.71655704 1.95877193 16.85832362 2.46361623 20 3 C20 3.66 20 4.32 20 5 C30.89 4.01 30.89 4.01 42 3 C42 3.66 42 4.32 42 5 C39.23382437 6.38308781 36.98982 6.11210196 33.8984375 6.09765625 C32.68671875 6.09443359 31.475 6.09121094 30.2265625 6.08789062 C28.95554687 6.07951172 27.68453125 6.07113281 26.375 6.0625 C25.09625 6.05798828 23.8175 6.05347656 22.5 6.04882812 C19.33328708 6.03701203 16.16666644 6.02053815 13 6 C13 5.34 13 4.68 13 4 C8.71 4 4.42 4 0 4 C0 2.68 0 1.36 0 0 Z " fill="#F8F9F8" transform="translate(35,51)"/>
<path d="M0 0 C2.875 1.3125 2.875 1.3125 5 3 C5 3.99 5 4.98 5 6 C7.97 6 10.94 6 14 6 C14 6.33 14 6.66 14 7 C8.06 7.33 2.12 7.66 -4 8 C-4 7.34 -4 6.68 -4 6 C-5.98 6 -7.96 6 -10 6 C-8.68 5.34 -7.36 4.68 -6 4 C-6.66 3.67 -7.32 3.34 -8 3 C-8 2.34 -8 1.68 -8 1 C-5.17998673 -0.41000664 -3.12992745 -0.24548451 0 0 Z " fill="#DC9F7F" transform="translate(59,48)"/>
<path d="M0 0 C3.06273831 -0.05410136 6.12451452 -0.09372225 9.1875 -0.125 C10.48397461 -0.15013672 10.48397461 -0.15013672 11.80664062 -0.17578125 C16.32208103 -0.21038233 19.90081483 -0.15567916 24 2 C24 2.66 24 3.32 24 4 C20.5627834 4.11604679 17.12606914 4.18719508 13.6875 4.25 C12.22280273 4.30027344 12.22280273 4.30027344 10.72851562 4.3515625 C9.79072266 4.36445312 8.85292969 4.37734375 7.88671875 4.390625 C6.59060669 4.4220459 6.59060669 4.4220459 5.26831055 4.45410156 C3 4 3 4 1.19458008 1.97558594 C0.60326294 0.9976709 0.60326294 0.9976709 0 0 Z " fill="#1B111B" transform="translate(13,56)"/>
<path d="M0 0 C4.62 0 9.24 0 14 0 C14.33 1.32 14.66 2.64 15 4 C9.87080814 6.10428384 5.4389165 6.21755666 0 6 C0 4.02 0 2.04 0 0 Z " fill="#EFEBF0" transform="translate(0,57)"/>
<path d="M0 0 C14.19 0 28.38 0 43 0 C42.67 0.66 42.34 1.32 42 2 C29.46 2 16.92 2 4 2 C3.67 2.66 3.34 3.32 3 4 C3 3.34 3 2.68 3 2 C2.01 2 1.02 2 0 2 C0 1.34 0 0.68 0 0 Z " fill="#898789" transform="translate(34,56)"/>
<path d="M0 0 C5.28 0 10.56 0 16 0 C16 1.32 16 2.64 16 4 C10.39 4 4.78 4 -1 4 C-1 3.67 -1 3.34 -1 3 C0.65 3 2.3 3 4 3 C4 2.34 4 1.68 4 1 C2.68 0.67 1.36 0.34 0 0 Z " fill="#B3A7B7" transform="translate(64,61)"/>
<path d="M0 0 C6.93 0 13.86 0 21 0 C21 1.32 21 2.64 21 4 C18.06121273 3.71840367 15.12439587 3.42518615 12.1875 3.125 C11.35412109 3.04636719 10.52074219 2.96773438 9.66210938 2.88671875 C8.45844727 2.76103516 8.45844727 2.76103516 7.23046875 2.6328125 C6.49207764 2.55949707 5.75368652 2.48618164 4.99291992 2.41064453 C3 2 3 2 0 0 Z " fill="#B479C5" transform="translate(9,67)"/>
<path d="M0 0 C2.0625 0.4375 2.0625 0.4375 4 1 C3.67 1.99 3.34 2.98 3 4 C2.34 4 1.68 4 1 4 C1 4.66 1 5.32 1 6 C1.99 6 2.98 6 4 6 C4.33 7.65 4.66 9.3 5 11 C3.02 11.33 1.04 11.66 -1 12 C-1.33 10.02 -1.66 8.04 -2 6 C-1.34 6 -0.68 6 0 6 C-0.2784375 4.7934375 -0.2784375 4.7934375 -0.5625 3.5625 C-0.706875 2.716875 -0.85125 1.87125 -1 1 C-0.67 0.67 -0.34 0.34 0 0 Z " fill="#F5C898" transform="translate(54,14)"/>
<path d="M0 0 C0.33 0.66 0.66 1.32 1 2 C0.34 2 -0.32 2 -1 2 C-0.67 3.98 -0.34 5.96 0 8 C1.32 8.33 2.64 8.66 4 9 C4 12.3 4 15.6 4 19 C2.68 19.33 1.36 19.66 0 20 C-0.19622241 15.78121808 0.19769832 12.82989106 2 9 C1.34 9 0.68 9 0 9 C-0.33 10.32 -0.66 11.64 -1 13 C-1.33 9.04 -1.66 5.08 -2 1 C-1.34 0.67 -0.68 0.34 0 0 Z " fill="#A17367" transform="translate(53,18)"/>
<path d="M0 0 C1.65 0 3.3 0 5 0 C5 2.97 5 5.94 5 9 C4.01 8.67 3.02 8.34 2 8 C1.67 8.66 1.34 9.32 1 10 C0.63720544 8.71073008 0.28503302 7.41846728 -0.0625 6.125 C-0.35833984 5.04605469 -0.35833984 5.04605469 -0.66015625 3.9453125 C-1 2 -1 2 0 0 Z " fill="#31283B" transform="translate(73,40)"/>
<path d="M0 0 C1.875 1.5 1.875 1.5 3 3 C-3.28571429 5.42857143 -3.28571429 5.42857143 -7 4 C-7.33 5.32 -7.66 6.64 -8 8 C-8.66 8 -9.32 8 -10 8 C-10.25 5.6875 -10.25 5.6875 -10 3 C-7.03796411 -0.30380926 -4.29267815 -0.54800147 0 0 Z " fill="#36191F" transform="translate(61,11)"/>
<path d="M0 0 C1.32 0.33 2.64 0.66 4 1 C3.34 2.98 2.68 4.96 2 7 C1.67 6.34 1.34 5.68 1 5 C0.34 5 -0.32 5 -1 5 C-1 8.3 -1 11.6 -1 15 C-1.66 15 -2.32 15 -3 15 C-3.92844389 10.66726186 -3.92844389 7.33273814 -3 3 C-2.34 3 -1.68 3 -1 3 C-0.67 2.01 -0.34 1.02 0 0 Z " fill="#5B2A3B" transform="translate(32,39)"/>
<path d="M0 0 C3.03499675 0.15432187 5.74471919 0.47409859 8.6875 1.1875 C8.6875 3.1675 8.6875 5.1475 8.6875 7.1875 C7.0375 6.8575 5.3875 6.5275 3.6875 6.1875 C3.3575 4.5375 3.0275 2.8875 2.6875 1.1875 C2.11 1.538125 1.5325 1.88875 0.9375 2.25 C-1.67051776 3.33667407 -2.70667629 3.11815133 -5.3125 2.1875 C-3.3125 0.1875 -3.3125 0.1875 0 0 Z " fill="#A86A6A" transform="translate(40.3125,45.8125)"/>
<path d="M0 0 C2.97 0 5.94 0 9 0 C9 1.32 9 2.64 9 4 C6.03 4 3.06 4 0 4 C0 2.68 0 1.36 0 0 Z " fill="#D696E4" transform="translate(67,76)"/>
<path d="M0 0 C5.28 0.33 10.56 0.66 16 1 C12.36804504 3.42130331 10.61650652 3.21022785 6.3125 3.125 C5.13300781 3.10695312 3.95351563 3.08890625 2.73828125 3.0703125 C1.83464844 3.04710937 0.93101562 3.02390625 0 3 C0 2.01 0 1.02 0 0 Z " fill="#918995" transform="translate(0,54)"/>
<path d="M0 0 C3.0625 0.125 3.0625 0.125 5.0625 1.125 C6.76613822 1.35122081 8.47578701 1.53388473 10.1875 1.6875 C11.09757812 1.77128906 12.00765625 1.85507813 12.9453125 1.94140625 C13.64398438 2.00199219 14.34265625 2.06257813 15.0625 2.125 C15.0625 2.455 15.0625 2.785 15.0625 3.125 C12.45805652 3.17894705 9.85473002 3.21864469 7.25 3.25 C6.51201172 3.26675781 5.77402344 3.28351563 5.01367188 3.30078125 C1.15003574 3.33574628 -0.64653668 3.31897555 -3.9375 1.125 C-2.9375 0.125 -2.9375 0.125 0 0 Z " fill="#B5ABB8" transform="translate(42.9375,62.875)"/>
<path d="M0 0 C1.32 0.99 2.64 1.98 4 3 C4.33 2.67 4.66 2.34 5 2 C6.99958364 1.95919217 9.00045254 1.95745644 11 2 C11 3.98 11 5.96 11 8 C10.34 8 9.68 8 9 8 C8.67 7.01 8.34 6.02 8 5 C7.34 4.67 6.68 4.34 6 4 C5.67 4.66 5.34 5.32 5 6 C4.01 6 3.02 6 2 6 C1.34 4.02 0.68 2.04 0 0 Z " fill="#94487F" transform="translate(26,36)"/>
<path d="M0 0 C0.33 0 0.66 0 1 0 C1 4.29 1 8.58 1 13 C-0.65 13 -2.3 13 -4 13 C-3.67 11.35 -3.34 9.7 -3 8 C-2.34 8 -1.68 8 -1 8 C-0.67 5.36 -0.34 2.72 0 0 Z " fill="#1E1628" transform="translate(78,40)"/>
<path d="M0 0 C0.33 0 0.66 0 1 0 C1 2.31 1 4.62 1 7 C-1.31 7 -3.62 7 -6 7 C-5.34 6.67 -4.68 6.34 -4 6 C-3.3162955 4.67532254 -2.65035814 3.34136367 -2 2 C-1.34 1.34 -0.68 0.68 0 0 Z " fill="#F1EFF2" transform="translate(79,54)"/>
<path d="M0 0 C3.63 0 7.26 0 11 0 C10 2 10 2 7.8125 3.125 C4.73230669 4.08328236 2.20690052 4.14915816 -1 4 C-1 3.67 -1 3.34 -1 3 C0.65 3 2.3 3 4 3 C4 2.34 4 1.68 4 1 C2.68 0.67 1.36 0.34 0 0 Z " fill="#B8B0BA" transform="translate(64,61)"/>
<path d="M0 0 C-0.99 0.495 -0.99 0.495 -2 1 C-2.65213292 3.02463255 -2.65213292 3.02463255 -3 5 C-4.98 5 -6.96 5 -9 5 C-7.68 4.34 -6.36 3.68 -5 3 C-5.66 2.67 -6.32 2.34 -7 2 C-7 1.34 -7 0.68 -7 0 C-4.3333581 -1.33332095 -2.83319697 -0.67102033 0 0 Z " fill="#856362" transform="translate(58,49)"/>
<path d="M0 0 C1.65 0 3.3 0 5 0 C5.33 1.65 5.66 3.3 6 5 C4.02 5.33 2.04 5.66 0 6 C0 5.01 0 4.02 0 3 C0.66 3 1.32 3 2 3 C2 2.34 2 1.68 2 1 C1.34 0.67 0.68 0.34 0 0 Z " fill="#D6A488" transform="translate(38,47)"/>
<path d="M0 0 C0.33 0 0.66 0 1 0 C1.125 7.75 1.125 7.75 0 10 C-0.66 10 -1.32 10 -2 10 C-2.1953125 3.9453125 -2.1953125 3.9453125 -2 2 C-1.34 1.34 -0.68 0.68 0 0 Z " fill="#F4BF88" transform="translate(58,26)"/>
<path d="M0 0 C0.99 0.33 1.98 0.66 3 1 C3 1.99 3 2.98 3 4 C5.97 4 8.94 4 12 4 C12 4.33 12 4.66 12 5 C7.71 5 3.42 5 -1 5 C-0.67 3.35 -0.34 1.7 0 0 Z " fill="#A57766" transform="translate(61,50)"/>
<path d="M0 0 C0.66 0 1.32 0 2 0 C2.33 2.64 2.66 5.28 3 8 C1.68 7.34 0.36 6.68 -1 6 C-0.67 4.02 -0.34 2.04 0 0 Z " fill="#CEABA2" transform="translate(31,44)"/>
<path d="M0 0 C1.65 0 3.3 0 5 0 C5 0.99 5 1.98 5 3 C3.35 3.66 1.7 4.32 0 5 C-0.33 4.01 -0.66 3.02 -1 2 C-0.67 1.34 -0.34 0.68 0 0 Z " fill="#473B52" transform="translate(73,40)"/>
<path d="M0 0 C3.96 0.33 7.92 0.66 12 1 C12 1.33 12 1.66 12 2 C9.36 2 6.72 2 4 2 C3.67 2.66 3.34 3.32 3 4 C3 3.34 3 2.68 3 2 C2.01 2 1.02 2 0 2 C0 1.34 0 0.68 0 0 Z " fill="#727072" transform="translate(34,56)"/>
<path d="M0 0 C2 2 2 2 2 5 C2.99 5.33 3.98 5.66 5 6 C5 6.33 5 6.66 5 7 C3.35 7 1.7 7 0 7 C0 4.69 0 2.38 0 0 Z " fill="#201B1F" transform="translate(49,46)"/>
<path d="M0 0 C0.66 0 1.32 0 2 0 C2.33 1.65 2.66 3.3 3 5 C1.68 5.33 0.36 5.66 -1 6 C-1.33 5.01 -1.66 4.02 -2 3 C-1.34 3 -0.68 3 0 3 C0 2.01 0 1.02 0 0 Z " fill="#F4A973" transform="translate(56,20)"/>
</svg>
