<?xml version="1.0" encoding="UTF-8"?>
<svg version="1.1" xmlns="http://www.w3.org/2000/svg" width="80" height="80">
<path d="M0 0 C26.4 0 52.8 0 80 0 C80 26.4 80 52.8 80 80 C53.6 80 27.2 80 0 80 C0 53.6 0 27.2 0 0 Z " fill="#E0D09D" transform="translate(0,0)"/>
<path d="M0 0 C1.32 0 2.64 0 4 0 C5.84222869 3.97533559 6.16439476 5.50681572 4.75 9.75 C3 13 3 13 1 15 C0.83312552 17.58354218 0.83312552 17.58354218 1 20 C2.093125 20.165 3.18625 20.33 4.3125 20.5 C8 22 8 22 9.1328125 23.66796875 C10.93130522 28.18166166 11.30112092 32.18206531 11 37 C11.99 37 12.98 37 14 37 C14.28617188 36.27941406 14.57234375 35.55882812 14.8671875 34.81640625 C15.58706133 33.02665096 16.31999663 31.24205179 17.0703125 29.46484375 C17.59238281 28.21380859 17.59238281 28.21380859 18.125 26.9375 C18.47820313 26.10089844 18.83140625 25.26429687 19.1953125 24.40234375 C20.21174338 21.79010861 20.21174338 21.79010861 20 18 C23 16 23 16 25 16.375 C25.66 16.58125 26.32 16.7875 27 17 C29.62113708 17 31.50935112 16.68707555 34 16 C34.495 17.485 34.495 17.485 35 19 C37.48248124 18.66334085 37.48248124 18.66334085 40 17 C41.36075884 14.09244107 42.21362959 11.10712212 43 8 C43.99 8 44.98 8 46 8 C46 22.19 46 36.38 46 51 C19.6 51 -6.8 51 -34 51 C-34 36.48 -34 21.96 -34 7 C-33.67 7.66 -33.34 8.32 -33 9 C-30.6859378 9.73075648 -28.35171131 10.40138258 -26 11 C-26 11.99 -26 12.98 -26 14 C-25.34 14 -24.68 14 -24 14 C-23.6596875 15.1446875 -23.6596875 15.1446875 -23.3125 16.3125 C-22.22121404 19.18340701 -22.22121404 19.18340701 -19.5 20.4375 C-17 22 -17 22 -15.75 24.625 C-15.14681436 27.33933537 -14.80532109 29.8090005 -14.5625 32.5625 C-14.21438652 36.3788552 -13.32423163 38.86733998 -11 42 C-11.28875 41.030625 -11.5775 40.06125 -11.875 39.0625 C-12.47859822 35.2214204 -11.23150011 33.32670859 -9.0625 30.1875 C-8.49660156 29.43855469 -7.93070313 28.68960938 -7.34765625 27.91796875 C-5.80836154 26.11794488 -5.80836154 26.11794488 -6 24 C-6.99 23.67 -7.98 23.34 -9 23 C-9.33 22.34 -9.66 21.68 -10 21 C-11.98 21 -13.96 21 -16 21 C-16 19.35 -16 17.7 -16 16 C-13.83125748 16.50603992 -12.00032373 16.99983813 -10 18 C-9.9071875 16.8553125 -9.9071875 16.8553125 -9.8125 15.6875 C-8.7417031 12.14563333 -7.09039831 11.82254259 -4 10 C-4 8.68 -4 7.36 -4 6 C-4.66 5.34 -5.32 4.68 -6 4 C-5.34 4 -4.68 4 -4 4 C-4 3.34 -4 2.68 -4 2 C-2.68 2 -1.36 2 0 2 C0 1.34 0 0.68 0 0 Z " fill="#EBD7A5" transform="translate(34,29)"/>
<path d="M0 0 C2.88415309 1.10418413 4.65619602 2.04866106 6.3671875 4.65234375 C6.5528125 5.25046875 6.7384375 5.84859375 6.9296875 6.46484375 C8.9096875 6.13484375 10.8896875 5.80484375 12.9296875 5.46484375 C12.39899689 9.28581614 11.43267184 11.52655778 8.9296875 14.46484375 C7.2796875 13.14484375 5.6296875 11.82484375 3.9296875 10.46484375 C3.5996875 11.78484375 3.2696875 13.10484375 2.9296875 14.46484375 C3.9196875 14.46484375 4.9096875 14.46484375 5.9296875 14.46484375 C7.16890052 17.43895499 8.23027154 20.31747193 8.9296875 23.46484375 C9.7134375 23.54734375 10.4971875 23.62984375 11.3046875 23.71484375 C13.9296875 24.46484375 13.9296875 24.46484375 15.2421875 26.52734375 C15.4690625 27.16671875 15.6959375 27.80609375 15.9296875 28.46484375 C14.9603125 29.04234375 13.9909375 29.61984375 12.9921875 30.21484375 C9.83499458 32.11277237 9.83499458 32.11277237 9.0546875 34.71484375 C9.0134375 35.29234375 8.9721875 35.86984375 8.9296875 36.46484375 C6.9496875 35.80484375 4.9696875 35.14484375 2.9296875 34.46484375 C2.9296875 36.11484375 2.9296875 37.76484375 2.9296875 39.46484375 C5.8996875 38.96984375 5.8996875 38.96984375 8.9296875 38.46484375 C9.2596875 39.45484375 9.5896875 40.44484375 9.9296875 41.46484375 C11.94477108 42.19808171 11.94477108 42.19808171 13.9296875 42.46484375 C12.96205087 45.93220834 12.20726114 48.16347808 9.7421875 50.83984375 C7.70508573 53.79012907 7.74420348 54.38295462 8.1796875 57.77734375 C8.4271875 58.99421875 8.6746875 60.21109375 8.9296875 61.46484375 C4.79193093 57.4605632 3.81005852 55.20161011 2.9296875 49.52734375 C2.43718194 46.36068694 1.94405803 43.50795533 0.9296875 40.46484375 C-0.3078125 39.78421875 -0.3078125 39.78421875 -1.5703125 39.08984375 C-4.0703125 37.46484375 -4.0703125 37.46484375 -4.8828125 34.77734375 C-4.9446875 34.01421875 -5.0065625 33.25109375 -5.0703125 32.46484375 C-5.7303125 32.46484375 -6.3903125 32.46484375 -7.0703125 32.46484375 C-7.5653125 30.97984375 -7.5653125 30.97984375 -8.0703125 29.46484375 C-10.05754518 28.76103218 -12.05809203 28.09366265 -14.0703125 27.46484375 C-15.37506868 24.85533139 -15.18332822 22.9378309 -15.16796875 20.01953125 C-15.16474609 18.94316406 -15.16152344 17.86679687 -15.15820312 16.7578125 C-15.14982422 15.62988281 -15.14144531 14.50195312 -15.1328125 13.33984375 C-15.12830078 12.20417969 -15.12378906 11.06851562 -15.11914062 9.8984375 C-15.10732865 7.08718737 -15.09085757 4.27604145 -15.0703125 1.46484375 C-10.09841146 -1.14685018 -5.47201633 -1.4144646 0 0 Z " fill="#F0BA30" transform="translate(15.0703125,10.53515625)"/>
<path d="M0 0 C0 6.27 0 12.54 0 19 C-2.31 19 -4.62 19 -7 19 C-7.0928125 20.175625 -7.0928125 20.175625 -7.1875 21.375 C-8 24 -8 24 -10.14453125 25.2109375 C-13.60987055 26.16852784 -15.96727147 25.86079886 -19.5 25.25 C-20.6034375 25.06953125 -21.706875 24.8890625 -22.84375 24.703125 C-25.74373743 24.0570882 -28.28674078 23.19464398 -31 22 C-31 19.36 -31 16.72 -31 14 C-27.71303767 13.20046862 -26.28976808 12.90341064 -23 14 C-23 13.01 -23 12.02 -23 11 C-21.02 10.67 -19.04 10.34 -17 10 C-17.20625 9.21625 -17.4125 8.4325 -17.625 7.625 C-17.74875 6.75875 -17.8725 5.8925 -18 5 C-16 3 -16 3 -13.625 2.75 C-10.91140227 3.00843788 -9.35784376 3.69912069 -7 5 C-6.34 5 -5.68 5 -5 5 C-5 4.34 -5 3.68 -5 3 C-1.42307692 0 -1.42307692 0 0 0 Z " fill="#3688A3" transform="translate(80,7)"/>
<path d="M0 0 C4.07435961 0.6650587 7.63395842 2.48395645 11.2734375 4.37109375 C11.2734375 5.69109375 11.2734375 7.01109375 11.2734375 8.37109375 C9.61811127 9.38975604 7.95083612 10.38920188 6.2734375 11.37109375 C5.39521438 13.45643008 5.39521438 13.45643008 5.2734375 15.37109375 C3.2934375 14.71109375 1.3134375 14.05109375 -0.7265625 13.37109375 C-0.7265625 15.02109375 -0.7265625 16.67109375 -0.7265625 18.37109375 C1.2534375 18.04109375 3.2334375 17.71109375 5.2734375 17.37109375 C5.6034375 18.36109375 5.9334375 19.35109375 6.2734375 20.37109375 C8.28852108 21.10433171 8.28852108 21.10433171 10.2734375 21.37109375 C9.30580087 24.83845834 8.55101114 27.06972808 6.0859375 29.74609375 C4.04883573 32.69637907 4.08795348 33.28920462 4.5234375 36.68359375 C4.7709375 37.90046875 5.0184375 39.11734375 5.2734375 40.37109375 C1.13568093 36.3668132 0.15380852 34.10786011 -0.7265625 28.43359375 C-1.21906806 25.26693694 -1.71219197 22.41420533 -2.7265625 19.37109375 C-3.9640625 18.69046875 -3.9640625 18.69046875 -5.2265625 17.99609375 C-7.7265625 16.37109375 -7.7265625 16.37109375 -8.5390625 13.68359375 C-8.6009375 12.92046875 -8.6628125 12.15734375 -8.7265625 11.37109375 C-9.3865625 11.37109375 -10.0465625 11.37109375 -10.7265625 11.37109375 C-11.0565625 8.40109375 -11.3865625 5.43109375 -11.7265625 2.37109375 C-10.7365625 2.04109375 -9.7465625 1.71109375 -8.7265625 1.37109375 C-8.7265625 2.03109375 -8.7265625 2.69109375 -8.7265625 3.37109375 C-8.3965625 2.87609375 -8.0665625 2.38109375 -7.7265625 1.87109375 C-5.18887142 -0.03217456 -3.12120414 -0.09862541 0 0 Z " fill="#641009" transform="translate(18.7265625,31.62890625)"/>
<path d="M0 0 C2.31 0 4.62 0 7 0 C7 3.63 7 7.26 7 11 C6.01 11.33 5.02 11.66 4 12 C3.690625 12.928125 3.38125 13.85625 3.0625 14.8125 C1.91758585 18.24724246 0.78136866 19.74013796 -2 22 C-2.66 22 -3.32 22 -4 22 C-4.33 21.34 -4.66 20.68 -5 20 C-5.8971875 20.2475 -5.8971875 20.2475 -6.8125 20.5 C-9 21 -9 21 -12 21 C-13.6875 19.625 -13.6875 19.625 -15 18 C-15 17.34 -15 16.68 -15 16 C-16.32 15.34 -17.64 14.68 -19 14 C-18.16607751 10.87279065 -17.45564406 8.52314688 -15.3125 6.0625 C-12.0161274 4.54795043 -9.5310327 5.44246852 -6 6 C-3.13930698 5.47458333 -3.13930698 5.47458333 -1 4 C-0.11306697 1.95894361 -0.11306697 1.95894361 0 0 Z " fill="#88100E" transform="translate(73,26)"/>
<path d="M0 0 C0.66 0 1.32 0 2 0 C2.103125 0.61875 2.20625 1.2375 2.3125 1.875 C2.87525373 4.36526484 2.87525373 4.36526484 6 6 C5.690625 6.556875 5.38125 7.11375 5.0625 7.6875 C3.91514561 9.94182209 3.91514561 9.94182209 3.5546875 12.32421875 C2.9813558 15.08993857 2.12224788 17.50962222 1.0625 20.125 C0.72347656 20.97320312 0.38445313 21.82140625 0.03515625 22.6953125 C-1 25 -1 25 -3 28 C-3.99 28 -4.98 28 -6 28 C-6.103125 27.01 -6.20625 26.02 -6.3125 25 C-6.95291859 20.80739297 -7.63599017 16.5922854 -10 13 C-13.54863159 11.38864654 -13.54863159 11.38864654 -17 11 C-17 9.35 -17 7.7 -17 6 C-15.68 5.67 -14.36 5.34 -13 5 C-13 6.32 -13 7.64 -13 9 C-12.34 8.67 -11.68 8.34 -11 8 C-11.33 7.01 -11.66 6.02 -12 5 C-10.75 3.4375 -10.75 3.4375 -9 2 C-7.0625 2.25 -7.0625 2.25 -5 3 C-4.2575 3.185625 -3.515 3.37125 -2.75 3.5625 C-1.88375 3.7790625 -1.88375 3.7790625 -1 4 C-0.87625 4.639375 -0.7525 5.27875 -0.625 5.9375 C-0.41875 6.618125 -0.2125 7.29875 0 8 C0.66 8.33 1.32 8.66 2 9 C0.92598892 6.08482708 0.22189824 4.22189824 -2 2 C-1.34 1.34 -0.68 0.68 0 0 Z " fill="#A65123" transform="translate(51,38)"/>
<path d="M0 0 C0 0.99 0 1.98 0 3 C-0.66 3 -1.32 3 -2 3 C-2 3.99 -2 4.98 -2 6 C-2.66 6 -3.32 6 -4 6 C-4 7.32 -4 8.64 -4 10 C-6.475 9.505 -6.475 9.505 -9 9 C-9 9.99 -9 10.98 -9 12 C-9.66 12 -10.32 12 -11 12 C-11.33 12.99 -11.66 13.98 -12 15 C-12.99 15.66 -13.98 16.32 -15 17 C-15.72382467 19.05925139 -15.72382467 19.05925139 -16 21 C-17.32 20.67 -18.64 20.34 -20 20 C-21.51708428 8.47835991 -21.51708428 8.47835991 -19 3 C-20.65 3 -22.3 3 -24 3 C-24 2.34 -24 1.68 -24 1 C-17.54621577 -2.93523429 -6.87243693 -3.43621847 0 0 Z " fill="#40AB9C" transform="translate(50,10)"/>
<path d="M0 0 C1 3 1 3 1 5 C3.99613135 4.29014897 3.99613135 4.29014897 5.375 2.375 C5.91125 1.92125 6.4475 1.4675 7 1 C9.6875 1.3125 9.6875 1.3125 12 2 C11.67 2.99 11.34 3.98 11 5 C14.65456815 5.75241109 18.31733897 6.40049704 22 7 C21.54625 7.37125 21.0925 7.7425 20.625 8.125 C18.52970606 10.54264685 17.87986715 12.95430602 17 16 C18.32 17.32 19.64 18.64 21 20 C18 20 18 20 15 18 C15 16.68 15 15.36 15 14 C14.01 14.66 13.02 15.32 12 16 C12.495 16.78375 12.99 17.5675 13.5 18.375 C15 21 15 21 15 23 C14.01 22.67 13.02 22.34 12 22 C12 20.68 12 19.36 12 18 C8.7 17.67 5.4 17.34 2 17 C2.33 18.98 2.66 20.96 3 23 C2.01 23 1.02 23 0 23 C0 21.68 0 20.36 0 19 C-0.66 18.67 -1.32 18.34 -2 18 C-1.77183594 17.39671875 -1.54367188 16.7934375 -1.30859375 16.171875 C-1.02113281 15.37265625 -0.73367187 14.5734375 -0.4375 13.75 C-0.14746094 12.96109375 0.14257812 12.1721875 0.44140625 11.359375 C1.04522837 8.80896548 0.8473932 7.44677771 0 5 C-1.32 5 -2.64 5 -4 5 C-2.25 1.125 -2.25 1.125 0 0 Z " fill="#B2B07F" transform="translate(38,24)"/>
<path d="M0 0 C0 6.27 0 12.54 0 19 C-2.31 19 -4.62 19 -7 19 C-7.061875 19.78375 -7.12375 20.5675 -7.1875 21.375 C-8 24 -8 24 -10.25 25.375 C-13.27764377 26.06310086 -15.06630178 25.97789941 -18 25 C-18.33 24.34 -18.66 23.68 -19 23 C-18 21 -18 21 -15 20 C-14.67 19.01 -14.34 18.02 -14 17 C-13.34 17 -12.68 17 -12 17 C-12 14.69 -12 12.38 -12 10 C-11.01 10 -10.02 10 -9 10 C-9 9.01 -9 8.02 -9 7 C-8.34 7 -7.68 7 -7 7 C-7 6.34 -7 5.68 -7 5 C-6.34 5 -5.68 5 -5 5 C-5 4.34 -5 3.68 -5 3 C-1.42307692 0 -1.42307692 0 0 0 Z " fill="#382383" transform="translate(80,7)"/>
<path d="M0 0 C0.99 0.33 1.98 0.66 3 1 C2.67 4.3 2.34 7.6 2 11 C3.32 11 4.64 11 6 11 C6 12.65 6 14.3 6 16 C10.29 16 14.58 16 19 16 C19.33 17.32 19.66 18.64 20 20 C16.37 19.34 12.74 18.68 9 18 C8.67 18.99 8.34 19.98 8 21 C6.68 21 5.36 21 4 21 C3.67 22.32 3.34 23.64 3 25 C0.0625 24.625 0.0625 24.625 -3 24 C-5.41262817 19.17474366 -4.42745271 12.30707522 -4 7 C-2.98006538 4.09608133 -1.90890046 2.44577872 0 0 Z " fill="#E18F10" transform="translate(4,14)"/>
<path d="M0 0 C0.99 0 1.98 0 3 0 C3 8.91 3 17.82 3 27 C1.35 26.34 -0.3 25.68 -2 25 C-2.14285714 16.42857143 -2.14285714 16.42857143 -1 13 C-1.66 13 -2.32 13 -3 13 C-3 13.99 -3 14.98 -3 16 C-4.32 16.33 -5.64 16.66 -7 17 C-7 16.34 -7 15.68 -7 15 C-7.66 15 -8.32 15 -9 15 C-9 14.01 -9 13.02 -9 12 C-12.11785113 12.64644661 -12.11785113 12.64644661 -13 15 C-13.66 15 -14.32 15 -15 15 C-15.33 13.35 -15.66 11.7 -16 10 C-13.64561267 8.57055055 -12.51967567 7.91338739 -9.75 8.375 C-9.1725 8.58125 -8.595 8.7875 -8 9 C-8 9.66 -8 10.32 -8 11 C-5.51751876 10.66334085 -5.51751876 10.66334085 -3 9 C-1.63924116 6.09244107 -0.78637041 3.10712212 0 0 Z " fill="#E9C29D" transform="translate(77,37)"/>
<path d="M0 0 C0.66 0.99 1.32 1.98 2 3 C1.01 3 0.02 3 -1 3 C-1 3.66 -1 4.32 -1 5 C0.32 5 1.64 5 3 5 C3 5.66 3 6.32 3 7 C3.99 6.67 4.98 6.34 6 6 C6 6.66 6 7.32 6 8 C5.34 8 4.68 8 4 8 C4 8.99 4 9.98 4 11 C1.69 11 -0.62 11 -3 11 C-3.33 12.32 -3.66 13.64 -4 15 C-5.98 15.33 -7.96 15.66 -10 16 C-10.33 16.99 -10.66 17.98 -11 19 C-11.99 19 -12.98 19 -14 19 C-15.04449911 15.86650268 -14.93423645 15.01031744 -14 12 C-13.34 12 -12.68 12 -12 12 C-12 11.01 -12 10.02 -12 9 C-10.35 9.33 -8.7 9.66 -7 10 C-7 8.68 -7 7.36 -7 6 C-6.34 6 -5.68 6 -5 6 C-5 5.01 -5 4.02 -5 3 C-2.5 1.3125 -2.5 1.3125 0 0 Z " fill="#D8E6BB" transform="translate(53,10)"/>
<path d="M0 0 C0.763125 0.20625 1.52625 0.4125 2.3125 0.625 C2.3125 1.285 2.3125 1.945 2.3125 2.625 C3.6325 2.955 4.9525 3.285 6.3125 3.625 C5.34486337 7.09236459 4.59007364 9.32363433 2.125 12 C0.08789823 14.95028532 0.12701598 15.54311087 0.5625 18.9375 C0.81 20.154375 1.0575 21.37125 1.3125 22.625 C-3.25091138 18.20879544 -3.97857463 15.19425998 -4.75 9 C-4.84087891 8.29359375 -4.93175781 7.5871875 -5.02539062 6.859375 C-5.24933119 5.1149959 -5.46883818 3.37004866 -5.6875 1.625 C-2.6875 -0.375 -2.6875 -0.375 0 0 Z " fill="#992A0F" transform="translate(22.6875,49.375)"/>
<path d="M0 0 C1.65 0 3.3 0 5 0 C5 1.65 5 3.3 5 5 C3.35 5 1.7 5 0 5 C0 6.98 0 8.96 0 11 C-1.216875 10.95875 -2.43375 10.9175 -3.6875 10.875 C-7.21623234 10.89376985 -9.94585622 11.05645396 -13 13 C-13.89386164 15.54775306 -13.89386164 15.54775306 -14 18 C-14.33 17.34 -14.66 16.68 -15 16 C-17.01669827 14.86649466 -17.01669827 14.86649466 -19 14 C-18.16607751 10.87279065 -17.45564406 8.52314688 -15.3125 6.0625 C-12.0161274 4.54795043 -9.5310327 5.44246852 -6 6 C-3.13930698 5.47458333 -3.13930698 5.47458333 -1 4 C-0.11306697 1.95894361 -0.11306697 1.95894361 0 0 Z " fill="#BF5F65" transform="translate(73,26)"/>
<path d="M0 0 C0.66 0 1.32 0 2 0 C2 0.66 2 1.32 2 2 C2.66 2.33 3.32 2.66 4 3 C3.67 3.66 3.34 4.32 3 5 C5.64 5 8.28 5 11 5 C10.67 6.32 10.34 7.64 10 9 C9.34 9 8.68 9 8 9 C7.67 9.99 7.34 10.98 7 12 C6.01 12.66 5.02 13.32 4 14 C3.27617533 16.05925139 3.27617533 16.05925139 3 18 C1.68 17.67 0.36 17.34 -1 17 C-2.51708428 5.47835991 -2.51708428 5.47835991 0 0 Z " fill="#3CAB7C" transform="translate(31,13)"/>
<path d="M0 0 C1.32 0 2.64 0 4 0 C5.77454813 3.82928808 6.14434835 5.50751738 4.9375 9.625 C2.95821886 13.07278005 1.32515567 14.86848996 -2 17 C-2.66 17 -3.32 17 -4 17 C-3.814375 16.29875 -3.62875 15.5975 -3.4375 14.875 C-2.94127685 11.61410499 -3.21895677 9.19517687 -4 6 C-4.66 5.34 -5.32 4.68 -6 4 C-5.34 4 -4.68 4 -4 4 C-4 3.34 -4 2.68 -4 2 C-2.68 2 -1.36 2 0 2 C0 1.34 0 0.68 0 0 Z " fill="#F2E5B0" transform="translate(34,29)"/>
<path d="M0 0 C4.07435961 0.6650587 7.63395842 2.48395645 11.2734375 4.37109375 C11.2734375 5.69109375 11.2734375 7.01109375 11.2734375 8.37109375 C9.6234375 9.03109375 7.9734375 9.69109375 6.2734375 10.37109375 C6.1703125 9.77296875 6.0671875 9.17484375 5.9609375 8.55859375 C5.14993108 5.97811877 4.41145639 5.01278683 2.2734375 3.37109375 C-0.02501039 3.22407108 -0.02501039 3.22407108 -2.4140625 3.68359375 C-3.22230469 3.80347656 -4.03054687 3.92335937 -4.86328125 4.046875 C-5.47816406 4.15386719 -6.09304687 4.26085938 -6.7265625 4.37109375 C-7.0565625 6.02109375 -7.3865625 7.67109375 -7.7265625 9.37109375 C-8.3865625 9.37109375 -9.0465625 9.37109375 -9.7265625 9.37109375 C-10.0565625 10.03109375 -10.3865625 10.69109375 -10.7265625 11.37109375 C-11.0565625 8.40109375 -11.3865625 5.43109375 -11.7265625 2.37109375 C-10.7365625 2.04109375 -9.7465625 1.71109375 -8.7265625 1.37109375 C-8.7265625 2.03109375 -8.7265625 2.69109375 -8.7265625 3.37109375 C-8.3965625 2.87609375 -8.0665625 2.38109375 -7.7265625 1.87109375 C-5.18887142 -0.03217456 -3.12120414 -0.09862541 0 0 Z " fill="#7A1D09" transform="translate(18.7265625,31.62890625)"/>
<path d="M0 0 C0.99 0 1.98 0 3 0 C3.33 0.66 3.66 1.32 4 2 C7.58646443 3.74199701 11.06693147 4.45119974 15 5 C14.01 5.495 14.01 5.495 13 6 C12.67 6.99 12.34 7.98 12 9 C10.68 9 9.36 9 8 9 C7.67 10.32 7.34 11.64 7 13 C4.0625 12.625 4.0625 12.625 1 12 C-0.26237731 9.47524538 -0.09856404 7.68799534 -0.0625 4.875 C-0.05347656 3.96492188 -0.04445312 3.05484375 -0.03515625 2.1171875 C-0.02355469 1.41851563 -0.01195312 0.71984375 0 0 Z " fill="#CA4407" transform="translate(0,26)"/>
<path d="M0 0 C2.97 1.98 2.97 1.98 6 4 C6.66 3.01 7.32 2.02 8 1 C8.66 1 9.32 1 10 1 C10 1.99 10 2.98 10 4 C10.66 4 11.32 4 12 4 C13 10.625 13 10.625 13 14 C12.34 14.66 11.68 15.32 11 16 C7.77204678 15.04033823 6.25871639 14.33900769 4.1875 11.625 C3 9 3 9 3 5 C2.01 5 1.02 5 0 5 C0 3.35 0 1.7 0 0 Z " fill="#E9DEA8" transform="translate(18,20)"/>
<path d="M0 0 C0 5.94 0 11.88 0 18 C-0.66 18 -1.32 18 -2 18 C-1.67 15.69 -1.34 13.38 -1 11 C-4.3 11 -7.6 11 -11 11 C-11 12.65 -11 14.3 -11 16 C-11.33 16 -11.66 16 -12 16 C-12 14.02 -12 12.04 -12 10 C-11.01 10 -10.02 10 -9 10 C-9 9.01 -9 8.02 -9 7 C-8.34 7 -7.68 7 -7 7 C-7 6.34 -7 5.68 -7 5 C-6.34 5 -5.68 5 -5 5 C-5 4.34 -5 3.68 -5 3 C-1.42307692 0 -1.42307692 0 0 0 Z " fill="#22567E" transform="translate(80,7)"/>
<path d="M0 0 C1.9375 0.25 1.9375 0.25 4 1 C4.7425 1.185625 5.485 1.37125 6.25 1.5625 C6.8275 1.706875 7.405 1.85125 8 2 C7.34 3.65 6.68 5.3 6 7 C1.38 7.66 -3.24 8.32 -8 9 C-8 7.35 -8 5.7 -8 4 C-6.68 3.67 -5.36 3.34 -4 3 C-4 4.32 -4 5.64 -4 7 C-3.34 6.67 -2.68 6.34 -2 6 C-2.33 5.01 -2.66 4.02 -3 3 C-1.75 1.4375 -1.75 1.4375 0 0 Z " fill="#E4A72C" transform="translate(42,40)"/>
<path d="M0 0 C0 0.33 0 0.66 0 1 C-1.65 1 -3.3 1 -5 1 C-5 1.66 -5 2.32 -5 3 C-4.34 3.33 -3.68 3.66 -3 4 C-3 5.32 -3 6.64 -3 8 C-4.98 8.99 -6.96 9.98 -9 11 C-10.5625 9.875 -10.5625 9.875 -12 8 C-11.6875 4.8125 -11.6875 4.8125 -11 2 C-11.99 1.67 -12.98 1.34 -14 1 C-8.83955235 -0.512545 -5.34001821 -1.33500455 0 0 Z " fill="#880601" transform="translate(71,37)"/>
<path d="M0 0 C0.99 0 1.98 0 3 0 C3 5.94 3 11.88 3 18 C0.525 17.01 0.525 17.01 -2 16 C-2.14285714 7.42857143 -2.14285714 7.42857143 -1 4 C-1.66 4 -2.32 4 -3 4 C-3 3.34 -3 2.68 -3 2 C-2.01 2 -1.02 2 0 2 C0 1.34 0 0.68 0 0 Z " fill="#EBD4A7" transform="translate(77,46)"/>
<path d="M0 0 C0.66 0.66 1.32 1.32 2 2 C1.625 5.125 1.625 5.125 1 8 C-0.32 8 -1.64 8 -3 8 C-3.33 9.65 -3.66 11.3 -4 13 C-5.31057393 13.36122881 -6.62353624 13.71380311 -7.9375 14.0625 C-8.66839844 14.25972656 -9.39929687 14.45695312 -10.15234375 14.66015625 C-10.76207031 14.77230469 -11.37179688 14.88445313 -12 15 C-13 14 -13 14 -13.0625 11.4375 C-13.041875 10.633125 -13.02125 9.82875 -13 9 C-9.71303767 8.20046862 -8.28976808 7.90341064 -5 9 C-5 8.01 -5 7.02 -5 6 C-3.02 5.67 -1.04 5.34 1 5 C0.67 3.35 0.34 1.7 0 0 Z " fill="#94CFAB" transform="translate(62,12)"/>
<path d="M0 0 C0.99 0.33 1.98 0.66 3 1 C3.25 3.8125 3.25 3.8125 3 7 C0.06955589 10.2820974 -3.81869715 11.02934041 -8 12 C-9.32 12 -10.64 12 -12 12 C-11.67 11.01 -11.34 10.02 -11 9 C-9.35 8.67 -7.7 8.34 -6 8 C-5.67 6.68 -5.34 5.36 -5 4 C-3.68 4 -2.36 4 -1 4 C-0.67 2.68 -0.34 1.36 0 0 Z " fill="#43B1BB" transform="translate(64,16)"/>
<path d="M0 0 C-0.33 2.31 -0.66 4.62 -1 7 C-1.66 7 -2.32 7 -3 7 C-3.33 6.01 -3.66 5.02 -4 4 C-6.01508358 3.26676204 -6.01508358 3.26676204 -8 3 C-8 4.32 -8 5.64 -8 7 C-8.66 7 -9.32 7 -10 7 C-10 7.66 -10 8.32 -10 9 C-13.46153846 12 -13.46153846 12 -16 12 C-16 11.34 -16 10.68 -16 10 C-15.34 9.67 -14.68 9.34 -14 9 C-13.67 8.01 -13.34 7.02 -13 6 C-12.34 5.67 -11.68 5.34 -11 5 C-10.34444881 2.47266765 -10.34444881 2.47266765 -10 0 C-6.30581799 -1.231394 -3.7943739 -0.64432764 0 0 Z " fill="#0C1E7F" transform="translate(79,18)"/>
<path d="M0 0 C1.32 0 2.64 0 4 0 C4 0.66 4 1.32 4 2 C5.32 2.33 6.64 2.66 8 3 C5.75470565 6.36794152 4.68407814 6.71057265 1 8 C0.01 8.495 0.01 8.495 -1 9 C-1 7.35 -1 5.7 -1 4 C-1.66 3.67 -2.32 3.34 -3 3 C-3.28875 3.598125 -3.5775 4.19625 -3.875 4.8125 C-5 7 -5 7 -7 10 C-7 7.36 -7 4.72 -7 2 C-4.69 2 -2.38 2 0 2 C0 1.34 0 0.68 0 0 Z " fill="#E7A216" transform="translate(7,11)"/>
<path d="M0 0 C1.98 0 3.96 0 6 0 C4.125 5.75 4.125 5.75 3 8 C2.34 8 1.68 8 1 8 C1.33 8.99 1.66 9.98 2 11 C1.34 11 0.68 11 0 11 C0.33 12.98 0.66 14.96 1 17 C0.01 17 -0.98 17 -2 17 C-2 15.68 -2 14.36 -2 13 C-2.66 12.67 -3.32 12.34 -4 12 C-2.66666667 8 -1.33333333 4 0 0 Z " fill="#E2BA59" transform="translate(40,30)"/>
<path d="M0 0 C1.98 0 3.96 0 6 0 C5.53898164 4.70238725 4.96823597 8.23262357 2 12 C1.01 12 0.02 12 -1 12 C-1.14285714 3.42857143 -1.14285714 3.42857143 0 0 Z " fill="#9E341B" transform="translate(46,54)"/>
<path d="M0 0 C0 0.33 0 0.66 0 1 C-3.63 1 -7.26 1 -11 1 C-11 1.66 -11 2.32 -11 3 C-9.68 3.33 -8.36 3.66 -7 4 C-9.90600261 5.25664978 -11.79604584 6 -15 6 C-15 5.34 -15 4.68 -15 4 C-17.31 4 -19.62 4 -22 4 C-22 3.34 -22 2.68 -22 2 C-15.03679985 -2.24585375 -7.75734949 -0.82864866 0 0 Z " fill="#57BC9D" transform="translate(48,9)"/>
<path d="M0 0 C0.66 0 1.32 0 2 0 C2 3.63 2 7.26 2 11 C1.01 11.33 0.02 11.66 -1 12 C-2.20882096 14.00016466 -2.20882096 14.00016466 -3 16 C-3.53229326 14.73392393 -4.05044544 13.46189588 -4.5625 12.1875 C-4.85253906 11.47980469 -5.14257812 10.77210937 -5.44140625 10.04296875 C-6 8 -6 8 -5 5 C-3.35 5 -1.7 5 0 5 C0 3.35 0 1.7 0 0 Z " fill="#98201F" transform="translate(78,26)"/>
<path d="M0 0 C1.5 1.3125 1.5 1.3125 3 3 C3 3.99 3 4.98 3 6 C-3.20107925 8.42650927 -7.63392191 7.66517133 -14 6 C-14 5.34 -14 4.68 -14 4 C-13.07316406 3.87882812 -12.14632812 3.75765625 -11.19140625 3.6328125 C-9.99386719 3.46523438 -8.79632813 3.29765625 -7.5625 3.125 C-6.36753906 2.96257813 -5.17257813 2.80015625 -3.94140625 2.6328125 C-2.97074219 2.42398438 -2.00007813 2.21515625 -1 2 C-0.67 1.34 -0.34 0.68 0 0 Z " fill="#9E300B" transform="translate(49,44)"/>
<path d="M0 0 C2.31 0 4.62 0 7 0 C6.6875 1.875 6.6875 1.875 6 4 C5.01 4.66 4.02 5.32 3 6 C2.27617533 8.05925139 2.27617533 8.05925139 2 10 C0.68 9.67 -0.64 9.34 -2 9 C-2 6.69 -2 4.38 -2 2 C-1.34 2 -0.68 2 0 2 C0 1.34 0 0.68 0 0 Z " fill="#187A4F" transform="translate(32,21)"/>
<path d="M0 0 C2.25 -0.25 2.25 -0.25 5 0 C7.3125 2 7.3125 2 9 4 C8.34 4 7.68 4 7 4 C7 4.99 7 5.98 7 7 C6.01 7 5.02 7 4 7 C4 8.98 4 10.96 4 13 C3.67 13 3.34 13 3 13 C2.896875 12.071875 2.79375 11.14375 2.6875 10.1875 C2.30353458 7.00988252 2.30353458 7.00988252 0.375 5.375 C-0.07875 4.92125 -0.5325 4.4675 -1 4 C-0.6875 1.8125 -0.6875 1.8125 0 0 Z " fill="#4097A8" transform="translate(64,10)"/>
<path d="M0 0 C0.99 0.33 1.98 0.66 3 1 C3 1.66 3 2.32 3 3 C3.99 3.33 4.98 3.66 6 4 C6 5.65 6 7.3 6 9 C5.01 9.33 4.02 9.66 3 10 C3 9.01 3 8.02 3 7 C2.01 7.66 1.02 8.32 0 9 C-1.32 9 -2.64 9 -4 9 C-3.6875 7.0625 -3.6875 7.0625 -3 5 C-2.01 4.67 -1.02 4.34 0 4 C0 2.68 0 1.36 0 0 Z " fill="#520302" transform="translate(19,34)"/>
<path d="M0 0 C2.31 0.33 4.62 0.66 7 1 C7.12375 1.53625 7.2475 2.0725 7.375 2.625 C8.12206016 5.4638286 9.05303364 8.22223202 10 11 C9.01 10.67 8.02 10.34 7 10 C7 8.68 7 7.36 7 6 C6.2575 5.855625 5.515 5.71125 4.75 5.5625 C2.47972261 5.09812508 0.24240521 4.58136431 -2 4 C-2 3.34 -2 2.68 -2 2 C-1.34 2 -0.68 2 0 2 C0 1.34 0 0.68 0 0 Z " fill="#E5BD7E" transform="translate(43,36)"/>
<path d="M0 0 C0.598125 0.20625 1.19625 0.4125 1.8125 0.625 C0.1625 0.955 -1.4875 1.285 -3.1875 1.625 C-2.836875 2.65625 -2.48625 3.6875 -2.125 4.75 C-1.19236377 8.6048964 -1.26109079 10.82672226 -2.1875 14.625 C-1.5275 14.625 -0.8675 14.625 -0.1875 14.625 C1.9375 19.25 1.9375 19.25 0.8125 22.625 C-2.64562266 18.11257164 -3.90765214 14.44586447 -4.4375 8.75 C-4.51484375 8.06164063 -4.5921875 7.37328125 -4.671875 6.6640625 C-4.85833402 4.98593135 -5.02499729 3.30562012 -5.1875 1.625 C-2.1875 -0.375 -2.1875 -0.375 0 0 Z " fill="#8F5D39" transform="translate(22.1875,49.375)"/>
<path d="M0 0 C0 0.66 0 1.32 0 2 C0.66 2.33 1.32 2.66 2 3 C1.67 3.66 1.34 4.32 1 5 C1.66 5 2.32 5 3 5 C3.33 4.34 3.66 3.68 4 3 C3.67 4.65 3.34 6.3 3 8 C2.34 8 1.68 8 1 8 C1 7.34 1 6.68 1 6 C0.34 6 -0.32 6 -1 6 C-1 5.01 -1 4.02 -1 3 C-4.11785113 3.64644661 -4.11785113 3.64644661 -5 6 C-5.66 6 -6.32 6 -7 6 C-7.33 4.35 -7.66 2.7 -8 1 C-4.93251126 -0.86240388 -3.40254489 -1.2151946 0 0 Z " fill="#C6A481" transform="translate(69,46)"/>
<path d="M0 0 C2.97 1.98 2.97 1.98 6 4 C6.99 3.01 7.98 2.02 9 1 C8.67 2.98 8.34 4.96 8 7 C7.01 7 6.02 7 5 7 C6.32 9.31 7.64 11.62 9 14 C8.01 14 7.02 14 6 14 C3.50022457 10.66696609 3 9.26696398 3 5 C2.01 5 1.02 5 0 5 C0 3.35 0 1.7 0 0 Z " fill="#F1CC6C" transform="translate(18,20)"/>
<path d="M0 0 C1 3 1 3 1 5 C3.99383194 4.2804095 3.99383194 4.2804095 5.4375 2.375 C6.2109375 1.694375 6.2109375 1.694375 7 1 C9.1875 1.3125 9.1875 1.3125 11 2 C10.01 2.33 9.02 2.66 8 3 C8 3.99 8 4.98 8 6 C6.02 6 4.04 6 2 6 C1.67 6.66 1.34 7.32 1 8 C0.67 7.01 0.34 6.02 0 5 C-1.32 5 -2.64 5 -4 5 C-2.25 1.125 -2.25 1.125 0 0 Z " fill="#CEC78C" transform="translate(38,24)"/>
<path d="M0 0 C0.24042276 4.08718695 -0.57741188 7.17679443 -2 11 C-3.4606285 8.35261084 -4 7.10551666 -4 4 C-5.65 4 -7.3 4 -9 4 C-9.33 3.01 -9.66 2.02 -10 1 C-6.61981469 -0.04005702 -3.5219721 -0.08004482 0 0 Z " fill="#D2C96F" transform="translate(31,13)"/>
<path d="M0 0 C0.33 1.65 0.66 3.3 1 5 C-3.08443115 6.53166168 -6.79455657 5.63081652 -11 5 C-11 4.01 -11 3.02 -11 2 C-10.236875 1.855625 -9.47375 1.71125 -8.6875 1.5625 C-1.22222222 0 -1.22222222 0 0 0 Z " fill="#E7A826" transform="translate(21,25)"/>
<path d="M0 0 C0 0.66 0 1.32 0 2 C-1.134375 2.391875 -2.26875 2.78375 -3.4375 3.1875 C-7.20339051 4.58610882 -7.20339051 4.58610882 -7.9375 7.6875 C-7.958125 8.450625 -7.97875 9.21375 -8 10 C-8.33 9.34 -8.66 8.68 -9 8 C-11.01669827 6.86649466 -11.01669827 6.86649466 -13 6 C-12.67 5.01 -12.34 4.02 -12 3 C-10.68 3 -9.36 3 -8 3 C-8 2.34 -8 1.68 -8 1 C-5.23735711 0.40267181 -2.83967231 0 0 0 Z " fill="#AD413C" transform="translate(67,34)"/>
<path d="M0 0 C2.97 0.495 2.97 0.495 6 1 C6.12375 1.7425 6.2475 2.485 6.375 3.25 C7.3336917 7.46824347 8.80027139 10.09115581 12 13 C9 13 9 13 6 11 C6 9.68 6 8.36 6 7 C5.01 7.33 4.02 7.66 3 8 C3.33 6.68 3.66 5.36 4 4 C3.34 4 2.68 4 2 4 C2 3.34 2 2.68 2 2 C1.34 2 0.68 2 0 2 C0 1.34 0 0.68 0 0 Z " fill="#C3B18D" transform="translate(47,31)"/>
<path d="M0 0 C2 2 2 2 2 6 C2.66 6.33 3.32 6.66 4 7 C3.34 8.32 2.68 9.64 2 11 C0.68 10.01 -0.64 9.02 -2 8 C-1.67 6.02 -1.34 4.04 -1 2 C-1.99 1.67 -2.98 1.34 -4 1 C-2.125 0.375 -2.125 0.375 0 0 Z " fill="#A11813" transform="translate(61,37)"/>
<path d="M0 0 C-0.28875 0.556875 -0.5775 1.11375 -0.875 1.6875 C-2.0413253 4.08494645 -3.0339881 6.51596939 -4 9 C-4.66 9 -5.32 9 -6 9 C-6.33 9.66 -6.66 10.32 -7 11 C-7.33 8.03 -7.66 5.06 -8 2 C-7.01 1.67 -6.02 1.34 -5 1 C-5 1.66 -5 2.32 -5 3 C-4.54625 2.505 -4.0925 2.01 -3.625 1.5 C-2 0 -2 0 0 0 Z " fill="#941905" transform="translate(15,32)"/>
<path d="M0 0 C4.455 0.99 4.455 0.99 9 2 C8.01 2.99 7.02 3.98 6 5 C4.82425289 7.09989652 4.82425289 7.09989652 4 9 C3.01 8.34 2.02 7.68 1 7 C0.3125 3.375 0.3125 3.375 0 0 Z " fill="#AF9F90" transform="translate(51,29)"/>
<path d="M0 0 C2.25 -0.3125 2.25 -0.3125 5 0 C7.3125 2.5 7.3125 2.5 9 5 C5.25838897 5 1.71046443 4.48661829 -2 4 C-1.34 2.68 -0.68 1.36 0 0 Z " fill="#13907C" transform="translate(36,14)"/>
<path d="M0 0 C0.66 0 1.32 0 2 0 C2 3.3 2 6.6 2 10 C-0.475 9.01 -0.475 9.01 -3 8 C-2.37240135 5.07120629 -1.41377341 2.63904371 0 0 Z " fill="#8F4E29" transform="translate(78,54)"/>
<path d="M0 0 C0 0.66 0 1.32 0 2 C-4.455 2.495 -4.455 2.495 -9 3 C-9 3.66 -9 4.32 -9 5 C-9.99 5 -10.98 5 -12 5 C-11.6875 3.125 -11.6875 3.125 -11 1 C-6.8204355 -1.78637633 -4.85331323 -0.79562512 0 0 Z " fill="#915B67" transform="translate(68,32)"/>
<path d="M0 0 C-1.375 1.5 -1.375 1.5 -3 3 C-3.66 3 -4.32 3 -5 3 C-5.33 3.99 -5.66 4.98 -6 6 C-6.99 6 -7.98 6 -9 6 C-9.33 5.01 -9.66 4.02 -10 3 C-8.0130571 -0.97388579 -3.91761109 -0.08705802 0 0 Z " fill="#F3EAB3" transform="translate(48,23)"/>
<path d="M0 0 C1.32 0.33 2.64 0.66 4 1 C3.01 1.33 2.02 1.66 1 2 C1.33 3.65 1.66 5.3 2 7 C1.34 7 0.68 7 0 7 C0 7.66 0 8.32 0 9 C-3.46153846 12 -3.46153846 12 -6 12 C-6 11.34 -6 10.68 -6 10 C-5.34 9.67 -4.68 9.34 -4 9 C-3.67 8.01 -3.34 7.02 -3 6 C-2.34 5.67 -1.68 5.34 -1 5 C-0.34444881 2.47266765 -0.34444881 2.47266765 0 0 Z " fill="#052271" transform="translate(69,18)"/>
<path d="M0 0 C1.98 0 3.96 0 6 0 C5.25 4.75 5.25 4.75 3 7 C2.01 6.34 1.02 5.68 0 5 C-0.1875 2.375 -0.1875 2.375 0 0 Z " fill="#ECA716" transform="translate(21,18)"/>
<path d="M0 0 C0 0.33 0 0.66 0 1 C-5.94 1.33 -11.88 1.66 -18 2 C-18 2.66 -18 3.32 -18 4 C-19.32 4 -20.64 4 -22 4 C-22 3.34 -22 2.68 -22 2 C-15.03679985 -2.24585375 -7.75734949 -0.82864866 0 0 Z " fill="#76AA83" transform="translate(48,9)"/>
<path d="M0 0 C0.33 0 0.66 0 1 0 C1 1.65 1 3.3 1 5 C5.29 5 9.58 5 14 5 C14.33 6.32 14.66 7.64 15 9 C10.05 8.01 5.1 7.02 0 6 C0 4.02 0 2.04 0 0 Z " fill="#CF8116" transform="translate(9,25)"/>
<path d="M0 0 C4.29 0 8.58 0 13 0 C13 0.66 13 1.32 13 2 C12.01 2 11.02 2 10 2 C10 2.66 10 3.32 10 4 C9.34 4 8.68 4 8 4 C8 3.34 8 2.68 8 2 C5.36 2 2.72 2 0 2 C0 1.34 0 0.68 0 0 Z " fill="#20857D" transform="translate(37,10)"/>
<path d="M0 0 C2 2 2 2 2 5 C1.01 5 0.02 5 -1 5 C-1 6.65 -1 8.3 -1 10 C-2.33333333 9.33333333 -3.66666667 8.66666667 -5 8 C-4.34 6.35 -3.68 4.7 -3 3 C-2.34 3 -1.68 3 -1 3 C-0.67 2.01 -0.34 1.02 0 0 Z " fill="#D1B798" transform="translate(75,43)"/>
<path d="M0 0 C1.98 0 3.96 0 6 0 C4.77065985 3.68802044 3.06140622 4.72356973 0 7 C-1.04449911 3.86650268 -0.93423645 3.01031744 0 0 Z " fill="#982802" transform="translate(46,54)"/>
<path d="M0 0 C0.66 0 1.32 0 2 0 C2.103125 0.61875 2.20625 1.2375 2.3125 1.875 C2.87525373 4.36526484 2.87525373 4.36526484 6 6 C5.67 6.99 5.34 7.98 5 9 C3.0625 8.1875 3.0625 8.1875 1 7 C0.67 6.01 0.34 5.02 0 4 C-0.66 3.34 -1.32 2.68 -2 2 C-1.34 1.34 -0.68 0.68 0 0 Z " fill="#824427" transform="translate(51,38)"/>
<path d="M0 0 C0.61875 0.825 1.2375 1.65 1.875 2.5 C2.57625 3.325 3.2775 4.15 4 5 C4.66 5 5.32 5 6 5 C6.33 6.32 6.66 7.64 7 9 C4.0625 8.625 4.0625 8.625 1 8 C-0.35439668 5.29120665 -0.06501451 2.99066732 0 0 Z " fill="#BF4516" transform="translate(0,30)"/>
<path d="M0 0 C1.24546405 2.49092811 0.7767578 3.41080733 0 6 C-2.31 6.66 -4.62 7.32 -7 8 C-7 6.35 -7 4.7 -7 3 C-4.83125748 3.50603992 -3.00032373 3.99983813 -1 5 C-0.67 3.35 -0.34 1.7 0 0 Z " fill="#DAAD8F" transform="translate(25,42)"/>
<path d="M0 0 C1.98 0 3.96 0 6 0 C5.34 1.65 4.68 3.3 4 5 C2.35 5 0.7 5 -1 5 C-0.67 3.35 -0.34 1.7 0 0 Z " fill="#D28819" transform="translate(44,42)"/>
<path d="M0 0 C2.97 0 5.94 0 9 0 C9 1.65 9 3.3 9 5 C7.02 4.34 5.04 3.68 3 3 C3 2.34 3 1.68 3 1 C2.01 0.67 1.02 0.34 0 0 Z " fill="#DE800C" transform="translate(0,25)"/>
<path d="M0 0 C0.33 0.66 0.66 1.32 1 2 C3.02463255 2.65213292 3.02463255 2.65213292 5 3 C4.34 4.98 3.68 6.96 3 9 C0 7 0 7 -0.75 4.5 C-1 2 -1 2 0 0 Z " fill="#B03E21" transform="translate(24,50)"/>
<path d="M0 0 C0.99 0.33 1.98 0.66 3 1 C3 2.98 3 4.96 3 7 C1.02 6.34 -0.96 5.68 -3 5 C-2.34 4.67 -1.68 4.34 -1 4 C-0.34786708 1.97536745 -0.34786708 1.97536745 0 0 Z " fill="#771E14" transform="translate(15,44)"/>
<path d="M0 0 C0.33 1.32 0.66 2.64 1 4 C-3.455 5.485 -3.455 5.485 -8 7 C-7.34 5.35 -6.68 3.7 -6 2 C-4.02 2 -2.04 2 0 2 C0 1.34 0 0.68 0 0 Z " fill="#63C1AD" transform="translate(58,20)"/>
<path d="M0 0 C0.66 0.66 1.32 1.32 2 2 C1.67028521 5.29714793 1.3773161 6.6226839 -1 9 C-1.66 8.34 -2.32 7.68 -3 7 C-3 6.01 -3 5.02 -3 4 C-2.34 4 -1.68 4 -1 4 C-0.67 2.68 -0.34 1.36 0 0 Z " fill="#AC6137" transform="translate(53,46)"/>
<path d="M0 0 C0.99 0 1.98 0 3 0 C3 1.32 3 2.64 3 4 C4.65 4 6.3 4 8 4 C8 4.33 8 4.66 8 5 C3.545 5.495 3.545 5.495 -1 6 C-1.042721 4.33388095 -1.04063832 2.66617115 -1 1 C-0.67 0.67 -0.34 0.34 0 0 Z " fill="#C1782C" transform="translate(35,43)"/>
<path d="M0 0 C0.66 0 1.32 0 2 0 C2 3.63 2 7.26 2 11 C1.34 11 0.68 11 0 11 C-1.37432457 7.18243176 -0.67975039 3.92744671 0 0 Z " fill="#A41A26" transform="translate(78,26)"/>
<path d="M0 0 C0.66 0.99 1.32 1.98 2 3 C1.01 3 0.02 3 -1 3 C-1.66 5.64 -2.32 8.28 -3 11 C-3.33 11 -3.66 11 -4 11 C-4.33 8.36 -4.66 5.72 -5 3 C-3.35 2.01 -1.7 1.02 0 0 Z " fill="#DDE2B9" transform="translate(53,10)"/>
<path d="M0 0 C1.32 0.33 2.64 0.66 4 1 C3.484375 1.391875 2.96875 1.78375 2.4375 2.1875 C1.963125 2.785625 1.48875 3.38375 1 4 C1.23043864 6.65466049 1.23043864 6.65466049 2 9 C0.0625 8.625 0.0625 8.625 -2 8 C-2.33 7.34 -2.66 6.68 -3 6 C-2.34 6 -1.68 6 -1 6 C-0.67 4.02 -0.34 2.04 0 0 Z " fill="#F8E2B1" transform="translate(26,42)"/>
<path d="M0 0 C1.875 0.3125 1.875 0.3125 4 1 C4.66 1.99 5.32 2.98 6 4 C4.35 4.66 2.7 5.32 1 6 C0.67 4.02 0.34 2.04 0 0 Z " fill="#AC2521" transform="translate(68,42)"/>
<path d="M0 0 C0.598125 0.20625 1.19625 0.4125 1.8125 0.625 C0.1625 0.955 -1.4875 1.285 -3.1875 1.625 C-2.5275 3.935 -1.8675 6.245 -1.1875 8.625 C-2.1775 8.295 -3.1675 7.965 -4.1875 7.625 C-4.5175 5.645 -4.8475 3.665 -5.1875 1.625 C-2.1875 -0.375 -2.1875 -0.375 0 0 Z " fill="#874421" transform="translate(22.1875,49.375)"/>
<path d="M0 0 C0.66 1.32 1.32 2.64 2 4 C-3.41538462 6.21538462 -3.41538462 6.21538462 -6.375 5.125 C-6.91125 4.75375 -7.4475 4.3825 -8 4 C-6.865625 3.71125 -5.73125 3.4225 -4.5625 3.125 C-3.386875 2.75375 -2.21125 2.3825 -1 2 C-0.67 1.34 -0.34 0.68 0 0 Z " fill="#B74806" transform="translate(49,44)"/>
<path d="M0 0 C1.65 0 3.3 0 5 0 C5 0.66 5 1.32 5 2 C5.66 2 6.32 2 7 2 C7 2.66 7 3.32 7 4 C4.69 3.67 2.38 3.34 0 3 C0 2.01 0 1.02 0 0 Z " fill="#8BC895" transform="translate(44,33)"/>
<path d="M0 0 C0.66 0.66 1.32 1.32 2 2 C1.625 5.125 1.625 5.125 1 8 C-0.65 8 -2.3 8 -4 8 C-3.67 7.01 -3.34 6.02 -3 5 C-1.68 5 -0.36 5 1 5 C0.67 3.35 0.34 1.7 0 0 Z " fill="#88B7A5" transform="translate(62,12)"/>
<path d="M0 0 C0 0.33 0 0.66 0 1 C-1.98 1 -3.96 1 -6 1 C-6 1.66 -6 2.32 -6 3 C-8.31 3 -10.62 3 -13 3 C-9.21656826 -0.94792877 -5.07874402 -0.29300446 0 0 Z " fill="#E3B45A" transform="translate(13,10)"/>
<path d="M0 0 C0.66 0 1.32 0 2 0 C2 0.66 2 1.32 2 2 C2.66 2.33 3.32 2.66 4 3 C2.71937515 4.7074998 1.38232443 6.37373596 0 8 C-0.66 8 -1.32 8 -2 8 C-1.34 5.36 -0.68 2.72 0 0 Z " fill="#65A26E" transform="translate(31,13)"/>
<path d="M0 0 C1.32 0 2.64 0 4 0 C3.40072174 3.35595828 2.15377564 5.37801226 0 8 C0 5.36 0 2.72 0 0 Z " fill="#E9A62E" transform="translate(0,13)"/>
<path d="M0 0 C0.66 0 1.32 0 2 0 C2 0.99 2 1.98 2 3 C2.66 3 3.32 3 4 3 C4 3.66 4 4.32 4 5 C5.32 4.67 6.64 4.34 8 4 C7.01 4.99 6.02 5.98 5 7 C3.0625 6.3125 3.0625 6.3125 1 5 C0.25 2.375 0.25 2.375 0 0 Z " fill="#E6E2BA" transform="translate(66,49)"/>
<path d="M0 0 C2.31 0.33 4.62 0.66 7 1 C7 1.66 7 2.32 7 3 C4.36 3 1.72 3 -1 3 C-0.67 2.01 -0.34 1.02 0 0 Z " fill="#E5E8B2" transform="translate(43,36)"/>
<path d="M0 0 C0.33 0 0.66 0 1 0 C1.19622241 4.21878192 0.80230168 7.17010894 -1 11 C-2.5 9.625 -2.5 9.625 -4 8 C-4 7.34 -4 6.68 -4 6 C-3.01 6 -2.02 6 -1 6 C-0.67 4.02 -0.34 2.04 0 0 Z " fill="#F9E6A1" transform="translate(27,21)"/>
<path d="M0 0 C1.98 0.99 1.98 0.99 4 2 C3.67 3.32 3.34 4.64 3 6 C2.01 6 1.02 6 0 6 C0 4.02 0 2.04 0 0 Z " fill="#601208" transform="translate(20,58)"/>
<path d="M0 0 C1.32 0.66 2.64 1.32 4 2 C3.01 2.495 3.01 2.495 2 3 C1.34786708 5.02463255 1.34786708 5.02463255 1 7 C-0.0625 5.1875 -0.0625 5.1875 -1 3 C-0.67 2.01 -0.34 1.02 0 0 Z " fill="#D3C08D" transform="translate(76,51)"/>
<path d="M0 0 C0 0.33 0 0.66 0 1 C-1.65 1 -3.3 1 -5 1 C-5 1.66 -5 2.32 -5 3 C-6.32 2.67 -7.64 2.34 -9 2 C-9 1.34 -9 0.68 -9 0 C-5.52176885 -1.15941038 -3.54104422 -0.70820884 0 0 Z " fill="#660503" transform="translate(71,37)"/>
<path d="M0 0 C1.98 0 3.96 0 6 0 C5.67 0.99 5.34 1.98 5 3 C3.02 3 1.04 3 -1 3 C-0.67 2.01 -0.34 1.02 0 0 Z " fill="#CBA84A" transform="translate(40,30)"/>
<path d="M0 0 C1.32 0 2.64 0 4 0 C4.33 0.99 4.66 1.98 5 3 C4.01 3.66 3.02 4.32 2 5 C1.34 4.67 0.68 4.34 0 4 C0 2.68 0 1.36 0 0 Z " fill="#F6F0B9" transform="translate(34,29)"/>
<path d="M0 0 C0.99 0.33 1.98 0.66 3 1 C3.33 2.65 3.66 4.3 4 6 C2.68 5.67 1.36 5.34 0 5 C0 3.35 0 1.7 0 0 Z " fill="#5D934E" transform="translate(30,25)"/>
<path d="M0 0 C1.98 0 3.96 0 6 0 C6 1.32 6 2.64 6 4 C4.35 4 2.7 4 1 4 C0.67 2.68 0.34 1.36 0 0 Z " fill="#1877A5" transform="translate(74,13)"/>
<path d="M0 0 C1.65 0 3.3 0 5 0 C5.33 0.99 5.66 1.98 6 3 C4.824375 2.9690625 4.824375 2.9690625 3.625 2.9375 C1.01885039 2.81315937 1.01885039 2.81315937 -1 4 C-0.67 2.68 -0.34 1.36 0 0 Z " fill="#2C5B6F" transform="translate(64,10)"/>
<path d="M0 0 C0.33 0.99 0.66 1.98 1 3 C1.99 2.67 2.98 2.34 4 2 C3.67 3.65 3.34 5.3 3 7 C1.68 6.01 0.36 5.02 -1 4 C-0.67 2.68 -0.34 1.36 0 0 Z " fill="#871707" transform="translate(22,54)"/>
<path d="M0 0 C0.99 0 1.98 0 3 0 C2.6875 1.875 2.6875 1.875 2 4 C1.01 4.66 0.02 5.32 -1 6 C-1.042721 4.33388095 -1.04063832 2.66617115 -1 1 C-0.67 0.67 -0.34 0.34 0 0 Z " fill="#F7DDAE" transform="translate(57,45)"/>
<path d="M0 0 C4.455 0.99 4.455 0.99 9 2 C8.67 2.66 8.34 3.32 8 4 C6.68 3.67 5.36 3.34 4 3 C3.67 3.66 3.34 4.32 3 5 C2.01 3.35 1.02 1.7 0 0 Z " fill="#838E93" transform="translate(51,29)"/>
</svg>
