<?xml version="1.0" encoding="UTF-8"?>
<svg version="1.1" xmlns="http://www.w3.org/2000/svg" width="80" height="80">
<path d="M0 0 C26.4 0 52.8 0 80 0 C80 26.4 80 52.8 80 80 C53.6 80 27.2 80 0 80 C0 53.6 0 27.2 0 0 Z " fill="#163636" transform="translate(0,0)"/>
<path d="M0 0 C9.9 0 19.8 0 30 0 C27.87266468 1.59550149 25.7295634 3.17578379 23.5 4.625 C20.52329282 7.45287182 19.43646587 10.08927319 17.9921875 13.87890625 C17 16 17 16 15.39453125 17.546875 C13.59095214 19.10875949 13.59095214 19.10875949 13.8125 22.6875 C13.874375 23.780625 13.93625 24.87375 14 26 C13.34 26 12.68 26 12 26 C11.60344646 34.71934501 11.60344646 34.71934501 14 43 C14.66 43.33 15.32 43.66 16 44 C16 44.66 16 45.32 16 46 C18.63904371 47.41377341 21.07120629 48.37240135 24 49 C24 48.34 24 47.68 24 47 C22.35 46.67 20.7 46.34 19 46 C19 45.34 19 44.68 19 44 C20.98 43.505 20.98 43.505 23 43 C23.33 41.68 23.66 40.36 24 39 C23.01 39 22.02 39 21 39 C21 38.01 21 37.02 21 36 C22.1446875 36.0928125 22.1446875 36.0928125 23.3125 36.1875 C26.50652837 35.96466081 26.9220993 35.26680076 29 33 C29.99 33 30.98 33 32 33 C31.87625 31.4221875 31.87625 31.4221875 31.75 29.8125 C32.09531152 24.54649935 34.22087219 22.66434537 37.9375 19.1875 C40.45426079 17.73845591 42.14175178 17.76181265 45 18 C45.2475 18.70125 45.495 19.4025 45.75 20.125 C46.9573291 23.14554266 46.9573291 23.14554266 49.125 26.125 C51 29 51 29 51 32 C50 33 49 34 48 35 C48 35.99 48 36.98 48 38 C50.31 37.67 52.62 37.34 55 37 C52.03 36.505 52.03 36.505 49 36 C49 35.34 49 34.68 49 34 C51.64 33.67 54.28 33.34 57 33 C57.495 34.98 57.495 34.98 58 37 C58.66 37 59.32 37 60 37 C60 40.3 60 43.6 60 47 C59.01 47 58.02 47 57 47 C56.8453125 48.0828125 56.8453125 48.0828125 56.6875 49.1875 C55.93217477 52.27746686 54.80862024 54.39558686 53 57 C52.01 57.495 52.01 57.495 51 58 C50.45774632 60.41540863 50.45774632 60.41540863 50.125 63.25 C49.54350471 66.53373811 48.93082799 69.16349747 47.625 72.25 C43.1406359 75.23957607 38.12796398 73.81434648 33 73 C33.495 76.465 33.495 76.465 34 80 C22.78 80 11.56 80 0 80 C0 53.6 0 27.2 0 0 Z " fill="#3F3A31" transform="translate(0,0)"/>
<path d="M0 0 C9.9 0 19.8 0 30 0 C27.87266468 1.59550149 25.7295634 3.17578379 23.5 4.625 C20.52329282 7.45287182 19.43646587 10.08927319 17.9921875 13.87890625 C17 16 17 16 15.39453125 17.546875 C13.59095214 19.10875949 13.59095214 19.10875949 13.8125 22.6875 C13.874375 23.780625 13.93625 24.87375 14 26 C13.34 26 12.68 26 12 26 C11.60344646 34.71934501 11.60344646 34.71934501 14 43 C14.66 43.33 15.32 43.66 16 44 C16.12375 44.804375 16.2475 45.60875 16.375 46.4375 C16.71237653 49.09914215 16.71237653 49.09914215 18.75 50.125 C19.86375 50.558125 19.86375 50.558125 21 51 C27.28834356 54.52760736 27.28834356 54.52760736 29 57 C29 60.62277478 28.16526737 61.83038349 25.625 64.4375 C24.325625 65.7059375 24.325625 65.7059375 23 67 C22.5875 68.010625 22.175 69.02125 21.75 70.0625 C19.4839331 73.86625516 17.23495395 74.56588611 13.20703125 76.12109375 C10.83521032 76.98170341 10.83521032 76.98170341 8.3125 78.75 C6 80 6 80 0 80 C0 53.6 0 27.2 0 0 Z " fill="#2E5254" transform="translate(0,0)"/>
<path d="M0 0 C11.55 0 23.1 0 35 0 C35 26.4 35 52.8 35 80 C23.14182692 80 23.14182692 80 17 75 C15.52246923 73.04571931 14.35611374 71.08097516 13.1953125 68.92578125 C11.9087102 66.85292199 10.61139235 65.66844969 8.6875 64.1875 C7.800625 63.465625 6.91375 62.74375 6 62 C6 61.01 6 60.02 6 59 C7.49609375 57.68359375 7.49609375 57.68359375 9.4375 56.4375 C12.23259721 54.69463071 12.23259721 54.69463071 14 52 C15.175625 51.8453125 15.175625 51.8453125 16.375 51.6875 C19.18512222 51.2621123 19.18512222 51.2621123 20.5 48.75 C20.995 47.8425 21.49 46.935 22 46 C23.3303125 44.7315625 23.3303125 44.7315625 24.6875 43.4375 C27.45884029 41.0763442 27.45884029 41.0763442 27 37 C26.34 36.34 25.68 35.68 25 35 C25.66 35 26.32 35 27 35 C26.5359375 33.88625 26.5359375 33.88625 26.0625 32.75 C25.1905075 30.49307824 24.52332993 28.3549847 24 26 C23.34 26 22.68 26 22 26 C21.89042969 25.31292969 21.78085938 24.62585938 21.66796875 23.91796875 C21.50941406 23.01691406 21.35085937 22.11585937 21.1875 21.1875 C21.03667969 20.29417969 20.88585937 19.40085937 20.73046875 18.48046875 C19.92855358 15.75738783 19.07093361 14.85798414 17 13 C16 11 15 9 14 7 C11.71978461 3.63968259 8.72831999 3.2812 4.9375 2.52734375 C3 2 3 2 0 0 Z " fill="#2E5252" transform="translate(45,0)"/>
<path d="M0 0 C1.32 0 2.64 0 4 0 C4.33 0.66 4.66 1.32 5 2 C6.175625 2.185625 6.175625 2.185625 7.375 2.375 C10 3 10 3 11.8125 4.5625 C13.55632063 8.1419213 13.19791008 11.04179842 13 15 C13.66 15 14.32 15 15 15 C17.5955057 18.49394999 18.21423353 20.71532933 18 25 C18.268125 25.825 18.53625 26.65 18.8125 27.5 C18.874375 28.325 18.93625 29.15 19 30 C16.8125 32.4375 16.8125 32.4375 14 35 C13.34 36.093125 12.68 37.18625 12 38.3125 C11.34 39.199375 10.68 40.08625 10 41 C7.25 41.375 7.25 41.375 5 41 C4.7525 41.598125 4.505 42.19625 4.25 42.8125 C2.81927475 45.31626919 1.4308418 46.48072388 -1 48 C-1.66 48 -2.32 48 -3 48 C-1.32679409 51.25345593 0.12671888 53.10295909 3 55.4375 C6 58 6 58 7.375 61.0625 C9.6499568 65.1749219 12.75686609 66.28662051 17 68 C17 68.33 17 68.66 17 69 C4.79 69 -7.42 69 -20 69 C-22 65 -22 65 -21 61 C-17.04 61.33 -13.08 61.66 -9 62 C-6.51253857 58.14844682 -4.83271429 55.35681318 -4.5 50.75 C-4 47 -4 47 -2.125 45.5 C-1.42375 45.005 -0.7225 44.51 0 44 C1.23635264 41.40781526 2.14153384 38.73798676 3 36 C3.99 36 4.98 36 6 36 C6 32.7 6 29.4 6 26 C5.34 26 4.68 26 4 26 C3.67 25.01 3.34 24.02 3 23 C0.36 23 -2.28 23 -5 23 C-5 23.66 -5 24.32 -5 25 C-3.02 25 -1.04 25 1 25 C1.33 25.66 1.66 26.32 2 27 C-1.28696233 27.79953138 -2.71023192 28.09658936 -6 27 C-6.33 26.01 -6.66 25.02 -7 24 C-5 21 -5 21 -2.375 20.3125 C-1.59125 20.209375 -0.8075 20.10625 0 20 C-0.66 18.906875 -1.32 17.81375 -2 16.6875 C-3.58464929 14.06292462 -4 13.1743622 -4 10 C-3.01 10 -2.02 10 -1 10 C-1.020625 8.72125 -1.04125 7.4425 -1.0625 6.125 C-1.125 2.25 -1.125 2.25 0 0 Z " fill="#121C1E" transform="translate(54,11)"/>
<path d="M0 0 C0.2475 0.70125 0.495 1.4025 0.75 2.125 C1.9573291 5.14554266 1.9573291 5.14554266 4.125 8.125 C6 11 6 11 6 14 C4 15.33333333 2 16.66666667 0 18 C0 18.99 0 19.98 0 21 C0.69867188 21.06058594 1.39734375 21.12117188 2.1171875 21.18359375 C3.02726562 21.26738281 3.93734375 21.35117187 4.875 21.4375 C5.77992187 21.51871094 6.68484375 21.59992187 7.6171875 21.68359375 C10 22 10 22 12 23 C11.67 25.31 11.34 27.62 11 30 C9.35 30.66 7.7 31.32 6 32 C6 32.66 6 33.32 6 34 C3.03 34.495 3.03 34.495 0 35 C0.33 34.01 0.66 33.02 1 32 C1.66 32 2.32 32 3 32 C2.67 31.34 2.34 30.68 2 30 C1.54625 30.495 1.0925 30.99 0.625 31.5 C-1 33 -1 33 -3 33 C-3 32.34 -3 31.68 -3 31 C-3.99 31 -4.98 31 -6 31 C-6 31.66 -6 32.32 -6 33 C-5.01 33.33 -4.02 33.66 -3 34 C-3 34.66 -3 35.32 -3 36 C-4.45792884 36.05399736 -5.91642712 36.09279177 -7.375 36.125 C-8.18710937 36.14820313 -8.99921875 36.17140625 -9.8359375 36.1953125 C-12 36 -12 36 -14 34 C-14 33.01 -14 32.02 -14 31 C-14.66 31 -15.32 31 -16 31 C-17.625 29.875 -17.625 29.875 -19 28 C-19.1875 24.8125 -19.1875 24.8125 -19 22 C-14.31506124 19.51112628 -11.0555786 20.14312227 -6 21 C-6.33 19.35 -6.66 17.7 -7 16 C-8.98 15.34 -10.96 14.68 -13 14 C-13.3452439 10.28862807 -13.31499373 8.48374038 -11.25 5.3125 C-7.49788001 1.45615445 -5.55963734 -0.46330311 0 0 Z " fill="#996B57" transform="translate(45,18)"/>
<path d="M0 0 C0.66 0.33 1.32 0.66 2 1 C2.12375 1.804375 2.2475 2.60875 2.375 3.4375 C2.58125 4.283125 2.7875 5.12875 3 6 C4.32 6.66 5.64 7.32 7 8 C6.67 11.96 6.34 15.92 6 20 C5.01 20 4.02 20 3 20 C3 20.66 3 21.32 3 22 C4.65 22.33 6.3 22.66 8 23 C5.31158141 25.25245881 3.35358125 26.88213958 0 28 C-0.99 27.67 -1.98 27.34 -3 27 C-3 27.99 -3 28.98 -3 30 C-2.01 30 -1.02 30 0 30 C-0.495 32.475 -0.495 32.475 -1 35 C-2.32 35 -3.64 35 -5 35 C-5 35.66 -5 36.32 -5 37 C-3.35 37.33 -1.7 37.66 0 38 C0 38.66 0 39.32 0 40 C-3.37462715 39.45276317 -5.08235 38.9451 -8 37 C-8 36.34 -8 35.68 -8 35 C-8.99 34.67 -9.98 34.34 -11 34 C-13.89901252 28.4918762 -12.7810606 22.93183863 -12 17 C-11.34 17 -10.68 17 -10 17 C-9.67 14.69 -9.34 12.38 -9 10 C-8.01 9.67 -7.02 9.34 -6 9 C-6 8.34 -6 7.68 -6 7 C-5.01 6.34 -4.02 5.68 -3 5 C-1.94895617 3.36504293 -0.94011682 1.70116376 0 0 Z " fill="#0B1111" transform="translate(24,9)"/>
<path d="M0 0 C1.32 0 2.64 0 4 0 C4.33 0.66 4.66 1.32 5 2 C6.175625 2.185625 6.175625 2.185625 7.375 2.375 C10 3 10 3 11.8125 4.5625 C13.55632063 8.1419213 13.19791008 11.04179842 13 15 C13.66 15 14.32 15 15 15 C17.43160605 18.36683915 18 19.73350364 18 24 C17.34 24 16.68 24 16 24 C16.33 25.98 16.66 27.96 17 30 C15.68 30 14.36 30 13 30 C12.34 31.32 11.68 32.64 11 34 C10.34 34 9.68 34 9 34 C8.67 31.36 8.34 28.72 8 26 C7.01 25.67 6.02 25.34 5 25 C5 24.01 5 23.02 5 22 C0.05 22.495 0.05 22.495 -5 23 C-5 23.66 -5 24.32 -5 25 C-3.02 25 -1.04 25 1 25 C1.33 25.66 1.66 26.32 2 27 C-1.28696233 27.79953138 -2.71023192 28.09658936 -6 27 C-6.33 26.01 -6.66 25.02 -7 24 C-5 21 -5 21 -2.375 20.3125 C-1.59125 20.209375 -0.8075 20.10625 0 20 C-0.66 18.906875 -1.32 17.81375 -2 16.6875 C-3.58464929 14.06292462 -4 13.1743622 -4 10 C-3.01 10 -2.02 10 -1 10 C-1.020625 8.72125 -1.04125 7.4425 -1.0625 6.125 C-1.125 2.25 -1.125 2.25 0 0 Z " fill="#0A0F11" transform="translate(54,11)"/>
<path d="M0 0 C1 3 1 3 1 5 C4.465 4.505 4.465 4.505 8 4 C5.03 3.505 5.03 3.505 2 3 C2 2.34 2 1.68 2 1 C4.64 0.67 7.28 0.34 10 0 C10.33 1.32 10.66 2.64 11 4 C11.66 4 12.32 4 13 4 C13 7.3 13 10.6 13 14 C12.01 14 11.02 14 10 14 C9.896875 14.721875 9.79375 15.44375 9.6875 16.1875 C8.05599467 22.86183999 3.53295517 27.18416885 -2 31 C-5.51191001 31.97137936 -7.06433598 31.47589808 -10.265625 29.84765625 C-15.01007986 26.9627216 -18.28665988 24.48268837 -20 19 C-20.1875 15.625 -20.1875 15.625 -20 13 C-19.01 13.495 -19.01 13.495 -18 14 C-18 14.66 -18 15.32 -18 16 C-17.34 16 -16.68 16 -16 16 C-15.64808594 16.96679688 -15.64808594 16.96679688 -15.2890625 17.953125 C-14.18838927 20.2077908 -14.18838927 20.2077908 -11.8359375 20.609375 C-10.61777344 20.67898437 -10.61777344 20.67898437 -9.375 20.75 C-8.55773438 20.80671875 -7.74046875 20.8634375 -6.8984375 20.921875 C-5.95871094 20.96054687 -5.95871094 20.96054687 -5 21 C-5.7425 20.319375 -5.7425 20.319375 -6.5 19.625 C-8 18 -8 18 -8 16 C-7.01 16 -6.02 16 -5 16 C-5 16.66 -5 17.32 -5 18 C-3.02 16.68 -1.04 15.36 1 14 C1 17 1 17 -0.5 18.6875 C-0.995 19.120625 -1.49 19.55375 -2 20 C-0.02 19.67 1.96 19.34 4 19 C3.67 18.01 3.34 17.02 3 16 C4.65 15.67 6.3 15.34 8 15 C8.66 12.69 9.32 10.38 10 8 C6.04 7.67 2.08 7.34 -2 7 C-2.33 5.68 -2.66 4.36 -3 3 C-1.5625 1.25 -1.5625 1.25 0 0 Z " fill="#57362F" transform="translate(47,33)"/>
<path d="M0 0 C0 0.66 0 1.32 0 2 C0.66 2 1.32 2 2 2 C2 2.66 2 3.32 2 4 C0.865625 4.5775 -0.26875 5.155 -1.4375 5.75 C-4.37310297 7.35492635 -4.37310297 7.35492635 -5.9375 10.25 C-5.958125 10.8275 -5.97875 11.405 -6 12 C-5.4225 11.79375 -4.845 11.5875 -4.25 11.375 C-1.48032433 10.91338739 -0.35438733 11.57055055 2 13 C2.103125 12.071875 2.20625 11.14375 2.3125 10.1875 C3 7 3 7 4.25 5.125 C6.58213386 3.62577109 8.28371825 3.77976094 11 4 C11.33 4.99 11.66 5.98 12 7 C11.484375 7.763125 10.96875 8.52625 10.4375 9.3125 C8.61088154 12.007907 8.61088154 12.007907 9.8125 15.3125 C10.204375 16.199375 10.59625 17.08625 11 18 C10.01 18 9.02 18 8 18 C8.99 19.6396875 8.99 19.6396875 10 21.3125 C11.58464929 23.93707538 12 24.8256378 12 28 C11.01 28.33 10.02 28.66 9 29 C8.73445313 28.44570313 8.46890625 27.89140625 8.1953125 27.3203125 C7.84210937 26.59585937 7.48890625 25.87140625 7.125 25.125 C6.77695312 24.40570312 6.42890625 23.68640625 6.0703125 22.9453125 C5.03442457 20.84864981 5.03442457 20.84864981 3 19 C3 17.68 3 16.36 3 15 C-2.02464267 16.28537371 -4.5082009 18.21721764 -8 22 C-8.66 22.33 -9.32 22.66 -10 23 C-10.08159574 18.83861737 -9.98248524 15.0527516 -9 11 C-9.99 11 -10.98 11 -12 11 C-12 10.34 -12 9.68 -12 9 C-11.34 9 -10.68 9 -10 9 C-10.33 8.01 -10.66 7.02 -11 6 C-10.34 5.67 -9.68 5.34 -9 5 C-9 4.01 -9 3.02 -9 2 C-5.86501708 0.14223235 -3.62528568 -0.20140476 0 0 Z " fill="#445752" transform="translate(42,3)"/>
<path d="M0 0 C1.03447266 0.06574219 1.03447266 0.06574219 2.08984375 0.1328125 C7.23820153 0.49410077 7.23820153 0.49410077 9.5 1.625 C9.17 3.935 8.84 6.245 8.5 8.625 C6.85 9.285 5.2 9.945 3.5 10.625 C3.5 11.285 3.5 11.945 3.5 12.625 C1.52 12.955 -0.46 13.285 -2.5 13.625 C-2.17 12.635 -1.84 11.645 -1.5 10.625 C-0.84 10.625 -0.18 10.625 0.5 10.625 C0.17 9.965 -0.16 9.305 -0.5 8.625 C-1.056875 8.63660156 -1.61375 8.64820313 -2.1875 8.66015625 C-7.39349507 8.72171362 -12.37815617 8.613426 -17.5 7.625 C-19.5 4.625 -19.5 4.625 -19.5 1.625 C-18.45199219 1.53412109 -18.45199219 1.53412109 -17.3828125 1.44140625 C-16.47273438 1.35761719 -15.56265625 1.27382813 -14.625 1.1875 C-13.72007813 1.10628906 -12.81515625 1.02507813 -11.8828125 0.94140625 C-3.06656455 -0.22927585 -3.06656455 -0.22927585 0 0 Z " fill="#BE947B" transform="translate(47.5,39.375)"/>
<path d="M0 0 C4.65987191 3.0657052 5.85485202 5.58657319 7 11 C6.34 11 5.68 11 5 11 C5 11.99 5 12.98 5 14 C7.97 14.495 7.97 14.495 11 15 C11.50559908 16.43554025 12.0042749 17.8735202 12.5 19.3125 C12.7784375 20.11300781 13.056875 20.91351563 13.34375 21.73828125 C14 24 14 24 14 27 C12.68 27 11.36 27 10 27 C9.34 28.32 8.68 29.64 8 31 C7.34 31 6.68 31 6 31 C5.67 28.36 5.34 25.72 5 23 C4.01 22.67 3.02 22.34 2 22 C2 21.01 2 20.02 2 19 C1.34 19 0.68 19 0 19 C0.60990891 15.44219804 1.5783681 12.3171411 3 9 C2.34 9 1.68 9 1 9 C1 9.99 1 10.98 1 12 C0.34 12 -0.32 12 -1 12 C-0.67 8.04 -0.34 4.08 0 0 Z M5 17 C4.67 17.66 4.34 18.32 4 19 C4.99 18.67 5.98 18.34 7 18 C6.34 17.67 5.68 17.34 5 17 Z " fill="#070E0F" transform="translate(57,14)"/>
<path d="M0 0 C0.33 0.66 0.66 1.32 1 2 C1.99 2.33 2.98 2.66 4 3 C3.67 3.66 3.34 4.32 3 5 C2.72195554 9.91211881 3.1174014 12.2935035 5 17 C-3.25 17 -11.5 17 -20 17 C-14.53051643 12.62441315 -14.53051643 12.62441315 -10.375 11.125 C-6.91910862 9.67741636 -6.16666607 9.27222125 -4.125 5.9375 C-3.75375 4.968125 -3.3825 3.99875 -3 3 C-1.3125 1.125 -1.3125 1.125 0 0 Z " fill="#0F2131" transform="translate(26,63)"/>
<path d="M0 0 C1 1 1 1 1.0625 3.5625 C1.041875 4.366875 1.02125 5.17125 1 6 C-0.92057292 5.96744792 -2.84114583 5.93489583 -4.76171875 5.90234375 C-7.25492215 6.01112226 -9.56712913 6.45888861 -12 7 C-11.71653722 8.91789713 -11.4228972 10.83429183 -11.125 12.75 C-10.96257813 13.81734375 -10.80015625 14.8846875 -10.6328125 15.984375 C-10.06123206 18.70820277 -9.24324876 20.55494411 -8 23 C-7.9222654 25.33203812 -7.91032272 27.66839059 -8 30 C-8.99 29.67 -9.98 29.34 -11 29 C-10.34 27.35 -9.68 25.7 -9 24 C-9.99 23.67 -10.98 23.34 -12 23 C-13 22 -14 21 -15 20 C-16.03125 19.34 -17.0625 18.68 -18.125 18 C-21 16 -21 16 -22 13 C-21.4225 13.309375 -20.845 13.61875 -20.25 13.9375 C-18.15705816 14.92583364 -16.25464725 15.5168613 -14 16 C-14 15.34 -14 14.68 -14 14 C-15.65 13.67 -17.3 13.34 -19 13 C-19 12.34 -19 11.68 -19 11 C-17.68 10.67 -16.36 10.34 -15 10 C-14.67 8.68 -14.34 7.36 -14 6 C-14.99 6 -15.98 6 -17 6 C-17 5.01 -17 4.02 -17 3 C-15.8553125 3.0928125 -15.8553125 3.0928125 -14.6875 3.1875 C-11.49660032 2.96487909 -11.03893855 2.31697562 -9 0 C-5.50340123 -1.16553292 -3.55568859 -0.77297578 0 0 Z " fill="#1B2927" transform="translate(38,33)"/>
<path d="M0 0 C1.03590199 5.05002222 1.10251672 9.87416389 1 15 C-3.95346987 16.59789351 -8.13282415 15.28306814 -13 14 C-13.3452439 10.28862807 -13.31499373 8.48374038 -11.25 5.3125 C-7.49788001 1.45615445 -5.55963734 -0.46330311 0 0 Z " fill="#C1AA8C" transform="translate(45,18)"/>
<path d="M0 0 C1 3 1 3 1 5 C4.465 4.505 4.465 4.505 8 4 C5.03 3.505 5.03 3.505 2 3 C2 2.34 2 1.68 2 1 C4.64 0.67 7.28 0.34 10 0 C10.33 1.32 10.66 2.64 11 4 C11.66 4 12.32 4 13 4 C13 7.3 13 10.6 13 14 C12.01 14 11.02 14 10 14 C9.8453125 15.0828125 9.8453125 15.0828125 9.6875 16.1875 C8.92676628 19.2995925 7.87233113 21.40754152 6 24 C5.01 24.33 4.02 24.66 3 25 C2.67 23.02 2.34 21.04 2 19 C2.66 19 3.32 19 4 19 C3.67 18.01 3.34 17.02 3 16 C4.65 15.67 6.3 15.34 8 15 C8.66 12.69 9.32 10.38 10 8 C6.04 7.67 2.08 7.34 -2 7 C-2.33 5.68 -2.66 4.36 -3 3 C-1.5625 1.25 -1.5625 1.25 0 0 Z " fill="#645044" transform="translate(47,33)"/>
<path d="M0 0 C3.96 0 7.92 0 12 0 C9.87266468 1.59550149 7.7295634 3.17578379 5.5 4.625 C2.52329282 7.45287182 1.43646587 10.08927319 -0.0078125 13.87890625 C-1 16 -1 16 -2.60546875 17.546875 C-4.40904786 19.10875949 -4.40904786 19.10875949 -4.1875 22.6875 C-4.125625 23.780625 -4.06375 24.87375 -4 26 C-4.66 26 -5.32 26 -6 26 C-6.28875 26.804375 -6.5775 27.60875 -6.875 28.4375 C-8 31 -8 31 -10 32 C-9.57312017 30.10174715 -9.13300518 28.20646817 -8.6875 26.3125 C-8.44386719 25.25675781 -8.20023438 24.20101563 -7.94921875 23.11328125 C-7.00412959 20.01354438 -5.71817494 17.72666893 -4 15 C-3.29329272 12.30745009 -3.29329272 12.30745009 -3 10 C-2.34 10 -1.68 10 -1 10 C-1.20625 9.278125 -1.4125 8.55625 -1.625 7.8125 C-2 5 -2 5 0 0 Z " fill="#567F81" transform="translate(18,0)"/>
<path d="M0 0 C0.61875 0.804375 1.2375 1.60875 1.875 2.4375 C3.74164041 5.03874519 3.74164041 5.03874519 6 6 C6 5.01 6 4.02 6 3 C6.66 3 7.32 3 8 3 C8.33 5.64 8.66 8.28 9 11 C4.62689805 14.03687636 4.62689805 14.03687636 1.875 13.875 C-0.41196038 12.80775182 -1.60351373 12.13147905 -3 10 C-2.75896128 6.22372667 -1.88638485 3.26973374 0 0 Z " fill="#040607" transform="translate(20,17)"/>
<path d="M0 0 C1.125 3.75 1.125 3.75 0 6 C-0.66 6 -1.32 6 -2 6 C-2 7.32 -2 8.64 -2 10 C-5.63 10 -9.26 10 -13 10 C-15 6 -15 6 -14 2 C-10.04 2.33 -6.08 2.66 -2 3 C-1.34 2.01 -0.68 1.02 0 0 Z " fill="#0B1C22" transform="translate(47,70)"/>
<path d="M0 0 C1.32 0.33 2.64 0.66 4 1 C2.74425659 4.87187551 1.65992073 7.06837517 -2 9 C-5.7296418 9.5439061 -7.31325378 9.50602353 -10.375 7.25 C-12 5 -12 5 -12 1 C-11.484375 1.165 -10.96875 1.33 -10.4375 1.5 C-7.26636124 2.15049 -4.22781666 2.0620734 -1 2 C-0.67 1.34 -0.34 0.68 0 0 Z " fill="#846451" transform="translate(47,55)"/>
<path d="M0 0 C1 1 1 1 1.0625 3.5625 C1.041875 4.366875 1.02125 5.17125 1 6 C-0.92057292 5.96744792 -2.84114583 5.93489583 -4.76171875 5.90234375 C-7.48287832 5.96381303 -7.48287832 5.96381303 -12 7 C-11.67 10.96 -11.34 14.92 -11 19 C-11.33 19 -11.66 19 -12 19 C-13.20568053 14.32798795 -13.09382426 9.78503708 -13 5 C-12.34 5 -11.68 5 -11 5 C-10.9175 4.38125 -10.835 3.7625 -10.75 3.125 C-10 1 -10 1 -8.3125 -0.3125 C-5.25168069 -1.22247331 -3.07081966 -0.7506448 0 0 Z " fill="#392C24" transform="translate(38,33)"/>
<path d="M0 0 C0 0.66 0 1.32 0 2 C-0.99 2 -1.98 2 -3 2 C-2.6596875 2.8971875 -2.6596875 2.8971875 -2.3125 3.8125 C-2.209375 4.534375 -2.10625 5.25625 -2 6 C-3.4375 7.75 -3.4375 7.75 -5 9 C-5.33 7.68 -5.66 6.36 -6 5 C-6.928125 6.485 -6.928125 6.485 -7.875 8 C-8.57625 8.99 -9.2775 9.98 -10 11 C-10.66 11 -11.32 11 -12 11 C-12 11.66 -12 12.32 -12 13 C-12.97753644 14.02196992 -13.9805881 15.01979625 -15 16 C-15.66 16.99 -16.32 17.98 -17 19 C-17.25 16.75 -17.25 16.75 -17 14 C-15.66666667 12.66666667 -14.33333333 11.33333333 -13 10 C-12.47308101 8.66368999 -11.99720968 7.30658566 -11.5625 5.9375 C-10.53742517 2.96755348 -10.08935031 2.07759369 -7.625 -0.0625 C-4.6021184 -1.14210057 -3.02770945 -0.95156583 0 0 Z " fill="#0F3531" transform="translate(30,5)"/>
<path d="M0 0 C1.98 1.32 3.96 2.64 6 4 C5.01 4.33 4.02 4.66 3 5 C2.34 4.67 1.68 4.34 1 4 C2.07710178 8.30840713 3.03947516 11.63576723 6 15 C5.01 15 4.02 15 3 15 C3.33 17.31 3.66 19.62 4 22 C1.48087612 21.66411682 0.32803881 21.42645046 -1.25 19.375 C-2.44390976 15.59428575 -2.80285494 11.60570987 -1 8 C-1.66 7.67 -2.32 7.34 -3 7 C-3 6.34 -3 5.68 -3 5 C-2.01 5 -1.02 5 0 5 C0 3.35 0 1.7 0 0 Z " fill="#27261F" transform="translate(30,58)"/>
<path d="M0 0 C0.33 0 0.66 0 1 0 C1.33 1.98 1.66 3.96 2 6 C1.34 6 0.68 6 0 6 C0.30924214 8.10464793 0.6225056 10.2087053 0.9375 12.3125 C1.11152344 13.48425781 1.28554688 14.65601563 1.46484375 15.86328125 C1.92093031 19.01641403 1.92093031 19.01641403 3 22 C-0.96 22.495 -0.96 22.495 -5 23 C-5 23.66 -5 24.32 -5 25 C-3.02 25 -1.04 25 1 25 C1.33 25.66 1.66 26.32 2 27 C-1.28696233 27.79953138 -2.71023192 28.09658936 -6 27 C-6.33 26.01 -6.66 25.02 -7 24 C-5 21 -5 21 -2.375 20.3125 C-1.59125 20.209375 -0.8075 20.10625 0 20 C-0.66 18.906875 -1.32 17.81375 -2 16.6875 C-3.58464929 14.06292462 -4 13.1743622 -4 10 C-3.01 10 -2.02 10 -1 10 C-1.020625 8.72125 -1.04125 7.4425 -1.0625 6.125 C-1.125 2.25 -1.125 2.25 0 0 Z " fill="#1E2725" transform="translate(54,11)"/>
<path d="M0 0 C0 2.64 0 5.28 0 8 C-0.99 8 -1.98 8 -3 8 C-3 7.34 -3 6.68 -3 6 C-3.99 6.33 -4.98 6.66 -6 7 C-8.33299825 7.03954234 -10.66708189 7.04401732 -13 7 C-13.33 5.35 -13.66 3.7 -14 2 C-12.4176994 1.66179834 -10.83410625 1.32964061 -9.25 1 C-8.36828125 0.814375 -7.4865625 0.62875 -6.578125 0.4375 C-4 0 -4 0 0 0 Z " fill="#C5AA8D" transform="translate(44,39)"/>
<path d="M0 0 C0.66 0 1.32 0 2 0 C2 0.66 2 1.32 2 2 C2.66 2 3.32 2 4 2 C3.731875 2.515625 3.46375 3.03125 3.1875 3.5625 C1.67650593 6.66401415 0.34427274 9.82262806 -1 13 C-3.64 12.67 -6.28 12.34 -9 12 C-8.8125 9.6875 -8.8125 9.6875 -8 7 C-3.96551724 4 -3.96551724 4 -1 4 C-0.67 2.68 -0.34 1.36 0 0 Z " fill="#162927" transform="translate(45,3)"/>
<path d="M0 0 C5.69616807 2.35703506 8.62986682 7.71168037 10.9375 13.25 C11.87315408 15.20747626 11.87315408 15.20747626 14.125 15.75 C14.74375 15.8325 15.3625 15.915 16 16 C15.79375 16.886875 15.5875 17.77375 15.375 18.6875 C14.96802662 22.28243153 15.59912863 23.76048495 17 27 C16.67 27.99 16.34 28.98 16 30 C13 26.375 13 26.375 13 23 C12.34 23 11.68 23 11 23 C10.89042969 22.31292969 10.78085938 21.62585938 10.66796875 20.91796875 C10.50941406 20.01691406 10.35085937 19.11585937 10.1875 18.1875 C10.03667969 17.29417969 9.88585937 16.40085937 9.73046875 15.48046875 C8.92882136 12.75829714 8.07324526 11.85472841 6 10 C4.98308736 8.00854609 3.98357352 6.00812926 3 4 C2.03465478 2.64136599 1.04722851 1.29656863 0 0 Z " fill="#639591" transform="translate(56,3)"/>
<path d="M0 0 C7.9202883 5.2481522 7.9202883 5.2481522 10 9.625 C12.57695309 13.97360835 15.41105528 15.20674733 20 17 C20 17.33 20 17.66 20 18 C16.7 18 13.4 18 10 18 C8.68 14.7 7.36 11.4 6 8 C5.34 8 4.68 8 4 8 C4 6.68 4 5.36 4 4 C2.68 4 1.36 4 0 4 C0 2.68 0 1.36 0 0 Z " fill="#0B2333" transform="translate(51,62)"/>
<path d="M0 0 C3.53586014 3.17320782 5.58578031 5.16743695 6 10 C4.5459375 10.8971875 4.5459375 10.8971875 3.0625 11.8125 C-0.23052042 13.71127509 -0.23052042 13.71127509 -1 17 C-2.32 17 -3.64 17 -5 17 C-5 15.35 -5 13.7 -5 12 C-5.66 11.67 -6.32 11.34 -7 11 C-4.69 11 -2.38 11 0 11 C0 7.37 0 3.74 0 0 Z " fill="#A58C70" transform="translate(45,22)"/>
<path d="M0 0 C2.31 0.66 4.62 1.32 7 2 C6.67 6.29 6.34 10.58 6 15 C5.34 14.67 4.68 14.34 4 14 C4 11.36 4 8.72 4 6 C3.34 6 2.68 6 2 6 C2 6.99 2 7.98 2 9 C0.68 8.34 -0.64 7.68 -2 7 C-2.125 4.625 -2.125 4.625 -2 2 C-1.34 1.34 -0.68 0.68 0 0 Z " fill="#141D1B" transform="translate(24,14)"/>
<path d="M0 0 C2 2 2 2 2.1953125 3.9453125 C2.13020833 5.96354167 2.06510417 7.98177083 2 10 C2.66 10 3.32 10 4 10 C6.43160605 13.36683915 7 14.73350364 7 19 C6.01 19.33 5.02 19.66 4 20 C3.87625 19.030625 3.7525 18.06125 3.625 17.0625 C3.315625 15.5465625 3.315625 15.5465625 3 14 C2.34 13.67 1.68 13.34 1 13 C0.34 13.66 -0.32 14.32 -1 15 C-1 14.01 -1 13.02 -1 12 C-1.66 12 -2.32 12 -3 12 C-3 11.01 -3 10.02 -3 9 C-2.01 8.67 -1.02 8.34 0 8 C0 5.36 0 2.72 0 0 Z M-3 15 C-2.34 15.33 -1.68 15.66 -1 16 C-1.99 16 -2.98 16 -4 16 C-3.67 15.67 -3.34 15.34 -3 15 Z " fill="#0E2E32" transform="translate(65,16)"/>
<path d="M0 0 C-0.33 1.32 -0.66 2.64 -1 4 C-1.99 3.34 -2.98 2.68 -4 2 C-7.74525799 5.74525799 -7.68909949 9.98270909 -8 15 C-9.65 14.67 -11.3 14.34 -13 14 C-13.3452439 10.28862807 -13.31499373 8.48374038 -11.25 5.3125 C-7.49788001 1.45615445 -5.55963734 -0.46330311 0 0 Z " fill="#A28E74" transform="translate(45,18)"/>
<path d="M0 0 C0.66 0 1.32 0 2 0 C1.67 2.31 1.34 4.62 1 7 C-0.65 7.66 -2.3 8.32 -4 9 C-4 9.66 -4 10.32 -4 11 C-5.98 11.33 -7.96 11.66 -10 12 C-9.67 11.01 -9.34 10.02 -9 9 C-8.34 9 -7.68 9 -7 9 C-7.66 8.34 -8.32 7.68 -9 7 C-9 6.01 -9 5.02 -9 4 C-6.36 4.33 -3.72 4.66 -1 5 C-0.67 3.35 -0.34 1.7 0 0 Z " fill="#8B6953" transform="translate(55,41)"/>
<path d="M0 0 C0.99 0.495 0.99 0.495 2 1 C2 1.66 2 2.32 2 3 C2.66 3 3.32 3 4 3 C5.03789581 4.64333504 6.03567924 6.31243867 7 8 C7.66 8.66 8.32 9.32 9 10 C9.125 13.125 9.125 13.125 9 16 C4.29084465 13.27915469 1.85902054 11.16394594 0 6 C-0.1875 2.625 -0.1875 2.625 0 0 Z " fill="#735646" transform="translate(27,46)"/>
<path d="M0 0 C2 1 2 1 3.125 4.0625 C3.41375 5.031875 3.7025 6.00125 4 7 C3.01 7 2.02 7 1 7 C1.99 8.6396875 1.99 8.6396875 3 10.3125 C4.58464929 12.93707538 5 13.8256378 5 17 C4.01 17.33 3.02 17.66 2 18 C1.32694982 16.39850114 0.66177773 14.79368971 0 13.1875 C-0.37125 12.29417969 -0.7425 11.40085937 -1.125 10.48046875 C-2 8 -2 8 -2 5 C-1.34 5 -0.68 5 0 5 C0 3.35 0 1.7 0 0 Z " fill="#52534B" transform="translate(49,14)"/>
<path d="M0 0 C0.33 1.32 0.66 2.64 1 4 C1.66 4 2.32 4 3 4 C3 7.3 3 10.6 3 14 C2.34 14 1.68 14 1 14 C0.896875 12.88625 0.79375 11.7725 0.6875 10.625 C0.460625 9.42875 0.23375 8.2325 0 7 C-0.99 6.34 -1.98 5.68 -3 5 C-2.67 4.67 -2.34 4.34 -2 4 C-4.97 3.505 -4.97 3.505 -8 3 C-8 2.34 -8 1.68 -8 1 C-5.07175348 0.02391783 -3.04386724 -0.08226668 0 0 Z " fill="#32342F" transform="translate(57,33)"/>
<path d="M0 0 C0 0.66 0 1.32 0 2 C0.66 2 1.32 2 2 2 C2 2.66 2 3.32 2 4 C0.35546875 5.2890625 0.35546875 5.2890625 -1.8125 6.625 C-2.52019531 7.07101563 -3.22789063 7.51703125 -3.95703125 7.9765625 C-6 9 -6 9 -9 9 C-9 8.34 -9 7.68 -9 7 C-8.01 7 -7.02 7 -6 7 C-6 6.34 -6 5.68 -6 5 C-5.34 5 -4.68 5 -4 5 C-4 4.34 -4 3.68 -4 3 C-5.98 3.33 -7.96 3.66 -10 4 C-6.66064924 0.50886057 -4.84725717 -0.1275594 0 0 Z " fill="#6D8784" transform="translate(42,3)"/>
<path d="M0 0 C0.33 0.99 0.66 1.98 1 3 C1.99 3 2.98 3 4 3 C4 3.66 4 4.32 4 5 C-1.28 5 -6.56 5 -12 5 C-5.75 0 -5.75 0 0 0 Z " fill="#072A2D" transform="translate(18,75)"/>
<path d="M0 0 C0.66 0 1.32 0 2 0 C1.67 5.94 1.34 11.88 1 18 C-0.98 18 -2.96 18 -5 18 C-4.505 16.515 -4.505 16.515 -4 15 C-3.01 15 -2.02 15 -1 15 C-1.01160156 14.00097656 -1.02320313 13.00195312 -1.03515625 11.97265625 C-1.04869141 10.03712891 -1.04869141 10.03712891 -1.0625 8.0625 C-1.07410156 6.77472656 -1.08570313 5.48695312 -1.09765625 4.16015625 C-1 1 -1 1 0 0 Z " fill="#1D2521" transform="translate(31,14)"/>
<path d="M0 0 C0.66 0 1.32 0 2 0 C2.05391993 1.79133978 2.09275571 3.58313899 2.125 5.375 C2.14820313 6.37273437 2.17140625 7.37046875 2.1953125 8.3984375 C2 11 2 11 0 13 C-0.99 13 -1.98 13 -3 13 C-2.343621 8.51474352 -1.29925791 4.33085971 0 0 Z " fill="#4F706E" transform="translate(51,67)"/>
<path d="M0 0 C1.65 0 3.3 0 5 0 C6.52194825 2.41721193 7.01261321 3.73512258 6.875 6.625 C6 9 6 9 3.9375 10.3125 C3.298125 10.539375 2.65875 10.76625 2 11 C1.77213542 9.01432292 1.54427083 7.02864583 1.31640625 5.04296875 C1.02829265 2.80603607 1.02829265 2.80603607 0 0 Z " fill="#020404" transform="translate(61,34)"/>
<path d="M0 0 C0.33 0.99 0.66 1.98 1 3 C3.31 3 5.62 3 8 3 C7.67 3.66 7.34 4.32 7 5 C5.35 5 3.7 5 2 5 C1.7525 5.598125 1.505 6.19625 1.25 6.8125 C-0.19482573 9.34094503 -1.48280545 10.55070617 -4 12 C-4.99 11.67 -5.98 11.34 -7 11 C-6.1028125 10.505 -6.1028125 10.505 -5.1875 10 C-2.10071812 7.17779943 -1.23011277 3.92331421 0 0 Z " fill="#1F3532" transform="translate(57,47)"/>
<path d="M0 0 C2.0625 0.4375 2.0625 0.4375 4 1 C2.63016497 4.16115776 2.0109362 4.9927092 -1 7 C-1.66 7 -2.32 7 -3 7 C-2.67 10.96 -2.34 14.92 -2 19 C-2.33 19 -2.66 19 -3 19 C-4.20568053 14.32798795 -4.09382426 9.78503708 -4 5 C-3.34 5 -2.68 5 -2 5 C-1.7834375 4.0409375 -1.7834375 4.0409375 -1.5625 3.0625 C-1 1 -1 1 0 0 Z " fill="#543F31" transform="translate(29,33)"/>
<path d="M0 0 C-0.495 0.45375 -0.99 0.9075 -1.5 1.375 C-3.22609337 2.87635519 -3.22609337 2.87635519 -3 5 C-3.66 5 -4.32 5 -5 5 C-4.67 5.99 -4.34 6.98 -4 8 C-5.32 8.33 -6.64 8.66 -8 9 C-8 6 -8 3 -8 0 C-4.71023192 -1.09658936 -3.28696233 -0.79953138 0 0 Z " fill="#273835" transform="translate(35,7)"/>
<path d="M0 0 C0.33 0 0.66 0 1 0 C1.44032071 7.51806849 0.28612778 13.84224277 -2 21 C-2.99 21 -3.98 21 -5 21 C-5 19.68 -5 18.36 -5 17 C-4.34 17 -3.68 17 -3 17 C-2.01 11.39 -1.02 5.78 0 0 Z " fill="#0D1418" transform="translate(50,59)"/>
<path d="M0 0 C0.99 0.66 1.98 1.32 3 2 C3 2.66 3 3.32 3 4 C0.36 4.33 -2.28 4.66 -5 5 C-5 5.66 -5 6.32 -5 7 C-3.02 7 -1.04 7 1 7 C1.33 7.66 1.66 8.32 2 9 C-1.28696233 9.79953138 -2.71023192 10.09658936 -6 9 C-6.33 8.01 -6.66 7.02 -7 6 C-5 3 -5 3 -2.375 2.3125 C-1.59125 2.209375 -0.8075 2.10625 0 2 C0 1.34 0 0.68 0 0 Z " fill="#2C261E" transform="translate(54,29)"/>
<path d="M0 0 C0.75 1.75 0.75 1.75 1 4 C0.360625 4.598125 -0.27875 5.19625 -0.9375 5.8125 C-3.39637818 7.95577873 -3.39637818 7.95577873 -3.25 11.75 C-3.1675 12.8225 -3.085 13.895 -3 15 C-3.66 15 -4.32 15 -5 15 C-5.28875 15.804375 -5.5775 16.60875 -5.875 17.4375 C-7 20 -7 20 -9 21 C-8.57312017 19.10174715 -8.13300518 17.20646817 -7.6875 15.3125 C-7.44386719 14.25675781 -7.20023438 13.20101563 -6.94921875 12.11328125 C-5.99917225 8.99728511 -4.86521944 6.66117427 -3 4 C-2.34 3.67 -1.68 3.34 -1 3 C-0.67 2.01 -0.34 1.02 0 0 Z " fill="#73A9A5" transform="translate(17,11)"/>
<path d="M0 0 C1.90389849 2.85584773 2.69462177 4.9311762 3.625 8.1875 C3.88539062 9.08855469 4.14578125 9.98960938 4.4140625 10.91796875 C4.60742188 11.60503906 4.80078125 12.29210937 5 13 C1.15625 12.203125 1.15625 12.203125 -0.25 10.375 C-1.26107824 7.17325225 -1.18873003 4.33423048 -1 1 C-0.67 0.67 -0.34 0.34 0 0 Z " fill="#4F6555" transform="translate(29,67)"/>
<path d="M0 0 C1.32 0.99 2.64 1.98 4 3 C3.84518205 5.70931419 3.51827919 7.46584039 1.59765625 9.4453125 C0.10228292 10.67679642 -1.4462924 11.8429837 -3 13 C-2.67 11.02 -2.34 9.04 -2 7 C-1.34 7 -0.68 7 0 7 C-0.185625 6.401875 -0.37125 5.80375 -0.5625 5.1875 C-1 3 -1 3 0 0 Z " fill="#5C928B" transform="translate(25,54)"/>
<path d="M0 0 C0.33 0 0.66 0 1 0 C1 1.98 1 3.96 1 6 C-1.64458379 7.32229189 -3.67761301 7.09677194 -6.625 7.0625 C-7.62789062 7.05347656 -8.63078125 7.04445313 -9.6640625 7.03515625 C-10.43492188 7.02355469 -11.20578125 7.01195312 -12 7 C-12 8.65 -12 10.3 -12 12 C-12.33 12 -12.66 12 -13 12 C-13 10.02 -13 8.04 -13 6 C-8.31506124 3.51112628 -5.0555786 4.14312227 0 5 C0 3.35 0 1.7 0 0 Z " fill="#876650" transform="translate(39,34)"/>
<path d="M0 0 C0.33 2.31 0.66 4.62 1 7 C1.66 7 2.32 7 3 7 C3 7.99 3 8.98 3 10 C-2.66153846 8.52307692 -2.66153846 8.52307692 -4.375 5.875 C-4.58125 5.25625 -4.7875 4.6375 -5 4 C-1.125 0 -1.125 0 0 0 Z " fill="#192A2D" transform="translate(17,22)"/>
<path d="M0 0 C2.97 0 5.94 0 9 0 C8.67 1.32 8.34 2.64 8 4 C2.25 4.125 2.25 4.125 0 3 C0 2.01 0 1.02 0 0 Z " fill="#A27F68" transform="translate(37,60)"/>
<path d="M0 0 C2.64 0 5.28 0 8 0 C7.67 1.65 7.34 3.3 7 5 C4.03 4.505 4.03 4.505 1 4 C0.67 2.68 0.34 1.36 0 0 Z " fill="#CDAA91" transform="translate(47,41)"/>
<path d="M0 0 C0.65381204 2.20661562 1.00000433 3.9998397 0.9375 6.3125 C1.01771323 9.76166891 1.97161994 12.72203855 3 16 C0 15 0 15 -1.25 12.9375 C-2.36902333 8.55465863 -2.05863529 4.11727058 0 0 Z " fill="#0E3D44" transform="translate(11,28)"/>
<path d="M0 0 C3 2 3 2 3.51171875 4.3828125 C3.56972656 5.28773437 3.62773438 6.19265625 3.6875 7.125 C3.75324219 8.03507812 3.81898437 8.94515625 3.88671875 9.8828125 C3.92410156 10.58148438 3.96148437 11.28015625 4 12 C1 11 1 11 -0.01953125 9.2578125 C-0.28121094 8.55398437 -0.54289062 7.85015625 -0.8125 7.125 C-1.08707031 6.42632812 -1.36164062 5.72765625 -1.64453125 5.0078125 C-2 3 -2 3 0 0 Z " fill="#092124" transform="translate(62,13)"/>
<path d="M0 0 C1.67542976 0.28604898 3.34385343 0.61781233 5 1 C4.67 2.32 4.34 3.64 4 5 C2.35 5.33 0.7 5.66 -1 6 C-1.042721 4.33388095 -1.04063832 2.66617115 -1 1 C-0.67 0.67 -0.34 0.34 0 0 Z " fill="#213C41" transform="translate(1,74)"/>
<path d="M0 0 C1.98 0.66 3.96 1.32 6 2 C5.67 3.32 5.34 4.64 5 6 C4.34 6 3.68 6 3 6 C2.67 6.66 2.34 7.32 2 8 C0.23537317 4.91190305 0 3.76687864 0 0 Z " fill="#101916" transform="translate(32,72)"/>
<path d="M0 0 C2.64 0 5.28 0 8 0 C7.67 1.32 7.34 2.64 7 4 C4.69 4 2.38 4 0 4 C0 2.68 0 1.36 0 0 Z " fill="#D2BA9B" transform="translate(31,42)"/>
<path d="M0 0 C0.66 0 1.32 0 2 0 C1.835 1.11375 1.67 2.2275 1.5 3.375 C0.9544542 6.72032033 0.9544542 6.72032033 1 9 C0.36096883 10.67745682 -0.30341637 12.34561387 -1 14 C-1.33 14 -1.66 14 -2 14 C-2.1799928 8.78020872 -1.97094808 4.92737019 0 0 Z " fill="#436B6D" transform="translate(9,22)"/>
<path d="M0 0 C0.66 0.33 1.32 0.66 2 1 C3.26229508 5.47540984 3.26229508 5.47540984 2 8 C0.68 8 -0.64 8 -2 8 C-2.125 5.125 -2.125 5.125 -2 2 C-1.34 1.34 -0.68 0.68 0 0 Z " fill="#CEBD9B" transform="translate(41,19)"/>
<path d="M0 0 C0.66 0 1.32 0 2 0 C2.33 0.66 2.66 1.32 3 2 C3.99 2 4.98 2 6 2 C5.34 3.32 4.68 4.64 4 6 C3.34 5.67 2.68 5.34 2 5 C1.67 5.66 1.34 6.32 1 7 C0.34 7 -0.32 7 -1 7 C-1.33 8.32 -1.66 9.64 -2 11 C-2.24042276 6.91281305 -1.42258812 3.82320557 0 0 Z " fill="#0B1719" transform="translate(56,11)"/>
<path d="M0 0 C2.31 0.33 4.62 0.66 7 1 C7 1.33 7 1.66 7 2 C5.35 2 3.7 2 2 2 C2.33 2.66 2.66 3.32 3 4 C3.99 4.33 4.98 4.66 6 5 C6 5.66 6 6.32 6 7 C3.36 7 0.72 7 -2 7 C-2 6.34 -2 5.68 -2 5 C-1.34 4.67 -0.68 4.34 0 4 C0 2.68 0 1.36 0 0 Z " fill="#192328" transform="translate(37,73)"/>
<path d="M0 0 C1.32 0 2.64 0 4 0 C4.33 2.64 4.66 5.28 5 8 C4.01 8.495 4.01 8.495 3 9 C2.34 8.01 1.68 7.02 1 6 C0.67 6 0.34 6 0 6 C0 4.02 0 2.04 0 0 Z " fill="#0A1419" transform="translate(54,69)"/>
<path d="M0 0 C0 0.66 0 1.32 0 2 C-3.3 2.66 -6.6 3.32 -10 4 C-7.26826666 -1.46346667 -5.50804693 -1.3397952 0 0 Z " fill="#092628" transform="translate(30,5)"/>
<path d="M0 0 C2 0 2 0 3.625 1.375 C5 3 5 3 5 5 C5.66 5 6.32 5 7 5 C6.67 6.32 6.34 7.64 6 9 C1.2 5.67692308 1.2 5.67692308 0.1875 2.25 C0.125625 1.5075 0.06375 0.765 0 0 Z " fill="#456564" transform="translate(62,7)"/>
<path d="M0 0 C1.32 0.66 2.64 1.32 4 2 C4 2.99 4 3.98 4 5 C2.02 5.33 0.04 5.66 -2 6 C-2 2 -2 2 0 0 Z " fill="#000404" transform="translate(60,26)"/>
<path d="M0 0 C1 3 1 3 0 6 C-2.64 5.67 -5.28 5.34 -8 5 C-7.67 3.68 -7.34 2.36 -7 1 C-7 1.66 -7 2.32 -7 3 C-4.69 2.01 -2.38 1.02 0 0 Z " fill="#2C3733" transform="translate(44,10)"/>
<path d="M0 0 C3.63 0.33 7.26 0.66 11 1 C11 1.33 11 1.66 11 2 C8.36 2 5.72 2 3 2 C3.33 3.32 3.66 4.64 4 6 C3.34 6 2.68 6 2 6 C1.67 6.66 1.34 7.32 1 8 C0.67 5.36 0.34 2.72 0 0 Z " fill="#A98970" transform="translate(44,39)"/>
<path d="M0 0 C0.99 0.33 1.98 0.66 3 1 C2.58578031 5.83256305 0.53586014 7.82679218 -3 11 C-3 8 -3 8 -1 5 C-0.34 5 0.32 5 1 5 C0.67 3.35 0.34 1.7 0 0 Z " fill="#153131" transform="translate(70,36)"/>
<path d="M0 0 C3.14958831 3.42346555 3.56179109 6.44262737 4 11 C3.01 10.34 2.02 9.68 1 9 C1 7.68 1 6.36 1 5 C-0.98 5.33 -2.96 5.66 -5 6 C-5 5.34 -5 4.68 -5 4 C-3.35 4 -1.7 4 0 4 C0 2.68 0 1.36 0 0 Z " fill="#5F6256" transform="translate(44,13)"/>
<path d="M0 0 C5.41538462 -0.36923077 5.41538462 -0.36923077 8.375 1.5 C8.91125 1.995 9.4475 2.49 10 3 C8.35 3 6.7 3 5 3 C4.67 4.32 4.34 5.64 4 7 C3.566875 6.0409375 3.566875 6.0409375 3.125 5.0625 C2.17176549 2.84793921 2.17176549 2.84793921 0 2 C0 1.34 0 0.68 0 0 Z " fill="#49534B" transform="translate(34,14)"/>
<path d="M0 0 C0.33 1.65 0.66 3.3 1 5 C-1.97 4.67 -4.94 4.34 -8 4 C-4.5 0 -4.5 0 0 0 Z " fill="#0F3337" transform="translate(31,1)"/>
<path d="M0 0 C0.66 0 1.32 0 2 0 C4.32590854 3.63423209 4.16265833 6.77088331 4 11 C3.01 10.67 2.02 10.34 1 10 C1.66 8.35 2.32 6.7 3 5 C2.01 4.67 1.02 4.34 0 4 C-0.33 3.01 -0.66 2.02 -1 1 C-0.67 0.67 -0.34 0.34 0 0 Z " fill="#1E393B" transform="translate(26,52)"/>
<path d="M0 0 C0 3.96 0 7.92 0 12 C-0.66 11.67 -1.32 11.34 -2 11 C-2 8.36 -2 5.72 -2 3 C-2.66 2.67 -3.32 2.34 -4 2 C-1 0 -1 0 0 0 Z " fill="#101511" transform="translate(30,17)"/>
<path d="M0 0 C1.98 0.66 3.96 1.32 6 2 C6 2.66 6 3.32 6 4 C3.125 4.125 3.125 4.125 0 4 C-0.66 3.34 -1.32 2.68 -2 2 C-1.34 1.34 -0.68 0.68 0 0 Z " fill="#9E8169" transform="translate(36,50)"/>
<path d="M0 0 C0 0.99 0 1.98 0 3 C-2.64 3 -5.28 3 -8 3 C-8 2.34 -8 1.68 -8 1 C-5.07175348 0.02391783 -3.04386724 -0.08226668 0 0 Z " fill="#5E4A3E" transform="translate(57,33)"/>
<path d="M0 0 C3.53586014 3.17320782 5.58578031 5.16743695 6 10 C5.01 9.67 4.02 9.34 3 9 C2.05078125 6.93359375 2.05078125 6.93359375 1.3125 4.4375 C1.06113281 3.61121094 0.80976562 2.78492188 0.55078125 1.93359375 C0.36902344 1.29550781 0.18726563 0.65742188 0 0 Z " fill="#977E67" transform="translate(45,22)"/>
<path d="M0 0 C0.66 0.66 1.32 1.32 2 2 C1.19152271 3.16945792 0.37810888 4.33550461 -0.4375 5.5 C-0.88996094 6.1496875 -1.34242187 6.799375 -1.80859375 7.46875 C-2.20175781 7.9740625 -2.59492187 8.479375 -3 9 C-3.33 9 -3.66 9 -4 9 C-4 7.02 -4 5.04 -4 3 C-2.68 3 -1.36 3 0 3 C0 2.01 0 1.02 0 0 Z " fill="#40453D" transform="translate(36,17)"/>
<path d="M0 0 C0.33 0 0.66 0 1 0 C0.67 2.31 0.34 4.62 0 7 C-0.66 7 -1.32 7 -2 7 C-2.66 7.66 -3.32 8.32 -4 9 C-3.67 7.02 -3.34 5.04 -3 3 C-2.01 2.67 -1.02 2.34 0 2 C0 1.34 0 0.68 0 0 Z " fill="#0B1B1D" transform="translate(18,16)"/>
<path d="M0 0 C0.66 0 1.32 0 2 0 C2 3.63 2 7.26 2 11 C0.35122815 7.70245629 -0.53158436 5.55995883 -1 2 C-0.67 1.34 -0.34 0.68 0 0 Z " fill="#485B50" transform="translate(51,67)"/>
<path d="M0 0 C0.66 0.33 1.32 0.66 2 1 C-1.625 7.875 -1.625 7.875 -5 9 C-4.42647107 5.12867972 -2.51295648 2.91827204 0 0 Z " fill="#4A6F64" transform="translate(21,64)"/>
<path d="M0 0 C-0.33 0.99 -0.66 1.98 -1 3 C-4.375 3.125 -4.375 3.125 -8 3 C-8.66 2.34 -9.32 1.68 -10 1 C-6.78548731 -0.60725635 -3.56387464 -0.05748185 0 0 Z " fill="#73463C" transform="translate(47,55)"/>
<path d="M0 0 C0.66 0 1.32 0 2 0 C1.67 1.98 1.34 3.96 1 6 C-1.31 6 -3.62 6 -6 6 C-6.33 5.34 -6.66 4.68 -7 4 C-4.03 4.495 -4.03 4.495 -1 5 C-0.67 3.35 -0.34 1.7 0 0 Z " fill="#AE836E" transform="translate(55,41)"/>
<path d="M0 0 C-0.33 1.32 -0.66 2.64 -1 4 C-1.99 3.34 -2.98 2.68 -4 2 C-5.98 3.32 -7.96 4.64 -10 6 C-8.26240984 0.78722952 -5.3189028 -0.4432419 0 0 Z " fill="#998471" transform="translate(45,18)"/>
<path d="M0 0 C1.875 0.25 1.875 0.25 4 1 C5.25 3.0625 5.25 3.0625 6 5 C4.68 5 3.36 5 2 5 C1.34 4.34 0.68 3.68 0 3 C0 2.01 0 1.02 0 0 Z " fill="#5B4834" transform="translate(32,66)"/>
<path d="M0 0 C0.99 0.495 0.99 0.495 2 1 C2 1.66 2 2.32 2 3 C2.66 3 3.32 3 4 3 C4.33 4.32 4.66 5.64 5 7 C4.01 7.495 4.01 7.495 3 8 C3 7.34 3 6.68 3 6 C2.01 6 1.02 6 0 6 C0 4.02 0 2.04 0 0 Z " fill="#7A523F" transform="translate(27,46)"/>
<path d="M0 0 C1 3 1 3 1 5 C1.99 5.33 2.98 5.66 4 6 C1.69 6 -0.62 6 -3 6 C-2.42655063 3.13275314 -2.1385485 2.1385485 0 0 Z " fill="#574035" transform="translate(47,33)"/>
<path d="M0 0 C0.33 0.66 0.66 1.32 1 2 C1.99 2.33 2.98 2.66 4 3 C3.34 4.65 2.68 6.3 2 8 C1.731875 7.360625 1.46375 6.72125 1.1875 6.0625 C0.11332248 3.66868314 0.11332248 3.66868314 -3 3 C-2.01 2.01 -1.02 1.02 0 0 Z " fill="#143C45" transform="translate(26,63)"/>
<path d="M0 0 C4.875 1.75 4.875 1.75 6 4 C4.68 4 3.36 4 2 4 C1.67 4.66 1.34 5.32 1 6 C0.67 4.02 0.34 2.04 0 0 Z " fill="#967159" transform="translate(35,56)"/>
<path d="M0 0 C1.65 0 3.3 0 5 0 C5 1.32 5 2.64 5 4 C4.01 4.33 3.02 4.66 2 5 C1.34 4.34 0.68 3.68 0 3 C0 2.01 0 1.02 0 0 Z " fill="#876350" transform="translate(31,49)"/>
<path d="M0 0 C1.98 0.66 3.96 1.32 6 2 C4.625 3.5 4.625 3.5 3 5 C2.34 5 1.68 5 1 5 C0.67 3.35 0.34 1.7 0 0 Z " fill="#1A2522" transform="translate(24,14)"/>
<path d="M0 0 C0.99 0 1.98 0 3 0 C3.33 0.99 3.66 1.98 4 3 C3.67 3.66 3.34 4.32 3 5 C1.68 5 0.36 5 -1 5 C-0.67 3.35 -0.34 1.7 0 0 Z " fill="#768A85" transform="translate(48,8)"/>
<path d="M0 0 C7.50769231 -0.36923077 7.50769231 -0.36923077 10 1.5 C10.495 2.2425 10.495 2.2425 11 3 C6.78121808 3.19622241 3.82989106 2.80230168 0 1 C0 0.67 0 0.34 0 0 Z " fill="#72A299" transform="translate(45,0)"/>
<path d="M0 0 C0.33 0.99 0.66 1.98 1 3 C0 4 0 4 -2.5625 4.0625 C-3.7690625 4.0315625 -3.7690625 4.0315625 -5 4 C-5.33 3.34 -5.66 2.68 -6 2 C-2.25 0 -2.25 0 0 0 Z " fill="#081A21" transform="translate(18,75)"/>
<path d="M0 0 C0.66 0 1.32 0 2 0 C1.67 1.65 1.34 3.3 1 5 C0.01 5.33 -0.98 5.66 -2 6 C-1.125 1.125 -1.125 1.125 0 0 Z " fill="#4E4233" transform="translate(47,65)"/>
<path d="M0 0 C0 1.65 0 3.3 0 5 C-1.98 5 -3.96 5 -6 5 C-5 2 -5 2 -3 0.8125 C-1 0 -1 0 0 0 Z " fill="#353934" transform="translate(32,27)"/>
<path d="M0 0 C0.66 0 1.32 0 2 0 C2 0.66 2 1.32 2 2 C3.65 2.33 5.3 2.66 7 3 C5.68 3.99 4.36 4.98 3 6 C0.8614515 3.8614515 0.57344937 2.86724686 0 0 Z " fill="#224044" transform="translate(30,0)"/>
<path d="M0 0 C2.97 0 5.94 0 9 0 C8.01 0.33 7.02 0.66 6 1 C5.67 1.99 5.34 2.98 5 4 C3.35 2.68 1.7 1.36 0 0 Z " fill="#4D726A" transform="translate(53,0)"/>
</svg>
